<svg width="16" height="16" viewBox="0 0 16 16" fill="none" xmlns="http://www.w3.org/2000/svg">
<g clip-path="url(#clip0_290_6258)">
<path fill-rule="evenodd" clip-rule="evenodd" d="M8.00001 11.4369C8.34519 11.4369 8.62501 11.1571 8.62501 10.8119V5.18694C8.62501 4.84176 8.34519 4.56194 8.00001 4.56194C7.65484 4.56194 7.37501 4.84176 7.37501 5.18694V10.8119C7.37501 11.1571 7.65484 11.4369 8.00001 11.4369Z" fill="currentColor"/>
<path fill-rule="evenodd" clip-rule="evenodd" d="M4.56251 7.99944C4.56251 8.34462 4.84234 8.62444 5.18751 8.62444H10.8125C11.1577 8.62444 11.4375 8.34462 11.4375 7.99944C11.4375 7.65426 11.1577 7.37444 10.8125 7.37444H5.18751C4.84234 7.37444 4.56251 7.65426 4.56251 7.99944Z" fill="currentColor"/>
<path fill-rule="evenodd" clip-rule="evenodd" d="M0 8C0 12.4183 3.58173 16 8 16C9.51389 16 10.9313 15.5789 12.1394 14.8471C12.4347 14.6682 12.529 14.2839 12.3502 13.9887C12.1714 13.6935 11.7871 13.5991 11.4918 13.7779C10.4735 14.3948 9.27917 14.75 8 14.75C4.27208 14.75 1.25 11.7279 1.25 8C1.25 4.27205 4.27208 1.25 8 1.25C11.7279 1.25 14.75 4.27205 14.75 8C14.75 9.38418 14.3236 10.6722 13.6054 11.7464C13.4136 12.0333 13.4907 12.4215 13.7776 12.6133C14.0646 12.8052 14.4527 12.7281 14.6446 12.4411C15.4925 11.1728 16 9.64501 16 8C16 3.5817 12.4183 0 8 0C3.58173 0 0 3.5817 0 8Z" fill="currentColor"/>
</g>
<defs>
<clipPath id="clip0_290_6258">
<rect width="16" height="16" fill="white"/>
</clipPath>
</defs>
</svg>
