<svg width="20" height="20" viewBox="0 0 20 20" fill="none" xmlns="http://www.w3.org/2000/svg">
<path d="M15.0353 9.57236C15.0143 7.29834 16.945 6.19202 17.0333 6.14051C15.9399 4.58615 14.2451 4.37378 13.6495 4.35685C12.2261 4.2108 10.8454 5.18729 10.1203 5.18729C9.38069 5.18729 8.26409 4.37096 7.06066 4.39495C5.51204 4.41823 4.06328 5.29242 3.26871 6.64993C1.62891 9.41785 2.85189 13.4854 4.42294 15.7228C5.20883 16.8185 6.12714 18.0419 7.32913 17.9989C8.50507 17.9516 8.94433 17.2679 10.3634 17.2679C11.7695 17.2679 12.182 17.9989 13.4078 17.9714C14.6699 17.9516 15.4645 16.8707 16.2228 15.7651C17.131 14.5092 17.4957 13.2723 17.5102 13.2088C17.4806 13.199 15.0592 12.298 15.0353 9.57236Z" fill="currentColor"/>
<path d="M12.7196 2.88504C13.3521 2.11386 13.7849 1.06469 13.6647 0C12.7493 0.0395115 11.6045 0.617367 10.9452 1.37161C10.362 2.03625 9.84094 3.12564 9.97554 4.15012C11.0038 4.22491 12.0597 3.64423 12.7196 2.88504Z" fill="currentColor"/>
</svg>
