<svg width="16" height="17" viewBox="0 0 16 17" fill="none" xmlns="http://www.w3.org/2000/svg">
<path d="M9.88546 13.5893C9.71114 13.5893 9.53494 13.5554 9.36649 13.4856C8.86205 13.2769 8.53613 12.7911 8.53613 12.2481V11.0954C8.53613 10.7995 8.77594 10.5596 9.07184 10.5596C9.36774 10.5596 9.60766 10.7995 9.60766 11.0954V12.2481C9.60766 12.4086 9.72558 12.4746 9.77623 12.4956C9.82781 12.517 9.96027 12.5541 10.0758 12.4385L13.6293 8.88057C13.8387 8.67099 13.8387 8.33 13.6293 8.12042L10.0758 4.56262C9.96027 4.447 9.82781 4.48404 9.77633 4.50538C9.72558 4.52641 9.60766 4.59254 9.60766 4.75305V7.99151C9.60766 8.58237 9.12698 9.06305 8.53613 9.06305H1.67854C1.38264 9.06305 1.14282 8.82323 1.14282 8.52733C1.14282 8.23144 1.38264 7.99151 1.67854 7.99151H8.53613V4.75305C8.53613 4.21 8.86205 3.72409 9.36649 3.51535C9.8727 3.30588 10.4487 3.41972 10.8338 3.80539L14.3874 7.3632C15.0137 7.99036 15.0137 9.01074 14.3874 9.6379L10.8338 13.1957C10.5769 13.453 10.2349 13.5892 9.88546 13.5893Z" fill="currentColor"/>
</svg>
