<svg width="16" height="17" viewBox="0 0 16 17" fill="none" xmlns="http://www.w3.org/2000/svg">
<path d="M6.44367 15.7138C6.96291 15.7146 7.48216 15.7153 8.00141 15.7153L8.00152 15.7156C8.50675 15.7156 9.01198 15.7151 9.51721 15.7146C10.8023 15.7133 12.0875 15.712 13.3725 15.719C13.9972 15.7224 14.5681 15.5682 15.049 15.1767C15.678 14.6645 16.0151 13.9911 15.9917 13.1683C15.9828 12.8567 15.7785 12.6361 15.4826 12.6119C15.2975 12.5968 15.0227 12.68 14.9262 12.8167C14.8207 12.966 14.7791 13.1616 14.7378 13.3558C14.723 13.425 14.7083 13.4941 14.6908 13.5608C14.551 14.0924 14.0532 14.4675 13.4724 14.4675C13.1069 14.4676 12.7414 14.4676 12.3759 14.4677C9.09479 14.4682 5.81377 14.4686 2.53266 14.4635C2.35828 14.4633 2.1684 14.4336 2.01228 14.3608C1.46243 14.1044 1.24969 13.6462 1.25178 13.0508C1.25595 11.896 1.25573 10.7413 1.25551 9.5865C1.25532 8.61005 1.25513 7.6336 1.2576 6.65715C1.25835 6.33764 1.2879 6.01761 1.31732 5.6989L1.3195 5.67521C1.34578 5.39001 1.76633 4.9135 2.04944 4.88129C2.27265 4.85586 2.49733 4.84303 2.722 4.83019C2.95006 4.81716 3.17812 4.80414 3.40464 4.77794C3.69754 4.74408 4.00616 4.70416 4.26937 4.58344C4.87628 4.30506 5.17391 3.76027 5.34399 3.14325C5.44163 2.78911 5.68758 2.53601 6.00269 2.53535C7.34953 2.53239 8.69638 2.53206 10.0432 2.53953C10.1444 2.54008 10.2968 2.57966 10.3372 2.65102C10.5229 2.97866 10.7046 3.31378 10.8363 3.66539C11.0172 4.14838 11.7303 4.72989 12.2451 4.75188C12.6359 4.76848 13.0271 4.77992 13.4182 4.78212C14.2141 4.78673 14.7497 5.31965 14.7497 6.11621C14.7497 6.4916 14.7497 6.86699 14.7497 7.24239C14.7496 8.1809 14.7496 9.11943 14.7498 10.0579C14.7499 10.4372 15.0187 10.7202 15.3762 10.7195C15.732 10.7187 15.9973 10.4366 15.9973 10.0574C15.9974 9.66617 15.9969 9.27499 15.9964 8.8838C15.9952 7.97575 15.9941 7.06769 15.9999 6.15964C16.0038 5.56373 15.8603 5.02092 15.4999 4.54276C15.0975 4.00886 14.566 3.66242 13.9052 3.57468C13.5804 3.53157 13.2494 3.533 12.9188 3.53442C12.8059 3.53491 12.6931 3.5354 12.5806 3.53411C12.1697 3.52949 12.0049 3.24539 11.9031 2.96514C11.886 2.91803 11.8691 2.87047 11.8523 2.82277C11.76 2.56199 11.6662 2.29678 11.5137 2.07501C11.1391 1.53044 10.5864 1.28394 9.92306 1.28537C9.55942 1.28617 9.19574 1.28492 8.83207 1.28368C8.09618 1.28116 7.3603 1.27864 6.62476 1.29307C6.1775 1.30175 5.72056 1.34452 5.28836 1.45271C4.85506 1.56123 4.55095 1.89381 4.35348 2.29171C4.29077 2.41806 4.24225 2.5525 4.19386 2.68657C4.12587 2.87498 4.05813 3.06267 3.95163 3.22615C3.85048 3.38139 3.59562 3.5086 3.40288 3.51938C3.24249 3.52832 3.08132 3.53002 2.92033 3.53172C2.365 3.53757 1.81192 3.54339 1.30092 3.84658C0.488745 4.32848 0.0219107 5.03554 0.0137747 5.98175C-0.000888744 7.69661 0.00246943 9.41166 0.00582759 11.1267C0.00685069 11.6492 0.00787378 12.1717 0.00838727 12.6942C0.00846749 12.7652 0.00634264 12.8371 0.00421188 12.9092C-0.00241753 13.1336 -0.00910403 13.3599 0.0503869 13.5658C0.170669 13.9818 0.307662 14.4242 0.56032 14.7642C1.06465 15.4427 1.79337 15.7252 2.64689 15.7192C3.91244 15.7102 5.17805 15.712 6.44367 15.7138Z" fill="currentColor"/>
<path fill-rule="evenodd" clip-rule="evenodd" d="M8.029 13.2175C10.1748 13.2203 11.9354 11.4635 11.9384 9.3161H11.9385C11.9415 7.17236 10.1877 5.41486 8.04 5.40936C5.89505 5.40387 4.13667 7.1562 4.1304 9.30544C4.12424 11.451 5.88174 13.2146 8.029 13.2175ZM8.03516 6.65704C9.49207 6.65814 10.6882 7.85524 10.6882 9.31225C10.6882 10.7712 9.49481 11.966 8.03637 11.9672C6.57661 11.9685 5.37764 10.7709 5.37808 9.31225C5.37852 7.85513 6.5787 6.65594 8.03516 6.65704Z" fill="currentColor"/>
</svg>
