<svg width="16" height="16" viewBox="0 0 16 16" fill="none" xmlns="http://www.w3.org/2000/svg">
<g clip-path="url(#clip0_220_2895)">
<path fill-rule="evenodd" clip-rule="evenodd" d="M0.766663 1.36666C0.766663 1.03529 1.03529 0.766663 1.36666 0.766663H2.7C2.98294 0.766663 3.22744 0.964337 3.28669 1.24101L3.899 4.1H14.7267C14.9086 4.1 15.0808 4.18258 15.1947 4.32453C15.3085 4.46647 15.3518 4.65242 15.3124 4.83007L14.2126 9.78233C14.118 10.212 13.8796 10.5967 13.537 10.8726C13.1942 11.1485 12.7676 11.2993 12.3276 11.3L5.8127 11.3C5.36567 11.3083 4.92949 11.1613 4.57853 10.884C4.22566 10.6053 3.981 10.2122 3.88668 9.77251L2.83327 4.85395C2.82844 4.83571 2.82444 4.81713 2.82133 4.79825L2.21489 1.96666H1.36666C1.03529 1.96666 0.766663 1.69803 0.766663 1.36666ZM4.15601 5.3L5.05998 9.52081C5.09579 9.68751 5.18861 9.83673 5.32241 9.94243C5.45626 10.0482 5.62278 10.1039 5.79332 10.1001L5.80666 10.0998L12.3257 10.1C12.4924 10.0996 12.6545 10.0424 12.7844 9.93787C12.9144 9.8332 13.0048 9.68732 13.0407 9.52433L13.9788 5.3H4.15601ZM4.06666 14C4.06666 13.3004 4.63377 12.7333 5.33333 12.7333C6.03289 12.7333 6.6 13.3004 6.6 14C6.6 14.6996 6.03289 15.2667 5.33333 15.2667C4.63377 15.2667 4.06666 14.6996 4.06666 14ZM11.4 14C11.4 13.3004 11.9671 12.7333 12.6667 12.7333C13.3662 12.7333 13.9333 13.3004 13.9333 14C13.9333 14.6996 13.3662 15.2667 12.6667 15.2667C11.9671 15.2667 11.4 14.6996 11.4 14Z" fill="currentColor"/>
</g>
<defs>
<clipPath id="clip0_220_2895">
<rect width="16" height="16" fill="white"/>
</clipPath>
</defs>
</svg>
