<svg width="16" height="16" viewBox="0 0 16 16" fill="none" xmlns="http://www.w3.org/2000/svg">
<g clip-path="url(#clip0_342_5518)">
<path fill-rule="evenodd" clip-rule="evenodd" d="M1.99999 -0.120042C1.85599 -0.0918015 1.65686 -0.0373363 1.55198 0.00250454C1.40102 0.0598498 1.37598 0.0714181 1.37598 0.0838823C1.37598 0.0905385 1.36158 0.0959786 1.34398 0.0959786C1.32638 0.0959786 1.31198 0.103179 1.31198 0.111979C1.31198 0.120779 1.29758 0.127979 1.27998 0.127979C1.26238 0.127979 1.24798 0.135179 1.24798 0.14398C1.24798 0.15278 1.23358 0.15998 1.21597 0.15998C1.19837 0.15998 1.18397 0.1663 1.18397 0.174044C1.18397 0.181772 1.16237 0.197053 1.13597 0.207981C1.10957 0.218909 1.08797 0.23419 1.08797 0.241918C1.08797 0.249662 1.07853 0.255982 1.067 0.255982C1.05544 0.255982 1.03055 0.270382 1.01165 0.287983C0.99277 0.305583 0.969809 0.319983 0.960641 0.319983C0.951473 0.319983 0.943969 0.327184 0.943969 0.335984C0.943969 0.344784 0.936065 0.351984 0.926384 0.351984C0.91672 0.351984 0.888624 0.373585 0.863967 0.399985C0.839311 0.426386 0.81403 0.447986 0.807806 0.447986C0.793822 0.447986 0.52796 0.715 0.52796 0.729032C0.52796 0.7346 0.506359 0.759337 0.479959 0.783994C0.453558 0.80865 0.431942 0.834939 0.431926 0.842411C0.431894 0.849883 0.410309 0.881196 0.383957 0.911996C0.357604 0.942797 0.33602 0.977006 0.335988 0.987998C0.335972 0.999006 0.329635 1.008 0.321891 1.008C0.314163 1.008 0.298883 1.0296 0.287954 1.056C0.277026 1.0824 0.261746 1.104 0.254018 1.104C0.246274 1.104 0.239953 1.11779 0.239953 1.13467C0.239953 1.15154 0.234289 1.16773 0.227361 1.17067C0.211537 1.17738 0.143455 1.32191 0.0967183 1.44801C0.0771499 1.50081 0.0545733 1.56055 0.0465412 1.58076C0.038509 1.60097 0.0319488 1.63518 0.0319488 1.65676C0.0319488 1.67835 0.0247487 1.69601 0.0159485 1.69601C0.00714831 1.69601 -5.18486e-05 1.72481 -5.18486e-05 1.76001C-5.18486e-05 1.79522 -0.007252 1.82402 -0.0160522 1.82402C-0.0248524 1.82402 -0.0320526 1.86319 -0.0320526 1.91107C-0.0320526 1.95896 -0.0392527 2.00258 -0.0480529 2.00802C-0.0702454 2.02173 -0.0702454 13.6906 -0.0480529 13.7043C-0.0392527 13.7097 -0.0320526 13.7533 -0.0320526 13.8012C-0.0320526 13.8491 -0.0248524 13.8883 -0.0160522 13.8883C-0.007252 13.8883 -5.18486e-05 13.913 -5.18486e-05 13.9433C-5.18486e-05 13.9736 0.00714831 14.0028 0.0159485 14.0083C0.0247487 14.0137 0.0319809 14.0339 0.0320129 14.0532C0.0320449 14.0725 0.0543173 14.1459 0.0815179 14.2163C0.108703 14.2867 0.134719 14.3605 0.139327 14.3803C0.143919 14.4001 0.154048 14.4163 0.161824 14.4163C0.169584 14.4163 0.175952 14.4307 0.175952 14.4483C0.175952 14.4659 0.183152 14.4803 0.191952 14.4803C0.200753 14.4803 0.207953 14.4941 0.207953 14.511C0.207953 14.5278 0.213361 14.544 0.219953 14.547C0.234977 14.5536 0.28693 14.6389 0.298803 14.6763C0.303699 14.6917 0.314051 14.7043 0.321827 14.7043C0.329587 14.7043 0.335972 14.7133 0.335972 14.7243C0.335988 14.7353 0.35218 14.7635 0.371972 14.787C0.455174 14.8856 0.463958 14.8972 0.463958 14.909C0.463958 14.9157 0.478359 14.9316 0.495959 14.9443C0.513559 14.957 0.52796 14.9733 0.52796 14.9805C0.52796 15.0047 0.828862 15.29 0.928145 15.3601C0.958849 15.3817 0.997922 15.4122 1.01499 15.4279C1.03205 15.4435 1.05308 15.4563 1.06173 15.4563C1.07037 15.4563 1.08882 15.4662 1.10271 15.4782C1.11661 15.4903 1.20357 15.5376 1.29598 15.5834C1.38838 15.6292 1.47648 15.6734 1.49176 15.6815C1.50704 15.6897 1.53405 15.6963 1.55176 15.6963C1.56949 15.6963 1.58398 15.7035 1.58398 15.7123C1.58398 15.7211 1.60558 15.7283 1.63198 15.7283C1.65838 15.7283 1.67999 15.7355 1.67999 15.7443C1.67999 15.7531 1.70519 15.7603 1.73599 15.7603C1.76679 15.7603 1.79199 15.7675 1.79199 15.7763C1.79199 15.7851 1.81719 15.7923 1.84799 15.7923C1.87879 15.7923 1.90399 15.7995 1.90399 15.8083C1.90399 15.8172 1.94666 15.8243 1.99999 15.8243C2.05332 15.8243 2.09599 15.8314 2.09599 15.8403C2.09599 15.851 4.05336 15.8563 7.93612 15.8563C11.8189 15.8563 13.7762 15.851 13.7762 15.8403C13.7762 15.8314 13.8189 15.8243 13.8723 15.8243C13.9256 15.8243 13.9683 15.8172 13.9683 15.8083C13.9683 15.7995 13.9935 15.7923 14.0243 15.7923C14.0551 15.7923 14.0803 15.7851 14.0803 15.7763C14.0803 15.7675 14.1055 15.7603 14.1363 15.7603C14.1671 15.7603 14.1923 15.7531 14.1923 15.7443C14.1923 15.7355 14.2139 15.7283 14.2403 15.7283C14.2667 15.7283 14.2883 15.7211 14.2883 15.7123C14.2883 15.7035 14.3028 15.6963 14.3205 15.6963C14.3382 15.6963 14.3652 15.6896 14.3805 15.6815C14.3958 15.6733 14.4911 15.6254 14.5923 15.5751C14.6935 15.5247 14.7787 15.4774 14.7816 15.4699C14.7845 15.4624 14.7953 15.4563 14.8056 15.4563C14.8159 15.4563 14.8435 15.4401 14.8669 15.4203C14.9628 15.3394 14.977 15.3283 14.9842 15.3283C15.002 15.3283 15.3443 15.0009 15.3443 14.9838C15.3443 14.9784 15.3533 14.9649 15.3643 14.9537C15.3753 14.9425 15.4023 14.9097 15.4243 14.8807C15.4463 14.8517 15.4805 14.8092 15.5003 14.7862C15.5201 14.7631 15.5363 14.7353 15.5363 14.7243C15.5363 14.7133 15.5417 14.7042 15.5483 14.7042C15.5549 14.7041 15.5682 14.6879 15.5779 14.6682C15.6252 14.5719 15.6735 14.4877 15.6843 14.483C15.6909 14.48 15.6963 14.4672 15.6963 14.4544C15.6963 14.4417 15.7135 14.3973 15.7345 14.3558C15.7555 14.3143 15.7819 14.2479 15.7932 14.2083C15.8045 14.1687 15.8197 14.1294 15.827 14.1211C15.8343 14.1127 15.8403 14.0862 15.8403 14.062C15.8403 14.0379 15.8475 14.0137 15.8563 14.0083C15.8651 14.0028 15.8723 13.9736 15.8723 13.9433C15.8723 13.913 15.8795 13.8883 15.8883 13.8883C15.8972 13.8883 15.9043 13.8456 15.9043 13.7923C15.9043 13.7389 15.9114 13.6963 15.9203 13.6963C15.9303 13.6963 15.9363 13.6029 15.9363 13.4483C15.9363 13.2936 15.9303 13.2003 15.9203 13.2003C15.9115 13.2003 15.9043 13.1826 15.9043 13.161C15.9043 13.1149 15.873 13.0403 15.8537 13.0403C15.8463 13.0403 15.8403 13.029 15.8403 13.0152C15.8403 12.9523 15.5842 12.7523 15.5037 12.7523C15.4875 12.7523 15.4697 12.7451 15.4643 12.7363C15.4512 12.7151 15.1523 12.7151 15.1523 12.7363C15.1523 12.7451 15.1307 12.7523 15.1043 12.7523C15.0779 12.7523 15.0563 12.7595 15.0563 12.7683C15.0563 12.7771 15.0419 12.7843 15.0243 12.7843C15.0067 12.7843 14.9923 12.7915 14.9923 12.8003C14.9923 12.8091 14.9852 12.8163 14.9765 12.8163C14.9311 12.8163 14.807 12.9513 14.7497 13.0629C14.7006 13.1586 14.6789 13.2703 14.6618 13.5163C14.6574 13.5801 14.6471 13.6323 14.639 13.6323C14.6309 13.6323 14.6243 13.6539 14.6243 13.6803C14.6243 13.7067 14.6171 13.7283 14.6083 13.7283C14.5995 13.7283 14.5923 13.7535 14.5923 13.7843C14.5923 13.8151 14.5864 13.8403 14.5793 13.8403C14.5721 13.8403 14.5563 13.8655 14.5443 13.8963C14.5322 13.9271 14.5164 13.9523 14.5093 13.9523C14.5021 13.9523 14.4963 13.9667 14.4963 13.9843C14.4963 14.0019 14.4891 14.0163 14.4803 14.0163C14.4715 14.0163 14.4643 14.0244 14.4643 14.0344C14.4643 14.0444 14.4513 14.0642 14.4355 14.0784C14.4197 14.0926 14.3893 14.1295 14.368 14.1603C14.3244 14.2235 14.2948 14.2563 14.2816 14.2563C14.271 14.2563 14.2191 14.298 14.167 14.3483C14.1465 14.3681 14.1222 14.3843 14.113 14.3843C14.1038 14.3843 14.0963 14.3915 14.0963 14.4003C14.0963 14.4091 14.0819 14.4163 14.0643 14.4163C14.0467 14.4163 14.0323 14.4235 14.0323 14.4323C14.0323 14.4411 14.0209 14.4483 14.0071 14.4483C13.9933 14.4483 13.9712 14.4591 13.958 14.4723C13.9448 14.4855 13.9147 14.5005 13.8911 14.5056C13.8675 14.5108 13.8015 14.5306 13.7442 14.5496L13.6402 14.5843H7.9439H2.24755L2.11977 14.5463C1.94313 14.4938 1.90399 14.4786 1.90399 14.4624C1.90399 14.4546 1.88959 14.4483 1.87199 14.4483C1.85439 14.4483 1.83999 14.4411 1.83999 14.4323C1.83999 14.4235 1.82559 14.4163 1.80799 14.4163C1.79039 14.4163 1.77599 14.4091 1.77599 14.4003C1.77599 14.3915 1.76677 14.3843 1.75552 14.3843C1.74426 14.3843 1.72467 14.3699 1.71199 14.3523C1.6993 14.3347 1.6813 14.3203 1.67198 14.3203C1.66267 14.3203 1.64467 14.3059 1.63198 14.2883C1.6193 14.2707 1.6028 14.2563 1.59531 14.2563C1.57757 14.2563 1.55185 14.2292 1.50422 14.1603C1.48292 14.1295 1.45256 14.0926 1.43673 14.0784C1.42092 14.0642 1.40798 14.0444 1.40798 14.0344C1.40798 14.0244 1.40078 14.0163 1.39198 14.0163C1.38318 14.0163 1.37598 14.0019 1.37598 13.9843C1.37598 13.9667 1.37012 13.9523 1.36297 13.9523C1.3558 13.9523 1.34006 13.9271 1.32798 13.8963C1.3159 13.8655 1.30015 13.8403 1.29298 13.8403C1.28583 13.8403 1.27998 13.8151 1.27998 13.7843C1.27998 13.7535 1.27278 13.7283 1.26398 13.7283C1.25518 13.7283 1.24798 13.7067 1.24798 13.6803C1.24798 13.6539 1.24135 13.6323 1.23324 13.6323C1.22513 13.6323 1.21365 13.5765 1.20772 13.5083C1.19364 13.3462 1.19364 2.35006 1.20772 2.18802C1.21365 2.11983 1.22513 2.06402 1.23324 2.06402C1.24135 2.06402 1.24798 2.04242 1.24798 2.01602C1.24798 1.98962 1.25518 1.96802 1.26398 1.96802C1.27278 1.96802 1.27998 1.94282 1.27998 1.91202C1.27998 1.88122 1.28718 1.85602 1.29598 1.85602C1.30478 1.85602 1.31198 1.84658 1.31198 1.83504C1.31198 1.82349 1.32638 1.79859 1.34398 1.7797C1.36158 1.76082 1.37598 1.73425 1.37598 1.72069C1.37598 1.70712 1.38318 1.69601 1.39198 1.69601C1.40078 1.69601 1.40798 1.68497 1.40798 1.67149C1.40798 1.65798 1.43139 1.62259 1.45998 1.59281C1.48857 1.56305 1.53064 1.51828 1.55342 1.49335C1.60046 1.4419 1.72395 1.33924 1.75042 1.32961C1.76008 1.32609 1.77159 1.31879 1.77599 1.3134C1.78039 1.30799 1.8182 1.28634 1.85999 1.26527C1.90178 1.24421 1.93599 1.2209 1.93599 1.21349C1.93599 1.20607 1.95716 1.2 1.98305 1.2C2.00894 1.2 2.03455 1.1928 2.03999 1.184C2.04543 1.1752 2.07105 1.168 2.09694 1.168C2.12283 1.168 2.144 1.1608 2.144 1.152C2.144 1.14287 2.192 1.136 2.256 1.136C2.32 1.136 2.368 1.12914 2.368 1.12C2.368 1.10936 4.23471 1.104 7.93612 1.104C11.6375 1.104 13.5042 1.10936 13.5042 1.12C13.5042 1.12901 13.5493 1.136 13.6073 1.136C13.664 1.136 13.7148 1.1432 13.7202 1.152C13.7257 1.1608 13.7509 1.168 13.7762 1.168C13.8016 1.168 13.8268 1.1752 13.8323 1.184C13.8377 1.1928 13.8633 1.2 13.8892 1.2C13.9151 1.2 13.9363 1.20607 13.9363 1.21349C13.9363 1.2209 13.9705 1.24431 14.0123 1.26549C14.054 1.28668 14.0907 1.30941 14.0936 1.31601C14.0965 1.32261 14.1085 1.32801 14.1203 1.32801C14.132 1.32801 14.144 1.33367 14.1469 1.3406C14.1499 1.34753 14.1847 1.37812 14.2243 1.4086C14.2639 1.43908 14.3107 1.48134 14.3283 1.50251C14.3459 1.52369 14.3837 1.56484 14.4123 1.59398C14.4409 1.62312 14.4643 1.65798 14.4643 1.67149C14.4643 1.68497 14.4715 1.69601 14.4803 1.69601C14.4891 1.69601 14.4963 1.70712 14.4963 1.72069C14.4963 1.73425 14.5107 1.76082 14.5283 1.7797C14.5459 1.79859 14.5603 1.82349 14.5603 1.83504C14.5603 1.84658 14.5675 1.85602 14.5763 1.85602C14.5851 1.85602 14.5923 1.88122 14.5923 1.91202C14.5923 1.94282 14.5995 1.96802 14.6083 1.96802C14.6171 1.96802 14.6243 1.98818 14.6243 2.01282C14.6243 2.03746 14.6309 2.06445 14.639 2.07282C14.6471 2.08117 14.6586 2.13842 14.6646 2.20002C14.6706 2.26163 14.6801 4.13727 14.6859 6.36812L14.6963 10.4242L14.7473 10.5219C14.8543 10.7265 15.0816 10.8642 15.3123 10.8642C15.4796 10.8642 15.6215 10.8045 15.7542 10.6783C15.8015 10.6332 15.8403 10.5846 15.8403 10.5703C15.8403 10.5559 15.8457 10.5441 15.8523 10.5441C15.8702 10.5439 15.9043 10.4632 15.9043 10.421C15.9043 10.4008 15.9115 10.3842 15.9203 10.3842C15.9309 10.3842 15.9363 8.97884 15.9363 6.20011C15.9363 3.42138 15.9309 2.01602 15.9203 2.01602C15.9114 2.01602 15.9043 1.97335 15.9043 1.92002C15.9043 1.86669 15.8972 1.82402 15.8883 1.82402C15.8795 1.82402 15.8723 1.79522 15.8723 1.76001C15.8723 1.72481 15.8651 1.69601 15.8563 1.69601C15.8475 1.69601 15.8403 1.67979 15.8403 1.65995C15.8403 1.62224 15.7875 1.46711 15.7328 1.34401C15.7152 1.3044 15.6909 1.24861 15.6787 1.22C15.6665 1.19141 15.651 1.168 15.6444 1.168C15.6377 1.168 15.6323 1.1536 15.6323 1.136C15.6323 1.1184 15.626 1.104 15.6182 1.104C15.6105 1.104 15.5952 1.0824 15.5843 1.056C15.5734 1.0296 15.5581 1.008 15.5504 1.008C15.5426 1.008 15.5363 0.997134 15.5363 0.983854C15.5363 0.970574 15.5147 0.937101 15.4883 0.909484C15.4619 0.881852 15.4403 0.852411 15.4403 0.844043C15.4403 0.835675 15.4187 0.80865 15.3923 0.783994C15.3659 0.759337 15.3443 0.7346 15.3443 0.729032C15.3443 0.713832 15.076 0.447986 15.0606 0.447986C15.0533 0.447986 15.037 0.433586 15.0243 0.415986C15.0116 0.398385 14.9936 0.383985 14.9843 0.383985C14.975 0.383985 14.957 0.369585 14.9443 0.351984C14.9316 0.334384 14.9136 0.319983 14.9043 0.319983C14.895 0.319983 14.877 0.305583 14.8643 0.287983C14.8516 0.270382 14.8284 0.255982 14.8127 0.255982C14.7971 0.255982 14.7843 0.249662 14.7843 0.241918C14.7843 0.23419 14.7627 0.218909 14.7363 0.207981C14.7099 0.197053 14.6883 0.181772 14.6883 0.174044C14.6883 0.1663 14.6739 0.15998 14.6563 0.15998C14.6387 0.15998 14.6243 0.15278 14.6243 0.14398C14.6243 0.135179 14.6099 0.127979 14.5923 0.127979C14.5747 0.127979 14.5603 0.120779 14.5603 0.111979C14.5603 0.103179 14.5459 0.0959786 14.5283 0.0959786C14.5107 0.0959786 14.4963 0.0905385 14.4963 0.0838823C14.4963 0.0501376 14.1192 -0.0720251 13.8643 -0.120874C13.7028 -0.151819 2.15788 -0.151003 1.99999 -0.120042ZM12.4547 4.60857C12.3414 4.63104 12.2356 4.69195 12.1322 4.7943C12.0772 4.84875 12.0322 4.90039 12.0322 4.90908C12.0322 4.91775 11.9962 4.9616 11.9522 5.00655C11.9082 5.05148 11.8722 5.09455 11.8722 5.10223C11.8722 5.10993 11.8434 5.14591 11.8082 5.18219C11.773 5.21846 11.7442 5.25204 11.7442 5.25684C11.7442 5.26163 11.7267 5.28305 11.7053 5.30446C11.6839 5.32585 11.6461 5.37053 11.6213 5.40373C11.5965 5.43693 11.5675 5.47328 11.557 5.4845C11.539 5.50349 11.4313 5.63559 11.4041 5.67194C11.3974 5.68082 11.3669 5.7165 11.3361 5.75122C11.3053 5.78594 11.2802 5.82071 11.2802 5.82849C11.2802 5.83625 11.2514 5.87028 11.2162 5.90411C11.181 5.93793 11.1522 5.97047 11.1522 5.97643C11.1522 5.98239 11.1306 6.00745 11.1042 6.03211C11.0778 6.05676 11.0562 6.08118 11.0562 6.08635C11.0562 6.09694 11.0221 6.13944 10.954 6.21371C10.9286 6.24144 10.8962 6.28211 10.882 6.30411C10.8678 6.32611 10.8434 6.35851 10.8278 6.37612C10.7346 6.4814 10.7082 6.51271 10.6722 6.56052C10.6502 6.58975 10.616 6.63009 10.5962 6.65017C10.5764 6.67025 10.5602 6.69059 10.5602 6.69537C10.5602 6.70017 10.5314 6.73376 10.4962 6.77003C10.461 6.8063 10.4322 6.84251 10.4322 6.85048C10.4322 6.85845 10.3998 6.89738 10.3602 6.93698C10.3206 6.97658 10.2882 7.01539 10.2882 7.02325C10.2882 7.03109 10.2612 7.06573 10.2282 7.10021C10.1952 7.13471 10.125 7.21879 10.0722 7.28706C10.0194 7.35534 9.94556 7.44406 9.90816 7.48422C9.87077 7.52438 9.84016 7.56385 9.84016 7.57193C9.84016 7.58003 9.81269 7.61309 9.77912 7.64539C9.74555 7.67771 9.71136 7.71618 9.70312 7.7309C9.68854 7.75696 9.63056 7.82731 9.49224 7.98676C9.45486 8.02983 9.4118 8.08465 9.39651 8.1086C9.38122 8.13255 9.34879 8.17124 9.32444 8.19457C9.30009 8.2179 9.28015 8.24491 9.28015 8.25457C9.28015 8.26425 9.27295 8.27216 9.26415 8.27216C9.25535 8.27216 9.24815 8.27992 9.24815 8.28941C9.24815 8.29891 9.21935 8.33433 9.18415 8.36816C9.14895 8.40198 9.12015 8.43741 9.12015 8.44691C9.12015 8.4564 9.11295 8.46416 9.10415 8.46416C9.09535 8.46416 9.08815 8.4716 9.08815 8.48069C9.08815 8.48979 9.06475 8.52123 9.03615 8.55058C9.00754 8.57992 8.97323 8.61749 8.9599 8.63405C8.94656 8.65061 8.89256 8.7181 8.8399 8.78401C8.78723 8.84993 8.72793 8.92046 8.70814 8.94075C8.68835 8.96102 8.67214 8.98432 8.67214 8.99248C8.67214 9.00065 8.63974 9.03973 8.60014 9.07933C8.56054 9.11893 8.52813 9.15563 8.52813 9.1609C8.52813 9.16616 8.51914 9.17997 8.50813 9.19159C8.49714 9.2032 8.46293 9.24293 8.43213 9.27986C8.40133 9.3168 8.34914 9.37698 8.31613 9.41359C8.28314 9.45022 8.25613 9.48481 8.25613 9.49049C8.25613 9.49615 8.23634 9.52212 8.21213 9.54817C8.15712 9.60739 8.09547 9.68281 8.06413 9.72926C8.05093 9.74883 8.01673 9.78875 7.98812 9.81798C7.95951 9.84722 7.93612 9.87488 7.93612 9.87947C7.93612 9.88954 7.89343 9.94245 7.84412 9.99347C7.82431 10.014 7.80812 10.0354 7.80812 10.041C7.80812 10.0467 7.78804 10.0705 7.76349 10.0938C7.73897 10.1171 7.70128 10.1614 7.67976 10.1922C7.65824 10.223 7.61893 10.2706 7.59239 10.2979C7.56583 10.3252 7.53331 10.3637 7.52011 10.3834C7.50691 10.4031 7.47939 10.4383 7.45896 10.4617C7.43854 10.4851 7.40261 10.5294 7.37913 10.5602C7.35566 10.591 7.32379 10.6279 7.30828 10.6421C7.29278 10.6563 7.28011 10.6745 7.28011 10.6826C7.28011 10.6906 7.26571 10.7075 7.24811 10.7202C7.23051 10.7329 7.21611 10.7494 7.21611 10.757C7.21611 10.7794 7.00623 10.9762 6.98225 10.9762C6.97007 10.9762 6.9601 10.9834 6.9601 10.9922C6.9601 11.001 6.9421 11.0082 6.9201 11.0082C6.8981 11.0082 6.8801 11.0154 6.8801 11.0242C6.8801 11.033 6.8477 11.0402 6.8081 11.0402C6.7685 11.0402 6.7361 11.0474 6.7361 11.0562C6.7361 11.065 6.7037 11.0722 6.66409 11.0722C6.62449 11.0722 6.59209 11.065 6.59209 11.0562C6.59209 11.0474 6.56329 11.0402 6.52809 11.0402C6.49289 11.0402 6.46409 11.033 6.46409 11.0242C6.46409 11.0154 6.44969 11.0082 6.43209 11.0082C6.41449 11.0082 6.40009 11.001 6.40009 10.9922C6.40009 10.9834 6.38727 10.9762 6.37162 10.9762C6.35596 10.9762 6.33278 10.9618 6.32009 10.9442C6.3074 10.9266 6.29122 10.9122 6.28413 10.9122C6.27705 10.9122 6.24048 10.8816 6.20288 10.8442C6.16528 10.8068 6.11087 10.7582 6.08195 10.7362C6.03003 10.6967 5.99421 10.6648 5.81702 10.5002C5.76727 10.454 5.7231 10.4162 5.71884 10.4162C5.71457 10.4162 5.66775 10.373 5.61479 10.3202C5.56183 10.2674 5.51308 10.2242 5.50645 10.2242C5.49983 10.2242 5.43928 10.172 5.37189 10.1082C5.30451 10.0444 5.21552 9.96339 5.17414 9.92819C5.13275 9.89299 5.0751 9.8408 5.04601 9.81219C5.01692 9.78358 4.98857 9.76019 4.98302 9.76019C4.97745 9.76019 4.95271 9.73859 4.92806 9.71219C4.9034 9.68579 4.87878 9.66419 4.87333 9.66419C4.86791 9.66419 4.81743 9.61918 4.76119 9.56419C4.70493 9.50919 4.62863 9.43898 4.59162 9.40818C4.55459 9.37738 4.50462 9.33418 4.48054 9.31218C4.45646 9.29018 4.39555 9.23618 4.34516 9.19218C4.29478 9.14818 4.20254 9.06357 4.1402 9.00417C4.07785 8.94478 4.021 8.89617 4.01386 8.89617C4.00672 8.89617 3.9697 8.86556 3.9316 8.82817C3.84539 8.74356 3.76866 8.68817 3.73763 8.68817C3.72459 8.68817 3.71022 8.6822 3.70573 8.6749C3.68949 8.64865 3.52249 8.62028 3.42186 8.62669C3.28996 8.63509 3.09678 8.72378 3.0071 8.81711C2.9724 8.85323 2.94401 8.88888 2.94401 8.89633C2.94401 8.90379 2.93494 8.9194 2.92387 8.93104C2.88452 8.97233 2.83201 9.16277 2.83201 9.26418C2.83201 9.3629 2.88809 9.56819 2.91505 9.56819C2.92217 9.56819 2.92801 9.57849 2.92801 9.5911C2.92801 9.61643 3.17469 9.87219 3.19912 9.87219C3.20755 9.87219 3.26405 9.9208 3.32466 9.98019C3.38529 10.0396 3.4767 10.1242 3.52782 10.1682C3.57892 10.2122 3.6519 10.2788 3.68997 10.3162C3.72805 10.3536 3.76657 10.3842 3.77561 10.3842C3.78464 10.3842 3.79203 10.3914 3.79203 10.4002C3.79203 10.409 3.79934 10.4162 3.80829 10.4162C3.81723 10.4162 3.87723 10.4684 3.94163 10.5322C4.00604 10.596 4.07711 10.6626 4.09956 10.6802C4.12202 10.6978 4.18294 10.7518 4.23494 10.8002C4.28694 10.8486 4.35339 10.9062 4.38262 10.9282C4.41185 10.9502 4.4816 11.0132 4.53762 11.0682C4.59363 11.1232 4.64352 11.1682 4.64848 11.1682C4.65344 11.1682 4.67389 11.1844 4.69392 11.2042C4.72842 11.2383 4.90913 11.4001 5.01065 11.4878C5.03638 11.5101 5.10073 11.5696 5.15365 11.6202C5.20657 11.6708 5.25626 11.7122 5.26406 11.7122C5.27187 11.7122 5.32099 11.7536 5.37322 11.8042C5.47919 11.9069 5.50343 11.9275 5.58407 11.9837C5.61487 12.0052 5.64367 12.027 5.64807 12.0323C5.65247 12.0376 5.72254 12.0761 5.80379 12.1177C5.97379 12.2049 6.21378 12.2882 6.29468 12.2882C6.32521 12.2882 6.35465 12.2954 6.36009 12.3042C6.36612 12.314 6.48795 12.3202 6.67209 12.3202C6.85624 12.3202 6.97807 12.314 6.9841 12.3042C6.98954 12.2954 7.02065 12.2882 7.05324 12.2882C7.17631 12.2882 7.63002 12.1042 7.72493 12.0158C7.74354 11.9984 7.76628 11.9842 7.77545 11.9842C7.78462 11.9842 7.79212 11.977 7.79212 11.9682C7.79212 11.9594 7.7994 11.9522 7.8083 11.9522C7.82857 11.9522 8.19213 11.5899 8.19213 11.5697C8.19213 11.5616 8.19766 11.5525 8.20443 11.5496C8.2148 11.5451 8.33277 11.4067 8.37223 11.3528C8.37888 11.3437 8.41309 11.3038 8.44823 11.2642C8.48338 11.2246 8.51213 11.1871 8.51213 11.1808C8.51213 11.1744 8.53734 11.1441 8.56814 11.1133C8.59894 11.0825 8.62414 11.0499 8.62414 11.0407C8.62414 11.0317 8.63134 11.0242 8.64014 11.0242C8.64894 11.0242 8.65614 11.0165 8.65614 11.007C8.65614 10.9975 8.68494 10.962 8.72014 10.9282C8.75534 10.8944 8.78414 10.8622 8.78414 10.8567C8.78414 10.8513 8.80165 10.8293 8.82305 10.8078C8.84445 10.7865 8.88225 10.7419 8.90705 10.7089C8.93186 10.6759 8.9643 10.6343 8.97917 10.6165C9.0144 10.5744 9.06277 10.5153 9.10792 10.4592C9.12784 10.4344 9.16036 10.397 9.18015 10.3759C9.19994 10.3549 9.21615 10.3317 9.21615 10.3245C9.21615 10.3172 9.23055 10.3009 9.24815 10.2882C9.26575 10.2755 9.28015 10.2588 9.28015 10.2511C9.28015 10.2434 9.30175 10.2169 9.32815 10.1922C9.35455 10.1675 9.37615 10.1431 9.37615 10.1378C9.37615 10.1326 9.40495 10.0977 9.44016 10.0603C9.47536 10.0229 9.50416 9.98637 9.50416 9.97903C9.50416 9.97168 9.53182 9.93911 9.56561 9.90664C9.59942 9.87416 9.636 9.83091 9.64691 9.81053C9.6667 9.77353 9.70053 9.73116 9.77616 9.6486C9.79816 9.62459 9.83416 9.58111 9.85616 9.55202C9.87816 9.52292 9.90517 9.48998 9.91617 9.47879C9.92717 9.46761 9.93617 9.45378 9.93617 9.44807C9.93617 9.44236 9.96497 9.41001 10.0002 9.37618C10.0354 9.34236 10.0642 9.30693 10.0642 9.29743C10.0642 9.28794 10.0714 9.28018 10.0802 9.28018C10.089 9.28018 10.0962 9.27311 10.0962 9.26447C10.0962 9.25581 10.1286 9.21493 10.1682 9.1736C10.2078 9.13227 10.2402 9.09286 10.2402 9.08605C10.2402 9.07922 10.2565 9.0571 10.2764 9.03689C10.2963 9.0167 10.3649 8.93537 10.4288 8.85617C10.4928 8.77697 10.5701 8.68505 10.6006 8.65189C10.6312 8.61874 10.6562 8.58455 10.6562 8.57589C10.6562 8.56723 10.6634 8.56016 10.6722 8.56016C10.681 8.56016 10.6882 8.5524 10.6882 8.54292C10.6882 8.53341 10.717 8.49799 10.7522 8.46416C10.7874 8.43034 10.8162 8.39605 10.8162 8.38795C10.8162 8.37987 10.8468 8.34017 10.8842 8.29976C10.9216 8.25934 10.9954 8.17147 11.0482 8.10449C11.101 8.0375 11.1676 7.95807 11.1962 7.92796C11.2248 7.89784 11.2482 7.8653 11.2482 7.85564C11.2482 7.84597 11.2842 7.80301 11.3282 7.76015C11.3722 7.71728 11.4082 7.67824 11.4082 7.67336C11.4082 7.66384 11.4404 7.62329 11.5042 7.55259C11.5262 7.5282 11.5634 7.48392 11.5868 7.45419C11.6103 7.42446 11.6427 7.38435 11.6588 7.36503C11.675 7.34572 11.7058 7.30719 11.7273 7.27943C11.7488 7.25165 11.7866 7.2073 11.8113 7.18084C11.836 7.15439 11.8562 7.1265 11.8562 7.11887C11.8562 7.11122 11.8886 7.07258 11.9282 7.03298C11.9678 6.99338 12.0002 6.95726 12.0002 6.95274C12.0002 6.94277 12.0431 6.88968 12.0922 6.83885C12.112 6.81835 12.1282 6.79694 12.1282 6.79128C12.1282 6.7856 12.1483 6.76187 12.1728 6.73854C12.1974 6.71521 12.235 6.67092 12.2565 6.64012C12.278 6.60932 12.3101 6.56898 12.3279 6.55047C12.3772 6.49921 12.4213 6.44466 12.4519 6.39716C12.4671 6.37352 12.4977 6.33605 12.5199 6.31387C12.5421 6.29171 12.5602 6.26893 12.5602 6.26326C12.5602 6.25758 12.5818 6.23277 12.6082 6.20811C12.6346 6.18345 12.6562 6.15694 12.6562 6.14923C12.6562 6.1415 12.6706 6.1248 12.6882 6.11211C12.7058 6.09942 12.7202 6.08272 12.7202 6.07499C12.7202 6.06728 12.7403 6.04185 12.7649 6.01852C12.7894 5.99519 12.827 5.95091 12.8485 5.92011C12.87 5.8893 12.9021 5.84863 12.9199 5.82972C12.9377 5.81081 12.9688 5.77354 12.9891 5.74692C13.0094 5.72028 13.0471 5.67455 13.0731 5.6453C13.099 5.61603 13.1288 5.56871 13.1394 5.5401C13.15 5.51149 13.1644 5.4881 13.1715 5.4881C13.1785 5.4881 13.1842 5.47413 13.1842 5.45704C13.1842 5.43995 13.1914 5.42153 13.2002 5.41609C13.2094 5.41043 13.2162 5.32793 13.2162 5.22315C13.2162 5.11177 13.21 5.04009 13.2002 5.04009C13.1914 5.04009 13.1842 5.02569 13.1842 5.00809C13.1842 4.99049 13.1779 4.97608 13.1702 4.97608C13.1625 4.97608 13.1521 4.95557 13.1471 4.93052C13.1347 4.86821 12.9695 4.70264 12.8769 4.65957C12.7385 4.59524 12.604 4.57899 12.4547 4.60857Z" fill="currentColor"/>
</g>
<defs>
<clipPath id="clip0_342_5518">
<rect width="16" height="16" fill="white"/>
</clipPath>
</defs>
</svg>
