<svg width="16" height="16" viewBox="0 0 16 16" fill="none" xmlns="http://www.w3.org/2000/svg">
<g clip-path="url(#clip0_342_5519)">
<path fill-rule="evenodd" clip-rule="evenodd" d="M1.99999 -0.120042C1.85599 -0.0918015 1.65686 -0.0373363 1.55198 0.00250456C1.40102 0.0598498 1.37598 0.0714181 1.37598 0.0838824C1.37598 0.0905385 1.36158 0.0959786 1.34398 0.0959786C1.32638 0.0959786 1.31198 0.103179 1.31198 0.111979C1.31198 0.120779 1.29758 0.127979 1.27998 0.127979C1.26238 0.127979 1.24798 0.135179 1.24798 0.14398C1.24798 0.15278 1.23358 0.15998 1.21597 0.15998C1.19837 0.15998 1.18397 0.1663 1.18397 0.174044C1.18397 0.181773 1.16237 0.197053 1.13597 0.207981C1.10957 0.218909 1.08797 0.23419 1.08797 0.241918C1.08797 0.249662 1.07853 0.255982 1.067 0.255982C1.05544 0.255982 1.03055 0.270382 1.01165 0.287983C0.99277 0.305583 0.969809 0.319984 0.960641 0.319984C0.951473 0.319984 0.943969 0.327184 0.943969 0.335984C0.943969 0.344784 0.936065 0.351984 0.926384 0.351984C0.91672 0.351984 0.888624 0.373585 0.863967 0.399985C0.839311 0.426386 0.81403 0.447986 0.807806 0.447986C0.793822 0.447986 0.52796 0.715 0.52796 0.729032C0.52796 0.734601 0.506359 0.759337 0.479959 0.783994C0.453558 0.80865 0.431942 0.834939 0.431926 0.842411C0.431894 0.849883 0.410309 0.881196 0.383957 0.911996C0.357604 0.942797 0.33602 0.977006 0.335988 0.987998C0.335972 0.999007 0.329635 1.008 0.321891 1.008C0.314163 1.008 0.298883 1.0296 0.287954 1.056C0.277026 1.0824 0.261746 1.104 0.254018 1.104C0.246274 1.104 0.239953 1.11779 0.239953 1.13467C0.239953 1.15154 0.234289 1.16773 0.227361 1.17067C0.211537 1.17738 0.143455 1.32191 0.0967183 1.44801C0.0771499 1.50081 0.0545733 1.56055 0.0465412 1.58076C0.038509 1.60097 0.0319488 1.63518 0.0319488 1.65676C0.0319488 1.67835 0.0247487 1.69601 0.0159485 1.69601C0.00714831 1.69601 -5.18486e-05 1.72481 -5.18486e-05 1.76002C-5.18486e-05 1.79522 -0.007252 1.82402 -0.0160522 1.82402C-0.0248524 1.82402 -0.0320525 1.86319 -0.0320525 1.91107C-0.0320525 1.95896 -0.0392527 2.00258 -0.0480529 2.00802C-0.0702454 2.02173 -0.0702454 13.6906 -0.0480529 13.7043C-0.0392527 13.7097 -0.0320525 13.7533 -0.0320525 13.8012C-0.0320525 13.8491 -0.0248524 13.8883 -0.0160522 13.8883C-0.007252 13.8883 -5.18486e-05 13.913 -5.18486e-05 13.9433C-5.18486e-05 13.9736 0.00714831 14.0028 0.0159485 14.0083C0.0247487 14.0137 0.0319809 14.0339 0.0320129 14.0532C0.0320449 14.0725 0.0543173 14.1459 0.0815179 14.2163C0.108703 14.2867 0.134719 14.3605 0.139327 14.3803C0.143919 14.4001 0.154048 14.4163 0.161824 14.4163C0.169584 14.4163 0.175952 14.4307 0.175952 14.4483C0.175952 14.4659 0.183152 14.4803 0.191952 14.4803C0.200753 14.4803 0.207953 14.4941 0.207953 14.511C0.207953 14.5278 0.213361 14.544 0.219953 14.547C0.234977 14.5536 0.28693 14.6389 0.298803 14.6763C0.303699 14.6917 0.314051 14.7043 0.321827 14.7043C0.329587 14.7043 0.335972 14.7133 0.335972 14.7243C0.335988 14.7353 0.35218 14.7635 0.371972 14.787C0.455174 14.8856 0.463958 14.8972 0.463958 14.909C0.463958 14.9157 0.478359 14.9316 0.495959 14.9443C0.513559 14.957 0.52796 14.9733 0.52796 14.9805C0.52796 15.0047 0.828862 15.29 0.928145 15.3601C0.958849 15.3817 0.997922 15.4122 1.01499 15.4279C1.03205 15.4435 1.05308 15.4563 1.06173 15.4563C1.07037 15.4563 1.08882 15.4662 1.10271 15.4782C1.11661 15.4903 1.20357 15.5376 1.29598 15.5834C1.38838 15.6292 1.47648 15.6734 1.49176 15.6815C1.50704 15.6897 1.53405 15.6963 1.55176 15.6963C1.56949 15.6963 1.58398 15.7035 1.58398 15.7123C1.58398 15.7211 1.60558 15.7283 1.63198 15.7283C1.65838 15.7283 1.67999 15.7355 1.67999 15.7443C1.67999 15.7531 1.70519 15.7603 1.73599 15.7603C1.76679 15.7603 1.79199 15.7675 1.79199 15.7763C1.79199 15.7851 1.81719 15.7923 1.84799 15.7923C1.87879 15.7923 1.90399 15.7995 1.90399 15.8083C1.90399 15.8172 1.94666 15.8243 1.99999 15.8243C2.05332 15.8243 2.09599 15.8314 2.09599 15.8403C2.09599 15.851 4.05336 15.8563 7.93612 15.8563C11.8189 15.8563 13.7762 15.851 13.7762 15.8403C13.7762 15.8314 13.8189 15.8243 13.8723 15.8243C13.9256 15.8243 13.9683 15.8172 13.9683 15.8083C13.9683 15.7995 13.9935 15.7923 14.0243 15.7923C14.0551 15.7923 14.0803 15.7851 14.0803 15.7763C14.0803 15.7675 14.1055 15.7603 14.1363 15.7603C14.1671 15.7603 14.1923 15.7531 14.1923 15.7443C14.1923 15.7355 14.2139 15.7283 14.2403 15.7283C14.2667 15.7283 14.2883 15.7211 14.2883 15.7123C14.2883 15.7035 14.3028 15.6963 14.3205 15.6963C14.3382 15.6963 14.3652 15.6896 14.3805 15.6815C14.3958 15.6733 14.4911 15.6254 14.5923 15.5751C14.6935 15.5247 14.7787 15.4774 14.7816 15.4699C14.7845 15.4624 14.7953 15.4563 14.8056 15.4563C14.8159 15.4563 14.8435 15.4401 14.8669 15.4203C14.9628 15.3394 14.977 15.3283 14.9842 15.3283C15.002 15.3283 15.3443 15.0009 15.3443 14.9838C15.3443 14.9784 15.3533 14.9649 15.3643 14.9537C15.3753 14.9425 15.4023 14.9097 15.4243 14.8807C15.4463 14.8517 15.4805 14.8092 15.5003 14.7862C15.5201 14.7631 15.5363 14.7353 15.5363 14.7243C15.5363 14.7133 15.5417 14.7042 15.5483 14.7042C15.5549 14.7041 15.5682 14.6879 15.5779 14.6682C15.6252 14.5719 15.6735 14.4878 15.6843 14.483C15.6909 14.48 15.6963 14.4672 15.6963 14.4544C15.6963 14.4417 15.7135 14.3973 15.7345 14.3558C15.7555 14.3143 15.7819 14.2479 15.7932 14.2083C15.8045 14.1687 15.8197 14.1294 15.827 14.1211C15.8343 14.1127 15.8403 14.0862 15.8403 14.062C15.8403 14.0379 15.8475 14.0137 15.8563 14.0083C15.8651 14.0028 15.8723 13.9736 15.8723 13.9433C15.8723 13.913 15.8795 13.8883 15.8883 13.8883C15.8972 13.8883 15.9043 13.8456 15.9043 13.7923C15.9043 13.7389 15.9114 13.6963 15.9203 13.6963C15.9303 13.6963 15.9363 13.6029 15.9363 13.4483C15.9363 13.2936 15.9303 13.2003 15.9203 13.2003C15.9115 13.2003 15.9043 13.1826 15.9043 13.161C15.9043 13.1149 15.873 13.0403 15.8537 13.0403C15.8463 13.0403 15.8403 13.029 15.8403 13.0152C15.8403 12.9523 15.5842 12.7523 15.5037 12.7523C15.4875 12.7523 15.4697 12.7451 15.4643 12.7363C15.4512 12.7151 15.1523 12.7151 15.1523 12.7363C15.1523 12.7451 15.1307 12.7523 15.1043 12.7523C15.0779 12.7523 15.0563 12.7595 15.0563 12.7683C15.0563 12.7771 15.0419 12.7843 15.0243 12.7843C15.0067 12.7843 14.9923 12.7915 14.9923 12.8003C14.9923 12.8091 14.9852 12.8163 14.9765 12.8163C14.9311 12.8163 14.807 12.9513 14.7497 13.0629C14.7006 13.1586 14.6789 13.2703 14.6618 13.5163C14.6574 13.5801 14.6471 13.6323 14.639 13.6323C14.6309 13.6323 14.6243 13.6539 14.6243 13.6803C14.6243 13.7067 14.6171 13.7283 14.6083 13.7283C14.5995 13.7283 14.5923 13.7535 14.5923 13.7843C14.5923 13.8151 14.5864 13.8403 14.5793 13.8403C14.5721 13.8403 14.5563 13.8655 14.5443 13.8963C14.5322 13.9271 14.5164 13.9523 14.5093 13.9523C14.5021 13.9523 14.4963 13.9667 14.4963 13.9843C14.4963 14.0019 14.4891 14.0163 14.4803 14.0163C14.4715 14.0163 14.4643 14.0244 14.4643 14.0344C14.4643 14.0444 14.4513 14.0642 14.4355 14.0784C14.4197 14.0926 14.3893 14.1295 14.368 14.1603C14.3244 14.2235 14.2948 14.2563 14.2816 14.2563C14.271 14.2563 14.2191 14.298 14.167 14.3483C14.1465 14.3681 14.1222 14.3843 14.113 14.3843C14.1038 14.3843 14.0963 14.3915 14.0963 14.4003C14.0963 14.4091 14.0819 14.4163 14.0643 14.4163C14.0467 14.4163 14.0323 14.4235 14.0323 14.4323C14.0323 14.4411 14.0209 14.4483 14.0071 14.4483C13.9933 14.4483 13.9712 14.4591 13.958 14.4723C13.9448 14.4855 13.9147 14.5005 13.8911 14.5056C13.8675 14.5108 13.8015 14.5306 13.7442 14.5496L13.6402 14.5843H7.9439H2.24755L2.11977 14.5463C1.94313 14.4938 1.90399 14.4786 1.90399 14.4624C1.90399 14.4546 1.88959 14.4483 1.87199 14.4483C1.85439 14.4483 1.83999 14.4411 1.83999 14.4323C1.83999 14.4235 1.82559 14.4163 1.80799 14.4163C1.79039 14.4163 1.77599 14.4091 1.77599 14.4003C1.77599 14.3915 1.76677 14.3843 1.75552 14.3843C1.74426 14.3843 1.72467 14.3699 1.71199 14.3523C1.6993 14.3347 1.6813 14.3203 1.67198 14.3203C1.66267 14.3203 1.64467 14.3059 1.63198 14.2883C1.6193 14.2707 1.6028 14.2563 1.59531 14.2563C1.57757 14.2563 1.55185 14.2292 1.50422 14.1603C1.48292 14.1295 1.45256 14.0926 1.43673 14.0784C1.42092 14.0642 1.40798 14.0444 1.40798 14.0344C1.40798 14.0244 1.40078 14.0163 1.39198 14.0163C1.38318 14.0163 1.37598 14.0019 1.37598 13.9843C1.37598 13.9667 1.37012 13.9523 1.36297 13.9523C1.3558 13.9523 1.34006 13.9271 1.32798 13.8963C1.3159 13.8655 1.30015 13.8403 1.29298 13.8403C1.28583 13.8403 1.27998 13.8151 1.27998 13.7843C1.27998 13.7535 1.27278 13.7283 1.26398 13.7283C1.25518 13.7283 1.24798 13.7067 1.24798 13.6803C1.24798 13.6539 1.24135 13.6323 1.23324 13.6323C1.22513 13.6323 1.21365 13.5765 1.20772 13.5083C1.19364 13.3462 1.19364 2.35006 1.20772 2.18802C1.21365 2.11983 1.22513 2.06402 1.23324 2.06402C1.24135 2.06402 1.24798 2.04242 1.24798 2.01602C1.24798 1.98962 1.25518 1.96802 1.26398 1.96802C1.27278 1.96802 1.27998 1.94282 1.27998 1.91202C1.27998 1.88122 1.28718 1.85602 1.29598 1.85602C1.30478 1.85602 1.31198 1.84658 1.31198 1.83504C1.31198 1.82349 1.32638 1.79859 1.34398 1.7797C1.36158 1.76082 1.37598 1.73425 1.37598 1.72069C1.37598 1.70712 1.38318 1.69601 1.39198 1.69601C1.40078 1.69601 1.40798 1.68497 1.40798 1.67149C1.40798 1.65798 1.43139 1.62259 1.45998 1.59281C1.48857 1.56305 1.53064 1.51828 1.55342 1.49335C1.60046 1.4419 1.72395 1.33924 1.75042 1.32961C1.76008 1.32609 1.77159 1.31879 1.77599 1.3134C1.78039 1.30799 1.8182 1.28634 1.85999 1.26527C1.90178 1.24421 1.93599 1.2209 1.93599 1.21349C1.93599 1.20607 1.95716 1.2 1.98305 1.2C2.00894 1.2 2.03455 1.1928 2.03999 1.184C2.04543 1.1752 2.07105 1.168 2.09694 1.168C2.12283 1.168 2.144 1.1608 2.144 1.152C2.144 1.14287 2.192 1.136 2.256 1.136C2.32 1.136 2.368 1.12914 2.368 1.12C2.368 1.10936 4.23471 1.104 7.93612 1.104C11.6375 1.104 13.5042 1.10936 13.5042 1.12C13.5042 1.12901 13.5493 1.136 13.6073 1.136C13.664 1.136 13.7148 1.1432 13.7202 1.152C13.7257 1.1608 13.7509 1.168 13.7762 1.168C13.8016 1.168 13.8268 1.1752 13.8323 1.184C13.8377 1.1928 13.8633 1.2 13.8892 1.2C13.9151 1.2 13.9363 1.20607 13.9363 1.21349C13.9363 1.2209 13.9705 1.24431 14.0123 1.26549C14.054 1.28668 14.0907 1.30941 14.0936 1.31601C14.0965 1.32261 14.1085 1.32801 14.1203 1.32801C14.132 1.32801 14.144 1.33367 14.1469 1.3406C14.1499 1.34753 14.1847 1.37812 14.2243 1.4086C14.2639 1.43908 14.3107 1.48134 14.3283 1.50251C14.3459 1.52369 14.3837 1.56484 14.4123 1.59398C14.4409 1.62312 14.4643 1.65798 14.4643 1.67149C14.4643 1.68497 14.4715 1.69601 14.4803 1.69601C14.4891 1.69601 14.4963 1.70712 14.4963 1.72069C14.4963 1.73425 14.5107 1.76082 14.5283 1.7797C14.5459 1.79859 14.5603 1.82349 14.5603 1.83504C14.5603 1.84658 14.5675 1.85602 14.5763 1.85602C14.5851 1.85602 14.5923 1.88122 14.5923 1.91202C14.5923 1.94282 14.5995 1.96802 14.6083 1.96802C14.6171 1.96802 14.6243 1.98818 14.6243 2.01282C14.6243 2.03746 14.6309 2.06445 14.639 2.07282C14.6471 2.08117 14.6586 2.13842 14.6646 2.20002C14.6706 2.26163 14.6801 4.13727 14.6859 6.36812L14.6963 10.4242L14.7473 10.5219C14.8543 10.7265 15.0816 10.8642 15.3123 10.8642C15.4796 10.8642 15.6215 10.8045 15.7542 10.6783C15.8015 10.6332 15.8403 10.5846 15.8403 10.5703C15.8403 10.5559 15.8457 10.5441 15.8523 10.5441C15.8702 10.5439 15.9043 10.4632 15.9043 10.421C15.9043 10.4008 15.9115 10.3842 15.9203 10.3842C15.9309 10.3842 15.9363 8.97885 15.9363 6.20011C15.9363 3.42138 15.9309 2.01602 15.9203 2.01602C15.9114 2.01602 15.9043 1.97335 15.9043 1.92002C15.9043 1.86669 15.8972 1.82402 15.8883 1.82402C15.8795 1.82402 15.8723 1.79522 15.8723 1.76002C15.8723 1.72481 15.8651 1.69601 15.8563 1.69601C15.8475 1.69601 15.8403 1.67979 15.8403 1.65995C15.8403 1.62224 15.7875 1.46711 15.7328 1.34401C15.7152 1.30441 15.6909 1.24861 15.6787 1.22C15.6665 1.19141 15.651 1.168 15.6444 1.168C15.6377 1.168 15.6323 1.1536 15.6323 1.136C15.6323 1.1184 15.626 1.104 15.6182 1.104C15.6105 1.104 15.5952 1.0824 15.5843 1.056C15.5734 1.0296 15.5581 1.008 15.5504 1.008C15.5426 1.008 15.5363 0.997134 15.5363 0.983854C15.5363 0.970574 15.5147 0.937101 15.4883 0.909485C15.4619 0.881852 15.4403 0.852411 15.4403 0.844043C15.4403 0.835675 15.4187 0.80865 15.3923 0.783994C15.3659 0.759337 15.3443 0.734601 15.3443 0.729032C15.3443 0.713832 15.076 0.447986 15.0606 0.447986C15.0533 0.447986 15.037 0.433586 15.0243 0.415986C15.0116 0.398385 14.9936 0.383985 14.9843 0.383985C14.975 0.383985 14.957 0.369585 14.9443 0.351984C14.9316 0.334384 14.9136 0.319984 14.9043 0.319984C14.895 0.319984 14.877 0.305583 14.8643 0.287983C14.8516 0.270382 14.8284 0.255982 14.8127 0.255982C14.7971 0.255982 14.7843 0.249662 14.7843 0.241918C14.7843 0.23419 14.7627 0.218909 14.7363 0.207981C14.7099 0.197053 14.6883 0.181773 14.6883 0.174044C14.6883 0.1663 14.6739 0.15998 14.6563 0.15998C14.6387 0.15998 14.6243 0.15278 14.6243 0.14398C14.6243 0.135179 14.6099 0.127979 14.5923 0.127979C14.5747 0.127979 14.5603 0.120779 14.5603 0.111979C14.5603 0.103179 14.5459 0.0959786 14.5283 0.0959786C14.5107 0.0959786 14.4963 0.0905385 14.4963 0.0838824C14.4963 0.0501376 14.1192 -0.0720251 13.8643 -0.120874C13.7028 -0.151819 2.15788 -0.151003 1.99999 -0.120042Z" fill="currentColor"/>
</g>
<defs>
<clipPath id="clip0_342_5519">
<rect width="16" height="16" fill="white"/>
</clipPath>
</defs>
</svg>
