<svg width="16" height="16" viewBox="0 0 16 16" fill="none" xmlns="http://www.w3.org/2000/svg">
<g clip-path="url(#clip0_1213_27354)">
<path d="M2.0333 2.66663C2.0333 2.3199 2.3199 2.0333 2.66663 2.0333H9.3333C9.68003 2.0333 9.96663 2.3199 9.96663 2.66663C9.96663 3.05323 10.28 3.36663 10.6666 3.36663C11.0532 3.36663 11.3666 3.05323 11.3666 2.66663C11.3666 1.5467 10.4532 0.633301 9.3333 0.633301H2.66663C1.5467 0.633301 0.633301 1.5467 0.633301 2.66663V9.3333C0.633301 10.4532 1.5467 11.3666 2.66663 11.3666C3.05323 11.3666 3.36663 11.0532 3.36663 10.6666C3.36663 10.28 3.05323 9.96663 2.66663 9.96663C2.3199 9.96663 2.0333 9.68003 2.0333 9.3333V2.66663Z" fill="currentColor"/>
<path fill-rule="evenodd" clip-rule="evenodd" d="M6.66663 4.6333C5.54366 4.6333 4.6333 5.54366 4.6333 6.66663V13.3333C4.6333 14.4563 5.54366 15.3666 6.66663 15.3666H13.3333C14.4563 15.3666 15.3666 14.4563 15.3666 13.3333V6.66663C15.3666 5.54366 14.4563 4.6333 13.3333 4.6333H6.66663ZM6.0333 6.66663C6.0333 6.31685 6.31685 6.0333 6.66663 6.0333H13.3333C13.6831 6.0333 13.9666 6.31685 13.9666 6.66663V13.3333C13.9666 13.6831 13.6831 13.9666 13.3333 13.9666H6.66663C6.31685 13.9666 6.0333 13.6831 6.0333 13.3333V6.66663Z" fill="currentColor"/>
</g>
<defs>
<clipPath id="clip0_1213_27354">
<rect width="16" height="16" fill="white"/>
</clipPath>
</defs>
</svg>
