<svg width="16" height="16" viewBox="0 0 16 16" fill="none" xmlns="http://www.w3.org/2000/svg">
<g clip-path="url(#clip0_345_5600)">
<path fill-rule="evenodd" clip-rule="evenodd" d="M7.43846 0.00856731C7.43846 0.0167913 7.36466 0.0271273 7.27448 0.0315433C7.08404 0.0408393 6.7994 0.0768073 6.58256 0.118983C6.39485 0.155495 6.11214 0.218119 6.03063 0.241223C5.98223 0.254951 5.91384 0.274215 5.87864 0.284039C5.84345 0.293847 5.77458 0.315319 5.72559 0.331735C5.67662 0.348151 5.62082 0.361591 5.6016 0.361591C5.58241 0.361591 5.56668 0.368791 5.56668 0.377591C5.56668 0.386391 5.54508 0.393591 5.51869 0.393591C5.49229 0.393591 5.47069 0.400791 5.47069 0.409591C5.47069 0.418391 5.45312 0.425591 5.43164 0.425591C5.41015 0.425591 5.38814 0.432791 5.3827 0.441591C5.37726 0.450391 5.35525 0.457591 5.33376 0.457591C5.31228 0.457591 5.29471 0.464791 5.29471 0.473591C5.29471 0.482391 5.27671 0.489591 5.25472 0.489591C5.23272 0.489591 5.21472 0.496791 5.21472 0.505591C5.21472 0.514391 5.19672 0.521591 5.17473 0.521591C5.15273 0.521591 5.13473 0.528791 5.13473 0.537591C5.13473 0.546391 5.12076 0.553591 5.10368 0.553591C5.08659 0.553591 5.06818 0.560791 5.06274 0.569591C5.0573 0.578391 5.03529 0.585591 5.0138 0.585591C4.99232 0.585591 4.97475 0.592791 4.97475 0.601591C4.97475 0.610391 4.96035 0.617591 4.94275 0.617591C4.92515 0.617591 4.91076 0.624791 4.91076 0.633591C4.91076 0.642391 4.88916 0.649591 4.86276 0.649591C4.83637 0.649591 4.81477 0.656791 4.81477 0.665591C4.81477 0.674391 4.80037 0.681591 4.78277 0.681591C4.76517 0.681591 4.75078 0.688791 4.75078 0.697591C4.75078 0.706391 4.73638 0.713591 4.71878 0.713591C4.70118 0.713591 4.68678 0.720791 4.68678 0.729591C4.68678 0.738391 4.67238 0.745591 4.65479 0.745591C4.63719 0.745591 4.62279 0.752791 4.62279 0.761591C4.62279 0.770391 4.61255 0.777591 4.60004 0.777591C4.58755 0.777591 4.51375 0.810679 4.43606 0.851127C4.35839 0.891575 4.25163 0.947207 4.19884 0.974759C4.14605 1.0023 4.09925 1.0286 4.09485 1.03321C4.07994 1.04882 3.99102 1.09951 3.96287 1.10844C3.94746 1.11334 3.93487 1.12369 3.93487 1.13146C3.93487 1.13922 3.92407 1.14559 3.91087 1.14559C3.89768 1.14559 3.88688 1.15279 3.88688 1.16159C3.88688 1.17039 3.87248 1.17759 3.85488 1.17759C3.83728 1.17759 3.82288 1.18479 3.82288 1.19359C3.82288 1.20239 3.81209 1.20959 3.79889 1.20959C3.78569 1.20959 3.77489 1.21679 3.77489 1.22559C3.77489 1.23439 3.76567 1.24159 3.75443 1.24159C3.74317 1.24159 3.72358 1.25599 3.7109 1.27359C3.69821 1.29119 3.67661 1.30559 3.6629 1.30559C3.64919 1.30559 3.62759 1.31999 3.61491 1.33759C3.60222 1.35519 3.58062 1.36959 3.56691 1.36959C3.5532 1.36959 3.53161 1.38399 3.51892 1.40159C3.50623 1.41919 3.48364 1.43359 3.46873 1.43359C3.45381 1.43359 3.4392 1.43927 3.43626 1.44622C3.43333 1.45316 3.37334 1.50156 3.30294 1.55377C3.23255 1.60598 3.17136 1.65284 3.16696 1.65791C3.16256 1.66298 3.13376 1.68455 3.10297 1.70585C3.07217 1.72714 3.02055 1.7718 2.98823 1.80508C2.95593 1.83836 2.92126 1.86559 2.9112 1.86559C2.90115 1.86559 2.85909 1.89978 2.81775 1.94159C2.77641 1.98338 2.7031 2.05106 2.65481 2.09198C2.53184 2.1962 2.17508 2.55098 2.17508 2.56906C2.17508 2.57729 2.12647 2.63436 2.06709 2.69588C1.94997 2.81719 1.87274 2.90679 1.78093 3.0279C1.74855 3.07063 1.71598 3.10799 1.70859 3.11092C1.70118 3.11386 1.69513 3.12538 1.69513 3.13655C1.69513 3.14772 1.67354 3.17945 1.64714 3.20708C1.62074 3.2347 1.59914 3.26527 1.59914 3.27503C1.59914 3.28478 1.57755 3.31294 1.55115 3.33759C1.52475 3.36225 1.50316 3.3913 1.50316 3.40214C1.50316 3.41297 1.4905 3.43348 1.47505 3.44772C1.45959 3.46194 1.43678 3.4934 1.42435 3.51759C1.41193 3.54178 1.39578 3.56159 1.38847 3.56159C1.38115 3.56159 1.37517 3.57239 1.37517 3.58559C1.37517 3.59879 1.36797 3.60959 1.35917 3.60959C1.35037 3.60959 1.34317 3.61903 1.34317 3.63057C1.34317 3.64212 1.3305 3.66551 1.31502 3.68257C1.29953 3.69964 1.26894 3.74778 1.24706 3.78959C1.22516 3.83138 1.20316 3.86559 1.19817 3.86559C1.19316 3.86559 1.16843 3.90879 1.1432 3.96159C1.11797 4.01439 1.09144 4.05759 1.08426 4.05759C1.07708 4.05759 1.07121 4.07199 1.07121 4.08959C1.07121 4.10719 1.06535 4.12159 1.0582 4.12159C1.05103 4.12159 1.03529 4.14679 1.02321 4.17759C1.01113 4.20839 0.995391 4.23359 0.988224 4.23359C0.981073 4.23359 0.975218 4.24799 0.975218 4.26559C0.975218 4.28319 0.968019 4.29759 0.95922 4.29759C0.950421 4.29759 0.943222 4.31199 0.943222 4.32959C0.943222 4.34719 0.936022 4.36159 0.927223 4.36159C0.918424 4.36159 0.911225 4.37599 0.911225 4.39359C0.911225 4.41119 0.904026 4.42559 0.895227 4.42559C0.886428 4.42559 0.879229 4.43999 0.879229 4.45759C0.879229 4.47519 0.87203 4.48959 0.863231 4.48959C0.854432 4.48959 0.847233 4.50399 0.847233 4.52159C0.847233 4.53919 0.840034 4.55359 0.831235 4.55359C0.822436 4.55359 0.815237 4.56799 0.815237 4.58559C0.815237 4.60319 0.808037 4.61759 0.799238 4.61759C0.790439 4.61759 0.78324 4.63199 0.78324 4.64959C0.78324 4.66719 0.776041 4.68159 0.767242 4.68159C0.758443 4.68159 0.751244 4.69247 0.751244 4.70577C0.751244 4.72823 0.736526 4.76482 0.651608 4.95359C0.578064 5.11703 0.415283 5.58538 0.415283 5.63353C0.415283 5.647 0.408964 5.67054 0.401253 5.68582C0.377672 5.73249 0.351291 5.8259 0.351291 5.86273C0.351291 5.8819 0.344092 5.89759 0.335293 5.89759C0.326494 5.89759 0.319295 5.92639 0.319295 5.96159C0.319295 5.99679 0.312096 6.02559 0.303297 6.02559C0.294498 6.02559 0.287298 6.05439 0.287298 6.08959C0.287298 6.12479 0.280099 6.15359 0.2713 6.15359C0.262501 6.15359 0.255302 6.18599 0.255302 6.22559C0.255302 6.26519 0.248103 6.29759 0.239304 6.29759C0.230505 6.29759 0.223306 6.32956 0.223306 6.36865C0.223306 6.40774 0.216107 6.44415 0.207308 6.44959C0.198509 6.45503 0.19131 6.49505 0.19131 6.53854C0.19131 6.58202 0.184111 6.61759 0.175312 6.61759C0.166449 6.61759 0.159313 6.65994 0.159313 6.71265C0.159313 6.76494 0.152114 6.81215 0.143315 6.81759C0.134516 6.82303 0.127317 6.87601 0.127317 6.93534C0.127317 6.99466 0.120822 7.05002 0.112887 7.05839C0.0880898 7.08454 0.0751953 7.40436 0.0751953 7.99359C0.0751953 8.58282 0.0880898 8.90265 0.112887 8.92879C0.120822 8.93716 0.127317 8.99252 0.127317 9.05185C0.127317 9.11118 0.134516 9.16415 0.143315 9.16959C0.152114 9.17503 0.159313 9.22225 0.159313 9.27454C0.159313 9.32724 0.166449 9.36959 0.175312 9.36959C0.184111 9.36959 0.19131 9.40516 0.19131 9.44865C0.19131 9.49214 0.198509 9.53215 0.207308 9.53759C0.216107 9.54303 0.223306 9.57945 0.223306 9.61854C0.223306 9.65762 0.230505 9.68959 0.239304 9.68959C0.248103 9.68959 0.255302 9.72199 0.255302 9.76159C0.255302 9.80119 0.262501 9.83359 0.2713 9.83359C0.280099 9.83359 0.287298 9.86239 0.287298 9.89759C0.287298 9.93279 0.294498 9.96159 0.303297 9.96159C0.312096 9.96159 0.319295 9.99039 0.319295 10.0256C0.319295 10.0608 0.326494 10.0896 0.335293 10.0896C0.344092 10.0896 0.351291 10.1053 0.351291 10.1245C0.351291 10.1613 0.377672 10.2547 0.401253 10.3014C0.408964 10.3166 0.415283 10.3402 0.415283 10.3537C0.415283 10.4018 0.578064 10.8702 0.651608 11.0336C0.736526 11.2224 0.751244 11.259 0.751244 11.2814C0.751244 11.2947 0.758443 11.3056 0.767242 11.3056C0.776041 11.3056 0.78324 11.32 0.78324 11.3376C0.78324 11.3552 0.790439 11.3696 0.799238 11.3696C0.808037 11.3696 0.815237 11.384 0.815237 11.4016C0.815237 11.4192 0.822436 11.4336 0.831235 11.4336C0.840034 11.4336 0.847233 11.448 0.847233 11.4656C0.847233 11.4832 0.854432 11.4976 0.863231 11.4976C0.87203 11.4976 0.879229 11.512 0.879229 11.5296C0.879229 11.5472 0.886428 11.5616 0.895227 11.5616C0.904026 11.5616 0.911225 11.576 0.911225 11.5936C0.911225 11.6112 0.918424 11.6256 0.927223 11.6256C0.936022 11.6256 0.943222 11.64 0.943222 11.6576C0.943222 11.6752 0.950421 11.6896 0.95922 11.6896C0.968019 11.6896 0.975218 11.704 0.975218 11.7216C0.975218 11.7392 0.982417 11.7536 0.991216 11.7536C1.00001 11.7536 1.00721 11.7644 1.00721 11.7776C1.00721 11.7908 1.01441 11.8016 1.02321 11.8016C1.03201 11.8016 1.03921 11.816 1.03921 11.8336C1.03921 11.8512 1.04641 11.8656 1.05521 11.8656C1.06401 11.8656 1.07121 11.88 1.07121 11.8976C1.07121 11.9152 1.0769 11.9296 1.08386 11.9296C1.09082 11.9296 1.11728 11.971 1.14265 12.0216C1.16803 12.0722 1.19346 12.1172 1.19919 12.1216C1.2049 12.126 1.22704 12.1619 1.24839 12.2015C1.26973 12.241 1.29979 12.2874 1.31518 12.3045C1.33058 12.3216 1.34317 12.3451 1.34317 12.3566C1.34317 12.3682 1.35037 12.3776 1.35917 12.3776C1.36797 12.3776 1.37517 12.3884 1.37517 12.4016C1.37517 12.4148 1.38115 12.4256 1.38847 12.4256C1.39578 12.4256 1.41193 12.4454 1.42435 12.4696C1.43678 12.4938 1.45959 12.5252 1.47505 12.5395C1.4905 12.5537 1.50316 12.5742 1.50316 12.585C1.50316 12.5959 1.52475 12.6249 1.55115 12.6496C1.57755 12.6742 1.59914 12.7027 1.59914 12.7127C1.59914 12.7228 1.61714 12.749 1.63914 12.771C1.66114 12.793 1.67914 12.8174 1.67914 12.8252C1.67914 12.833 1.68862 12.8488 1.70022 12.8605C1.71182 12.8721 1.74798 12.9166 1.78058 12.9593C1.87498 13.0831 1.95208 13.1727 2.05525 13.2788C2.10814 13.3331 2.16905 13.4028 2.1906 13.4336C2.23256 13.4936 2.47472 13.735 2.62914 13.8708C2.68091 13.9163 2.76285 13.9914 2.81127 14.0376C2.85968 14.0838 2.90608 14.1216 2.9144 14.1216C2.9227 14.1216 2.95593 14.1488 2.98823 14.1821C3.02055 14.2154 3.07217 14.26 3.10297 14.2813C3.13376 14.3026 3.16256 14.3242 3.16696 14.3293C3.17136 14.3343 3.23255 14.3812 3.30294 14.4334C3.37334 14.4856 3.43333 14.534 3.43626 14.541C3.4392 14.5479 3.45381 14.5536 3.46873 14.5536C3.48364 14.5536 3.50623 14.568 3.51892 14.5856C3.53161 14.6032 3.5532 14.6176 3.56691 14.6176C3.58062 14.6176 3.60222 14.632 3.61491 14.6496C3.62759 14.6672 3.64814 14.6816 3.66055 14.6816C3.67298 14.6816 3.6948 14.6942 3.70906 14.7096C3.73853 14.7414 3.81719 14.7912 3.85888 14.8044C3.87427 14.8093 3.88688 14.8197 3.88688 14.8275C3.88688 14.8352 3.89768 14.8416 3.91087 14.8416C3.92407 14.8416 3.93487 14.848 3.93487 14.8557C3.93487 14.8635 3.94746 14.8738 3.96287 14.8787C3.99173 14.8879 4.08068 14.9388 4.09485 14.9543C4.09925 14.9591 4.16404 14.9945 4.23884 15.0329C4.31363 15.0713 4.42041 15.1268 4.47614 15.1562C4.53186 15.1855 4.58766 15.2096 4.60012 15.2096C4.61258 15.2096 4.62279 15.2168 4.62279 15.2256C4.62279 15.2344 4.63719 15.2416 4.65479 15.2416C4.67238 15.2416 4.68678 15.2488 4.68678 15.2576C4.68678 15.2664 4.70118 15.2736 4.71878 15.2736C4.73638 15.2736 4.75078 15.2808 4.75078 15.2896C4.75078 15.2984 4.76877 15.3056 4.79077 15.3056C4.81277 15.3056 4.83077 15.3128 4.83077 15.3216C4.83077 15.3304 4.84876 15.3376 4.87076 15.3376C4.89276 15.3376 4.91076 15.3448 4.91076 15.3536C4.91076 15.3624 4.92515 15.3696 4.94275 15.3696C4.96035 15.3696 4.97475 15.3768 4.97475 15.3856C4.97475 15.3944 4.99275 15.4016 5.01474 15.4016C5.03674 15.4016 5.05474 15.4088 5.05474 15.4176C5.05474 15.4264 5.07274 15.4336 5.09474 15.4336C5.11673 15.4336 5.13473 15.4408 5.13473 15.4496C5.13473 15.4584 5.15273 15.4656 5.17473 15.4656C5.19672 15.4656 5.21472 15.4728 5.21472 15.4816C5.21472 15.4904 5.23272 15.4976 5.25472 15.4976C5.27671 15.4976 5.29471 15.5048 5.29471 15.5136C5.29471 15.5224 5.31228 15.5296 5.33376 15.5296C5.35525 15.5296 5.37726 15.5368 5.3827 15.5456C5.38814 15.5544 5.40974 15.5616 5.4307 15.5616C5.45165 15.5616 5.47325 15.5688 5.47869 15.5776C5.48413 15.5864 5.50266 15.5936 5.51985 15.5936C5.53705 15.5936 5.56362 15.6001 5.5789 15.6079C5.68713 15.6639 6.40976 15.8465 6.58256 15.8616C6.62656 15.8654 6.6694 15.8751 6.67775 15.8831C6.68612 15.891 6.72966 15.8976 6.77454 15.8976C6.81941 15.8976 6.86296 15.9042 6.87133 15.9123C6.88715 15.9276 6.99664 15.9392 7.27448 15.9551C7.36466 15.9603 7.43846 15.971 7.43846 15.979C7.43846 15.9875 7.69875 15.9936 8.06239 15.9936C8.43908 15.9936 8.68631 15.9877 8.68631 15.9786C8.68631 15.9704 8.7601 15.9601 8.8503 15.9558C8.94049 15.9514 9.06827 15.9399 9.13426 15.9302C9.20025 15.9205 9.29384 15.9085 9.34224 15.9036C9.39063 15.8988 9.43707 15.8882 9.44543 15.8802C9.45379 15.8722 9.48259 15.8656 9.50942 15.8656C9.53626 15.8656 9.60862 15.8542 9.6702 15.8404C9.73179 15.8265 9.83258 15.8051 9.89417 15.7929C9.95577 15.7806 10.0602 15.7554 10.1261 15.7369C10.1921 15.7183 10.2641 15.6995 10.2861 15.6952C10.3081 15.6908 10.3405 15.6815 10.3581 15.6745C10.4319 15.6452 10.6042 15.5936 10.6282 15.5936C10.6424 15.5936 10.6541 15.5864 10.6541 15.5776C10.6541 15.5688 10.6716 15.5616 10.6931 15.5616C10.7146 15.5616 10.7366 15.5544 10.7421 15.5456C10.7475 15.5368 10.7691 15.5296 10.7901 15.5296C10.811 15.5296 10.8326 15.5224 10.8381 15.5136C10.8435 15.5048 10.8619 15.4976 10.879 15.4976C10.8961 15.4976 10.9101 15.4904 10.9101 15.4816C10.9101 15.4728 10.9276 15.4656 10.9491 15.4656C10.9706 15.4656 10.9926 15.4584 10.998 15.4496C11.0035 15.4408 11.0219 15.4336 11.039 15.4336C11.0561 15.4336 11.07 15.4264 11.07 15.4176C11.07 15.4088 11.088 15.4016 11.11 15.4016C11.132 15.4016 11.15 15.3944 11.15 15.3856C11.15 15.3768 11.168 15.3696 11.19 15.3696C11.212 15.3696 11.23 15.3624 11.23 15.3536C11.23 15.3448 11.2444 15.3376 11.262 15.3376C11.2796 15.3376 11.294 15.3304 11.294 15.3216C11.294 15.3128 11.312 15.3056 11.334 15.3056C11.356 15.3056 11.374 15.2984 11.374 15.2896C11.374 15.2808 11.3884 15.2736 11.406 15.2736C11.4236 15.2736 11.438 15.2664 11.438 15.2576C11.438 15.2488 11.4524 15.2416 11.47 15.2416C11.4876 15.2416 11.502 15.2344 11.502 15.2256C11.502 15.2168 11.5146 15.2094 11.53 15.2091C11.5578 15.2086 12.0661 14.9494 12.0939 14.9216C12.0983 14.9172 12.1217 14.9033 12.1459 14.8909C12.1701 14.8784 12.1899 14.8622 12.1899 14.8549C12.1899 14.8476 12.2009 14.8416 12.2143 14.8416C12.2459 14.8416 12.4139 14.6736 12.4139 14.6419C12.4139 14.6286 12.4202 14.6176 12.428 14.6176C12.4358 14.6176 12.4463 14.605 12.4514 14.5896C12.4565 14.5742 12.4717 14.5328 12.4851 14.4976C12.5123 14.4258 12.5191 14.1703 12.4949 14.1254C12.4867 14.1101 12.4705 14.0742 12.459 14.0456C12.4475 14.017 12.4326 13.9936 12.426 13.9936C12.4193 13.9936 12.4139 13.9826 12.4139 13.9692C12.4139 13.9376 12.2459 13.7696 12.2143 13.7696C12.2009 13.7696 12.1899 13.7632 12.1899 13.7555C12.1899 13.7477 12.1773 13.7371 12.1619 13.732C12.1465 13.7269 12.1051 13.7118 12.0699 13.6984C11.9972 13.6708 11.7337 13.6642 11.718 13.6896C11.7125 13.6984 11.6905 13.7056 11.669 13.7056C11.6475 13.7056 11.63 13.7128 11.63 13.7216C11.63 13.7304 11.6156 13.7376 11.598 13.7376C11.5804 13.7376 11.566 13.7448 11.566 13.7536C11.566 13.7624 11.5565 13.7696 11.545 13.7696C11.5335 13.7696 11.5086 13.784 11.4897 13.8016C11.4708 13.8192 11.4442 13.8336 11.4307 13.8336C11.4171 13.8336 11.406 13.8408 11.406 13.8496C11.406 13.8584 11.3916 13.8656 11.374 13.8656C11.3564 13.8656 11.342 13.8728 11.342 13.8816C11.342 13.8904 11.3312 13.8976 11.318 13.8976C11.3048 13.8976 11.294 13.9048 11.294 13.9136C11.294 13.9224 11.2796 13.9296 11.262 13.9296C11.2444 13.9296 11.23 13.9368 11.23 13.9456C11.23 13.9544 11.2156 13.9616 11.198 13.9616C11.1804 13.9616 11.166 13.9688 11.166 13.9776C11.166 13.9864 11.1516 13.9936 11.134 13.9936C11.1164 13.9936 11.102 14.0008 11.102 14.0096C11.102 14.0184 11.0876 14.0256 11.07 14.0256C11.0524 14.0256 11.038 14.0328 11.038 14.0416C11.038 14.0504 11.0236 14.0576 11.006 14.0576C10.9884 14.0576 10.974 14.0648 10.974 14.0736C10.974 14.0824 10.9596 14.0896 10.942 14.0896C10.9245 14.0896 10.9101 14.0968 10.9101 14.1056C10.9101 14.1144 10.8971 14.1216 10.8813 14.1216C10.8654 14.1216 10.8456 14.1278 10.8373 14.1354C10.8166 14.1543 10.4883 14.2868 10.3941 14.3144C10.3523 14.3266 10.3181 14.3422 10.3181 14.3491C10.3181 14.356 10.2965 14.3616 10.2701 14.3616C10.2437 14.3616 10.2221 14.3688 10.2221 14.3776C10.2221 14.3864 10.2005 14.3936 10.1741 14.3936C10.1477 14.3936 10.1261 14.4008 10.1261 14.4096C10.1261 14.4184 10.105 14.4256 10.0791 14.4256C10.0532 14.4256 10.0276 14.4328 10.0222 14.4416C10.0167 14.4504 9.9911 14.4576 9.96522 14.4576C9.93933 14.4576 9.91817 14.4648 9.91817 14.4736C9.91817 14.4824 9.8934 14.4896 9.86312 14.4896C9.83284 14.4896 9.80362 14.4968 9.79818 14.5056C9.79274 14.5144 9.76755 14.5216 9.74219 14.5216C9.71683 14.5216 9.69164 14.5288 9.6862 14.5376C9.68076 14.5464 9.64435 14.5536 9.60526 14.5536C9.56618 14.5536 9.53421 14.5608 9.53421 14.5696C9.53421 14.5784 9.50585 14.5856 9.47117 14.5856C9.43648 14.5856 9.40367 14.5928 9.39823 14.6016C9.39279 14.6104 9.35278 14.6176 9.3093 14.6176C9.26581 14.6176 9.23025 14.6248 9.23025 14.6336C9.23025 14.6425 9.18758 14.6496 9.13426 14.6496C9.08147 14.6496 9.03827 14.6563 9.03827 14.6644C9.03827 14.6726 8.97889 14.6831 8.90629 14.6879C8.83369 14.6927 8.65912 14.705 8.51833 14.7152C8.18253 14.7397 7.98774 14.7398 7.63844 14.7156C7.48006 14.7047 7.29467 14.692 7.22649 14.6874C7.1583 14.6829 7.1025 14.6725 7.1025 14.6644C7.1025 14.6562 7.0593 14.6496 7.00651 14.6496C6.95319 14.6496 6.91052 14.6425 6.91052 14.6336C6.91052 14.6248 6.87093 14.6176 6.82253 14.6176C6.77414 14.6176 6.73454 14.6104 6.73454 14.6016C6.73454 14.5928 6.70215 14.5856 6.66255 14.5856C6.62296 14.5856 6.59056 14.5784 6.59056 14.5696C6.59056 14.5608 6.56219 14.5536 6.52751 14.5536C6.49283 14.5536 6.46051 14.5472 6.45566 14.5394C6.45083 14.5315 6.4216 14.5207 6.39073 14.5154C6.35985 14.51 6.30939 14.5012 6.2786 14.4958C6.2478 14.4905 6.2226 14.4797 6.2226 14.4718C6.2226 14.464 6.20691 14.4576 6.18774 14.4576C6.15092 14.4576 6.05752 14.4312 6.01085 14.4076C5.99557 14.3999 5.96857 14.3936 5.95086 14.3936C5.93313 14.3936 5.91864 14.3864 5.91864 14.3776C5.91864 14.3688 5.89704 14.3616 5.87064 14.3616C5.84425 14.3616 5.82265 14.3544 5.82265 14.3456C5.82265 14.3368 5.80816 14.3296 5.79043 14.3296C5.77272 14.3296 5.74571 14.3232 5.73044 14.3154C5.70425 14.3021 5.66859 14.2873 5.45469 14.201C5.4063 14.1815 5.33116 14.1484 5.28772 14.1276C5.24427 14.1067 5.19928 14.0896 5.18773 14.0896C5.17618 14.0896 5.16673 14.0824 5.16673 14.0736C5.16673 14.0648 5.15233 14.0576 5.13473 14.0576C5.11713 14.0576 5.10273 14.0504 5.10273 14.0416C5.10273 14.0328 5.08834 14.0256 5.07074 14.0256C5.05314 14.0256 5.03874 14.0184 5.03874 14.0096C5.03874 14.0008 5.02434 13.9936 5.00675 13.9936C4.98915 13.9936 4.97475 13.9864 4.97475 13.9776C4.97475 13.9688 4.96035 13.9616 4.94275 13.9616C4.92515 13.9616 4.91076 13.9544 4.91076 13.9456C4.91076 13.9368 4.89636 13.9296 4.87876 13.9296C4.86116 13.9296 4.84676 13.9237 4.84676 13.9166C4.84676 13.9094 4.82157 13.8937 4.79077 13.8816C4.75997 13.8695 4.73478 13.8538 4.73478 13.8466C4.73478 13.8394 4.72398 13.8336 4.71078 13.8336C4.69758 13.8336 4.68678 13.8277 4.68678 13.8206C4.68678 13.8134 4.66159 13.7977 4.63079 13.7856C4.59999 13.7735 4.5748 13.7578 4.5748 13.7506C4.5748 13.7434 4.56536 13.7376 4.55382 13.7376C4.54227 13.7376 4.51888 13.725 4.50183 13.7096C4.48476 13.6942 4.451 13.6714 4.42681 13.6589C4.40261 13.6464 4.38282 13.6302 4.38282 13.6229C4.38282 13.6156 4.37151 13.6096 4.35769 13.6096C4.34385 13.6096 4.32251 13.6006 4.31024 13.5896C4.27569 13.5586 4.25439 13.5429 4.14275 13.4663C4.08561 13.427 4.03646 13.3892 4.03353 13.3823C4.03059 13.3753 4.02153 13.3696 4.01339 13.3696C4.00523 13.3696 3.97597 13.348 3.94836 13.3216C3.92073 13.2952 3.89203 13.2736 3.88459 13.2736C3.87713 13.2736 3.83428 13.2376 3.78935 13.1936C3.74441 13.1496 3.70151 13.1136 3.694 13.1136C3.6806 13.1136 3.40156 12.8513 3.27261 12.7174C3.2365 12.68 3.14756 12.5883 3.07497 12.5137C3.00237 12.4391 2.94299 12.3714 2.94299 12.3632C2.94299 12.355 2.93731 12.3459 2.93035 12.3429C2.92341 12.34 2.87482 12.2836 2.82236 12.2176C2.76992 12.1516 2.71801 12.0881 2.70701 12.0765C2.69601 12.0648 2.68702 12.0494 2.68702 12.0421C2.68702 12.0349 2.66579 12.0062 2.63984 11.9785C2.61389 11.9507 2.58821 11.9139 2.58277 11.8968C2.57733 11.8796 2.56786 11.8656 2.56174 11.8656C2.55561 11.8656 2.5328 11.8368 2.51104 11.8016C2.48928 11.7664 2.46733 11.7376 2.46226 11.7376C2.45717 11.7376 2.44313 11.7124 2.43105 11.6816C2.41897 11.6508 2.40323 11.6256 2.39606 11.6256C2.38891 11.6256 2.38305 11.6148 2.38305 11.6016C2.38305 11.5884 2.37585 11.5776 2.36705 11.5776C2.35826 11.5776 2.35106 11.5668 2.35106 11.5536C2.35106 11.5404 2.34386 11.5296 2.33506 11.5296C2.32626 11.5296 2.31906 11.5188 2.31906 11.5056C2.31906 11.4924 2.31186 11.4816 2.30306 11.4816C2.29426 11.4816 2.28706 11.4708 2.28706 11.4576C2.28706 11.4444 2.27987 11.4336 2.27107 11.4336C2.26227 11.4336 2.25507 11.4198 2.25507 11.4029C2.25507 11.3861 2.24875 11.3699 2.24104 11.3669C2.22197 11.3597 1.9511 10.8314 1.9511 10.8014C1.9511 10.7883 1.9439 10.7776 1.93511 10.7776C1.92631 10.7776 1.91911 10.7632 1.91911 10.7456C1.91911 10.728 1.9132 10.7136 1.906 10.7136C1.89879 10.7136 1.8831 10.6776 1.87111 10.6336C1.85913 10.5896 1.84344 10.5536 1.83622 10.5536C1.82902 10.5536 1.82312 10.5392 1.82312 10.5216C1.82312 10.504 1.81592 10.4896 1.80712 10.4896C1.79832 10.4896 1.79112 10.4751 1.79112 10.4574C1.79112 10.4397 1.78392 10.4109 1.77512 10.3934C1.76633 10.3759 1.75193 10.3473 1.74313 10.3298C1.73433 10.3123 1.72713 10.2835 1.72713 10.2658C1.72713 10.2481 1.71993 10.2336 1.71113 10.2336C1.70233 10.2336 1.69513 10.212 1.69513 10.1856C1.69513 10.1592 1.68793 10.1376 1.67914 10.1376C1.67034 10.1376 1.66314 10.1196 1.66314 10.0976C1.66314 10.0756 1.65594 10.0576 1.64714 10.0576C1.63834 10.0576 1.63114 10.0324 1.63114 10.0016C1.63114 9.97079 1.62394 9.94559 1.61514 9.94559C1.60634 9.94559 1.59914 9.92082 1.59914 9.89054C1.59914 9.86025 1.59195 9.83103 1.58315 9.82559C1.57435 9.82015 1.56715 9.79495 1.56715 9.76959C1.56715 9.74423 1.55995 9.71903 1.55115 9.71359C1.54235 9.70815 1.53515 9.67894 1.53515 9.64865C1.53515 9.61836 1.52795 9.59359 1.51915 9.59359C1.51036 9.59359 1.50317 9.5738 1.50317 9.54959C1.50319 9.52538 1.48933 9.44439 1.47239 9.36959C1.39483 9.02719 1.32689 8.38399 1.32702 7.99359C1.32714 7.5942 1.39387 6.96214 1.47226 6.61759C1.48927 6.54279 1.50319 6.46178 1.50317 6.43759C1.50317 6.4134 1.51036 6.39359 1.51915 6.39359C1.52795 6.39359 1.53515 6.36882 1.53515 6.33854C1.53515 6.30825 1.54235 6.27903 1.55115 6.27359C1.55995 6.26815 1.56715 6.23894 1.56715 6.20865C1.56715 6.17836 1.57435 6.15359 1.58315 6.15359C1.59195 6.15359 1.59914 6.12839 1.59914 6.09759C1.59914 6.06679 1.60634 6.04159 1.61514 6.04159C1.62394 6.04159 1.63114 6.01639 1.63114 5.98559C1.63114 5.95479 1.63834 5.92959 1.64714 5.92959C1.65594 5.92959 1.66314 5.91159 1.66314 5.88959C1.66314 5.86759 1.67034 5.84959 1.67914 5.84959C1.68793 5.84959 1.69513 5.82799 1.69513 5.80159C1.69513 5.77519 1.70233 5.75359 1.71113 5.75359C1.71993 5.75359 1.72713 5.73602 1.72713 5.71454C1.72713 5.69305 1.73433 5.67103 1.74313 5.66559C1.75193 5.66015 1.75913 5.64174 1.75913 5.62465C1.75913 5.60756 1.76633 5.59359 1.77512 5.59359C1.78392 5.59359 1.79112 5.57199 1.79112 5.54559C1.79112 5.51919 1.79832 5.49759 1.80712 5.49759C1.81592 5.49759 1.82312 5.48319 1.82312 5.46559C1.82312 5.44799 1.83032 5.43359 1.83912 5.43359C1.84792 5.43359 1.85511 5.41199 1.85511 5.38559C1.85511 5.35919 1.86231 5.33759 1.87111 5.33759C1.87991 5.33759 1.88711 5.32319 1.88711 5.30559C1.88711 5.28799 1.89431 5.27359 1.90311 5.27359C1.91191 5.27359 1.91911 5.25919 1.91911 5.24159C1.91911 5.22399 1.92631 5.20959 1.93511 5.20959C1.9439 5.20959 1.9511 5.19887 1.9511 5.18575C1.9511 5.15582 2.22197 4.62751 2.24104 4.62026C2.24875 4.61732 2.25507 4.60113 2.25507 4.58426C2.25507 4.5674 2.26227 4.55359 2.27107 4.55359C2.27987 4.55359 2.28706 4.54279 2.28706 4.52959C2.28706 4.51639 2.29426 4.50559 2.30306 4.50559C2.31186 4.50559 2.31906 4.49479 2.31906 4.48159C2.31906 4.46839 2.32626 4.45759 2.33506 4.45759C2.34386 4.45759 2.35106 4.44815 2.35106 4.43662C2.35106 4.42506 2.36365 4.40167 2.37905 4.38462C2.39446 4.36754 2.41783 4.33199 2.43102 4.30559C2.44421 4.27919 2.45895 4.25399 2.4638 4.24959C2.46863 4.24519 2.49 4.21639 2.51128 4.18559C2.53257 4.15479 2.55921 4.12007 2.5705 4.10846C2.5818 4.09682 2.59103 4.08138 2.59103 4.07414C2.59103 4.0669 2.61263 4.03785 2.63902 4.00959C2.66542 3.98134 2.68702 3.95228 2.68702 3.94505C2.68702 3.9378 2.69602 3.92236 2.70701 3.91073C2.71802 3.89911 2.76992 3.83559 2.82236 3.76959C2.87482 3.70359 2.92341 3.64719 2.93035 3.64426C2.93731 3.64132 2.94299 3.63222 2.94299 3.62401C2.94299 3.6158 2.99517 3.55564 3.05897 3.49031C3.12277 3.42498 3.22606 3.3189 3.28851 3.25457C3.45682 3.08121 3.67565 2.87646 3.71541 2.85518C3.73459 2.84492 3.77686 2.80886 3.80933 2.77505C3.84179 2.74126 3.87507 2.71359 3.88324 2.71359C3.89144 2.71359 3.92073 2.69199 3.94836 2.66559C3.97597 2.63919 4.00523 2.61759 4.01339 2.61759C4.02153 2.61759 4.03059 2.6119 4.03353 2.60492C4.03646 2.59796 4.08565 2.56015 4.14285 2.52092C4.20004 2.48169 4.25559 2.44239 4.26627 2.43359C4.27697 2.42479 4.29497 2.41004 4.30627 2.40079C4.31758 2.39156 4.35917 2.36636 4.39872 2.34479C4.43827 2.32324 4.48463 2.293 4.50173 2.27759C4.51883 2.26218 4.54227 2.24959 4.55382 2.24959C4.56536 2.24959 4.5748 2.24374 4.5748 2.23658C4.5748 2.22942 4.59999 2.21367 4.63079 2.20159C4.66159 2.18951 4.68678 2.17377 4.68678 2.1666C4.68678 2.15945 4.69758 2.15359 4.71078 2.15359C4.72398 2.15359 4.73478 2.14774 4.73478 2.14058C4.73478 2.13342 4.75997 2.11767 4.79077 2.10559C4.82157 2.09351 4.84676 2.07777 4.84676 2.0706C4.84676 2.06345 4.86116 2.05759 4.87876 2.05759C4.89636 2.05759 4.91076 2.05039 4.91076 2.04159C4.91076 2.03279 4.92515 2.02559 4.94275 2.02559C4.96035 2.02559 4.97475 2.01839 4.97475 2.00959C4.97475 2.00079 4.98915 1.99359 5.00675 1.99359C5.02434 1.99359 5.03874 1.98639 5.03874 1.97759C5.03874 1.96879 5.05314 1.96159 5.07074 1.96159C5.08834 1.96159 5.10273 1.95439 5.10273 1.94559C5.10273 1.93679 5.11713 1.92959 5.13473 1.92959C5.15233 1.92959 5.16673 1.92239 5.16673 1.91359C5.16673 1.90479 5.18112 1.89759 5.19872 1.89759C5.21632 1.89759 5.23072 1.89122 5.23072 1.88346C5.23072 1.87569 5.24691 1.8657 5.26672 1.86127C5.28652 1.85684 5.3567 1.8299 5.4227 1.80138C5.48869 1.77287 5.57868 1.73524 5.62267 1.71774C5.66667 1.70025 5.71516 1.67956 5.73044 1.67177C5.74571 1.66398 5.77128 1.65759 5.78723 1.65759C5.8032 1.65759 5.82308 1.65186 5.83145 1.64486C5.8398 1.63785 5.87544 1.62298 5.91064 1.6118C5.94584 1.60062 5.98903 1.58575 6.00663 1.57874C6.0775 1.55057 6.15477 1.52959 6.18774 1.52959C6.20691 1.52959 6.2226 1.52318 6.2226 1.51534C6.2226 1.50751 6.2478 1.49671 6.2786 1.49134C6.30939 1.48598 6.35985 1.47719 6.39073 1.47183C6.4216 1.46646 6.45083 1.45566 6.45566 1.44783C6.46051 1.43999 6.49241 1.43359 6.52657 1.43359C6.56072 1.43359 6.59312 1.42639 6.59856 1.41759C6.604 1.40879 6.63681 1.40159 6.67149 1.40159C6.70618 1.40159 6.73454 1.39439 6.73454 1.38559C6.73454 1.37679 6.77414 1.36959 6.82253 1.36959C6.87093 1.36959 6.91052 1.36239 6.91052 1.35359C6.91052 1.3447 6.95319 1.33759 7.00651 1.33759C7.0593 1.33759 7.1025 1.33094 7.1025 1.32281C7.1025 1.31468 7.1583 1.30414 7.22649 1.29937C8.01356 1.24441 8.07199 1.24311 8.48634 1.27132C8.64472 1.2821 8.83369 1.29476 8.90629 1.29943C8.97889 1.30412 9.03827 1.31462 9.03827 1.32276C9.03827 1.33092 9.08147 1.33759 9.13426 1.33759C9.18758 1.33759 9.23025 1.3447 9.23025 1.35359C9.23025 1.36239 9.26985 1.36959 9.31824 1.36959C9.36663 1.36959 9.40623 1.37679 9.40623 1.38559C9.40623 1.39439 9.43503 1.40159 9.47022 1.40159C9.50542 1.40159 9.53421 1.40807 9.53421 1.41598C9.53421 1.4239 9.56482 1.43447 9.60221 1.43948C9.76572 1.46137 9.80692 1.46983 9.81522 1.48329C9.82009 1.49116 9.84523 1.49759 9.87112 1.49759C9.897 1.49759 9.91817 1.50479 9.91817 1.51359C9.91817 1.52239 9.93933 1.52959 9.96522 1.52959C9.9911 1.52959 10.0167 1.53679 10.0222 1.54559C10.0276 1.55439 10.0532 1.56159 10.0791 1.56159C10.105 1.56159 10.1261 1.56879 10.1261 1.57759C10.1261 1.58639 10.1477 1.59359 10.1741 1.59359C10.2005 1.59359 10.2221 1.60079 10.2221 1.60959C10.2221 1.61839 10.2437 1.62559 10.2701 1.62559C10.2965 1.62559 10.3181 1.63122 10.3181 1.6381C10.3181 1.64498 10.3523 1.66054 10.3941 1.67266C10.4359 1.68481 10.5601 1.73311 10.6701 1.78004C10.7801 1.82695 10.8791 1.8654 10.8901 1.86546C10.9011 1.86553 10.9101 1.87279 10.9101 1.88159C10.9101 1.89039 10.9245 1.89759 10.942 1.89759C10.9596 1.89759 10.974 1.90479 10.974 1.91359C10.974 1.92239 10.9884 1.92959 11.006 1.92959C11.0236 1.92959 11.038 1.93679 11.038 1.94559C11.038 1.95439 11.0524 1.96159 11.07 1.96159C11.0876 1.96159 11.102 1.96879 11.102 1.97759C11.102 1.98639 11.1164 1.99359 11.134 1.99359C11.1516 1.99359 11.166 2.00079 11.166 2.00959C11.166 2.01839 11.1804 2.02559 11.198 2.02559C11.2156 2.02559 11.23 2.03145 11.23 2.0386C11.23 2.04577 11.2552 2.06151 11.286 2.07359C11.3168 2.08567 11.342 2.10142 11.342 2.10858C11.342 2.11574 11.3531 2.12159 11.3667 2.12159C11.3802 2.12159 11.4068 2.13599 11.4257 2.15359C11.4446 2.17119 11.4695 2.18559 11.481 2.18559C11.4925 2.18559 11.502 2.19279 11.502 2.20159C11.502 2.21039 11.5164 2.21759 11.534 2.21759C11.5516 2.21759 11.566 2.22364 11.566 2.23102C11.566 2.23841 11.5842 2.25278 11.6066 2.26295C11.6289 2.27313 11.6559 2.28858 11.6666 2.29729C11.6772 2.30601 11.7436 2.35108 11.8139 2.39748C11.9633 2.4959 12.0403 2.55062 12.0843 2.58959C12.1017 2.605 12.1225 2.61759 12.1305 2.61759C12.1385 2.61759 12.1652 2.63919 12.1899 2.66559C12.2146 2.69199 12.2428 2.71359 12.2527 2.71359C12.2626 2.71359 12.3024 2.74418 12.3411 2.78159C12.3798 2.819 12.446 2.87839 12.4883 2.91359C12.6596 3.05618 13.1332 3.54412 13.2778 3.72682C13.291 3.74351 13.3108 3.76665 13.3218 3.77823C13.3328 3.78983 13.3418 3.80414 13.3418 3.81002C13.3418 3.81593 13.3634 3.84094 13.3898 3.86559C13.4162 3.89025 13.4378 3.91727 13.4378 3.92564C13.4378 3.93401 13.4594 3.96345 13.4858 3.99108C13.5121 4.0187 13.5337 4.05058 13.5337 4.06191C13.5337 4.07326 13.5481 4.0929 13.5657 4.10559C13.5833 4.11828 13.5977 4.13786 13.5977 4.14913C13.5977 4.16038 13.6049 4.16959 13.6137 4.16959C13.6225 4.16959 13.6297 4.1771 13.6297 4.18626C13.6297 4.19543 13.6441 4.21839 13.6617 4.23727C13.6793 4.25617 13.6937 4.28106 13.6937 4.29262C13.6937 4.30415 13.7009 4.31359 13.7097 4.31359C13.7185 4.31359 13.7257 4.32001 13.7257 4.32786C13.7257 4.3422 13.8869 4.60874 13.9174 4.64492C13.9264 4.65554 13.9337 4.67474 13.9337 4.68758C13.9337 4.70042 13.9391 4.71332 13.9457 4.71626C13.9523 4.71919 13.9754 4.75759 13.997 4.80159C14.0186 4.84559 14.0492 4.9007 14.065 4.92406C14.0808 4.94742 14.0937 4.97802 14.0937 4.99206C14.0937 5.0061 14.1009 5.01759 14.1097 5.01759C14.1185 5.01759 14.1257 5.03199 14.1257 5.04959C14.1257 5.06719 14.1329 5.08159 14.1417 5.08159C14.1505 5.08159 14.1577 5.09599 14.1577 5.11359C14.1577 5.13119 14.1649 5.14559 14.1737 5.14559C14.1825 5.14559 14.1897 5.15999 14.1897 5.17759C14.1897 5.19519 14.1969 5.20959 14.2057 5.20959C14.2145 5.20959 14.2217 5.22399 14.2217 5.24159C14.2217 5.25919 14.2289 5.27359 14.2377 5.27359C14.2465 5.27359 14.2537 5.29159 14.2537 5.31359C14.2537 5.33559 14.2609 5.35359 14.2697 5.35359C14.2785 5.35359 14.2857 5.37159 14.2857 5.39359C14.2857 5.41559 14.2929 5.43359 14.3017 5.43359C14.3105 5.43359 14.3177 5.45116 14.3177 5.47265C14.3177 5.49414 14.3249 5.51615 14.3337 5.52159C14.3425 5.52703 14.3497 5.54545 14.3497 5.56254C14.3497 5.57962 14.3568 5.59359 14.3656 5.59359C14.3744 5.59359 14.3816 5.61015 14.3816 5.63039C14.3816 5.65063 14.3877 5.67402 14.3951 5.68239C14.4129 5.7026 14.5709 6.21566 14.5969 6.33759C14.6025 6.36399 14.6139 6.4126 14.6223 6.44559C14.6307 6.4786 14.6454 6.5362 14.6548 6.57359C14.6643 6.61098 14.6787 6.68298 14.6868 6.73359C14.695 6.7842 14.7093 6.8706 14.7188 6.92559C14.7282 6.9806 14.7396 7.0814 14.744 7.14959C14.7484 7.21778 14.7579 7.27359 14.765 7.27359C14.7721 7.27359 14.7832 7.37258 14.7896 7.49359C14.8116 7.90558 14.7957 8.71359 14.7656 8.71359C14.7581 8.71359 14.7484 8.76938 14.744 8.83759C14.7362 8.95801 14.7208 9.06433 14.6863 9.23759C14.6771 9.2838 14.6629 9.3558 14.6546 9.39759C14.6275 9.53476 14.6194 9.56919 14.6064 9.60159C14.5993 9.61919 14.5846 9.67319 14.5738 9.72159C14.5543 9.80826 14.5027 9.98009 14.4437 10.1547C14.4272 10.2036 14.4136 10.2558 14.4136 10.2707C14.4136 10.2855 14.4064 10.2976 14.3976 10.2976C14.3888 10.2976 14.3816 10.3152 14.3816 10.3366C14.3816 10.3581 14.3744 10.3802 14.3656 10.3856C14.3568 10.391 14.3497 10.4094 14.3497 10.4265C14.3497 10.4436 14.3425 10.4576 14.3337 10.4576C14.3249 10.4576 14.3177 10.4792 14.3177 10.5056C14.3177 10.532 14.3105 10.5536 14.3017 10.5536C14.2929 10.5536 14.2857 10.568 14.2857 10.5856C14.2857 10.6032 14.2785 10.6176 14.2697 10.6176C14.2609 10.6176 14.2537 10.632 14.2537 10.6496C14.2537 10.6672 14.2465 10.6816 14.2377 10.6816C14.2289 10.6816 14.2217 10.6996 14.2217 10.7216C14.2217 10.7436 14.2145 10.7616 14.2057 10.7616C14.1969 10.7616 14.1897 10.7717 14.1897 10.7841C14.1897 10.8107 14.123 10.9432 14.1057 10.9509C14.0991 10.9539 14.0937 10.9658 14.0937 10.9774C14.0937 11.0031 14.0265 11.1354 14.0097 11.1429C14.0031 11.1459 13.9977 11.1621 13.9977 11.1789C13.9977 11.1958 13.9905 11.2096 13.9817 11.2096C13.9729 11.2096 13.9657 11.2165 13.9657 11.225C13.9657 11.2402 13.7607 11.5938 13.7428 11.6096C13.7378 11.614 13.7235 11.6374 13.711 11.6616C13.6985 11.6858 13.6823 11.7056 13.675 11.7056C13.6677 11.7056 13.6617 11.72 13.6617 11.7376C13.6617 11.7552 13.6545 11.7696 13.6457 11.7696C13.6369 11.7696 13.6297 11.784 13.6297 11.8016C13.6297 11.8192 13.6225 11.8336 13.6137 11.8336C13.6049 11.8336 13.5977 11.8512 13.5977 11.8726C13.5977 11.8941 13.5905 11.9162 13.5817 11.9216C13.5605 11.9347 13.5605 12.2496 13.5817 12.2496C13.5905 12.2496 13.5977 12.2712 13.5977 12.2976C13.5977 12.324 13.6049 12.3456 13.6137 12.3456C13.6225 12.3456 13.6297 12.36 13.6297 12.3776C13.6297 12.3952 13.6369 12.4096 13.6457 12.4096C13.6545 12.4096 13.6617 12.4178 13.6617 12.4278C13.6617 12.4526 13.8247 12.6168 13.8497 12.6172C13.8607 12.6174 13.8697 12.6248 13.8697 12.6336C13.8697 12.6424 13.8841 12.6496 13.9017 12.6496C13.9193 12.6496 13.9337 12.6568 13.9337 12.6656C13.9337 12.6744 13.9553 12.6816 13.9817 12.6816C14.0081 12.6816 14.0297 12.6888 14.0297 12.6976C14.0297 12.7072 14.0937 12.7136 14.1897 12.7136C14.2857 12.7136 14.3497 12.7072 14.3497 12.6976C14.3497 12.6888 14.3712 12.6816 14.3976 12.6816C14.424 12.6816 14.4456 12.6744 14.4456 12.6656C14.4456 12.6568 14.46 12.6496 14.4776 12.6496C14.4952 12.6496 14.5096 12.6424 14.5096 12.6336C14.5096 12.6248 14.5196 12.6176 14.5317 12.6176C14.567 12.6176 14.6761 12.5023 14.7642 12.3717C14.8089 12.3054 14.8456 12.2435 14.8456 12.2343C14.8456 12.2251 14.8528 12.2176 14.8616 12.2176C14.8704 12.2176 14.8776 12.2082 14.8776 12.1966C14.8776 12.1851 14.892 12.1602 14.9096 12.1413C14.9272 12.1224 14.9416 12.0958 14.9416 12.0823C14.9416 12.0687 14.9488 12.0576 14.9576 12.0576C14.9664 12.0576 14.9736 12.0448 14.9736 12.0291C14.9736 12.0135 14.988 11.9903 15.0056 11.9776C15.0232 11.9649 15.0376 11.9417 15.0376 11.9261C15.0376 11.9104 15.0448 11.8976 15.0536 11.8976C15.0624 11.8976 15.0696 11.8832 15.0696 11.8656C15.0696 11.848 15.0754 11.8336 15.0826 11.8336C15.0897 11.8336 15.1055 11.8084 15.1176 11.7776C15.1296 11.7468 15.1454 11.7216 15.1525 11.7216C15.1597 11.7216 15.1656 11.7072 15.1656 11.6896C15.1656 11.672 15.1728 11.6576 15.1816 11.6576C15.1904 11.6576 15.1976 11.6432 15.1976 11.6256C15.1976 11.608 15.2048 11.5936 15.2135 11.5936C15.2223 11.5936 15.2295 11.5792 15.2295 11.5616C15.2295 11.544 15.2367 11.5296 15.2455 11.5296C15.2543 11.5296 15.2615 11.5152 15.2615 11.4976C15.2615 11.48 15.2687 11.4656 15.2775 11.4656C15.2863 11.4656 15.2935 11.4512 15.2935 11.4336C15.2935 11.416 15.3007 11.4016 15.3095 11.4016C15.3183 11.4016 15.3255 11.3906 15.3255 11.3772C15.3255 11.3638 15.3495 11.3044 15.3789 11.2452C15.4082 11.186 15.4484 11.0944 15.4681 11.0416C15.4879 10.9888 15.5107 10.9331 15.5188 10.9178C15.5269 10.9025 15.5335 10.8791 15.5335 10.8658C15.5335 10.8525 15.5407 10.8416 15.5495 10.8416C15.5583 10.8416 15.5655 10.82 15.5655 10.7936C15.5655 10.7672 15.5727 10.7456 15.5815 10.7456C15.5903 10.7456 15.5975 10.724 15.5975 10.6976C15.5975 10.6712 15.6047 10.6496 15.6135 10.6496C15.6223 10.6496 15.6295 10.6316 15.6295 10.6096C15.6295 10.5876 15.6367 10.5696 15.6455 10.5696C15.6543 10.5696 15.6615 10.5484 15.6615 10.5225C15.6615 10.4966 15.6687 10.471 15.6775 10.4656C15.6863 10.4602 15.6935 10.4381 15.6935 10.4166C15.6935 10.3952 15.7007 10.3776 15.7095 10.3776C15.7183 10.3776 15.7255 10.356 15.7255 10.3296C15.7255 10.3032 15.7327 10.2816 15.7415 10.2816C15.7503 10.2816 15.7575 10.2568 15.7575 10.2265C15.7575 10.1962 15.7647 10.167 15.7735 10.1616C15.7823 10.1562 15.7895 10.1305 15.7895 10.1046C15.7895 10.0788 15.7967 10.0576 15.8055 10.0576C15.8143 10.0576 15.8215 10.0288 15.8215 9.99359C15.8215 9.95839 15.8287 9.92959 15.8375 9.92959C15.8463 9.92959 15.8535 9.90079 15.8535 9.86559C15.8535 9.83039 15.8607 9.80159 15.8695 9.80159C15.8783 9.80159 15.8855 9.77423 15.8855 9.74079C15.8855 9.70735 15.8919 9.67314 15.8998 9.66479C15.9077 9.65644 15.9183 9.62079 15.9234 9.58559C15.9284 9.55039 15.9396 9.47839 15.9483 9.42559C16.0097 9.0522 16.0224 8.95274 16.0545 8.59359C16.0938 8.15289 16.0753 7.41729 16.0138 6.97759C15.972 6.67858 15.9658 6.63734 15.9498 6.55359C15.9406 6.50519 15.9286 6.43124 15.9232 6.38926C15.9178 6.34727 15.9071 6.30905 15.8994 6.30431C15.8917 6.29958 15.8855 6.26775 15.8855 6.23359C15.8855 6.19943 15.8783 6.16703 15.8695 6.16159C15.8607 6.15615 15.8535 6.12735 15.8535 6.09759C15.8535 6.06783 15.8471 6.03953 15.8392 6.03468C15.8258 6.02638 15.8209 6.00668 15.7962 5.86159C15.7906 5.82858 15.7796 5.80159 15.7717 5.80159C15.7639 5.80159 15.7575 5.77639 15.7575 5.74559C15.7575 5.71479 15.7503 5.68959 15.7415 5.68959C15.7327 5.68959 15.7255 5.66799 15.7255 5.64159C15.7255 5.61519 15.7183 5.59359 15.7095 5.59359C15.7007 5.59359 15.6935 5.57199 15.6935 5.54559C15.6935 5.51919 15.6863 5.49759 15.6775 5.49759C15.6687 5.49759 15.6615 5.47599 15.6615 5.44959C15.6615 5.42319 15.6543 5.40159 15.6455 5.40159C15.6367 5.40159 15.6295 5.37999 15.6295 5.35359C15.6295 5.32719 15.6223 5.30559 15.6135 5.30559C15.6047 5.30559 15.5975 5.28399 15.5975 5.25759C15.5975 5.23119 15.5916 5.20959 15.5844 5.20959C15.5772 5.20959 15.5615 5.17359 15.5495 5.12959C15.5375 5.08559 15.5218 5.04959 15.5146 5.04959C15.5074 5.04959 15.5015 5.03303 15.5015 5.01279C15.5015 4.99255 15.4952 4.96914 15.4875 4.96079C15.4798 4.95242 15.4582 4.90404 15.4396 4.85326C15.421 4.80247 15.3877 4.7253 15.3656 4.68178C15.3436 4.63826 15.3255 4.59222 15.3255 4.57946C15.3255 4.5667 15.3201 4.55386 15.3135 4.55092C15.2963 4.54324 15.2295 4.41073 15.2295 4.38407C15.2295 4.3717 15.2242 4.36156 15.2175 4.36153C15.2109 4.3615 15.1876 4.32193 15.1656 4.27359C15.1436 4.22526 15.1202 4.18569 15.1136 4.18566C15.107 4.18562 15.1016 4.17119 15.1016 4.15359C15.1016 4.13599 15.0944 4.12159 15.0856 4.12159C15.0768 4.12159 15.0696 4.10878 15.0696 4.09313C15.0696 4.07746 15.0552 4.05428 15.0376 4.04159C15.02 4.0289 15.0056 4.00572 15.0056 3.99006C15.0056 3.97441 14.9984 3.96159 14.9896 3.96159C14.9808 3.96159 14.9736 3.94719 14.9736 3.92959C14.9736 3.91199 14.9673 3.89759 14.9595 3.89759C14.9518 3.89759 14.9365 3.87599 14.9256 3.84959C14.9147 3.82319 14.8994 3.80159 14.8917 3.80159C14.8839 3.80159 14.8776 3.79473 14.8776 3.78633C14.8776 3.76871 14.6744 3.45214 14.6427 3.42046C14.6311 3.40882 14.6216 3.39295 14.6216 3.38518C14.6216 3.3774 14.6036 3.35305 14.5816 3.33105C14.5596 3.30905 14.5416 3.28281 14.5416 3.27274C14.5416 3.26266 14.52 3.23425 14.4936 3.20959C14.4672 3.18494 14.4456 3.15791 14.4456 3.14954C14.4456 3.14118 14.424 3.11174 14.3976 3.0841C14.3712 3.05649 14.3497 3.02662 14.3497 3.01774C14.3497 3.00886 14.3425 3.00159 14.3337 3.00159C14.3249 3.00159 14.3177 2.99415 14.3177 2.98506C14.3177 2.97596 14.2943 2.94447 14.2657 2.91506C14.2371 2.88566 14.1849 2.8275 14.1497 2.78583C13.987 2.59318 13.7279 2.3102 13.7049 2.30004C13.6978 2.2969 13.643 2.24649 13.5831 2.18798C13.5231 2.12946 13.4293 2.04199 13.3747 1.99359C13.32 1.94519 13.2655 1.8966 13.2537 1.88559C13.2418 1.8746 13.2281 1.86559 13.2232 1.86559C13.2183 1.86559 13.1805 1.83319 13.1392 1.79359C13.0979 1.75399 13.0585 1.72159 13.0517 1.72159C13.0448 1.72159 13.0227 1.70524 13.0025 1.68524C12.9823 1.66526 12.9406 1.63124 12.9098 1.60967C12.879 1.5881 12.8466 1.56476 12.8378 1.55782C12.7258 1.46924 12.6745 1.43388 12.6578 1.43375C12.6469 1.43366 12.6379 1.42809 12.6379 1.42137C12.6379 1.41465 12.6091 1.39135 12.5739 1.36959C12.5387 1.34783 12.5099 1.32454 12.5099 1.31782C12.5099 1.3111 12.4971 1.30559 12.4814 1.30559C12.4657 1.30559 12.4426 1.29119 12.4299 1.27359C12.4172 1.25599 12.3956 1.24159 12.3819 1.24159C12.3682 1.24159 12.3466 1.22719 12.3339 1.20959C12.3212 1.19199 12.298 1.17759 12.2824 1.17759C12.2667 1.17759 12.2539 1.17039 12.2539 1.16159C12.2539 1.15279 12.2445 1.14559 12.2329 1.14559C12.2214 1.14559 12.1965 1.13119 12.1776 1.11359C12.1587 1.09599 12.1321 1.08159 12.1186 1.08159C12.105 1.08159 12.0939 1.07522 12.0939 1.06746C12.0939 1.05969 12.0813 1.04921 12.0659 1.04417C12.0505 1.03913 12.0055 1.01577 11.9659 0.992247C11.8307 0.911943 11.3587 0.681591 11.3294 0.681591C11.3188 0.681591 11.31 0.674391 11.31 0.665591C11.31 0.656791 11.292 0.649591 11.27 0.649591C11.248 0.649591 11.23 0.642391 11.23 0.633591C11.23 0.624791 11.2156 0.617591 11.198 0.617591C11.1804 0.617591 11.166 0.610391 11.166 0.601591C11.166 0.592791 11.148 0.585591 11.126 0.585591C11.104 0.585591 11.086 0.578391 11.086 0.569591C11.086 0.560791 11.068 0.553591 11.046 0.553591C11.024 0.553591 11.006 0.546391 11.006 0.537591C11.006 0.528791 10.9921 0.521591 10.975 0.521591C10.9579 0.521591 10.9395 0.514391 10.9341 0.505591C10.9286 0.496791 10.9066 0.489591 10.8851 0.489591C10.8636 0.489591 10.8461 0.482391 10.8461 0.473591C10.8461 0.464791 10.8245 0.457591 10.7981 0.457591C10.7717 0.457591 10.7501 0.450391 10.7501 0.441591C10.7501 0.432791 10.7325 0.425591 10.711 0.425591C10.6895 0.425591 10.6675 0.418391 10.6621 0.409591C10.6566 0.400791 10.6381 0.393591 10.6209 0.393591C10.6037 0.393591 10.5771 0.387127 10.5619 0.379239C10.5359 0.365799 10.4564 0.341511 10.1941 0.266855C9.97522 0.204535 9.6698 0.136455 9.47822 0.107271C9.41663 0.0978953 9.34104 0.0859913 9.31024 0.0808233C9.16576 0.0565993 9.00018 0.0388553 8.8503 0.0315433C8.7601 0.0271273 8.68631 0.0167913 8.68631 0.00856731C8.68631 -0.000472692 8.43908 -0.00640869 8.06239 -0.00640869C7.6857 -0.00640869 7.43846 -0.000472692 7.43846 0.00856731ZM5.04674 4.89458C4.99395 4.91375 4.94123 4.93847 4.92962 4.94951C4.91799 4.96055 4.90197 4.96959 4.89404 4.96959C4.87099 4.96959 4.73858 5.10839 4.72708 5.14463C4.72132 5.16276 4.70992 5.17759 4.70171 5.17759C4.6935 5.17759 4.68678 5.19199 4.68678 5.20959C4.68678 5.22719 4.67958 5.24159 4.67078 5.24159C4.66199 5.24159 4.65479 5.26319 4.65479 5.28959C4.65479 5.31599 4.64759 5.33759 4.63879 5.33759C4.62925 5.33759 4.62279 5.39862 4.62279 5.48865C4.62279 5.57209 4.62996 5.64414 4.63879 5.64959C4.64759 5.65503 4.65479 5.67202 4.65479 5.68735C4.65479 5.72234 4.69075 5.8013 4.70678 5.80146C4.71339 5.80153 4.71878 5.81143 4.71878 5.82345C4.71878 5.85449 4.88687 6.02559 4.91738 6.02559C4.93133 6.02559 4.94275 6.03279 4.94275 6.04159C4.94275 6.05039 4.95715 6.05759 4.97475 6.05759C4.99235 6.05759 5.00675 6.06479 5.00675 6.07359C5.00675 6.08239 5.02431 6.08959 5.0458 6.08959C5.06728 6.08959 5.0893 6.09679 5.09474 6.10559C5.10843 6.12777 11.038 6.12777 11.038 6.10559C11.038 6.09679 11.0596 6.08959 11.086 6.08959C11.1124 6.08959 11.134 6.08239 11.134 6.07359C11.134 6.06479 11.1484 6.05759 11.166 6.05759C11.1836 6.05759 11.198 6.05039 11.198 6.04159C11.198 6.03279 11.2088 6.02559 11.222 6.02559C11.2352 6.02559 11.246 6.01839 11.246 6.00959C11.246 6.00079 11.254 5.99359 11.2639 5.99359C11.2941 5.99359 11.3976 5.86887 11.447 5.77284C11.491 5.68746 11.494 5.66974 11.494 5.49759C11.494 5.33145 11.4898 5.30471 11.4511 5.2221C11.376 5.06177 11.256 4.95756 11.0669 4.88844C10.9847 4.85838 10.9079 4.85762 8.06261 4.85865L5.14273 4.8597L5.04674 4.89458ZM5.07074 7.38559C5.07074 7.39439 5.05965 7.40159 5.0461 7.40159C5.01175 7.40159 4.89788 7.46151 4.85339 7.50302C4.83299 7.52202 4.80696 7.5457 4.79554 7.55562C4.74522 7.59934 4.69744 7.68169 4.6408 7.82234C4.6185 7.87774 4.61692 8.13207 4.63879 8.14559C4.64759 8.15103 4.65479 8.16878 4.65479 8.18503C4.65479 8.27993 4.83828 8.49629 4.96685 8.55298C5.01079 8.57236 5.05924 8.59482 5.07451 8.6029C5.0911 8.61167 6.29231 8.61759 8.05442 8.61759C11.0138 8.61759 11.134 8.61556 11.134 8.5657C11.134 8.55903 11.1455 8.55359 11.1596 8.55359C11.2147 8.55359 11.3818 8.40414 11.431 8.31084C11.488 8.20263 11.5048 8.11718 11.4993 7.96326C11.4947 7.83594 11.4861 7.79322 11.4492 7.71414C11.3965 7.60132 11.2732 7.47753 11.1675 7.43116C11.1271 7.41346 11.0815 7.39236 11.0663 7.38428C11.0267 7.36335 5.07074 7.36465 5.07074 7.38559ZM5.08674 9.88159C5.08674 9.89039 5.06874 9.89759 5.04674 9.89759C5.02474 9.89759 5.00675 9.90479 5.00675 9.91359C5.00675 9.92239 4.99235 9.92959 4.97475 9.92959C4.95715 9.92959 4.94275 9.93679 4.94275 9.94559C4.94275 9.95439 4.93133 9.96159 4.91738 9.96159C4.88687 9.96159 4.71878 10.1327 4.71878 10.1637C4.71878 10.1758 4.71339 10.1857 4.70678 10.1857C4.69075 10.1859 4.65479 10.2648 4.65479 10.2998C4.65479 10.3152 4.64759 10.3322 4.63879 10.3376C4.62996 10.343 4.62279 10.4151 4.62279 10.4985C4.62279 10.5886 4.62925 10.6496 4.63879 10.6496C4.64759 10.6496 4.65479 10.6712 4.65479 10.6976C4.65479 10.724 4.66199 10.7456 4.67078 10.7456C4.67958 10.7456 4.68678 10.76 4.68678 10.7776C4.68678 10.7952 4.69277 10.8096 4.70008 10.8096C4.70739 10.8096 4.72359 10.8293 4.73607 10.8535C4.77671 10.932 4.86132 11.0025 4.98723 11.0626L5.11073 11.1216L7.99839 11.1262C10.0615 11.1295 10.9157 11.1258 10.99 11.1131C11.1883 11.0791 11.3525 10.957 11.4517 10.7696C11.4906 10.6959 11.494 10.6744 11.494 10.4976C11.494 10.3166 11.4913 10.3004 11.447 10.2143C11.3976 10.1183 11.2941 9.99359 11.2639 9.99359C11.254 9.99359 11.246 9.98639 11.246 9.97759C11.246 9.96879 11.2352 9.96159 11.222 9.96159C11.2088 9.96159 11.198 9.95439 11.198 9.94559C11.198 9.93679 11.1836 9.92959 11.166 9.92959C11.1484 9.92959 11.134 9.92239 11.134 9.91359C11.134 9.90479 11.1124 9.89759 11.086 9.89759C11.0596 9.89759 11.038 9.89039 11.038 9.88159C11.038 9.87098 10.0355 9.86559 8.06239 9.86559C6.08929 9.86559 5.08674 9.87098 5.08674 9.88159Z" fill="currentColor"/>
</g>
<defs>
<clipPath id="clip0_345_5600">
<rect width="16" height="16" fill="white"/>
</clipPath>
</defs>
</svg>
