<svg width="16" height="16" viewBox="0 0 16 16" fill="none" xmlns="http://www.w3.org/2000/svg">
<path d="M7.13594 4.10374C7.21203 4.35155 7.43806 4.53017 7.697 4.54608C7.95625 4.56202 8.20381 4.40817 8.30697 4.17058C8.41094 3.93111 8.35128 3.64455 8.16097 3.46605C7.96769 3.28477 7.67287 3.24702 7.43937 3.37124C7.17887 3.5098 7.05113 3.82183 7.13594 4.10374Z" fill="currentColor"/>
<path d="M10.2728 4.54405C10.5296 4.52052 10.7473 4.33114 10.8147 4.08405C10.8831 3.8338 10.7822 3.56039 10.571 3.41117C10.3554 3.25883 10.0565 3.26136 9.8435 3.41714C9.6355 3.56924 9.54069 3.84049 9.6095 4.08895C9.68903 4.37614 9.97437 4.57636 10.2728 4.54405Z" fill="currentColor"/>
<path d="M12.8706 4.51999C13.1159 4.44486 13.2948 4.22161 13.3124 3.9652C13.3304 3.70339 13.1775 3.45374 12.9375 3.34899C12.6955 3.24342 12.4025 3.30642 12.2258 3.50255C12.0523 3.69502 12.0152 3.98242 12.1357 4.21208C12.2737 4.47486 12.5862 4.60595 12.8706 4.51999Z" fill="currentColor"/>
<path d="M5.62709 7.17608C5.36691 6.94927 4.97213 6.9762 4.74525 7.23639L3.34903 8.83764C3.14381 9.07302 3.14381 9.42377 3.34903 9.65914L4.74525 11.2604C4.86881 11.4021 5.04225 11.4746 5.21659 11.4746C5.36228 11.4746 5.50863 11.4239 5.62709 11.3207C5.88725 11.0938 5.91425 10.699 5.68741 10.4389L4.64934 9.24839L5.68741 8.05789C5.91428 7.79774 5.88728 7.40295 5.62709 7.17608Z" fill="currentColor"/>
<path d="M10.3729 11.3207C10.4914 11.424 10.6377 11.4746 10.7834 11.4746C10.9578 11.4746 11.1312 11.4021 11.2548 11.2604L12.651 9.65917C12.8562 9.4238 12.8562 9.07305 12.651 8.83767L11.2548 7.23642C11.0278 6.97624 10.6331 6.94924 10.3729 7.17611C10.1128 7.40295 10.0857 7.79777 10.3126 8.05792L11.3507 9.24842L10.3126 10.4389C10.0857 10.699 10.1127 11.0938 10.3729 11.3207Z" fill="currentColor"/>
<path d="M6.74563 11.389C6.84491 11.4471 6.95356 11.4747 7.06084 11.4747C7.2755 11.4747 7.4845 11.364 7.60078 11.1654L9.47578 7.96295C9.65016 7.66508 9.55009 7.2822 9.25222 7.10783C8.95428 6.93342 8.5715 7.03352 8.39706 7.33139L6.52206 10.5339C6.34769 10.8317 6.44775 11.2146 6.74563 11.389Z" fill="currentColor"/>
<path d="M15.375 10.2007C15.7202 10.2007 16 9.92089 16 9.5757V3.29877C16 1.92027 14.8785 0.798767 13.5 0.798767H2.5C1.1215 0.798767 0 1.92027 0 3.29877V12.7012C0 14.0797 1.1215 15.2012 2.5 15.2012H13.5C14.8785 15.2012 16 14.0797 16 12.7007C16 12.3555 15.7202 12.076 15.375 12.076C15.0298 12.076 14.75 12.356 14.75 12.7012C14.75 13.3905 14.1892 13.9512 13.5 13.9512H2.5C1.81075 13.9512 1.25 13.3905 1.25 12.7012V3.29877C1.25 2.60952 1.81075 2.04877 2.5 2.04877H13.5C14.1892 2.04877 14.75 2.60952 14.75 3.29877V9.5757C14.75 9.92089 15.0298 10.2007 15.375 10.2007Z" fill="currentColor"/>
</svg>
