<svg width="16" height="16" viewBox="0 0 16 16" fill="none" xmlns="http://www.w3.org/2000/svg">
<g clip-path="url(#clip0_525_16314)">
<path d="M8.67176 0.671756C8.67176 0.300755 8.371 0 8 0C7.629 0 7.32824 0.300755 7.32824 0.671756V8.82099L4.40386 5.8966C4.14152 5.63426 3.71619 5.63426 3.45385 5.8966C3.19151 6.15893 3.19151 6.58427 3.45385 6.8466L7.52447 10.9172" fill="currentColor"/>
<path d="M7.5279 10.9206C7.79046 11.1802 8.2137 11.1793 8.4751 10.9178L12.5463 6.8466C12.8087 6.58427 12.8087 6.15893 12.5463 5.8966C12.284 5.63426 11.8587 5.63426 11.5963 5.8966L8.67176 8.82118V0.671756" fill="currentColor"/>
<path d="M0.671756 9.77099C1.04276 9.77099 1.34351 10.0717 1.34351 10.4427V13.6997C1.34351 13.9535 1.44431 14.1968 1.62373 14.3763C1.80316 14.5557 2.04651 14.6565 2.30025 14.6565H13.6997C13.9535 14.6565 14.1968 14.5557 14.3763 14.3763C14.5557 14.1968 14.6565 13.9535 14.6565 13.6997V10.4427C14.6565 10.0717 14.9572 9.77099 15.3282 9.77099C15.6992 9.77099 16 10.0717 16 10.4427V13.6997C16 14.3098 15.7577 14.8949 15.3263 15.3263C14.8949 15.7577 14.3098 16 13.6997 16H2.30025C1.69019 16 1.10511 15.7577 0.673729 15.3263C0.242348 14.8949 0 14.3098 0 13.6997V10.4427C0 10.0717 0.300755 9.77099 0.671756 9.77099Z" fill="currentColor"/>
</g>
<defs>
<clipPath id="clip0_525_16314">
<rect width="16" height="16" fill="white"/>
</clipPath>
</defs>
</svg>
