<svg width="16" height="16" viewBox="0 0 16 16" fill="none" xmlns="http://www.w3.org/2000/svg">
<g clip-path="url(#clip0_290_6253)">
<path d="M15.4566 9.07932C14.7322 8.35144 13.5534 8.3514 12.8294 9.07882L9.4291 12.4877C9.35688 12.5601 9.30362 12.6493 9.27395 12.7473L8.53342 15.1968C8.46777 15.414 8.52497 15.6498 8.68272 15.8123C8.80089 15.9339 8.96143 16 9.12608 16C9.18117 16 9.23679 15.9926 9.29138 15.9774L11.7912 15.2816C11.8941 15.253 11.9879 15.1982 12.0634 15.1224L15.4567 11.7195C16.1811 10.9916 16.1811 9.80727 15.4566 9.07932ZM11.3036 14.1259L10.046 14.476L10.414 13.2585L12.7084 10.9584L13.5845 11.8386L11.3036 14.1259ZM14.5812 10.8391L14.4612 10.9594L13.5853 10.0793L13.7049 9.95942C13.9464 9.71679 14.3393 9.71679 14.5808 9.95942C14.8223 10.202 14.8223 10.5968 14.5812 10.8391Z" fill="currentColor"/>
<path fill-rule="evenodd" clip-rule="evenodd" d="M3.50477 4.04762C3.50477 6.28308 5.31692 8.09523 7.55238 8.09523C9.78784 8.09523 11.6 6.28308 11.6 4.04762C11.6 1.81216 9.78784 0 7.55238 0C5.31692 0 3.50477 1.81216 3.50477 4.04762ZM7.55238 6.77894C6.0439 6.77894 4.82106 5.5561 4.82106 4.04762C4.82106 2.53913 6.0439 1.3163 7.55238 1.3163C9.06087 1.3163 10.2837 2.53913 10.2837 4.04762C10.2837 5.5561 9.06087 6.77894 7.55238 6.77894Z" fill="currentColor"/>
<path fill-rule="evenodd" clip-rule="evenodd" d="M0.0395965 12.9026C-0.198758 14.0492 0.668397 15.1374 1.84985 15.1374H5.89055C6.25404 15.1374 6.5487 14.8428 6.5487 14.4793C6.5487 14.1158 6.25404 13.8211 5.89055 13.8211H1.84985C1.51446 13.8211 1.25756 13.511 1.32834 13.1705C1.931 10.2718 4.49736 8.09523 7.56883 8.09523C8.50808 8.09523 9.4063 8.31991 10.2218 8.69632C10.5518 8.84865 10.9428 8.7046 11.0952 8.37458C11.2475 8.04455 11.1034 7.65352 10.7734 7.50119C9.80558 7.05445 8.72 6.77894 7.56883 6.77894C3.85992 6.77894 0.766396 9.40676 0.0395965 12.9026Z" fill="currentColor"/>
</g>
<defs>
<clipPath id="clip0_290_6253">
<rect width="16" height="16" fill="white"/>
</clipPath>
</defs>
</svg>
