<svg width="16" height="16" viewBox="0 0 16 16" fill="none" xmlns="http://www.w3.org/2000/svg">
<path d="M8.00469 14.03C6.06035 14.03 4.27489 13.3307 2.69776 11.9514C1.41404 10.8289 0.591493 9.51724 0.215374 8.83554C-0.0740395 8.31061 -0.0716961 7.68515 0.221935 7.16233C0.604382 6.48133 1.43794 5.17136 2.72331 4.04956C4.30489 2.66928 6.08167 1.9693 8.00469 1.9693C9.9277 1.9693 11.7047 2.66975 13.2842 4.05096C14.5674 5.17347 15.3984 6.48344 15.7795 7.16467C16.0712 7.68609 16.0736 8.30991 15.786 8.83343C15.6124 9.14956 15.3213 9.64027 14.9213 10.1828C14.7165 10.4607 14.3254 10.5198 14.0474 10.3149C13.7697 10.1101 13.7105 9.71901 13.9153 9.44108C14.2745 8.95388 14.5351 8.51425 14.6907 8.2314C14.7695 8.08822 14.7688 7.91762 14.6888 7.7749C14.3472 7.16421 13.6036 5.99062 12.4616 4.99185C11.1168 3.81545 9.6172 3.21905 8.00492 3.21905C6.39264 3.21905 4.89262 3.81522 3.54538 4.99115C2.40132 5.98968 1.65494 7.1635 1.31186 7.77443C1.23148 7.91738 1.23078 8.08869 1.30999 8.23211C1.6465 8.8421 2.38117 10.014 3.52078 11.0109C4.86332 12.185 6.37202 12.7805 8.00492 12.7805C9.39598 12.7805 10.7024 12.3455 11.888 11.4881C12.1675 11.2856 12.5582 11.3484 12.7607 11.6282C12.9629 11.9078 12.9003 12.2984 12.6205 12.5009C11.2175 13.5158 9.66453 14.0307 8.00492 14.0307L8.00469 14.03Z" fill="currentColor"/>
<path d="M7.99999 11.6863C5.96707 11.6863 4.31308 10.0323 4.31308 7.99941C4.31308 5.96649 5.96707 4.3125 7.99999 4.3125C10.0329 4.3125 11.6869 5.96649 11.6869 7.99941C11.6869 10.0323 10.0329 11.6863 7.99999 11.6863ZM7.99999 5.56248C6.65627 5.56248 5.56283 6.65569 5.56283 7.99964C5.56283 9.3436 6.65604 10.4366 7.99999 10.4366C9.34395 10.4366 10.4372 9.34336 10.4372 7.99964C10.4372 6.65592 9.34395 5.56248 7.99999 5.56248Z" fill="currentColor"/>
<path d="M8.70092 8.1693C8.22169 8.13719 7.83948 7.73646 7.82846 7.2563C7.82846 7.25231 7.82846 7.24833 7.82846 7.24435C7.82542 6.97157 7.52358 6.81245 7.29791 6.96595C6.94241 7.20779 6.71815 7.6282 6.75424 8.09829C6.8011 8.70688 7.29299 9.19876 7.90134 9.2454C8.37143 9.28149 8.79184 9.05722 9.03368 8.70172C9.18718 8.47628 9.0283 8.17398 8.75552 8.17117C8.73748 8.17117 8.7192 8.17023 8.70092 8.16906" fill="currentColor"/>
</svg>
