<svg width="16" height="16" viewBox="0 0 16 16" fill="none" xmlns="http://www.w3.org/2000/svg">
<path d="M15.8169 14.9328L12.5233 11.6392C12.5183 11.6339 12.5132 11.6288 12.508 11.6238L4.3835 3.49936C4.378 3.49364 4.37243 3.48807 4.36675 3.48261L1.06742 0.183284C0.82333 -0.06081 0.427642 -0.06081 0.183579 0.183284C-0.0604845 0.427379 -0.0605158 0.823067 0.183579 1.06713L2.97696 3.86051C1.55311 4.98155 0.670392 6.23336 0.411423 6.62708C-0.137141 7.46108 -0.137141 8.5389 0.411423 9.3729C0.746174 9.88181 1.69002 11.1883 3.22087 12.3262C4.77084 13.4782 6.38347 14.0623 8.01394 14.0623C9.35785 14.0623 10.6929 13.6624 11.9891 12.8727L14.9331 15.8167C15.0551 15.9387 15.2151 15.9998 15.375 15.9998C15.535 15.9998 15.6949 15.9387 15.8169 15.8167C16.061 15.5726 16.061 15.1769 15.8169 14.9328ZM5.98362 6.86715L6.8436 7.72712C6.75322 8.12234 6.86194 8.55387 7.16978 8.86171C7.47763 9.16956 7.90913 9.27825 8.30438 9.1879L9.13342 10.0169C8.79132 10.2098 8.40373 10.3124 8.00029 10.3124C6.72519 10.3124 5.68787 9.27506 5.68787 7.99999C5.68784 7.59808 5.79072 7.2098 5.98362 6.86715ZM8.01391 12.8123C4.97944 12.8123 2.46377 10.2186 1.45568 8.68593C1.18155 8.26921 1.18155 7.73068 1.45568 7.31396C1.69383 6.9519 2.52408 5.77542 3.86765 4.75123L5.07803 5.96161C4.66231 6.55593 4.43787 7.26315 4.43787 7.99996C4.43787 9.96428 6.03594 11.5623 8.00026 11.5623C8.74004 11.5623 9.44538 11.3383 10.0389 10.9225L11.0754 11.9589C10.0624 12.5257 9.03551 12.8123 8.01391 12.8123Z" fill="currentColor"/>
<path d="M15.6049 6.65137C15.6017 6.64615 15.5984 6.64093 15.5951 6.63574C15.2632 6.12621 14.3269 4.81805 12.8028 3.67848C11.2579 2.52332 9.64667 1.9376 8.01392 1.9376C7.39245 1.9376 6.76248 2.02545 6.14157 2.19864C5.80907 2.29142 5.61476 2.63614 5.70747 2.96858C5.80022 3.30105 6.14482 3.49533 6.47741 3.40267C6.98898 3.25995 7.50595 3.18761 8.01389 3.18761C11.0355 3.18761 13.5275 5.7619 14.5349 7.29834C14.5381 7.30356 14.5414 7.30877 14.5448 7.31393C14.6791 7.51806 14.75 7.75524 14.75 7.99993C14.75 8.24462 14.6791 8.48181 14.5448 8.68594C14.2442 9.14297 13.8413 9.64431 13.4104 10.0976C13.1726 10.3478 13.1826 10.7434 13.4328 10.9812C13.5537 11.0962 13.7086 11.1532 13.8633 11.1532C14.0285 11.1532 14.1935 11.088 14.3164 10.9588C14.9323 10.3109 15.3485 9.73866 15.5891 9.37278C15.8579 8.96409 16 8.48937 16 7.99987C16 7.52012 15.8635 7.05449 15.6049 6.65137Z" fill="currentColor"/>
<path d="M11.4798 7.23309C11.186 5.89527 10.1335 4.8332 8.79814 4.52739C8.4617 4.45048 8.12648 4.66064 8.04942 4.99708C7.97238 5.33355 8.18267 5.66874 8.5191 5.7458C9.38542 5.94418 10.0683 6.63318 10.2589 7.50115C10.323 7.79315 10.5816 7.99221 10.8687 7.99221C10.9131 7.99221 10.9582 7.98746 11.0033 7.97753C11.3405 7.90353 11.5538 7.57021 11.4798 7.23309Z" fill="currentColor"/>
</svg>
