<svg width="16" height="17" viewBox="0 0 16 17" fill="none" xmlns="http://www.w3.org/2000/svg">
<g clip-path="url(#clip0_451_20950)">
<path fill-rule="evenodd" clip-rule="evenodd" d="M10.7841 8.5014C10.7844 6.95904 9.54105 5.71421 8.00014 5.71421C6.46196 5.71421 5.21633 6.95631 5.21424 8.49239C5.21214 10.0346 6.45553 11.2828 7.99499 11.2841C9.53703 11.2854 10.7838 10.0413 10.7841 8.5014ZM9.67735 8.51669C9.67059 9.43824 8.91526 10.1834 7.9937 10.1775C7.0633 10.1715 6.31746 9.42247 6.32084 8.49722C6.32422 7.56022 7.07633 6.81535 8.01317 6.82082C8.94261 6.82629 9.68427 7.5821 9.67735 8.51669Z" fill="currentColor"/>
<path fill-rule="evenodd" clip-rule="evenodd" d="M4.00802 3.64004C3.67863 3.44421 3.3222 3.34154 2.86907 3.34026C2.38037 3.35088 1.89956 3.54494 1.49808 3.93596C1.30126 4.12773 1.16791 4.36216 1.03447 4.59673C1.02761 4.60878 1.02076 4.62083 1.01389 4.63288C0.536139 5.4714 0.677743 6.48065 1.37756 7.14249C1.5113 7.26908 1.66862 7.37209 1.82422 7.47398C1.84348 7.48658 1.86271 7.49918 1.88186 7.51179C2.12935 7.6748 2.28801 7.89412 2.32132 8.18876C2.33621 8.32078 2.33509 8.45492 2.33398 8.5887C2.33368 8.62401 2.33339 8.6593 2.33339 8.69451C2.33339 8.88728 2.27433 9.06236 2.16732 9.22279C2.0607 9.38281 1.90319 9.47792 1.74415 9.57396C1.73974 9.57662 1.73534 9.57928 1.73093 9.58195C0.95886 10.0484 0.588114 10.9327 0.790383 11.8096C0.857011 12.0985 1.00308 12.3492 1.1495 12.6005C1.15407 12.6083 1.15865 12.6162 1.16322 12.624C1.62746 13.421 2.53356 13.8121 3.41891 13.6003C3.65169 13.5447 3.86025 13.4357 4.06979 13.3263C4.081 13.3204 4.09222 13.3146 4.10344 13.3087C4.40709 13.1502 4.71153 13.1613 5.01019 13.3264C5.12251 13.3885 5.23515 13.4513 5.34232 13.5218C5.41537 13.5699 5.48601 13.6257 5.54636 13.689C5.74798 13.9006 5.79835 14.1609 5.79674 14.4451C5.79143 15.3526 6.37474 16.1365 7.24126 16.406C7.56518 16.5067 7.89795 16.5104 8.22928 16.4913C9.05106 16.4436 9.65031 16.047 10.0151 15.3069C10.1638 15.0052 10.209 14.6816 10.2055 14.3468C10.2014 13.9726 10.3681 13.689 10.6916 13.4989L10.713 13.4864C10.8051 13.4323 10.8973 13.3782 10.9902 13.3255C11.1833 13.216 11.389 13.1777 11.6099 13.2106C11.766 13.2338 11.8994 13.3071 12.033 13.3805C12.0585 13.3945 12.0839 13.4085 12.1096 13.4222C12.9379 13.8629 13.9939 13.6703 14.595 12.9529C14.7312 12.7905 14.8401 12.6035 14.9479 12.4184C14.9615 12.3952 14.9749 12.3721 14.9885 12.349C15.2181 11.9574 15.3077 11.5305 15.2471 11.081C15.151 10.3703 14.7772 9.84875 14.1466 9.506C13.8809 9.36166 13.7156 9.133 13.6812 8.83161C13.6584 8.63304 13.66 8.42997 13.6698 8.22979C13.6807 8.00869 13.7692 7.80996 13.9306 7.65806C14.0284 7.56608 14.146 7.49315 14.2612 7.42171L14.2693 7.41669C14.6203 7.19897 14.8947 6.91142 15.0659 6.5352C15.3631 5.88222 15.3269 5.24113 14.9759 4.61647C14.8168 4.3331 14.6517 4.05536 14.3986 3.84102C13.7232 3.26913 12.8182 3.17838 12.045 3.6114C11.8457 3.72307 11.6431 3.81302 11.4073 3.7987C11.1006 3.78003 10.5453 3.464 10.3702 3.20911C10.2315 3.00749 10.201 2.78253 10.2019 2.54389C10.2059 1.6299 9.59688 0.830803 8.71829 0.579777C8.42446 0.49578 8.12484 0.495941 7.8249 0.503987C7.08502 0.523618 6.5075 0.843676 6.10489 1.46464C5.87221 1.82364 5.78322 2.22432 5.79336 2.65106C5.8006 2.96259 5.68297 3.22697 5.43114 3.41138C5.26798 3.53078 5.0892 3.63409 4.9056 3.71921C4.5968 3.86226 4.29509 3.81077 4.00802 3.64004ZM13.8494 12.1131C13.665 12.4023 13.3935 12.5399 13.0549 12.5518C12.842 12.555 12.661 12.4646 12.4805 12.3666C11.795 11.9945 11.1088 11.9952 10.4267 12.3748C10.4118 12.3831 10.3968 12.3914 10.3818 12.3997C10.151 12.528 9.91968 12.6565 9.72851 12.8442C9.29807 13.2666 9.08984 13.7818 9.09773 14.3822C9.10095 14.6398 9.03899 14.8701 8.86826 15.0654C8.69383 15.2651 8.47209 15.3758 8.20739 15.3845C8.03103 15.3903 7.85145 15.3956 7.67814 15.3695C7.22308 15.3008 6.89996 14.914 6.90334 14.453C6.90592 14.0885 6.85089 13.7388 6.68531 13.4099C6.50943 13.0611 6.2584 12.7812 5.92402 12.5803C5.89465 12.5626 5.86533 12.5448 5.83601 12.527C5.60239 12.3852 5.36834 12.243 5.09998 12.1704C4.53324 12.0171 3.99643 12.09 3.48795 12.381C3.35246 12.4586 3.21375 12.5254 3.05509 12.5424C2.72071 12.5783 2.43283 12.4768 2.22751 12.2139C2.09572 12.0451 1.98436 11.8518 1.90278 11.6536C1.73447 11.2448 1.90423 10.7756 2.28463 10.5408L2.30174 10.5303C2.49472 10.4113 2.6865 10.293 2.8467 10.1286C3.2271 9.7382 3.42551 9.27058 3.43854 8.72782C3.43891 8.7123 3.43929 8.69678 3.43967 8.68126C3.44662 8.39716 3.45361 8.11183 3.38174 7.83185C3.24416 7.29601 2.94309 6.87924 2.47692 6.58123C2.45483 6.56709 2.4326 6.55317 2.41036 6.53924C2.34625 6.49908 2.28212 6.45892 2.22155 6.41388C1.83745 6.12825 1.7298 5.61783 1.96377 5.19994C2.02009 5.09953 2.07818 5.00025 2.13739 4.90144C2.38922 4.48098 2.92008 4.32505 3.3568 4.54808C3.38909 4.56456 3.42126 4.58127 3.45342 4.59797C3.64449 4.69721 3.83511 4.79621 4.04776 4.84593C4.57749 4.96967 5.08067 4.90144 5.55392 4.63368C5.5813 4.6182 5.60876 4.60281 5.63622 4.58743C5.86104 4.46146 6.08629 4.33526 6.27256 4.15142C6.69496 3.73466 6.90431 3.22778 6.90045 2.63626C6.899 2.40712 6.93681 2.19407 7.07246 2.00515C7.22002 1.79983 7.41698 1.66418 7.6672 1.6291C7.90857 1.59531 8.15477 1.58404 8.39437 1.64181C8.81194 1.7427 9.09869 2.10991 9.09467 2.53939C9.09081 2.94376 9.16097 3.32754 9.36324 3.68252C9.54941 4.00934 9.80639 4.26439 10.1313 4.45298C10.1577 4.46832 10.1841 4.48376 10.2105 4.4992C10.4521 4.64064 10.6933 4.78185 10.9713 4.84641C11.5074 4.97096 12.0137 4.8963 12.492 4.62612C12.6275 4.54969 12.7645 4.47647 12.9228 4.45813C13.3167 4.41243 13.6286 4.5521 13.8466 4.88213C13.9406 5.02454 14.0304 5.17403 14.0936 5.33173C14.265 5.75847 14.0939 6.23349 13.6902 6.47084C13.4196 6.62982 13.1721 6.81278 12.9804 7.06525C12.7072 7.42506 12.5666 7.83137 12.5593 8.28144C12.5588 8.31147 12.5583 8.34152 12.5577 8.37157C12.5527 8.62804 12.5478 8.88522 12.6087 9.13815C12.7564 9.75139 13.1093 10.2071 13.6645 10.5054C14.1099 10.7447 14.2861 11.2905 14.0582 11.7424C13.9943 11.8689 13.9255 11.9937 13.8494 12.1131Z" fill="currentColor"/>
</g>
<defs>
<clipPath id="clip0_451_20950">
<rect width="16" height="16" fill="white" transform="translate(0 0.500488)"/>
</clipPath>
</defs>
</svg>
