<svg width="16" height="16" viewBox="0 0 16 16" fill="none" xmlns="http://www.w3.org/2000/svg">
<g clip-path="url(#clip0_287_6171)">
<path fill-rule="evenodd" clip-rule="evenodd" d="M15.1667 8.00001C15.1667 4.0425 11.9589 0.834211 8.0016 0.833344H8C4.04196 0.833344 0.833333 4.04197 0.833333 8.00001C0.833333 11.9581 4.04196 15.1667 8 15.1667C11.958 15.1667 15.1667 11.9581 15.1667 8.00001ZM11.1544 7.5C11.0553 5.48667 10.3601 3.55355 9.16571 1.94337C11.8547 2.45782 13.9235 4.71855 14.1467 7.5H11.1544ZM10.153 7.5C10.0443 5.50754 9.28791 3.60472 8 2.08156C6.71209 3.60472 5.95575 5.50754 5.84697 7.5H10.153ZM5.84697 8.5H10.153C10.0443 10.4925 9.28791 12.3953 8 13.9185C6.71209 12.3953 5.95574 10.4925 5.84697 8.5ZM4.84563 7.5C4.9447 5.48667 5.63995 3.55355 6.83429 1.94337C4.14534 2.45781 2.07649 4.71855 1.85331 7.5H4.84563ZM1.85331 8.5H4.84563C4.94469 10.5133 5.63995 12.4465 6.83429 14.0567C4.14534 13.5422 2.07649 11.2815 1.85331 8.5ZM11.1544 8.5H14.1467C13.9235 11.2815 11.8547 13.5422 9.16571 14.0567C10.3601 12.4465 11.0553 10.5133 11.1544 8.5Z" fill="currentColor"/>
</g>
<defs>
<clipPath id="clip0_287_6171">
<rect width="16" height="16" fill="white"/>
</clipPath>
</defs>
</svg>
