<svg width="20" height="20" viewBox="0 0 20 20" fill="none" xmlns="http://www.w3.org/2000/svg">
<path d="M12.5147 5.9635L15.1064 3.84175C13.7209 2.69144 11.9411 2 10 2C6.90813 2 4.22594 3.75384 2.8945 6.32088C2.32263 7.42241 2 8.67341 2 10C2 11.3719 2.34506 12.6628 2.95341 13.7912C4.30463 16.2971 6.95341 18 10 18C11.8958 18 13.6374 17.3407 15.0083 16.2387C16.418 15.1055 17.4356 13.5042 17.8251 11.6703C17.9398 11.1314 18 10.5728 18 10C18 9.48922 17.9521 8.98944 17.8602 8.5055H10.1759V11.6703H14.4537C14.0686 12.698 13.3376 13.5565 12.4022 14.1051L12.4023 14.1051L12.4022 14.1051C11.6976 14.5187 10.8765 14.7556 10 14.7556C7.96088 14.7556 6.22153 13.4721 5.54594 11.669C5.35078 11.1499 5.24441 10.5873 5.24434 10C5.24434 9.45891 5.33491 8.93891 5.50106 8.4545L5.50104 8.45446L5.5011 8.4545C6.14285 6.58678 7.91472 5.24438 10 5.24438C10.9235 5.24438 11.7855 5.50769 12.5147 5.9635Z" fill="currentColor"/>
</svg>
