<svg width="16" height="17" viewBox="0 0 16 17" fill="none" xmlns="http://www.w3.org/2000/svg">
<path fill-rule="evenodd" clip-rule="evenodd" d="M5.41982 7.40166C4.92716 7.40166 4.52779 7.80103 4.52779 8.29369C4.52779 8.78634 4.92716 9.18572 5.41982 9.18572C5.91247 9.18572 6.31185 8.78634 6.31185 8.29369C6.31185 7.80103 5.91247 7.40166 5.41982 7.40166ZM3.27779 8.29369C3.27779 7.11068 4.23681 6.15166 5.41982 6.15166C6.60283 6.15166 7.56185 7.11068 7.56185 8.29369C7.56185 9.4767 6.60283 10.4357 5.41982 10.4357C4.23681 10.4357 3.27779 9.4767 3.27779 8.29369Z" fill="currentColor"/>
<path fill-rule="evenodd" clip-rule="evenodd" d="M6.96577 13.2915C6.11198 12.4377 4.72768 12.4377 3.87385 13.2915C3.62977 13.5356 3.23404 13.5356 2.98997 13.2915C2.74589 13.0474 2.74589 12.6517 2.98997 12.4076C4.33195 11.0656 6.50771 11.0656 7.84967 12.4076C8.09374 12.6517 8.09374 13.0474 7.84966 13.2915C7.60557 13.5356 7.20985 13.5356 6.96577 13.2915Z" fill="currentColor"/>
<path fill-rule="evenodd" clip-rule="evenodd" d="M9.45906 9.91463C9.45906 9.56945 9.73888 9.28963 10.0841 9.28963H12.5681C12.9133 9.28963 13.1931 9.56945 13.1931 9.91463C13.1931 10.2598 12.9133 10.5396 12.5681 10.5396H10.0841C9.73888 10.5396 9.45906 10.2598 9.45906 9.91463Z" fill="currentColor"/>
<path fill-rule="evenodd" clip-rule="evenodd" d="M9.45906 12.8496C9.45906 12.5044 9.73888 12.2246 10.0841 12.2246H12.5681C12.9133 12.2246 13.1931 12.5044 13.1931 12.8496C13.1931 13.1947 12.9133 13.4746 12.5681 13.4746H10.0841C9.73888 13.4746 9.45906 13.1947 9.45906 12.8496Z" fill="currentColor"/>
<path fill-rule="evenodd" clip-rule="evenodd" d="M8 2.22253C7.59079 2.22253 7.28062 2.59177 7.35127 2.99489L7.45693 3.59775H8.54307L8.64873 2.99487C8.71937 2.5918 8.40923 2.22253 8 2.22253ZM6.12004 3.21068C5.91532 2.04261 6.81409 0.972534 8 0.972534C9.18589 0.972534 10.0847 2.04259 9.87996 3.21064C9.87996 3.21065 9.87996 3.21064 9.87996 3.21064L9.68368 4.33064C9.63128 4.62964 9.37162 4.84775 9.06806 4.84775H6.93194C6.62838 4.84775 6.36872 4.62964 6.31632 4.33064L6.12004 3.21068C6.12004 3.21068 6.12004 3.21067 6.12004 3.21068Z" fill="currentColor"/>
<path fill-rule="evenodd" clip-rule="evenodd" d="M0 6.09776C0 4.7171 1.11924 3.59776 2.49975 3.59776H13.4998C14.8807 3.59776 16 4.71699 16 6.09776V10.3974C16 10.7426 15.7202 11.0224 15.375 11.0224C15.0298 11.0224 14.75 10.7426 14.75 10.3974V6.09776C14.75 5.40746 14.1904 4.84776 13.4998 4.84776H2.49975C1.8097 4.84776 1.25 5.40735 1.25 6.09776V13.5285C1.25 14.2188 1.80965 14.7785 2.5 14.7785H13.5C14.1904 14.7785 14.75 14.2188 14.75 13.5285V13.5224C14.75 13.1773 15.0298 12.8974 15.375 12.8974C15.7202 12.8974 16 13.1773 16 13.5224V13.5285C16 14.9092 14.8807 16.0285 13.5 16.0285H2.5C1.11929 16.0285 0 14.9092 0 13.5285V6.09776Z" fill="currentColor"/>
</svg>
