<svg width="16" height="17" viewBox="0 0 16 17" fill="none" xmlns="http://www.w3.org/2000/svg">
<path d="M7.99487 16.3599C7.56396 16.3599 7.16479 16.1654 6.89917 15.8258L5.30103 13.7991L2.49963 13.7974C1.12146 13.7974 0 12.6759 0 11.2974V3.14111C0 1.76257 1.12146 0.641113 2.5 0.641113H13.5C14.8785 0.641113 16 1.76257 16 3.14111V8.17236C16 8.51758 15.7202 8.79736 15.375 8.79736C15.0298 8.79736 14.75 8.51758 14.75 8.17236V3.14111C14.75 2.4519 14.1892 1.89111 13.5 1.89111H2.5C1.81079 1.89111 1.25 2.4519 1.25 3.14111V11.2974C1.25 11.9866 1.81079 12.5474 2.5 12.5474L5.60474 12.5492C5.79602 12.5493 5.97668 12.6371 6.09509 12.7872L7.88232 15.0537C7.91882 15.1005 7.96338 15.1099 7.995 15.1099H7.99561C8.0271 15.1097 8.07202 15.1001 8.10693 15.0548C8.10803 15.0533 8.10913 15.0519 8.11023 15.0505L9.88293 12.787C10.0015 12.6357 10.1829 12.5474 10.375 12.5474H13.5C14.1893 12.5474 14.75 11.9866 14.75 11.2974C14.75 10.9521 15.0298 10.6724 15.375 10.6724C15.7202 10.6724 16 10.9521 16 11.2974C16 12.6759 14.8785 13.7974 13.5 13.7974H10.6794L9.0957 15.8195C8.83154 16.1613 8.43262 16.3582 8.00049 16.3599C7.99866 16.3599 7.9967 16.3599 7.99487 16.3599ZM8.625 10.1724V6.79736C8.625 6.45215 8.34521 6.17236 8 6.17236C7.65479 6.17236 7.375 6.45215 7.375 6.79736V10.1724C7.375 10.5176 7.65479 10.7974 8 10.7974C8.34521 10.7974 8.625 10.5176 8.625 10.1724ZM8 4.01611C7.65479 4.01611 7.375 4.2959 7.375 4.64111C7.375 4.98633 7.65479 5.26611 8 5.26611C8.34521 5.26611 8.625 4.98633 8.625 4.64111C8.625 4.2959 8.34521 4.01611 8 4.01611Z" fill="currentColor"/>
</svg>
