<svg width="16" height="16" viewBox="0 0 16 16" fill="none" xmlns="http://www.w3.org/2000/svg">
<path fill-rule="evenodd" clip-rule="evenodd" d="M9.63775 2.95942C8.57329 2.61358 7.42666 2.61359 6.36221 2.95946C5.29776 3.30534 4.37012 3.97931 3.71226 4.88479C3.05439 5.79027 2.70006 6.88078 2.70005 8.00001C2.70004 9.11925 3.05435 10.2098 3.71221 11.1152C4.37007 12.0207 5.29769 12.6947 6.36214 13.0406C7.42659 13.3865 8.57321 13.3865 9.63768 13.0407C10.7021 12.6949 11.6298 12.0209 12.2877 11.1155C12.9456 10.21 13.3 9.11954 13.3 8.00031C13.3001 7.61371 13.6135 7.30032 14.0001 7.30034C14.3867 7.30036 14.7001 7.61378 14.7 8.00038C14.7 9.41526 14.252 10.7938 13.4203 11.9384C12.5886 13.0831 11.4159 13.935 10.0703 14.3722C8.72461 14.8094 7.2751 14.8093 5.92948 14.3721C4.58386 13.9348 3.4112 13.0828 2.57957 11.9381C1.74794 10.7934 1.30004 9.41488 1.30005 8C1.30006 6.58512 1.74799 5.20656 2.57963 4.06189C3.41128 2.91723 4.58395 2.06523 5.92957 1.62799C7.2752 1.19075 8.72471 1.19073 10.0703 1.62793C10.438 1.74739 10.6393 2.1423 10.5198 2.50998C10.4003 2.87766 10.0054 3.07888 9.63775 2.95942Z" fill="currentColor"/>
</svg>
