<svg width="16" height="16" viewBox="0 0 16 16" fill="none" xmlns="http://www.w3.org/2000/svg">
<path d="M3.33333 2.5C3.11232 2.5 2.90036 2.5878 2.74408 2.74408C2.5878 2.90036 2.5 3.11232 2.5 3.33333V12.6667C2.5 12.8877 2.5878 13.0996 2.74408 13.2559C2.90036 13.4122 3.11232 13.5 3.33333 13.5H6C6.27614 13.5 6.5 13.7239 6.5 14C6.5 14.2761 6.27614 14.5 6 14.5H3.33333C2.8471 14.5 2.38079 14.3068 2.03697 13.963C1.69315 13.6192 1.5 13.1529 1.5 12.6667V3.33333C1.5 2.8471 1.69315 2.38079 2.03697 2.03697C2.38079 1.69315 2.8471 1.5 3.33333 1.5H6C6.27614 1.5 6.5 1.72386 6.5 2C6.5 2.27614 6.27614 2.5 6 2.5H3.33333Z" fill="currentColor"/>
<path d="M10.3131 4.3131C10.5084 4.11784 10.825 4.11784 11.0202 4.3131L14.3536 7.64644C14.403 7.6959 14.44 7.75315 14.4644 7.81425C14.4851 7.8662 14.4968 7.92093 14.4994 7.976C14.4998 7.98399 14.5 7.99199 14.5 7.99999C14.5 8.00307 14.5 8.00615 14.4999 8.00922C14.4987 8.07581 14.4845 8.13921 14.4597 8.197C14.438 8.24758 14.4077 8.29531 14.3685 8.33791C14.3631 8.34386 14.3575 8.34967 14.3517 8.35535L11.0202 11.6869C10.825 11.8821 10.5084 11.8821 10.3131 11.6869C10.1179 11.4916 10.1179 11.175 10.3131 10.9798L12.7929 8.5H6C5.72386 8.5 5.5 8.27614 5.5 8C5.5 7.72386 5.72386 7.5 6 7.5H12.7929L10.3131 5.02021C10.1179 4.82495 10.1179 4.50837 10.3131 4.3131Z" fill="currentColor"/>
</svg>
