<svg width="16" height="16" viewBox="0 0 16 16" fill="none" xmlns="http://www.w3.org/2000/svg">
<g clip-path="url(#clip0_342_5486)">
<path fill-rule="evenodd" clip-rule="evenodd" d="M3.64297 3.78869C3.5333 3.79602 3.30761 3.85413 3.21197 3.89965C3.16852 3.92033 3.12353 3.93725 3.11197 3.93725C3.10042 3.93725 3.09097 3.94444 3.09097 3.95322C3.09097 3.962 3.07657 3.96918 3.05896 3.96918C3.04136 3.96918 3.02696 3.97637 3.02696 3.98515C3.02696 3.99393 3.01937 4.00112 3.01009 4.00112C2.99412 4.00112 2.804 4.12317 2.78696 4.14438C2.78256 4.14985 2.75465 4.1713 2.7249 4.19204C2.59148 4.28508 2.05324 4.82171 1.97096 4.94371C1.95776 4.96328 1.90736 5.02092 1.85896 5.0718C1.81056 5.12267 1.72056 5.21989 1.65896 5.2878C1.3601 5.61739 0.979173 5.96492 0.916805 5.96492C0.906997 5.96492 0.898965 5.97034 0.898965 5.97699C0.898965 5.98363 0.875573 5.99859 0.846965 6.01026C0.818357 6.02191 0.780565 6.0375 0.762965 6.04489C0.707413 6.06818 0.638565 6.08032 0.518965 6.08785C0.455173 6.09188 0.402965 6.10178 0.402965 6.10987C0.402965 6.11796 0.381365 6.12457 0.354965 6.12457C0.328565 6.12457 0.306965 6.13176 0.306965 6.14054C0.306965 6.14932 0.292565 6.15651 0.274965 6.15651C0.257365 6.15651 0.242965 6.16369 0.242965 6.17247C0.242965 6.18125 0.235845 6.18844 0.227141 6.18844C0.210645 6.18844 0.156021 6.22939 0.124997 6.26504C0.115077 6.27644 0.0911248 6.30271 0.0717649 6.3234C0.0524049 6.34409 0.0212208 6.39583 0.00245284 6.43838C-0.0162992 6.48093 -0.0382672 6.52821 -0.0463472 6.54346C-0.0662832 6.58109 -0.0651632 6.88651 -0.0450352 6.89892C-0.0362352 6.90435 -0.0290352 6.92272 -0.0290352 6.93978C-0.0290352 6.95683 -0.0227312 6.97077 -0.0150352 6.97077C-0.00733915 6.97077 0.00330085 6.99237 0.00858084 7.01877C0.0272048 7.11165 0.278981 7.32201 0.371525 7.32201C0.387781 7.32201 0.404933 7.32826 0.409653 7.33587C0.431717 7.37149 0.801557 7.35185 0.982965 7.30544C1.12285 7.26965 1.17986 7.25181 1.19416 7.23941C1.20253 7.23216 1.22592 7.22622 1.24616 7.22622C1.2664 7.22622 1.28296 7.21903 1.28296 7.21025C1.28296 7.20147 1.29736 7.19429 1.31496 7.19429C1.33256 7.19429 1.34696 7.1871 1.34696 7.17832C1.34696 7.16954 1.36136 7.16236 1.37896 7.16236C1.39656 7.16236 1.41096 7.15517 1.41096 7.14639C1.41096 7.13761 1.42536 7.13042 1.44296 7.13042C1.46056 7.13042 1.47496 7.12324 1.47496 7.11446C1.47496 7.10568 1.48936 7.09849 1.50696 7.09849C1.52456 7.09849 1.53896 7.09131 1.53896 7.08253C1.53896 7.07375 1.54976 7.06656 1.56296 7.06656C1.57616 7.06656 1.58696 7.05938 1.58696 7.05059C1.58696 7.04181 1.59776 7.03463 1.61096 7.03463C1.62416 7.03463 1.63496 7.02744 1.63496 7.01866C1.63496 7.00988 1.64576 7.0027 1.65896 7.0027C1.67216 7.0027 1.68296 6.99551 1.68296 6.98673C1.68296 6.97795 1.69376 6.97077 1.70696 6.97077C1.72016 6.97077 1.73096 6.96358 1.73096 6.9548C1.73096 6.94602 1.73848 6.93883 1.74768 6.93883C1.75688 6.93883 1.78242 6.92087 1.80442 6.89892C1.82642 6.87697 1.85053 6.859 1.858 6.859C1.86548 6.859 1.8938 6.83924 1.92095 6.8151C2.21096 6.55715 2.37449 6.39858 2.46696 6.28562C2.49777 6.24799 2.56256 6.17533 2.61097 6.12416C2.73717 5.9907 2.9077 5.80392 2.94583 5.75736C2.96381 5.73541 2.99482 5.69738 3.01474 5.67287C3.09514 5.57391 3.34885 5.32556 3.36156 5.3334C3.36903 5.338 3.3789 5.35805 3.38348 5.37793C3.38807 5.39783 3.41497 5.47516 3.44325 5.5498C3.47154 5.62444 3.50282 5.70887 3.51274 5.7374C3.52268 5.76595 3.53623 5.78929 3.54288 5.78929C3.54953 5.78929 3.55492 5.79828 3.55485 5.80925C3.55471 5.8346 3.71842 6.16269 3.73477 6.16981C3.74148 6.17274 3.74696 6.18531 3.74696 6.19775C3.74696 6.2102 3.75416 6.22037 3.76296 6.22037C3.77176 6.22037 3.77896 6.23316 3.77896 6.24877C3.77896 6.2644 3.79337 6.28754 3.81097 6.3002C3.82857 6.31286 3.84297 6.33441 3.84297 6.3481C3.84297 6.36178 3.85737 6.38333 3.87496 6.39599C3.89257 6.40866 3.90697 6.43179 3.90697 6.44742C3.90697 6.46304 3.91261 6.47582 3.91951 6.47582C3.92642 6.47582 3.94468 6.49712 3.96007 6.52315C3.97548 6.54917 3.99684 6.57975 4.00752 6.5911C4.01821 6.60247 4.06025 6.65122 4.10092 6.69946C4.19546 6.81157 4.32313 6.93883 4.34104 6.93883C4.34868 6.93883 4.3846 6.96757 4.42087 7.0027C4.45714 7.03782 4.49676 7.06656 4.5089 7.06656C4.52103 7.06656 4.53096 7.07287 4.53096 7.08059C4.53096 7.08831 4.55257 7.10355 4.57897 7.11446C4.60537 7.12536 4.62697 7.14061 4.62697 7.14832C4.62697 7.15605 4.64137 7.16236 4.65897 7.16236C4.67657 7.16236 4.69097 7.16954 4.69097 7.17832C4.69097 7.1871 4.70537 7.19429 4.72297 7.19429C4.74057 7.19429 4.75497 7.20147 4.75497 7.21025C4.75497 7.21903 4.76792 7.22622 4.78376 7.22622C4.7996 7.22622 4.8194 7.23216 4.82776 7.23941C4.83612 7.24666 4.87537 7.26185 4.91497 7.27316C4.95457 7.28446 5.00137 7.29965 5.01897 7.30688C5.12581 7.3508 5.52192 7.36418 5.69897 7.32985C5.77377 7.31534 5.85844 7.29966 5.88711 7.29502C5.9158 7.29035 5.94322 7.28017 5.94805 7.27236C5.9529 7.26454 5.97442 7.25815 5.99591 7.25815C6.0174 7.25815 6.03497 7.25097 6.03497 7.24218C6.03497 7.2334 6.04836 7.22622 6.06472 7.22622C6.09681 7.22622 6.29551 7.13022 6.30429 7.11047C6.30724 7.10389 6.32343 7.09849 6.34029 7.09849C6.35716 7.09849 6.37097 7.09131 6.37097 7.08253C6.37097 7.07375 6.38177 7.06656 6.39497 7.06656C6.40816 7.06656 6.41897 7.05938 6.41897 7.05059C6.41897 7.04181 6.42977 7.03463 6.44297 7.03463C6.45617 7.03463 6.46697 7.02744 6.46697 7.01866C6.46697 7.00988 6.47777 7.0027 6.49097 7.0027C6.50417 7.0027 6.51497 6.99551 6.51497 6.98673C6.51497 6.97795 6.52418 6.97077 6.53543 6.97077C6.54669 6.97077 6.56628 6.9564 6.57897 6.93883C6.59165 6.92127 6.61017 6.9069 6.62012 6.9069C6.63007 6.9069 6.6593 6.88714 6.68508 6.863C6.71085 6.83886 6.76773 6.7908 6.81146 6.75622C6.85519 6.72163 6.98817 6.59477 7.10697 6.47429C7.29729 6.28128 7.36703 6.20651 7.52017 6.0314C7.54063 6.00801 7.59103 5.95037 7.63217 5.90332C7.6733 5.85627 7.74116 5.7811 7.78297 5.73629C7.82477 5.69147 7.85897 5.64954 7.85897 5.64311C7.85897 5.63184 7.97721 5.51022 8.10927 5.38569L8.17325 5.32537L8.21156 5.44157C8.23263 5.5055 8.25432 5.56138 8.2598 5.56577C8.26525 5.57016 8.27969 5.60789 8.29185 5.64959C8.304 5.69129 8.31957 5.72543 8.32645 5.72543C8.33333 5.72543 8.33897 5.7363 8.33897 5.7496C8.33897 5.76288 8.34543 5.78624 8.35333 5.80149C8.36122 5.81674 8.39896 5.89387 8.43717 5.9729C8.4754 6.05193 8.51213 6.11899 8.51882 6.12191C8.52549 6.12485 8.53096 6.141 8.53096 6.15783C8.53096 6.17466 8.53817 6.18844 8.54697 6.18844C8.55577 6.18844 8.56297 6.20123 8.56297 6.21684C8.56297 6.23247 8.57736 6.25561 8.59496 6.26827C8.61257 6.28093 8.62697 6.30406 8.62697 6.31969C8.62697 6.33531 8.63301 6.3481 8.64039 6.3481C8.64778 6.3481 8.66215 6.36633 8.67233 6.38862C8.6825 6.41089 8.69804 6.43784 8.70687 6.44849C8.71569 6.45912 8.76375 6.52173 8.8137 6.58758C8.91181 6.71699 9.16013 6.97077 9.18863 6.97077C9.19825 6.97077 9.22631 6.99232 9.25097 7.01866C9.27562 7.04501 9.30732 7.06656 9.32138 7.06656C9.33546 7.06656 9.34696 7.07253 9.34696 7.07983C9.34696 7.08712 9.36676 7.10328 9.39097 7.11572C9.41517 7.12817 9.43857 7.14206 9.44297 7.14658C9.45103 7.15487 9.58364 7.21905 9.64297 7.24338C9.89857 7.34821 10.2479 7.38195 10.523 7.3284C10.5934 7.31469 10.6744 7.29966 10.7031 7.29502C10.7318 7.29035 10.7592 7.28017 10.7641 7.27236C10.7689 7.26454 10.7869 7.25815 10.8041 7.25815C10.8213 7.25815 10.8479 7.25186 10.8632 7.24418C10.9821 7.18437 11.0331 7.16236 11.0525 7.16236C11.0649 7.16236 11.075 7.15651 11.075 7.14938C11.075 7.14222 11.1002 7.12651 11.131 7.11446C11.1618 7.1024 11.187 7.08669 11.187 7.07954C11.187 7.0724 11.2014 7.06656 11.219 7.06656C11.2366 7.06656 11.251 7.05938 11.251 7.05059C11.251 7.04181 11.2604 7.03463 11.2719 7.03463C11.2835 7.03463 11.3084 7.02026 11.3273 7.0027C11.3462 6.98513 11.3711 6.97077 11.3828 6.97077C11.3944 6.97077 11.4143 6.9564 11.427 6.93883C11.4397 6.92127 11.4579 6.9069 11.4675 6.9069C11.4771 6.9069 11.4989 6.89411 11.5159 6.87848C11.55 6.84729 11.7571 6.67825 11.8234 6.6275C11.8636 6.59675 12.563 5.90396 12.563 5.89487C12.563 5.87493 12.7989 5.63356 12.9652 5.48339C13.03 5.4249 13.1154 5.34766 13.155 5.31175C13.1945 5.27583 13.2305 5.24652 13.235 5.24658C13.2463 5.24676 13.283 5.32844 13.283 5.35341C13.283 5.36484 13.2902 5.37418 13.299 5.37418C13.3078 5.37418 13.315 5.38855 13.315 5.40611C13.315 5.42367 13.3222 5.43804 13.331 5.43804C13.3398 5.43804 13.347 5.44834 13.347 5.46092C13.347 5.48837 13.5515 5.90785 13.62 6.0208C13.6466 6.0647 13.6725 6.11321 13.6775 6.12857C13.6826 6.14394 13.6931 6.15651 13.7008 6.15651C13.7086 6.15651 13.715 6.16593 13.715 6.17744C13.715 6.18897 13.7294 6.21381 13.747 6.23266C13.7646 6.2515 13.779 6.27643 13.779 6.28802C13.779 6.29962 13.7934 6.31947 13.811 6.33213C13.8286 6.34479 13.843 6.36326 13.843 6.3732C13.843 6.38313 13.8646 6.41381 13.891 6.44139C13.9174 6.46894 13.939 6.49971 13.939 6.50974C13.939 6.51976 13.9516 6.53958 13.9671 6.55379C13.9826 6.56798 14.0164 6.6078 14.0421 6.64227C14.1066 6.72868 14.3817 7.0027 14.404 7.0027C14.414 7.0027 14.4423 7.02425 14.467 7.05059C14.4916 7.07694 14.5217 7.09849 14.5338 7.09849C14.546 7.09849 14.5663 7.11286 14.579 7.13042C14.5917 7.14799 14.6148 7.16236 14.6305 7.16236C14.6461 7.16236 14.659 7.16954 14.659 7.17832C14.659 7.1871 14.6734 7.19429 14.691 7.19429C14.7086 7.19429 14.723 7.20147 14.723 7.21025C14.723 7.21903 14.7374 7.22622 14.755 7.22622C14.7726 7.22622 14.787 7.2334 14.787 7.24218C14.787 7.25097 14.8009 7.25815 14.818 7.25815C14.8351 7.25815 14.8535 7.26534 14.859 7.27412C14.8644 7.2829 14.8852 7.29008 14.9052 7.29008C14.9253 7.29008 14.9469 7.29535 14.9534 7.3018C14.9944 7.34275 15.4444 7.37445 15.467 7.33798C15.4724 7.3292 15.4902 7.32201 15.5064 7.32201C15.5839 7.32201 15.843 7.12027 15.843 7.05995C15.843 7.04603 15.8502 7.03463 15.859 7.03463C15.8678 7.03463 15.875 7.02026 15.875 7.0027C15.875 6.98513 15.8822 6.97077 15.891 6.97077C15.8998 6.97077 15.907 6.9528 15.907 6.93085C15.907 6.9089 15.9142 6.89094 15.923 6.89094C15.9326 6.89094 15.939 6.82441 15.939 6.72329C15.939 6.62218 15.9326 6.55565 15.923 6.55565C15.9142 6.55565 15.907 6.53769 15.907 6.51574C15.907 6.49379 15.8998 6.47582 15.891 6.47582C15.8822 6.47582 15.875 6.46495 15.875 6.45165C15.875 6.43837 15.866 6.41193 15.855 6.39291C15.8202 6.33275 15.6751 6.1947 15.622 6.17126C15.5939 6.15885 15.571 6.14329 15.571 6.13665C15.571 6.13 15.5494 6.12457 15.523 6.12457C15.4966 6.12457 15.475 6.11739 15.475 6.10861C15.475 6.09973 15.4323 6.09264 15.379 6.09264C15.3262 6.09264 15.283 6.08594 15.283 6.07775C15.283 6.06956 15.2687 6.05835 15.2512 6.05281C15.2123 6.04047 15.1246 5.9561 15.0188 5.82921C14.9749 5.77652 14.9353 5.72982 14.9309 5.72543C14.9265 5.72104 14.9127 5.6977 14.9002 5.67354C14.8878 5.64938 14.8716 5.62963 14.8643 5.62963C14.8569 5.62963 14.851 5.61684 14.851 5.60123C14.851 5.5856 14.8366 5.56247 14.819 5.5498C14.8014 5.53714 14.787 5.5146 14.787 5.49972C14.787 5.48482 14.7816 5.47025 14.775 5.46731C14.7599 5.46065 14.708 5.37562 14.6961 5.33826C14.6912 5.32288 14.6809 5.31032 14.6731 5.31032C14.6653 5.31032 14.659 5.29595 14.659 5.27838C14.659 5.26082 14.6518 5.24645 14.643 5.24645C14.6342 5.24645 14.627 5.23208 14.627 5.21452C14.627 5.19696 14.6198 5.18259 14.611 5.18259C14.6022 5.18259 14.595 5.16822 14.595 5.15066C14.595 5.1331 14.5878 5.11873 14.579 5.11873C14.5702 5.11873 14.563 5.10795 14.563 5.09478C14.563 5.08161 14.5571 5.07083 14.5499 5.07083C14.5426 5.07083 14.5269 5.03491 14.515 4.991C14.503 4.94709 14.4873 4.91117 14.4801 4.91117C14.4729 4.91117 14.467 4.89824 14.467 4.88243C14.467 4.86663 14.4609 4.84688 14.4535 4.83853C14.446 4.83019 14.4233 4.78025 14.403 4.72756C14.3827 4.67488 14.3504 4.59584 14.3313 4.55194C14.3122 4.50803 14.2791 4.41647 14.2577 4.34845C14.2364 4.28044 14.2136 4.22477 14.207 4.22472C14.2004 4.22467 14.1948 4.20848 14.1946 4.18871C14.1944 4.16895 14.1802 4.13483 14.163 4.11288C14.1457 4.09092 14.1315 4.06739 14.1313 4.06057C14.1304 4.02708 13.9755 3.89945 13.8718 3.84673C13.756 3.78783 13.7534 3.78733 13.571 3.78922C13.4608 3.79035 13.3517 3.8009 13.299 3.81553C13.2506 3.82896 13.175 3.85003 13.131 3.86237C13.057 3.88311 12.8053 3.99566 12.787 4.01616C12.7826 4.02109 12.7592 4.0353 12.735 4.04775C12.7108 4.06019 12.691 4.07635 12.691 4.08364C12.691 4.09094 12.6798 4.09691 12.6662 4.09691C12.6526 4.09691 12.6235 4.11487 12.6015 4.13683C12.5795 4.15878 12.5555 4.17674 12.5482 4.17674C12.5409 4.17674 12.5075 4.20189 12.4738 4.23262C12.4402 4.26336 12.4064 4.2885 12.3986 4.2885C12.3908 4.2885 12.3579 4.31545 12.3255 4.34837C12.2931 4.38131 12.2126 4.45589 12.1468 4.51411C11.9992 4.64451 11.7541 4.88572 11.6954 4.95824C11.6285 5.04097 11.0153 5.66153 11.0003 5.6618C10.9929 5.66195 10.9474 5.69848 10.899 5.74297C10.8506 5.78749 10.7714 5.85009 10.723 5.88212C10.6746 5.91413 10.6326 5.94587 10.6296 5.95262C10.6267 5.95939 10.6136 5.96492 10.6005 5.96492C10.5874 5.96492 10.5655 5.97604 10.5519 5.98965C10.5383 6.00325 10.5064 6.01851 10.481 6.02357C10.4557 6.02864 10.435 6.03828 10.435 6.045C10.435 6.05658 10.394 6.06609 10.2536 6.08709C10.2175 6.09248 10.1849 6.08894 10.1744 6.07848C10.1646 6.06871 10.144 6.06071 10.1287 6.06071C10.0508 6.06071 9.82908 5.86606 9.76181 5.73866C9.75101 5.71821 9.73728 5.69789 9.73132 5.6935C9.72533 5.68911 9.69941 5.646 9.6737 5.5977C9.64801 5.5494 9.62157 5.50749 9.61497 5.50457C9.60836 5.50164 9.60297 5.48548 9.60297 5.46865C9.60297 5.45181 9.59577 5.43804 9.58697 5.43804C9.57817 5.43804 9.57097 5.42795 9.57097 5.41561C9.57097 5.40325 9.55554 5.36195 9.53669 5.32381C9.51785 5.28565 9.49529 5.23647 9.48655 5.21452C9.47783 5.19257 9.4636 5.15664 9.45497 5.13469C9.44631 5.11274 9.43287 5.08231 9.42509 5.06706C9.41732 5.05181 9.41096 5.02486 9.41096 5.00719C9.41096 4.9895 9.40377 4.97503 9.39497 4.97503C9.38617 4.97503 9.37897 4.95348 9.37897 4.92714C9.37897 4.90079 9.37177 4.87924 9.36297 4.87924C9.35417 4.87924 9.34696 4.85812 9.34696 4.83228C9.34696 4.80645 9.33977 4.78089 9.33097 4.77546C9.32217 4.77003 9.31497 4.74088 9.31497 4.71065C9.31497 4.68043 9.30777 4.65572 9.29897 4.65572C9.29016 4.65572 9.28297 4.63057 9.28297 4.59984C9.28297 4.5691 9.27577 4.54396 9.26696 4.54396C9.25817 4.54396 9.25097 4.50803 9.25097 4.46413C9.25097 4.42022 9.24376 4.3843 9.23497 4.3843C9.22616 4.3843 9.21897 4.36263 9.21897 4.33614C9.21897 4.27851 9.18412 4.16077 9.16708 4.16077C9.16041 4.16077 9.15497 4.14641 9.15497 4.12884C9.15497 4.11128 9.14777 4.09691 9.13897 4.09691C9.13017 4.09691 9.12296 4.08653 9.12296 4.07384C9.12296 4.03519 8.96001 3.88696 8.8738 3.84721C8.71284 3.77298 8.5138 3.76407 8.27497 3.8204C8.15807 3.84797 8.00277 3.90208 7.97976 3.92325C7.97141 3.93096 7.9516 3.93725 7.93577 3.93725C7.91993 3.93725 7.90685 3.94265 7.90671 3.94923C7.90658 3.9558 7.87058 3.97878 7.82671 4.00027C7.78285 4.02176 7.74697 4.0451 7.74697 4.05216C7.74697 4.05922 7.73752 4.06498 7.72599 4.06498C7.71444 4.06498 7.68954 4.07935 7.67065 4.09691C7.65177 4.11447 7.62881 4.12884 7.61964 4.12884C7.61047 4.12884 7.60297 4.13603 7.60297 4.14481C7.60297 4.15359 7.59545 4.16077 7.58625 4.16077C7.57704 4.16077 7.55255 4.17695 7.53183 4.1967C7.51111 4.21646 7.45274 4.26854 7.40215 4.31245C7.27361 4.42399 6.96617 4.73068 6.89897 4.81442C6.86817 4.85278 6.82319 4.90643 6.79903 4.9336C6.69124 5.05485 6.59757 5.15807 6.53097 5.229C6.42621 5.34057 6.37097 5.40464 6.37097 5.41451C6.37097 5.42621 6.07389 5.71829 5.98554 5.79346C5.8569 5.9029 5.83941 5.916 5.80906 5.92561C5.79252 5.93085 5.77896 5.94097 5.77896 5.94809C5.77896 5.95521 5.75737 5.96998 5.73097 5.98088C5.70457 5.99179 5.68297 6.00703 5.68297 6.01475C5.68297 6.02247 5.669 6.02878 5.65191 6.02878C5.63482 6.02878 5.61641 6.03596 5.61097 6.04475C5.60553 6.05353 5.58033 6.06071 5.55497 6.06071C5.5296 6.06071 5.50441 6.0679 5.49897 6.07668C5.48575 6.09801 5.40719 6.09694 5.35172 6.07468C5.21556 6.02006 5.20703 6.01436 5.10039 5.90656C4.99964 5.80472 4.98357 5.78492 4.96032 5.73402C4.95015 5.71173 4.93666 5.6935 4.93034 5.6935C4.92402 5.6935 4.90989 5.67194 4.89896 5.6456C4.88804 5.61926 4.87276 5.5977 4.86503 5.5977C4.85729 5.5977 4.85097 5.58333 4.85097 5.56577C4.85097 5.54821 4.84377 5.53384 4.83497 5.53384C4.82617 5.53384 4.81896 5.52006 4.81896 5.50323C4.81896 5.4864 4.81357 5.47025 4.80696 5.46731C4.78969 5.45964 4.72297 5.32742 4.72297 5.30082C4.72297 5.28848 4.71576 5.27838 4.70696 5.27838C4.69816 5.27838 4.69097 5.26042 4.69097 5.23847C4.69097 5.21652 4.68376 5.19856 4.67496 5.19856C4.66616 5.19856 4.65897 5.18419 4.65897 5.16662C4.65897 5.14906 4.65176 5.13469 4.64296 5.13469C4.63417 5.13469 4.62697 5.11314 4.62697 5.08679C4.62697 5.06045 4.61977 5.0389 4.61097 5.0389C4.60217 5.0389 4.59496 5.01734 4.59496 4.991C4.59496 4.96466 4.58777 4.9431 4.57897 4.9431C4.57017 4.9431 4.56296 4.92155 4.56296 4.8952C4.56296 4.86886 4.55577 4.84731 4.54697 4.84731C4.53817 4.84731 4.53096 4.82618 4.53096 4.80035C4.53096 4.77452 4.52377 4.74896 4.51497 4.74353C4.50617 4.7381 4.49897 4.71295 4.49897 4.68765C4.49897 4.66234 4.49177 4.6372 4.48296 4.63177C4.47416 4.62634 4.46697 4.60111 4.46697 4.5757C4.46697 4.55028 4.46045 4.51298 4.45249 4.49282C4.44453 4.47265 4.42869 4.41304 4.4173 4.36035C4.35936 4.09244 4.25613 3.94413 4.05845 3.84484C3.98959 3.81024 3.83172 3.77573 3.76402 3.78047C3.74144 3.78205 3.68696 3.78575 3.64297 3.78869ZM3.54697 8.66315C3.52937 8.6707 3.49506 8.67737 3.47074 8.67799C3.44642 8.6786 3.41402 8.68582 3.39874 8.69402C3.38346 8.70221 3.33677 8.71815 3.29497 8.72944C3.25316 8.74072 3.21897 8.75556 3.21897 8.76242C3.21897 8.76929 3.20457 8.77491 3.18696 8.77491C3.16936 8.77491 3.15496 8.78209 3.15496 8.79087C3.15496 8.79965 3.14056 8.80684 3.12297 8.80684C3.10537 8.80684 3.09097 8.81402 3.09097 8.8228C3.09097 8.83159 3.07657 8.83877 3.05896 8.83877C3.04136 8.83877 3.02696 8.84596 3.02696 8.85474C3.02696 8.86352 3.01256 8.8707 2.99497 8.8707C2.97737 8.8707 2.96297 8.87789 2.96297 8.88667C2.96297 8.89545 2.95216 8.90263 2.93897 8.90263C2.92577 8.90263 2.91496 8.90982 2.91496 8.9186C2.91496 8.92738 2.90417 8.93457 2.89096 8.93457C2.87776 8.93457 2.86697 8.94175 2.86697 8.95053C2.86697 8.95931 2.85925 8.9665 2.84983 8.9665C2.84039 8.9665 2.8232 8.97549 2.8116 8.98645C2.77452 9.02158 2.72284 9.06229 2.71532 9.06229C2.69172 9.06229 2.17869 9.56819 2.02696 9.7411C1.98296 9.79123 1.92176 9.85905 1.89096 9.8918C1.86016 9.92454 1.81696 9.97508 1.79496 10.0041C1.66957 10.1694 1.09362 10.7387 1.05175 10.7387C1.042 10.7387 1.02365 10.7531 1.01096 10.7706C0.998277 10.7882 0.978693 10.8026 0.967429 10.8026C0.956181 10.8026 0.946965 10.8098 0.946965 10.8185C0.946965 10.8273 0.936165 10.8345 0.922965 10.8345C0.909765 10.8345 0.898965 10.8417 0.898965 10.8505C0.898965 10.8592 0.884565 10.8664 0.866965 10.8664C0.849365 10.8664 0.834965 10.8736 0.834965 10.8824C0.834965 10.8912 0.816965 10.8984 0.794965 10.8984C0.772965 10.8984 0.754965 10.9056 0.754965 10.9143C0.754965 10.9231 0.726165 10.9303 0.690965 10.9303C0.655765 10.9303 0.626965 10.9375 0.626965 10.9463C0.626965 10.9555 0.576293 10.9622 0.506965 10.9622C0.437637 10.9622 0.386965 10.969 0.386965 10.9782C0.386965 10.987 0.374005 10.9942 0.358149 10.9942C0.322405 10.9942 0.243253 11.0298 0.243093 11.0461C0.243029 11.0526 0.233333 11.058 0.221573 11.058C0.175077 11.058 0.00296485 11.2517 0.00296485 11.304C0.00296485 11.318 -0.00247515 11.3294 -0.00914715 11.3294C-0.0342352 11.3294 -0.0610352 11.4613 -0.0610352 11.5849C-0.0610352 11.7085 -0.0342352 11.8404 -0.00914715 11.8404C-0.00247515 11.8404 0.00296485 11.8518 0.00296485 11.8658C0.00296485 11.8895 0.0413169 11.9518 0.0987408 12.0214C0.139381 12.0706 0.258213 12.1462 0.344629 12.1777C0.409173 12.2012 0.471237 12.2076 0.637797 12.2076C0.761397 12.2076 0.853173 12.2009 0.858965 12.1916C0.864405 12.1828 0.890997 12.1756 0.918053 12.1756C0.988421 12.1756 1.11812 12.1389 1.20674 12.0939C1.22202 12.0862 1.24191 12.0798 1.25095 12.0798C1.27778 12.0798 1.50967 11.966 1.58184 11.9173C1.61863 11.8926 1.65644 11.8723 1.66584 11.8723C1.67527 11.8723 1.68296 11.8666 1.68296 11.8598C1.68296 11.8529 1.70476 11.8344 1.7314 11.8187C1.75804 11.803 1.79732 11.7727 1.81868 11.7514C1.84004 11.7301 1.86517 11.7126 1.87455 11.7126C1.9162 11.7126 2.49044 11.1381 2.77469 10.8121C2.81224 10.769 2.86173 10.7137 2.88469 10.6891C2.90764 10.6645 2.95444 10.6105 2.98869 10.5691C3.02293 10.5277 3.12047 10.4237 3.2054 10.3379L3.35984 10.1819L3.38361 10.2488C3.44607 10.4244 3.50525 10.5783 3.53818 10.6509C3.61225 10.814 3.7189 11.0183 3.73271 11.0234C3.74055 11.0264 3.74696 11.0425 3.74696 11.0594C3.74696 11.0762 3.75416 11.09 3.76296 11.09C3.77176 11.09 3.77896 11.1027 3.77896 11.1184C3.77896 11.134 3.79337 11.1571 3.81097 11.1698C3.82857 11.1824 3.84297 11.204 3.84297 11.2177C3.84297 11.2314 3.85737 11.2529 3.87496 11.2656C3.89257 11.2782 3.90697 11.2983 3.90697 11.3102C3.90697 11.322 3.91597 11.3408 3.92696 11.352C3.93797 11.3632 3.96496 11.3963 3.98697 11.4256C4.00897 11.4549 4.04497 11.5008 4.06697 11.5278C4.12512 11.5989 4.33303 11.8084 4.34545 11.8084C4.35127 11.8084 4.38124 11.8336 4.41204 11.8643C4.44284 11.895 4.47448 11.9202 4.48236 11.9202C4.49023 11.9202 4.50701 11.9305 4.51964 11.9431C4.55096 11.9744 4.80863 12.1023 4.90697 12.1355C4.95096 12.1503 5.02296 12.1701 5.06697 12.1794C5.17959 12.2033 5.68338 12.2135 5.70461 12.1924C5.71383 12.1832 5.74282 12.1756 5.76903 12.1756C5.89863 12.1756 6.36772 11.9755 6.4893 11.8683C6.50674 11.8529 6.5269 11.8404 6.53413 11.8404C6.54135 11.8404 6.56986 11.8188 6.59748 11.7925C6.62511 11.7661 6.65441 11.7446 6.6626 11.7446C6.67077 11.7446 6.70514 11.7158 6.73897 11.6807C6.77279 11.6456 6.80738 11.6168 6.81585 11.6168C6.83668 11.6168 7.24735 11.2099 7.30721 11.1299C7.33348 11.0948 7.39457 11.0264 7.44297 10.978C7.49137 10.9295 7.56469 10.8504 7.60589 10.8023C7.64711 10.7541 7.70002 10.6932 7.72346 10.6669C7.7469 10.6405 7.78879 10.591 7.81653 10.5569C7.84426 10.5227 7.93609 10.4248 8.02058 10.3392L8.17418 10.1836L8.19546 10.2616C8.20717 10.3045 8.22265 10.3396 8.22986 10.3396C8.23706 10.3396 8.24297 10.354 8.24297 10.3717C8.24297 10.3894 8.24932 10.4163 8.25709 10.4316C8.27165 10.4601 8.29938 10.525 8.32697 10.595C8.33562 10.617 8.34906 10.6474 8.35684 10.6626C8.36461 10.6779 8.37097 10.7013 8.37097 10.7145C8.37097 10.7278 8.37817 10.7387 8.38696 10.7387C8.39577 10.7387 8.40297 10.7531 8.40297 10.7706C8.40297 10.7882 8.41016 10.8026 8.41897 10.8026C8.42776 10.8026 8.43497 10.8169 8.43497 10.8345C8.43497 10.8521 8.44217 10.8664 8.45096 10.8664C8.45977 10.8664 8.46697 10.8808 8.46697 10.8984C8.46697 10.9159 8.47416 10.9303 8.48297 10.9303C8.49177 10.9303 8.49897 10.9447 8.49897 10.9622C8.49897 10.9798 8.50617 10.9942 8.51497 10.9942C8.52377 10.9942 8.53096 11.0085 8.53096 11.0261C8.53096 11.0437 8.53817 11.058 8.54697 11.058C8.55577 11.058 8.56297 11.0688 8.56297 11.082C8.56297 11.0951 8.57017 11.1059 8.57897 11.1059C8.58777 11.1059 8.59496 11.1167 8.59496 11.1299C8.59496 11.143 8.60217 11.1538 8.61097 11.1538C8.61977 11.1538 8.62697 11.1682 8.62697 11.1858C8.62697 11.2033 8.63295 11.2177 8.64026 11.2177C8.64757 11.2177 8.66376 11.2374 8.67623 11.2616C8.68871 11.2857 8.70257 11.3091 8.70703 11.3135C8.71148 11.3179 8.75751 11.3783 8.80929 11.4477C8.90751 11.5793 9.15852 11.8404 9.18688 11.8404C9.19589 11.8404 9.22586 11.8619 9.25348 11.8882C9.28111 11.9146 9.31345 11.9361 9.32533 11.9361C9.33724 11.9361 9.34696 11.9415 9.34696 11.9482C9.34696 11.96 9.51941 12.0515 9.64092 12.1042C9.81548 12.1799 9.92199 12.1965 10.235 12.1965C10.535 12.1965 10.6283 12.1827 10.859 12.1044C10.9572 12.071 11.177 11.9658 11.1843 11.9487C11.1872 11.9418 11.2034 11.9361 11.2203 11.9361C11.2372 11.9361 11.251 11.9298 11.251 11.9221C11.251 11.9144 11.2726 11.8992 11.299 11.8882C11.3254 11.8773 11.347 11.8621 11.347 11.8544C11.347 11.8467 11.3564 11.8404 11.3679 11.8404C11.3795 11.8404 11.4029 11.8276 11.4199 11.812C11.437 11.7964 11.4762 11.7662 11.507 11.7449C11.5378 11.7236 11.5746 11.6932 11.5888 11.6775C11.6031 11.6617 11.6213 11.6488 11.6293 11.6488C11.6373 11.6488 11.6543 11.6344 11.667 11.6168C11.6797 11.5993 11.6961 11.5849 11.7036 11.5849C11.7111 11.5849 11.7266 11.5759 11.7381 11.5649C11.7496 11.554 11.8077 11.5019 11.8672 11.4492C11.9914 11.3392 12.2832 11.0476 12.539 10.7779C12.8861 10.412 13.2266 10.0918 13.2402 10.1186C13.2417 10.1216 13.252 10.1401 13.263 10.1597C13.274 10.1794 13.283 10.2063 13.283 10.2196C13.283 10.2329 13.2902 10.2438 13.299 10.2438C13.3078 10.2438 13.315 10.2581 13.315 10.2757C13.315 10.2933 13.3222 10.3076 13.331 10.3076C13.3398 10.3076 13.347 10.3181 13.347 10.3309C13.347 10.3537 13.5522 10.7869 13.5705 10.8026C13.5756 10.807 13.5976 10.8447 13.6193 10.8864C13.6411 10.9281 13.6643 10.9622 13.6709 10.9622C13.6776 10.9622 13.683 10.9766 13.683 10.9942C13.683 11.0117 13.6893 11.0261 13.697 11.0261C13.7048 11.0261 13.72 11.0476 13.731 11.074C13.7419 11.1003 13.7572 11.1219 13.7649 11.1219C13.7726 11.1219 13.779 11.1327 13.779 11.1458C13.779 11.159 13.7862 11.1698 13.795 11.1698C13.8038 11.1698 13.811 11.1806 13.811 11.1937C13.811 11.2069 13.8182 11.2177 13.827 11.2177C13.8358 11.2177 13.843 11.2285 13.843 11.2416C13.843 11.2548 13.8502 11.2656 13.859 11.2656C13.8678 11.2656 13.875 11.2748 13.875 11.286C13.875 11.2972 13.8894 11.3168 13.907 11.3294C13.9246 11.3421 13.939 11.3616 13.939 11.3729C13.939 11.3841 13.9446 11.3933 13.9515 11.3933C13.9584 11.3933 13.9765 11.4142 13.9916 11.4398C14.0365 11.5157 14.3587 11.8563 14.3855 11.8563C14.3933 11.8563 14.4227 11.8779 14.451 11.9042C14.4792 11.9306 14.5083 11.9521 14.5155 11.9521C14.5228 11.9521 14.5388 11.9622 14.5512 11.9745C14.5797 12.003 14.8118 12.1199 14.9023 12.1513C14.9401 12.1644 14.9908 12.1753 15.015 12.1754C15.0392 12.1755 15.059 12.1828 15.059 12.1916C15.059 12.2014 15.135 12.2076 15.2552 12.2076C15.4725 12.2076 15.5719 12.1828 15.6803 12.1015C15.7581 12.0431 15.843 11.951 15.843 11.9251C15.843 11.9136 15.8502 11.9042 15.859 11.9042C15.8678 11.9042 15.875 11.8898 15.875 11.8723C15.875 11.8547 15.8822 11.8404 15.891 11.8404C15.8998 11.8404 15.907 11.8188 15.907 11.7925C15.907 11.7661 15.9142 11.7446 15.923 11.7446C15.9326 11.7446 15.939 11.6807 15.939 11.5849C15.939 11.4891 15.9326 11.4252 15.923 11.4252C15.9142 11.4252 15.907 11.4037 15.907 11.3773C15.907 11.351 15.8998 11.3294 15.891 11.3294C15.8822 11.3294 15.875 11.3151 15.875 11.2975C15.875 11.28 15.8678 11.2656 15.859 11.2656C15.8502 11.2656 15.843 11.2548 15.843 11.2416C15.843 11.2285 15.8358 11.2177 15.827 11.2177C15.8182 11.2177 15.811 11.2069 15.811 11.1937C15.811 11.1806 15.8056 11.1697 15.799 11.1696C15.7924 11.1696 15.7605 11.1444 15.728 11.1138C15.6956 11.0831 15.6614 11.058 15.652 11.058C15.6426 11.058 15.6349 11.0526 15.6348 11.0461C15.6347 11.0298 15.5555 10.9942 15.5198 10.9942C15.5039 10.9942 15.491 10.987 15.491 10.9782C15.491 10.9693 15.4468 10.9622 15.3905 10.9622C15.3084 10.9622 15.2858 10.9564 15.267 10.9303C15.2543 10.9127 15.2339 10.8984 15.2217 10.8984C15.1957 10.8984 15.0455 10.7429 14.9826 10.6509C14.9586 10.6158 14.9275 10.5743 14.9135 10.5588C14.8995 10.5433 14.8779 10.511 14.8655 10.487C14.8531 10.463 14.8304 10.4294 14.815 10.4124C14.7996 10.3954 14.787 10.372 14.787 10.3605C14.787 10.349 14.7798 10.3396 14.771 10.3396C14.7622 10.3396 14.755 10.3252 14.755 10.3076C14.755 10.2901 14.7486 10.2757 14.7409 10.2757C14.7332 10.2757 14.7179 10.2541 14.707 10.2278C14.696 10.2015 14.6808 10.1799 14.673 10.1799C14.6653 10.1799 14.659 10.1655 14.659 10.148C14.659 10.1304 14.6518 10.116 14.643 10.116C14.6342 10.116 14.627 10.1017 14.627 10.0841C14.627 10.0665 14.6198 10.0522 14.611 10.0522C14.6022 10.0522 14.595 10.0378 14.595 10.0202C14.595 10.0027 14.5878 9.98831 14.579 9.98831C14.5702 9.98831 14.563 9.97394 14.563 9.95638C14.563 9.93882 14.5558 9.92445 14.547 9.92445C14.5382 9.92445 14.531 9.91051 14.531 9.89346C14.531 9.87641 14.5238 9.85803 14.515 9.8526C14.5062 9.84717 14.499 9.8288 14.499 9.81175C14.499 9.79469 14.4918 9.78076 14.483 9.78076C14.4742 9.78076 14.467 9.77017 14.467 9.75724C14.467 9.74429 14.4531 9.70299 14.4362 9.66543C14.4193 9.62788 14.3936 9.56841 14.3791 9.53329C14.3646 9.49816 14.3468 9.45505 14.3394 9.43749C14.317 9.38389 14.2624 9.23362 14.2408 9.16607C14.2296 9.13095 14.2147 9.09537 14.2077 9.08704C14.2007 9.07869 14.195 9.05535 14.195 9.03515C14.195 9.01495 14.1882 8.99843 14.18 8.99843C14.1718 8.99843 14.1605 8.98393 14.1549 8.96621C14.1407 8.92151 13.9623 8.74298 13.9318 8.74298C13.9182 8.74298 13.907 8.73755 13.907 8.73091C13.907 8.71938 13.8818 8.70718 13.7682 8.66372C13.6909 8.63417 13.219 8.66248 13.219 8.69669C13.219 8.70458 13.1974 8.71104 13.171 8.71104C13.1446 8.71104 13.123 8.71823 13.123 8.72701C13.123 8.73579 13.1054 8.74298 13.0839 8.74298C13.0624 8.74298 13.0404 8.75016 13.035 8.75894C13.0295 8.76772 13.0111 8.77491 12.994 8.77491C12.9769 8.77491 12.963 8.78209 12.963 8.79087C12.963 8.79965 12.9486 8.80684 12.931 8.80684C12.9134 8.80684 12.899 8.81268 12.899 8.81982C12.899 8.82697 12.8738 8.84268 12.843 8.85474C12.8122 8.86679 12.787 8.8825 12.787 8.88965C12.787 8.89679 12.7741 8.90263 12.7585 8.90263C12.7428 8.90263 12.7197 8.917 12.707 8.93457C12.6943 8.95213 12.6727 8.9665 12.659 8.9665C12.6453 8.9665 12.6237 8.98087 12.611 8.99843C12.5983 9.01599 12.5784 9.03036 12.5667 9.03036C12.555 9.03036 12.5275 9.04832 12.5055 9.07028C12.4835 9.09223 12.4604 9.1103 12.4542 9.11045C12.4126 9.11139 11.898 9.60537 11.531 9.99677C11.2168 10.3318 11.1432 10.4024 10.8745 10.6269C10.7418 10.7379 10.6987 10.7701 10.6825 10.7704C10.6734 10.7705 10.6557 10.785 10.643 10.8026C10.6303 10.8201 10.6071 10.8345 10.5914 10.8345C10.5758 10.8345 10.563 10.8417 10.563 10.8505C10.563 10.8592 10.5486 10.8664 10.531 10.8664C10.5134 10.8664 10.499 10.8736 10.499 10.8824C10.499 10.8912 10.4846 10.8984 10.467 10.8984C10.4494 10.8984 10.435 10.9056 10.435 10.9143C10.435 10.9231 10.4062 10.9303 10.371 10.9303C10.3358 10.9303 10.307 10.9375 10.307 10.9463C10.307 10.955 10.2782 10.9622 10.243 10.9622C10.2078 10.9622 10.179 10.955 10.179 10.9463C10.179 10.9375 10.1574 10.9303 10.131 10.9303C10.1046 10.9303 10.083 10.9231 10.083 10.9143C10.083 10.9056 10.0722 10.8984 10.059 10.8984C10.0458 10.8984 10.035 10.8912 10.035 10.8824C10.035 10.8736 10.024 10.8664 10.0105 10.8664C9.95239 10.8664 9.75704 10.6183 9.63343 10.3875C9.61228 10.3479 9.59136 10.312 9.58697 10.3076C9.57841 10.2991 9.54653 10.2208 9.51714 10.136C9.50724 10.1074 9.4937 10.0841 9.48705 10.0841C9.48041 10.0841 9.47497 10.0702 9.47497 10.0531C9.47497 10.0361 9.46776 10.0177 9.45897 10.0123C9.45017 10.0068 9.44297 9.98486 9.44297 9.96342C9.44297 9.94198 9.43577 9.92445 9.42697 9.92445C9.41817 9.92445 9.41096 9.90692 9.41096 9.88548C9.41096 9.86403 9.40377 9.84206 9.39497 9.83664C9.38617 9.83121 9.37897 9.80924 9.37897 9.7878C9.37897 9.76636 9.37255 9.74882 9.36471 9.74882C9.35688 9.74882 9.34609 9.72368 9.34071 9.69294C9.33535 9.66221 9.32658 9.61192 9.32122 9.58118C9.31585 9.55045 9.30505 9.5253 9.29722 9.5253C9.28938 9.5253 9.28297 9.49656 9.28297 9.46144C9.28297 9.42631 9.27577 9.39758 9.26696 9.39758C9.25817 9.39758 9.25097 9.36524 9.25097 9.32573C9.25097 9.28621 9.24376 9.25388 9.23497 9.25388C9.22616 9.25388 9.21897 9.22505 9.21897 9.1898C9.21897 9.15456 9.21223 9.11324 9.20401 9.09799C9.1958 9.08274 9.17964 9.04693 9.1681 9.01839C9.15658 8.98984 9.14172 8.9665 9.13506 8.9665C9.1284 8.9665 9.12296 8.9551 9.12296 8.94118C9.12296 8.90897 8.95919 8.75105 8.89757 8.72383C8.87194 8.71251 8.85097 8.69782 8.85097 8.69118C8.85097 8.68454 8.83081 8.67911 8.80617 8.67911C8.78153 8.67911 8.75352 8.67129 8.74394 8.66173C8.71367 8.63152 8.23874 8.66315 8.21793 8.69677C8.21306 8.70463 8.19193 8.71104 8.17097 8.71104C8.15001 8.71104 8.12841 8.71823 8.12296 8.72701C8.11753 8.73579 8.09551 8.74298 8.07402 8.74298C8.05253 8.74298 8.03497 8.75016 8.03497 8.75894C8.03497 8.76772 8.02057 8.77491 8.00296 8.77491C7.98536 8.77491 7.97097 8.78209 7.97097 8.79087C7.97097 8.79965 7.95656 8.80684 7.93896 8.80684C7.92137 8.80684 7.90697 8.81402 7.90697 8.8228C7.90697 8.83159 7.89257 8.83877 7.87497 8.83877C7.85737 8.83877 7.84297 8.84596 7.84297 8.85474C7.84297 8.86352 7.83015 8.8707 7.8145 8.8707C7.79884 8.8707 7.77565 8.88507 7.76297 8.90263C7.75028 8.9202 7.72868 8.93457 7.71497 8.93457C7.70125 8.93457 7.67965 8.94894 7.66697 8.9665C7.65428 8.98406 7.63649 8.99845 7.62743 8.99845C7.61837 8.99846 7.59197 9.01462 7.56877 9.03437C7.54556 9.05412 7.49909 9.09183 7.46551 9.11817C7.38081 9.18459 6.95945 9.6065 6.84305 9.74142C6.79029 9.80257 6.73951 9.86068 6.73021 9.87055C6.7209 9.88041 6.68847 9.919 6.65813 9.95628C6.62778 9.99358 6.55077 10.0778 6.48697 10.1435C6.42316 10.2092 6.37097 10.2692 6.37097 10.2768C6.37097 10.2928 6.01292 10.6438 5.97461 10.6653C5.96048 10.6733 5.92545 10.7032 5.89674 10.7319C5.86804 10.7605 5.8298 10.7886 5.81176 10.7943C5.79372 10.8 5.77896 10.8114 5.77896 10.8196C5.77896 10.8278 5.76953 10.8345 5.75799 10.8345C5.74644 10.8345 5.72154 10.8489 5.70265 10.8664C5.68377 10.884 5.6536 10.8984 5.63564 10.8984C5.61767 10.8984 5.60296 10.9056 5.60296 10.9143C5.60296 10.9231 5.57776 10.9303 5.54697 10.9303C5.51617 10.9303 5.49096 10.9375 5.49096 10.9463C5.49096 10.955 5.46576 10.9622 5.43497 10.9622C5.40417 10.9622 5.37896 10.955 5.37896 10.9463C5.37896 10.9375 5.35737 10.9303 5.33097 10.9303C5.30456 10.9303 5.28297 10.9231 5.28297 10.9143C5.28297 10.9056 5.27015 10.8984 5.2545 10.8984C5.23884 10.8984 5.21565 10.884 5.20297 10.8664C5.19028 10.8489 5.17346 10.8345 5.16559 10.8345C5.13057 10.8345 4.85097 10.4667 4.85097 10.4207C4.85097 10.4112 4.84377 10.4034 4.83497 10.4034C4.82617 10.4034 4.81896 10.3891 4.81896 10.3715C4.81896 10.3539 4.81177 10.3396 4.80297 10.3396C4.79417 10.3396 4.78696 10.3252 4.78696 10.3076C4.78696 10.2901 4.77977 10.2757 4.77097 10.2757C4.76217 10.2757 4.75497 10.2613 4.75497 10.2438C4.75497 10.2262 4.74777 10.2118 4.73897 10.2118C4.73017 10.2118 4.72297 10.1975 4.72297 10.1799C4.72297 10.1623 4.71576 10.148 4.70696 10.148C4.69816 10.148 4.69097 10.13 4.69097 10.1081C4.69097 10.0861 4.68376 10.0681 4.67496 10.0681C4.66616 10.0681 4.65897 10.0502 4.65897 10.0282C4.65897 10.0063 4.65176 9.98831 4.64296 9.98831C4.63417 9.98831 4.62697 9.97035 4.62697 9.9484C4.62697 9.92644 4.61977 9.90848 4.61097 9.90848C4.60217 9.90848 4.59496 9.88693 4.59496 9.86059C4.59496 9.83424 4.58777 9.81269 4.57897 9.81269C4.57017 9.81269 4.56296 9.79113 4.56296 9.76479C4.56296 9.73845 4.55577 9.71689 4.54697 9.71689C4.53817 9.71689 4.53096 9.70123 4.53096 9.6821C4.53096 9.64535 4.50458 9.55214 4.481 9.50557C4.47329 9.49032 4.46705 9.46518 4.46713 9.44969C4.46743 9.39719 4.39953 9.13465 4.36026 9.03652C4.30778 8.90535 4.22817 8.80409 4.14296 8.76023C4.11877 8.74778 4.09897 8.73161 4.09897 8.72431C4.09897 8.71701 4.08457 8.71104 4.06697 8.71104C4.04937 8.71104 4.03497 8.70386 4.03497 8.69508C4.03497 8.6863 4.01337 8.67911 3.98697 8.67911C3.96057 8.67911 3.93896 8.67193 3.93896 8.66315C3.93896 8.64346 3.59289 8.64346 3.54697 8.66315Z" fill="currentColor"/>
</g>
<defs>
<clipPath id="clip0_342_5486">
<rect width="16" height="16" fill="white"/>
</clipPath>
</defs>
</svg>
