<svg width="16" height="16" viewBox="0 0 16 16" fill="none" xmlns="http://www.w3.org/2000/svg">
<g clip-path="url(#clip0_342_5459)">
<path fill-rule="evenodd" clip-rule="evenodd" d="M7.73617 0.016C7.73617 0.0248 7.70017 0.032 7.65618 0.032C7.61219 0.032 7.57619 0.0392 7.57619 0.048C7.57619 0.0568 7.5474 0.0640001 7.5122 0.0640001C7.47701 0.0640001 7.44821 0.0712001 7.44821 0.0800001C7.44821 0.0888001 7.43372 0.0960001 7.41599 0.0960001C7.39828 0.0960001 7.36949 0.1032 7.352 0.112C7.33453 0.1208 7.30593 0.1352 7.28846 0.144C7.27097 0.1528 7.24578 0.16 7.23247 0.16C7.21914 0.16 7.20825 0.1672 7.20825 0.176C7.20825 0.1848 7.19428 0.192 7.1772 0.192C7.16011 0.192 7.14162 0.199344 7.13607 0.208304C7.13053 0.217264 7.08923 0.243248 7.04427 0.266032C6.99934 0.2888 6.95253 0.317472 6.94029 0.329728C6.92803 0.341968 6.9116 0.352 6.90378 0.352C6.89002 0.352 6.59311 0.644545 6.52835 0.721905C6.51075 0.742929 6.48613 0.779889 6.47365 0.804065C6.46118 0.828225 6.44497 0.848001 6.43766 0.848001C6.43035 0.848001 6.42437 0.858801 6.42437 0.872001C6.42437 0.885201 6.41851 0.896001 6.41136 0.896001C6.40419 0.896001 6.38845 0.921201 6.37637 0.952001C6.3643 0.982801 6.34855 1.008 6.34139 1.008C6.33424 1.008 6.32838 1.0224 6.32838 1.04C6.32838 1.0576 6.32118 1.072 6.31238 1.072C6.30358 1.072 6.29639 1.09 6.29639 1.112C6.29639 1.134 6.28919 1.152 6.28039 1.152C6.27159 1.152 6.26439 1.1664 6.26439 1.184C6.26439 1.2016 6.25719 1.216 6.24839 1.216C6.23959 1.216 6.23239 1.23717 6.23239 1.26306C6.23239 1.28895 6.22603 1.31405 6.21824 1.31887C6.21046 1.32367 6.19939 1.35111 6.19363 1.37981C6.18789 1.40851 6.17586 1.468 6.1669 1.512C6.15793 1.556 6.14561 1.62992 6.1395 1.67626C6.129 1.75605 6.12459 1.7625 6.05642 1.79789C5.88968 1.88443 5.84017 1.91266 5.83513 1.924C5.83218 1.93059 5.81599 1.936 5.79913 1.936C5.78227 1.936 5.76847 1.9432 5.76847 1.952C5.76847 1.9608 5.75407 1.968 5.73647 1.968C5.71887 1.968 5.70447 1.9752 5.70447 1.984C5.70447 1.9928 5.69504 2 5.6835 2C5.67195 2 5.64706 2.0144 5.62817 2.032C5.60929 2.0496 5.58273 2.064 5.56917 2.064C5.5556 2.064 5.5445 2.0712 5.5445 2.08C5.5445 2.0888 5.5301 2.096 5.5125 2.096C5.49491 2.096 5.48051 2.1032 5.48051 2.112C5.48051 2.1208 5.4667 2.128 5.44984 2.128C5.43298 2.128 5.41679 2.13339 5.41385 2.14C5.41092 2.14659 5.35093 2.1808 5.28054 2.216C5.21015 2.2512 5.14896 2.28426 5.14456 2.28946C5.14016 2.29467 5.07537 2.33042 5.00058 2.3689C4.92579 2.40738 4.8622 2.44451 4.85927 2.45143C4.85633 2.45834 4.84014 2.464 4.82328 2.464C4.80642 2.464 4.79261 2.46986 4.79261 2.47701C4.79261 2.48418 4.76742 2.49992 4.73662 2.512C4.70583 2.52408 4.68063 2.53983 4.68063 2.54699C4.68063 2.55415 4.66623 2.56 4.64863 2.56C4.63104 2.56 4.61664 2.5672 4.61664 2.576C4.61664 2.5848 4.60224 2.592 4.58464 2.592C4.56705 2.592 4.55265 2.5992 4.55265 2.608C4.55265 2.6168 4.54321 2.624 4.53168 2.624C4.52013 2.624 4.49523 2.6384 4.47634 2.656C4.45746 2.6736 4.43091 2.688 4.41734 2.688C4.40377 2.688 4.39267 2.6952 4.39267 2.704C4.39267 2.7128 4.37827 2.72 4.36068 2.72C4.34308 2.72 4.32868 2.7272 4.32868 2.736C4.32868 2.7448 4.31428 2.752 4.29669 2.752C4.27909 2.752 4.26469 2.7592 4.26469 2.768C4.26469 2.7768 4.25029 2.784 4.2327 2.784C4.2151 2.784 4.20064 2.78941 4.20057 2.796C4.20051 2.80259 4.1843 2.81583 4.16458 2.82539C4.0291 2.89107 3.71182 3.06431 3.70745 3.07498C3.7045 3.08215 3.68832 3.088 3.67145 3.088C3.65458 3.088 3.64079 3.0952 3.64079 3.104C3.64079 3.1128 3.62639 3.12 3.60879 3.12C3.59119 3.12 3.5768 3.1272 3.5768 3.136C3.5768 3.1448 3.56781 3.15216 3.5568 3.15235C3.54581 3.15255 3.5188 3.16679 3.49681 3.184C3.45656 3.21549 3.40082 3.22679 3.40082 3.20346C3.40082 3.19655 3.38102 3.17917 3.35683 3.16483C3.33262 3.15051 3.29124 3.11967 3.26484 3.09631C3.20599 3.04424 2.82133 2.848 2.77808 2.848C2.76089 2.848 2.74236 2.8408 2.73692 2.832C2.73148 2.8232 2.70731 2.816 2.68319 2.816C2.65906 2.816 2.63249 2.80954 2.62414 2.80163C2.59827 2.7772 2.47607 2.76493 2.18534 2.75759C2.01895 2.75338 1.89263 2.7569 1.87339 2.76627C1.8556 2.77493 1.81407 2.78607 1.78107 2.79101C1.64398 2.81155 1.60909 2.82023 1.60909 2.83375C1.60909 2.84159 1.591 2.848 1.56887 2.848C1.54677 2.848 1.51616 2.85472 1.50089 2.86291C1.48561 2.87112 1.41371 2.90501 1.34113 2.93821C1.26854 2.97143 1.20915 3.00431 1.20915 3.0113C1.20915 3.01829 1.20016 3.02402 1.18916 3.02402C1.17817 3.02403 1.14825 3.04203 1.12267 3.06402C1.09711 3.08602 1.07076 3.104 1.06412 3.104C1.04563 3.104 0.867685 3.27207 0.744023 3.40634C0.627881 3.53245 0.457267 3.8101 0.457267 3.873C0.457267 3.89005 0.450068 3.904 0.441269 3.904C0.43247 3.904 0.425271 3.9184 0.425271 3.936C0.425271 3.9536 0.418073 3.968 0.409274 3.968C0.400475 3.968 0.393276 3.9896 0.393276 4.016C0.393276 4.0424 0.386077 4.064 0.377279 4.064C0.36848 4.064 0.361281 4.0928 0.361281 4.128C0.361281 4.1632 0.354082 4.192 0.345284 4.192C0.336485 4.192 0.329286 4.22397 0.329286 4.26306C0.329286 4.30215 0.322087 4.33856 0.313288 4.344C0.291628 4.3574 0.291628 4.912 0.313288 4.912C0.322087 4.912 0.329286 4.9444 0.329286 4.984C0.329286 5.0236 0.336485 5.056 0.345284 5.056C0.354082 5.056 0.361281 5.0848 0.361281 5.12C0.361281 5.1552 0.36848 5.184 0.377279 5.184C0.386077 5.184 0.393276 5.2056 0.393276 5.232C0.393276 5.2584 0.400475 5.28 0.409274 5.28C0.418073 5.28 0.425271 5.2944 0.425271 5.312C0.425271 5.3296 0.431175 5.344 0.438374 5.344C0.445588 5.344 0.461282 5.38 0.473264 5.424C0.485246 5.468 0.50046 5.504 0.507067 5.504C0.51369 5.504 0.523657 5.51836 0.529224 5.53591C0.534791 5.55346 0.548789 5.57725 0.560307 5.58877C0.571841 5.60031 0.594766 5.63552 0.611259 5.66705C0.644982 5.73149 0.758565 5.87023 0.837577 5.94346C0.866389 5.97017 0.92574 6.02572 0.969509 6.0669C1.01326 6.1081 1.06348 6.14639 1.08111 6.15199C1.09874 6.15759 1.11317 6.16887 1.11317 6.17708C1.11317 6.18529 1.12261 6.19201 1.13414 6.19201C1.14569 6.19201 1.16945 6.20461 1.18695 6.22001C1.23097 6.25873 1.30096 6.29812 1.39313 6.33601C1.41952 6.34685 1.45361 6.3621 1.46889 6.36988C1.48417 6.37765 1.50448 6.38401 1.51404 6.38401C1.57811 6.38401 1.5771 6.35817 1.5771 8.01156V9.5934L1.40912 9.67239C1.31674 9.71583 1.24115 9.75606 1.24115 9.76175C1.24115 9.76746 1.21955 9.78108 1.19316 9.79201C1.16676 9.80294 1.14516 9.81774 1.14516 9.82487C1.14516 9.83201 1.13029 9.84257 1.1121 9.84834C1.09391 9.85412 1.04007 9.8978 0.992466 9.94543C0.944857 9.99305 0.900336 10.0321 0.893553 10.0322C0.886754 10.0322 0.864341 10.0537 0.84372 10.0798C0.823115 10.1058 0.777666 10.158 0.742728 10.1956C0.666819 10.2774 0.528808 10.5043 0.501212 10.5928C0.49035 10.6275 0.476032 10.656 0.469377 10.656C0.462706 10.656 0.457267 10.6704 0.457267 10.688C0.457267 10.7056 0.450068 10.72 0.441269 10.72C0.43247 10.72 0.425271 10.7416 0.425271 10.768C0.425271 10.7944 0.418073 10.816 0.409274 10.816C0.400475 10.816 0.393276 10.8448 0.393276 10.88C0.393276 10.9152 0.386077 10.944 0.377279 10.944C0.36848 10.944 0.361281 10.9724 0.361281 11.0071C0.361281 11.0418 0.354082 11.0746 0.345284 11.08C0.323607 11.0934 0.323607 11.664 0.345284 11.664C0.354082 11.664 0.361281 11.696 0.361281 11.7351C0.361281 11.7742 0.36848 11.8106 0.377279 11.816C0.386077 11.8215 0.393276 11.8507 0.393276 11.881C0.393276 11.9112 0.400475 11.936 0.409274 11.936C0.418073 11.936 0.425271 11.9576 0.425271 11.984C0.425271 12.0104 0.43247 12.032 0.441269 12.032C0.450068 12.032 0.457267 12.043 0.457267 12.0565C0.457267 12.0825 0.548117 12.2734 0.605292 12.3675C0.650693 12.4423 0.722635 12.5353 0.801215 12.6208C0.836409 12.6591 0.867605 12.6971 0.870532 12.7052C0.873476 12.7134 0.88293 12.72 0.891569 12.72C0.900208 12.72 0.942329 12.756 0.985187 12.8C1.02804 12.844 1.07109 12.88 1.08087 12.88C1.09063 12.88 1.11662 12.898 1.13862 12.92C1.16062 12.942 1.18496 12.96 1.19274 12.96C1.20051 12.96 1.21638 12.9692 1.22801 12.9805C1.25305 13.0048 1.45564 13.105 1.56932 13.1493C1.83016 13.251 2.29979 13.2809 2.60125 13.2151C2.7462 13.1835 2.9444 13.1152 2.97609 13.086C2.98445 13.0783 3.00424 13.072 3.02008 13.072C3.03592 13.072 3.04888 13.0648 3.04888 13.056C3.04888 13.0472 3.06327 13.04 3.08087 13.04C3.09847 13.04 3.11287 13.0328 3.11287 13.024C3.11287 13.0152 3.12568 13.008 3.14133 13.008C3.15699 13.008 3.18017 12.9936 3.19285 12.976C3.20554 12.9584 3.22584 12.944 3.23797 12.944C3.25008 12.944 3.28018 12.9224 3.30484 12.896C3.32949 12.8696 3.35622 12.848 3.36424 12.848C3.37223 12.848 3.39585 12.8321 3.41669 12.8127C3.44181 12.7893 3.45677 12.7839 3.46104 12.7967C3.46459 12.8073 3.47767 12.816 3.49014 12.816C3.50261 12.816 3.51281 12.8232 3.51281 12.832C3.51281 12.8408 3.5272 12.848 3.5448 12.848C3.5624 12.848 3.5768 12.8552 3.5768 12.864C3.5768 12.8728 3.59119 12.88 3.60879 12.88C3.62639 12.88 3.64079 12.8872 3.64079 12.896C3.64079 12.9048 3.65518 12.912 3.67278 12.912C3.69038 12.912 3.70478 12.9175 3.70478 12.9242C3.70478 12.9309 3.75338 12.9614 3.81276 12.9921C3.87216 13.0227 3.92434 13.0515 3.92874 13.056C3.93314 13.0605 3.97993 13.0867 4.03273 13.1141C4.08552 13.1415 4.17691 13.19 4.23582 13.222C4.29472 13.2539 4.3541 13.28 4.3678 13.28C4.38147 13.28 4.39267 13.2863 4.39267 13.2941C4.39267 13.3018 4.41427 13.3171 4.44067 13.328C4.46706 13.3389 4.48866 13.3542 4.48866 13.3619C4.48866 13.3697 4.50306 13.376 4.52065 13.376C4.53825 13.376 4.55265 13.3832 4.55265 13.392C4.55265 13.4008 4.56705 13.408 4.58464 13.408C4.60224 13.408 4.61664 13.4152 4.61664 13.424C4.61664 13.4328 4.63104 13.44 4.64863 13.44C4.66623 13.44 4.68063 13.4472 4.68063 13.456C4.68063 13.4648 4.69143 13.472 4.70463 13.472C4.71782 13.472 4.72862 13.4792 4.72862 13.488C4.72862 13.4968 4.74302 13.504 4.76062 13.504C4.77821 13.504 4.79261 13.5112 4.79261 13.52C4.79261 13.5288 4.80642 13.536 4.82328 13.536C4.84014 13.536 4.85633 13.5414 4.85927 13.548C4.86594 13.563 4.95115 13.615 4.98858 13.6269C5.00397 13.6318 5.01658 13.6421 5.01658 13.6499C5.01658 13.6576 5.03098 13.664 5.04857 13.664C5.06617 13.664 5.08057 13.6712 5.08057 13.68C5.08057 13.6888 5.09497 13.696 5.11256 13.696C5.13016 13.696 5.14462 13.7014 5.14469 13.708C5.14475 13.7146 5.16096 13.7276 5.18068 13.737C5.29836 13.7925 5.63335 13.9755 5.63781 13.9867C5.64076 13.994 5.65695 14 5.67381 14C5.69067 14 5.70447 14.0072 5.70447 14.016C5.70447 14.0248 5.71887 14.032 5.73647 14.032C5.75407 14.032 5.76847 14.0392 5.76847 14.048C5.76847 14.0568 5.78286 14.064 5.80046 14.064C5.81806 14.064 5.83246 14.0699 5.83246 14.077C5.83246 14.0842 5.85765 14.0999 5.88845 14.112C5.91924 14.1241 5.94444 14.1398 5.94444 14.147C5.94444 14.1542 5.95524 14.16 5.96843 14.16C5.98163 14.16 5.99243 14.1672 5.99243 14.176C5.99243 14.1848 6.00683 14.192 6.02443 14.192C6.04202 14.192 6.05642 14.1992 6.05642 14.208C6.05642 14.2168 6.07067 14.224 6.08811 14.224C6.12027 14.224 6.12655 14.2387 6.14297 14.352C6.14743 14.3828 6.15887 14.4476 6.1684 14.496C6.17794 14.5444 6.18983 14.6074 6.19482 14.636C6.19981 14.6646 6.21032 14.688 6.21814 14.688C6.22598 14.688 6.23239 14.7096 6.23239 14.736C6.23239 14.7624 6.23959 14.784 6.24839 14.784C6.25719 14.784 6.26439 14.7984 6.26439 14.816C6.26439 14.8336 6.27159 14.848 6.28039 14.848C6.28919 14.848 6.29639 14.8625 6.29639 14.8802C6.29639 14.9102 6.32436 14.9736 6.34566 14.992C6.35076 14.9964 6.36513 15.0234 6.37756 15.052C6.39 15.0806 6.40562 15.104 6.41227 15.104C6.41893 15.104 6.42437 15.1148 6.42437 15.128C6.42437 15.1412 6.43156 15.152 6.44036 15.152C6.44916 15.152 6.45636 15.1628 6.45636 15.176C6.45636 15.1892 6.46356 15.2 6.47236 15.2C6.48116 15.2 6.48836 15.2102 6.48836 15.2227C6.48836 15.2351 6.49381 15.2477 6.50047 15.2507C6.50714 15.2536 6.53764 15.2884 6.56825 15.328C6.59887 15.3676 6.65073 15.4252 6.68353 15.456C6.84214 15.605 6.87753 15.6351 6.91349 15.6515C6.93483 15.6612 6.95229 15.6743 6.95229 15.6806C6.95229 15.687 6.97388 15.7011 7.00028 15.712C7.02667 15.7229 7.04827 15.7382 7.04827 15.7459C7.04827 15.7537 7.06267 15.76 7.08027 15.76C7.09786 15.76 7.11226 15.7659 7.11226 15.7731C7.11226 15.795 7.36341 15.9031 7.4962 15.9383C7.68483 15.9884 8.12168 16.0189 8.19146 15.9868C8.20941 15.9786 8.25502 15.9589 8.29282 15.9432C8.35316 15.918 8.381 15.9 8.44806 15.843C8.45686 15.8355 8.48206 15.8055 8.50405 15.7762C8.52605 15.7469 8.55305 15.7138 8.56404 15.7026C8.57505 15.6914 8.58404 15.671 8.58404 15.6571C8.58404 15.6433 8.59124 15.632 8.60004 15.632C8.60884 15.632 8.61604 15.6108 8.61604 15.585C8.61604 15.5591 8.62323 15.5335 8.63203 15.528C8.64083 15.5226 8.64803 15.4542 8.64803 15.376C8.64803 15.2979 8.64083 15.2295 8.63203 15.224C8.62323 15.2186 8.61604 15.2008 8.61604 15.1846C8.61604 15.1071 8.41389 14.848 8.35345 14.848C8.3395 14.848 8.32801 14.8426 8.32795 14.836C8.32779 14.8198 8.24865 14.784 8.21291 14.784C8.19706 14.784 8.1841 14.7768 8.1841 14.768C8.1841 14.7588 8.13344 14.752 8.06412 14.752C7.9948 14.752 7.94414 14.7453 7.94414 14.736C7.94414 14.7272 7.91174 14.72 7.87215 14.72C7.83255 14.72 7.80016 14.7128 7.80016 14.704C7.80016 14.6952 7.78576 14.688 7.76816 14.688C7.75057 14.688 7.73617 14.6808 7.73617 14.672C7.73617 14.6632 7.72444 14.656 7.71009 14.656C7.69576 14.656 7.64519 14.6162 7.59771 14.5676C7.46981 14.4366 7.38761 14.2335 7.40577 14.0933C7.42327 13.9581 7.43589 13.904 7.44995 13.904C7.45779 13.904 7.46421 13.8924 7.46421 13.8782C7.46421 13.8208 7.66151 13.6 7.71272 13.6C7.72561 13.6 7.73617 13.5928 7.73617 13.584C7.73617 13.5752 7.75057 13.568 7.76816 13.568C7.78576 13.568 7.80016 13.5615 7.80016 13.5536C7.80016 13.5375 7.91811 13.5182 8.01613 13.5182C8.11414 13.5182 8.23209 13.5375 8.23209 13.5536C8.23209 13.5615 8.24649 13.568 8.26409 13.568C8.28169 13.568 8.29608 13.5752 8.29608 13.584C8.29608 13.5928 8.30736 13.6 8.32117 13.6C8.35615 13.6 8.52786 13.777 8.55617 13.8422C8.61047 13.9672 8.61714 13.9927 8.62611 14.1095C8.64195 14.3154 8.69693 14.4455 8.8225 14.5745C8.86617 14.6193 8.91317 14.656 8.92695 14.656C8.94072 14.656 8.95198 14.6632 8.95198 14.672C8.95198 14.6808 8.96638 14.688 8.98398 14.688C9.00158 14.688 9.01597 14.6952 9.01597 14.704C9.01597 14.7128 9.03757 14.72 9.06397 14.72C9.09036 14.72 9.11196 14.7272 9.11196 14.736C9.11196 14.7456 9.17595 14.752 9.27194 14.752C9.36792 14.752 9.43191 14.7456 9.43191 14.736C9.43191 14.7272 9.44562 14.72 9.46239 14.72C9.58243 14.72 9.86385 14.4434 9.86385 14.3254C9.86385 14.2907 9.95318 14.2208 10.0278 14.1972C10.0432 14.1923 10.0558 14.1819 10.0558 14.1741C10.0558 14.1664 10.0702 14.16 10.0878 14.16C10.1054 14.16 10.1198 14.1542 10.1198 14.147C10.1198 14.1398 10.145 14.1241 10.1758 14.112C10.2066 14.0999 10.2318 14.0842 10.2318 14.077C10.2318 14.0699 10.2462 14.064 10.2638 14.064C10.2814 14.064 10.2958 14.0568 10.2958 14.048C10.2958 14.0392 10.3096 14.032 10.3264 14.032C10.3433 14.032 10.3595 14.0259 10.3624 14.0185C10.3654 14.0111 10.447 13.9635 10.5437 13.9128C10.6405 13.862 10.7629 13.7979 10.8157 13.7703C10.8685 13.7426 10.9141 13.7146 10.917 13.708C10.92 13.7014 10.9361 13.696 10.953 13.696C10.9699 13.696 10.9837 13.6897 10.9837 13.6819C10.9837 13.6742 11.0053 13.6589 11.0317 13.648C11.0581 13.6371 11.0797 13.6218 11.0797 13.6141C11.0797 13.6063 11.0941 13.6 11.1117 13.6C11.1293 13.6 11.1437 13.5928 11.1437 13.584C11.1437 13.5752 11.1581 13.568 11.1756 13.568C11.1932 13.568 11.2076 13.5608 11.2076 13.552C11.2076 13.5432 11.222 13.536 11.2396 13.536C11.2572 13.536 11.2716 13.5302 11.2716 13.523C11.2716 13.5158 11.2968 13.5001 11.3276 13.488C11.3584 13.4759 11.3836 13.4602 11.3836 13.453C11.3836 13.4459 11.3944 13.44 11.4076 13.44C11.4208 13.44 11.4316 13.4328 11.4316 13.424C11.4316 13.4152 11.446 13.408 11.4636 13.408C11.4812 13.408 11.4956 13.4026 11.4957 13.396C11.4957 13.3894 11.5353 13.366 11.5836 13.344C11.6319 13.322 11.6715 13.2986 11.6715 13.292C11.6715 13.2854 11.6854 13.28 11.7022 13.28C11.7191 13.28 11.7353 13.2739 11.7382 13.2664C11.7412 13.2589 11.8264 13.2108 11.9275 13.1595C12.0287 13.1082 12.1151 13.0615 12.1195 13.0558C12.1239 13.0501 12.1509 13.0353 12.1795 13.0228C12.2081 13.0104 12.2315 12.9948 12.2315 12.9881C12.2315 12.9815 12.2459 12.976 12.2635 12.976C12.2811 12.976 12.2955 12.9688 12.2955 12.96C12.2955 12.9512 12.3099 12.944 12.3275 12.944C12.3451 12.944 12.3595 12.9377 12.3595 12.9299C12.3595 12.9222 12.3811 12.9069 12.4075 12.896C12.4339 12.8851 12.4555 12.8698 12.4555 12.8621C12.4555 12.8543 12.4699 12.848 12.4875 12.848C12.505 12.848 12.5194 12.8413 12.5194 12.8331C12.5194 12.807 12.5899 12.8054 12.6354 12.8306C12.6596 12.844 12.6794 12.8606 12.6794 12.8675C12.6794 12.8744 12.6902 12.88 12.7034 12.88C12.7166 12.88 12.7274 12.8855 12.7274 12.8922C12.7274 12.899 12.7562 12.9223 12.7914 12.944C12.8266 12.9658 12.8554 12.9891 12.8554 12.9958C12.8554 13.0025 12.8648 13.008 12.8762 13.008C12.9056 13.008 12.9831 13.0456 12.9832 13.06C12.9833 13.0666 12.9978 13.072 13.0154 13.072C13.033 13.072 13.0474 13.0775 13.0474 13.0841C13.0474 13.1018 13.2276 13.1616 13.4473 13.2168C13.607 13.2569 13.9195 13.2594 14.0324 13.2215C14.1636 13.1775 14.2804 13.0888 14.34 12.988C14.3544 12.9638 14.3717 12.944 14.3786 12.944C14.3855 12.944 14.3912 12.9296 14.3912 12.912C14.3912 12.8944 14.3984 12.88 14.4072 12.88C14.416 12.88 14.4232 12.8584 14.4232 12.832C14.4232 12.8056 14.4304 12.784 14.4392 12.784C14.4488 12.784 14.4552 12.72 14.4552 12.624C14.4552 12.528 14.4488 12.464 14.4392 12.464C14.4304 12.464 14.4232 12.4424 14.4232 12.416C14.4232 12.3896 14.4177 12.368 14.4111 12.368C14.4044 12.368 14.3886 12.3446 14.376 12.316C14.3513 12.2601 14.1964 12.096 14.1682 12.096C14.1589 12.096 14.1512 12.0888 14.1512 12.08C14.1512 12.0712 14.1368 12.064 14.1192 12.064C14.1016 12.064 14.0872 12.0568 14.0872 12.048C14.0872 12.0392 14.0656 12.032 14.0392 12.032C14.0128 12.032 13.9912 12.0248 13.9912 12.016C13.9912 12.0069 13.9432 12 13.8792 12C13.8153 12 13.7673 11.9931 13.7673 11.984C13.7673 11.9752 13.7389 11.968 13.7042 11.968C13.6695 11.968 13.6367 11.9608 13.6313 11.952C13.6258 11.9432 13.6038 11.936 13.5823 11.936C13.5609 11.936 13.5433 11.9288 13.5433 11.92C13.5433 11.9112 13.5362 11.904 13.5275 11.904C13.5092 11.904 13.4588 11.8656 13.4002 11.8071C13.3417 11.7486 13.3033 11.6981 13.3033 11.6798C13.3033 11.6711 13.2961 11.664 13.2873 11.664C13.2785 11.664 13.2713 11.6496 13.2713 11.632C13.2713 11.6144 13.2649 11.6 13.2571 11.6C13.2369 11.6 13.2199 11.4978 13.2199 11.376C13.2199 11.2542 13.2369 11.152 13.2571 11.152C13.2649 11.152 13.2713 11.1376 13.2713 11.12C13.2713 11.1024 13.2785 11.088 13.2873 11.088C13.2961 11.088 13.3033 11.0783 13.3033 11.0665C13.3033 11.0547 13.3177 11.0319 13.3353 11.016C13.3529 11.0001 13.3673 10.9805 13.3673 10.9724C13.3673 10.9559 13.4077 10.912 13.4228 10.912C13.4282 10.912 13.4481 10.8976 13.467 10.88C13.4859 10.8624 13.5108 10.848 13.5223 10.848C13.5339 10.848 13.5433 10.8408 13.5433 10.832C13.5433 10.8232 13.5577 10.816 13.5753 10.816C13.5929 10.816 13.6073 10.8088 13.6073 10.8C13.6073 10.7912 13.6361 10.784 13.6713 10.784C13.7065 10.784 13.7353 10.7768 13.7353 10.768C13.7353 10.7591 13.7779 10.752 13.8312 10.752C13.8846 10.752 13.9272 10.7591 13.9272 10.768C13.9272 10.7768 13.9524 10.784 13.9832 10.784C14.014 10.784 14.0392 10.7912 14.0392 10.8C14.0392 10.8088 14.0536 10.816 14.0712 10.816C14.0888 10.816 14.1032 10.8232 14.1032 10.832C14.1032 10.8408 14.114 10.848 14.1272 10.848C14.1403 10.848 14.1778 10.8732 14.2105 10.904C14.2431 10.9348 14.2755 10.96 14.2825 10.96C14.2895 10.96 14.2952 10.9692 14.2952 10.9805C14.2952 10.9917 14.3096 11.0113 14.3272 11.024C14.3448 11.0367 14.3592 11.0599 14.3592 11.0755C14.3592 11.0912 14.3664 11.104 14.3752 11.104C14.384 11.104 14.3912 11.122 14.3912 11.144C14.3912 11.166 14.3984 11.184 14.4072 11.184C14.416 11.184 14.4232 11.22 14.4232 11.264C14.4232 11.308 14.4304 11.344 14.4392 11.344C14.448 11.344 14.4552 11.3833 14.4552 11.4313C14.4552 11.5122 14.4622 11.5411 14.5084 11.648C14.5682 11.7866 14.7749 11.968 14.8729 11.968C14.8983 11.968 14.9191 11.9752 14.9191 11.984C14.9191 11.9936 14.9831 12 15.0791 12C15.175 12 15.239 11.9936 15.239 11.984C15.239 11.9752 15.2569 11.968 15.2787 11.968C15.3333 11.968 15.4758 11.8738 15.5484 11.7897C15.6357 11.6886 15.639 11.6838 15.639 11.6567C15.639 11.6431 15.6462 11.632 15.655 11.632C15.6638 11.632 15.671 11.6104 15.671 11.584C15.671 11.5576 15.6787 11.536 15.6882 11.536C15.7 11.536 15.7029 11.4673 15.6973 11.316C15.6884 11.0742 15.6752 10.9645 15.6533 10.951C15.6454 10.9461 15.639 10.9175 15.639 10.8875C15.639 10.8574 15.6251 10.8021 15.6082 10.7644C15.5417 10.6164 15.527 10.5782 15.527 10.5536C15.527 10.5395 15.5206 10.528 15.5129 10.528C15.5051 10.528 15.4947 10.5154 15.4898 10.5C15.4811 10.4725 15.4308 10.3838 15.415 10.368C15.4106 10.3636 15.3963 10.3393 15.3832 10.3139C15.3701 10.2886 15.3143 10.2214 15.2592 10.1647C15.2041 10.1079 15.159 10.0549 15.159 10.0467C15.159 10.0386 15.1519 10.032 15.1432 10.032C15.1344 10.032 15.0834 9.98881 15.0298 9.93601C14.9762 9.88321 14.9221 9.84001 14.9097 9.84001C14.8973 9.84001 14.8871 9.83281 14.8871 9.82401C14.8871 9.81521 14.8763 9.80801 14.8631 9.80801C14.8499 9.80801 14.8391 9.80081 14.8391 9.79201C14.8391 9.78321 14.8283 9.77601 14.8151 9.77601C14.8019 9.77601 14.7911 9.76881 14.7911 9.76001C14.7911 9.75121 14.7803 9.74401 14.7671 9.74401C14.7539 9.74401 14.7431 9.73681 14.7431 9.72801C14.7431 9.71921 14.7356 9.71201 14.7265 9.71201C14.7174 9.71201 14.6526 9.6858 14.5825 9.65378L14.4552 9.59556V7.66178C14.4552 6.38327 14.4497 5.728 14.4392 5.728C14.4304 5.728 14.4232 5.7064 14.4232 5.68001C14.4232 5.6536 14.416 5.632 14.4072 5.632C14.3984 5.632 14.3912 5.6176 14.3912 5.6C14.3912 5.5824 14.384 5.568 14.3752 5.568C14.3664 5.568 14.3592 5.55704 14.3592 5.54365C14.3592 5.51197 14.1912 5.344 14.1595 5.344C14.1462 5.344 14.1352 5.3368 14.1352 5.328C14.1352 5.3192 14.1244 5.312 14.1112 5.312C14.098 5.312 14.0872 5.3048 14.0872 5.296C14.0872 5.2872 14.0656 5.28 14.0392 5.28C14.0128 5.28 13.9912 5.27338 13.9912 5.26527C13.9912 5.25716 13.939 5.24682 13.8752 5.24229C13.7176 5.23109 13.6248 5.21546 13.6142 5.19831C13.6094 5.19044 13.5914 5.184 13.5743 5.184C13.5573 5.184 13.5433 5.1768 13.5433 5.168C13.5433 5.1592 13.5333 5.152 13.521 5.152C13.4904 5.152 13.3033 4.96668 13.3033 4.9364C13.3033 4.92298 13.2961 4.912 13.2873 4.912C13.2785 4.912 13.2713 4.8976 13.2713 4.88C13.2713 4.8624 13.2649 4.848 13.2571 4.848C13.2271 4.848 13.1948 4.55015 13.2218 4.52311C13.2315 4.51348 13.2393 4.48973 13.2393 4.47032C13.2393 4.43408 13.2926 4.32068 13.3353 4.2661C13.3868 4.20028 13.4615 4.128 13.478 4.128C13.4875 4.128 13.4953 4.1208 13.4953 4.112C13.4953 4.1032 13.5061 4.096 13.5193 4.096C13.5325 4.096 13.5433 4.0888 13.5433 4.08C13.5433 4.0712 13.5577 4.064 13.5753 4.064C13.5929 4.064 13.6073 4.05752 13.6073 4.04962C13.6073 4.03408 13.7245 4.01436 13.8153 4.01461C13.9131 4.01488 14.0392 4.03456 14.0392 4.04956C14.0392 4.05749 14.0536 4.064 14.0712 4.064C14.0888 4.064 14.1032 4.0712 14.1032 4.08C14.1032 4.0888 14.1141 4.096 14.1275 4.096C14.1591 4.096 14.3592 4.29607 14.3592 4.3277C14.3592 4.34108 14.3664 4.352 14.3752 4.352C14.384 4.352 14.3912 4.37 14.3912 4.392C14.3912 4.414 14.3984 4.432 14.4072 4.432C14.416 4.432 14.4232 4.468 14.4232 4.512C14.4232 4.556 14.4304 4.592 14.4392 4.592C14.448 4.592 14.4552 4.63127 14.4552 4.67925C14.4552 4.76706 14.4632 4.79599 14.5247 4.928C14.56 5.00373 14.6894 5.1398 14.7619 5.17738C14.9685 5.2845 15.229 5.27744 15.4156 5.15964C15.49 5.11268 15.5867 5.0146 15.6 4.97271C15.605 4.95692 15.6158 4.944 15.624 4.944C15.6323 4.944 15.639 4.9296 15.639 4.912C15.639 4.8944 15.6462 4.88 15.655 4.88C15.6638 4.88 15.671 4.8584 15.671 4.832C15.671 4.8056 15.6782 4.784 15.687 4.784C15.6968 4.784 15.703 4.70165 15.703 4.56895C15.703 4.44284 15.6963 4.3498 15.687 4.344C15.6782 4.33856 15.671 4.30215 15.671 4.26306C15.671 4.22397 15.6638 4.192 15.655 4.192C15.6462 4.192 15.639 4.16652 15.639 4.13536C15.639 4.10421 15.6246 4.0505 15.607 4.016C15.5894 3.98151 15.575 3.9457 15.575 3.93645C15.575 3.91812 15.4626 3.67703 15.4479 3.664C15.443 3.6596 15.4288 3.6362 15.4163 3.612C15.4038 3.58781 15.3876 3.568 15.3803 3.568C15.373 3.568 15.367 3.5572 15.367 3.544C15.367 3.5308 15.3598 3.52 15.351 3.52C15.3422 3.52 15.335 3.51234 15.335 3.50296C15.335 3.49359 15.299 3.45087 15.255 3.408C15.211 3.36514 15.175 3.32219 15.175 3.31255C15.175 3.3029 15.1624 3.29019 15.147 3.28432C15.1317 3.27847 15.0853 3.23909 15.0441 3.19683C15.0029 3.15458 14.9647 3.12 14.9592 3.12C14.9537 3.12 14.9226 3.09871 14.8901 3.07267C14.8107 3.00899 14.4821 2.848 14.4316 2.848C14.4094 2.848 14.3912 2.84159 14.3912 2.83375C14.3912 2.8201 14.3463 2.80936 14.2072 2.78975C14.172 2.78479 14.1364 2.77426 14.128 2.76637C14.1067 2.74627 13.5318 2.74781 13.5193 2.768C13.5139 2.7768 13.4851 2.784 13.4553 2.784C13.4255 2.784 13.3968 2.7912 13.3913 2.8C13.3859 2.8088 13.3607 2.816 13.3353 2.816C13.31 2.816 13.2848 2.8232 13.2793 2.832C13.2739 2.8408 13.2525 2.848 13.2318 2.848C13.165 2.848 12.7275 3.07349 12.7274 3.108C12.7274 3.11459 12.7166 3.12 12.7034 3.12C12.6902 3.12 12.6794 3.12565 12.6794 3.13255C12.6794 3.13946 12.6596 3.15605 12.6354 3.16943C12.5899 3.19458 12.5194 3.19304 12.5194 3.16688C12.5194 3.15871 12.505 3.152 12.4875 3.152C12.4699 3.152 12.4555 3.14623 12.4555 3.13915C12.4555 3.13208 12.4196 3.10869 12.3757 3.08715C12.3319 3.06562 12.2959 3.04259 12.2957 3.036C12.2956 3.02941 12.2815 3.024 12.2644 3.024C12.2473 3.024 12.2298 3.01821 12.2254 3.01111C12.221 3.00402 12.1756 2.97733 12.1245 2.95179C12.0734 2.92627 12.0279 2.90147 12.0235 2.89669C12.0061 2.87779 11.9426 2.848 11.9198 2.848C11.9064 2.848 11.8954 2.84259 11.8953 2.836C11.8952 2.82941 11.8592 2.80639 11.8153 2.78485C11.7714 2.76331 11.7356 2.73992 11.7356 2.73285C11.7356 2.72578 11.7212 2.72 11.7036 2.72C11.686 2.72 11.6716 2.7128 11.6716 2.704C11.6716 2.6952 11.6572 2.688 11.6396 2.688C11.622 2.688 11.6076 2.6808 11.6076 2.672C11.6076 2.6632 11.5932 2.656 11.5756 2.656C11.558 2.656 11.5436 2.6488 11.5436 2.64C11.5436 2.6312 11.5328 2.624 11.5196 2.624C11.5064 2.624 11.4956 2.6168 11.4956 2.608C11.4956 2.5992 11.4812 2.592 11.4636 2.592C11.446 2.592 11.4315 2.58659 11.4315 2.58C11.4314 2.57341 11.4152 2.56008 11.3955 2.55039C11.2992 2.50311 11.2151 2.45479 11.2103 2.444C11.2074 2.43741 11.1912 2.432 11.1743 2.432C11.1574 2.432 11.1437 2.4248 11.1437 2.416C11.1437 2.4072 11.1299 2.4 11.113 2.4C11.0961 2.4 11.0799 2.39413 11.077 2.38696C11.0725 2.37591 10.7977 2.2237 10.6839 2.16919C10.6641 2.15973 10.6479 2.14659 10.6479 2.14C10.6478 2.13341 10.6333 2.128 10.6157 2.128C10.5981 2.128 10.5837 2.1208 10.5837 2.112C10.5837 2.1032 10.5693 2.096 10.5517 2.096C10.5341 2.096 10.5197 2.0888 10.5197 2.08C10.5197 2.0712 10.5054 2.064 10.4878 2.064C10.4702 2.064 10.4558 2.0568 10.4558 2.048C10.4558 2.0392 10.4429 2.032 10.4273 2.032C10.4116 2.032 10.3885 2.0176 10.3758 2C10.3631 1.9824 10.3399 1.968 10.3242 1.968C10.3086 1.968 10.2958 1.9608 10.2958 1.952C10.2958 1.9432 10.2814 1.936 10.2638 1.936C10.2462 1.936 10.2318 1.93015 10.2318 1.92299C10.2318 1.91583 10.2066 1.90008 10.1758 1.888C10.145 1.87592 10.1198 1.86018 10.1198 1.85301C10.1198 1.84586 10.1054 1.84 10.0878 1.84C10.0702 1.84 10.0557 1.83459 10.0556 1.828C10.0554 1.82141 10.0201 1.79871 9.97703 1.77757C9.89195 1.73583 9.89167 1.73514 9.86965 1.524C9.86482 1.47779 9.85436 1.44 9.84636 1.44C9.83838 1.44 9.83185 1.41883 9.83185 1.39295C9.83185 1.36706 9.82465 1.34144 9.81585 1.336C9.80706 1.33056 9.79986 1.30495 9.79986 1.27906C9.79986 1.25317 9.79266 1.232 9.78386 1.232C9.77506 1.232 9.76786 1.214 9.76786 1.192C9.76786 1.17 9.76066 1.152 9.75186 1.152C9.74306 1.152 9.73587 1.14181 9.73587 1.12936C9.73587 1.10523 9.61131 0.861457 9.5921 0.848001C9.58582 0.843601 9.57183 0.823185 9.561 0.802641C9.52179 0.728225 9.24098 0.435472 9.14396 0.367872C9.11316 0.346416 9.08076 0.323024 9.07197 0.315904C9.04179 0.29144 8.86812 0.192 8.85557 0.192C8.84477 0.192 8.7822 0.163392 8.67625 0.11C8.66097 0.102304 8.63397 0.0960001 8.61626 0.0960001C8.59853 0.0960001 8.58404 0.0888001 8.58404 0.0800001C8.58404 0.0712001 8.55524 0.0640001 8.52005 0.0640001C8.48485 0.0640001 8.45606 0.0568 8.45606 0.048C8.45606 0.0392 8.42006 0.032 8.37607 0.032C8.33208 0.032 8.29608 0.0248 8.29608 0.016C8.29608 0.00593601 8.1921 0 8.01613 0C7.84015 0 7.73617 0.00593601 7.73617 0.016ZM8.22329 1.29723C8.23165 1.30536 8.25145 1.312 8.26729 1.312C8.28313 1.312 8.29608 1.3192 8.29608 1.328C8.29608 1.3368 8.30704 1.344 8.32043 1.344C8.35457 1.344 8.50778 1.50099 8.54769 1.57687C8.60756 1.69071 8.62173 1.74674 8.62186 1.87019C8.6221 2.08533 8.54852 2.23237 8.36475 2.38405C8.35412 2.39282 8.33432 2.4 8.32075 2.4C8.30719 2.4 8.29608 2.4072 8.29608 2.416C8.29608 2.4248 8.28169 2.432 8.26409 2.432C8.24649 2.432 8.23209 2.43845 8.23209 2.44632C8.23209 2.4632 8.12597 2.48203 8.02412 2.48323C7.92748 2.48435 7.80016 2.46315 7.80016 2.44592C7.80016 2.43826 7.78576 2.432 7.76816 2.432C7.75057 2.432 7.73617 2.4248 7.73617 2.416C7.73617 2.4072 7.72542 2.4 7.7123 2.4C7.68771 2.4 7.62468 2.3524 7.57458 2.296C7.4931 2.20432 7.47717 2.18079 7.46906 2.14023C7.46419 2.11591 7.45469 2.096 7.44796 2.096C7.43573 2.096 7.42271 2.03755 7.40577 1.90671C7.39561 1.82832 7.41834 1.72621 7.47259 1.60637C7.51121 1.52104 7.67359 1.344 7.71321 1.344C7.72583 1.344 7.73617 1.33763 7.73617 1.32987C7.73617 1.31592 7.76268 1.30723 7.88814 1.28013C7.96359 1.26383 8.20141 1.27595 8.22329 1.29723ZM9.60789 3.02394C9.61547 3.03411 9.73214 3.09791 9.98383 3.22946C10.0454 3.26167 10.0982 3.29341 10.1011 3.3C10.1041 3.30659 10.1203 3.312 10.1371 3.312C10.154 3.312 10.1679 3.31741 10.1679 3.324C10.1681 3.33747 10.2448 3.376 10.2714 3.376C10.281 3.376 10.2991 3.3904 10.3118 3.408C10.3245 3.4256 10.3476 3.44 10.3633 3.44C10.379 3.44 10.3918 3.4472 10.3918 3.456C10.3918 3.4648 10.4062 3.472 10.4238 3.472C10.4414 3.472 10.4558 3.4792 10.4558 3.488C10.4558 3.4968 10.4702 3.504 10.4878 3.504C10.5054 3.504 10.5197 3.50944 10.5197 3.5161C10.5197 3.52275 10.5431 3.53837 10.5717 3.55082C10.6003 3.56325 10.6273 3.57762 10.6317 3.58272C10.6361 3.58783 10.6703 3.6082 10.7077 3.628C10.7451 3.64781 10.8063 3.6802 10.8437 3.7C10.8811 3.71981 10.9141 3.74141 10.917 3.748C10.92 3.7546 10.9356 3.76 10.9517 3.76C10.9678 3.76 10.9834 3.76589 10.9863 3.77309C10.9893 3.78029 11.0745 3.8289 11.1756 3.88109C11.2768 3.9333 11.3632 3.98018 11.3676 3.98528C11.372 3.99039 11.399 4.00476 11.4276 4.01719C11.4562 4.02964 11.4796 4.04525 11.4796 4.05191C11.4796 4.05856 11.494 4.064 11.5116 4.064C11.5292 4.064 11.5436 4.0712 11.5436 4.08C11.5436 4.0888 11.558 4.096 11.5756 4.096C11.5932 4.096 11.6076 4.1032 11.6076 4.112C11.6076 4.1208 11.622 4.128 11.6396 4.128C11.6572 4.128 11.6716 4.1352 11.6716 4.144C11.6716 4.1528 11.681 4.16 11.6925 4.16C11.7041 4.16 11.729 4.1744 11.7479 4.192C11.7668 4.2096 11.7933 4.224 11.8069 4.224C11.8204 4.224 11.8315 4.2312 11.8315 4.24C11.8315 4.2488 11.8459 4.256 11.8635 4.256C11.8811 4.256 11.8955 4.26237 11.8955 4.27013C11.8955 4.27791 11.9093 4.28786 11.926 4.29224C11.9547 4.29975 11.9565 4.31837 11.9561 4.60212C11.9555 4.91645 11.9594 4.94402 12.0447 5.22792C12.0639 5.29168 12.0849 5.34388 12.0915 5.34392C12.0981 5.34397 12.1035 5.35461 12.1035 5.36757C12.1035 5.39976 12.1708 5.536 12.1867 5.536C12.1937 5.536 12.1995 5.54711 12.1995 5.56068C12.1995 5.57424 12.2139 5.6008 12.2315 5.61969C12.2491 5.63858 12.2635 5.66348 12.2635 5.67503C12.2635 5.68656 12.2707 5.696 12.2795 5.696C12.2883 5.696 12.2955 5.70353 12.2955 5.71273C12.2955 5.72193 12.3117 5.74658 12.3315 5.76749C12.4092 5.84959 12.4555 5.90508 12.4556 5.91628C12.4557 5.92273 12.476 5.94397 12.5007 5.96348C12.5254 5.98298 12.5684 6.02079 12.5964 6.04748C12.6243 6.07417 12.6528 6.09601 12.6597 6.09601C12.6667 6.09601 12.6827 6.11041 12.6954 6.12801C12.7081 6.14561 12.7277 6.16001 12.7389 6.16001C12.7502 6.16001 12.7594 6.16721 12.7594 6.17601C12.7594 6.18481 12.7722 6.19201 12.7879 6.19201C12.8035 6.19201 12.8267 6.20641 12.8394 6.22401C12.8521 6.24161 12.8753 6.25601 12.8909 6.25601C12.9066 6.25601 12.9194 6.26321 12.9194 6.27201C12.9194 6.28081 12.9338 6.28801 12.9514 6.28801C12.969 6.28801 12.9834 6.29521 12.9834 6.30401C12.9834 6.31281 12.9978 6.32001 13.0154 6.32001C13.033 6.32001 13.0474 6.32721 13.0474 6.33601C13.0474 6.34481 13.0618 6.35201 13.0794 6.35201C13.097 6.35201 13.1114 6.35921 13.1114 6.36801C13.1114 6.37681 13.1227 6.38401 13.1365 6.38401C13.2099 6.38401 13.2078 6.33069 13.2034 8.00964L13.1993 9.5894L13.1514 9.61754C13.125 9.63302 13.0908 9.6462 13.0754 9.64684C13.06 9.64748 13.0474 9.65521 13.0474 9.66401C13.0474 9.67281 13.0341 9.68001 13.0179 9.68001C13.0016 9.68001 12.9438 9.70881 12.8893 9.74401C12.8349 9.77921 12.7834 9.80801 12.7749 9.80801C12.7664 9.80801 12.7594 9.81521 12.7594 9.82401C12.7594 9.83281 12.7523 9.84001 12.7436 9.84001C12.7253 9.84001 12.6812 9.87457 12.6058 9.94801C12.5765 9.97662 12.5484 10 12.5434 10C12.5267 10 12.4235 10.1107 12.4235 10.1287C12.4235 10.1385 12.3947 10.1742 12.3595 10.208C12.3243 10.2418 12.2955 10.2773 12.2955 10.2868C12.2955 10.2962 12.2883 10.304 12.2795 10.304C12.2707 10.304 12.2635 10.3148 12.2635 10.328C12.2635 10.3412 12.258 10.352 12.2514 10.352C12.2447 10.352 12.2289 10.3754 12.2163 10.404C12.2036 10.4326 12.1803 10.47 12.1644 10.487C12.1485 10.5041 12.1355 10.5307 12.1355 10.5461C12.1355 10.5615 12.1283 10.5786 12.1195 10.584C12.1107 10.5894 12.1035 10.6079 12.1035 10.625C12.1035 10.642 12.0981 10.656 12.0915 10.6561C12.0849 10.6561 12.0629 10.7119 12.0426 10.7801C12.0224 10.8482 11.9984 10.9276 11.9895 10.9564C11.9642 11.0376 11.9462 11.3438 11.9556 11.5298C11.9639 11.6916 11.963 11.6981 11.9299 11.7068C11.911 11.7117 11.8955 11.7221 11.8955 11.7299C11.8955 11.7376 11.8811 11.744 11.8635 11.744C11.8459 11.744 11.8315 11.7512 11.8315 11.76C11.8315 11.7688 11.8172 11.776 11.7996 11.776C11.782 11.776 11.7676 11.7823 11.7676 11.7901C11.7676 11.7978 11.746 11.8131 11.7196 11.824C11.6932 11.8349 11.6716 11.8502 11.6716 11.8579C11.6716 11.8657 11.6572 11.872 11.6396 11.872C11.622 11.872 11.6076 11.8792 11.6076 11.888C11.6076 11.8968 11.5932 11.904 11.5756 11.904C11.558 11.904 11.5436 11.9099 11.5436 11.917C11.5436 11.9242 11.5184 11.9399 11.4876 11.952C11.4568 11.9641 11.4316 11.9798 11.4316 11.987C11.4316 11.9942 11.4172 12 11.3996 12C11.382 12 11.3676 12.0072 11.3676 12.016C11.3676 12.0248 11.3568 12.032 11.3436 12.032C11.3304 12.032 11.3196 12.0392 11.3196 12.048C11.3196 12.0568 11.3052 12.064 11.2876 12.064C11.27 12.064 11.2556 12.0699 11.2556 12.077C11.2556 12.0842 11.2304 12.0999 11.1996 12.112C11.1688 12.1241 11.1437 12.1398 11.1437 12.147C11.1437 12.1542 11.1293 12.16 11.1117 12.16C11.0941 12.16 11.0797 12.1672 11.0797 12.176C11.0797 12.1848 11.0659 12.192 11.049 12.192C11.0321 12.192 11.0159 12.198 11.013 12.2053C11.0101 12.2126 10.9321 12.2583 10.8397 12.3068C10.5604 12.4534 10.528 12.4715 10.5224 12.484C10.5195 12.4906 10.5033 12.496 10.4864 12.496C10.4695 12.496 10.4558 12.5032 10.4558 12.512C10.4558 12.5208 10.4414 12.528 10.4238 12.528C10.4062 12.528 10.3918 12.5343 10.3918 12.5421C10.3918 12.5498 10.3702 12.5651 10.3438 12.576C10.3174 12.5869 10.2958 12.6022 10.2958 12.6099C10.2958 12.6177 10.2814 12.624 10.2638 12.624C10.2462 12.624 10.2318 12.6312 10.2318 12.64C10.2318 12.6488 10.2174 12.656 10.1998 12.656C10.1822 12.656 10.1678 12.6619 10.1678 12.669C10.1678 12.6762 10.1426 12.6919 10.1118 12.704C10.081 12.7161 10.0558 12.7318 10.0558 12.739C10.0558 12.7462 10.042 12.752 10.0252 12.752C10.0083 12.752 9.9921 12.7574 9.98916 12.764C9.98623 12.7706 9.92264 12.8078 9.84785 12.8466C9.77306 12.8854 9.70947 12.9232 9.70654 12.9306C9.7036 12.938 9.68792 12.944 9.67168 12.944C9.65545 12.944 9.63201 12.9542 9.61961 12.9666C9.56736 13.0188 9.53886 13.0024 9.34996 12.8117C9.2477 12.7085 9.15584 12.624 9.14584 12.624C9.13584 12.624 9.10507 12.6024 9.07745 12.576C9.04983 12.5496 9.0181 12.528 9.00694 12.528C8.99577 12.528 8.98425 12.5222 8.98131 12.515C8.9728 12.4943 8.71365 12.3726 8.60223 12.337C8.40245 12.2733 8.26422 12.2536 8.01613 12.2536C7.76517 12.2536 7.60748 12.2762 7.42421 12.3385C7.29804 12.3814 7.11226 12.4678 7.11226 12.4835C7.11226 12.4904 7.09786 12.496 7.08027 12.496C7.06267 12.496 7.04827 12.5032 7.04827 12.512C7.04827 12.5208 7.03928 12.528 7.02827 12.528C7.01728 12.5281 6.98308 12.5497 6.95229 12.576C6.92149 12.6024 6.89071 12.6239 6.88388 12.624C6.87705 12.624 6.84005 12.6546 6.80165 12.692C6.76326 12.7294 6.70741 12.7816 6.67754 12.808C6.64768 12.8344 6.59948 12.8866 6.57044 12.924C6.5224 12.9859 6.45636 13.016 6.45636 12.976C6.45636 12.9672 6.44248 12.96 6.4255 12.96C6.40854 12.96 6.38514 12.9509 6.37351 12.9398C6.3619 12.9287 6.31638 12.9016 6.27239 12.8798C6.2284 12.8579 6.19 12.8346 6.18707 12.828C6.18413 12.8214 6.16794 12.816 6.15108 12.816C6.1342 12.816 6.12041 12.8102 6.12041 12.803C6.12041 12.7958 6.09522 12.7801 6.06442 12.768C6.03362 12.7559 6.00843 12.7415 6.00843 12.736C6.00843 12.7305 5.98323 12.7161 5.95244 12.704C5.92164 12.6919 5.89645 12.6762 5.89645 12.669C5.89645 12.6619 5.88205 12.656 5.86445 12.656C5.84685 12.656 5.83246 12.6488 5.83246 12.64C5.83246 12.6312 5.81806 12.624 5.80046 12.624C5.78286 12.624 5.76847 12.6168 5.76847 12.608C5.76847 12.5992 5.75407 12.592 5.73647 12.592C5.71887 12.592 5.70447 12.5856 5.70447 12.5779C5.70447 12.5701 5.69187 12.5598 5.67648 12.5549C5.63904 12.543 5.55384 12.491 5.54717 12.476C5.54423 12.4694 5.53095 12.464 5.51764 12.464C5.50433 12.464 5.47433 12.4511 5.45098 12.4354C5.42762 12.4197 5.38692 12.3966 5.36053 12.384C5.33413 12.3715 5.29454 12.3494 5.27254 12.335C5.25054 12.3206 5.14976 12.2664 5.04857 12.2146C4.94739 12.1627 4.8622 12.1149 4.85927 12.1082C4.85633 12.1015 4.84014 12.096 4.82328 12.096C4.8064 12.096 4.79261 12.0888 4.79261 12.08C4.79261 12.0712 4.78181 12.064 4.76862 12.064C4.75542 12.064 4.74462 12.0568 4.74462 12.048C4.74462 12.0392 4.73022 12.032 4.71262 12.032C4.69503 12.032 4.68063 12.0248 4.68063 12.016C4.68063 12.0072 4.66623 12 4.64863 12C4.63104 12 4.61664 11.9928 4.61664 11.984C4.61664 11.9752 4.60224 11.968 4.58464 11.968C4.56705 11.968 4.55265 11.9608 4.55265 11.952C4.55265 11.9432 4.54321 11.936 4.53168 11.936C4.52013 11.936 4.49523 11.9216 4.47634 11.904C4.45746 11.8864 4.43091 11.872 4.41734 11.872C4.40377 11.872 4.39267 11.8648 4.39267 11.856C4.39267 11.8472 4.37827 11.84 4.36068 11.84C4.34308 11.84 4.32868 11.8328 4.32868 11.824C4.32868 11.8152 4.31489 11.808 4.29801 11.808C4.28115 11.808 4.26496 11.8026 4.26202 11.796C4.25909 11.7894 4.2243 11.7674 4.1847 11.7472C4.06162 11.6842 4.05685 11.6782 4.07334 11.607C4.09558 11.5111 4.09091 11.2227 4.06496 11.088C4.02017 10.8556 3.96654 10.6693 3.94138 10.6587C3.93444 10.6557 3.92874 10.6395 3.92874 10.6227C3.92874 10.6058 3.92154 10.592 3.91274 10.592C3.90395 10.592 3.89675 10.574 3.89675 10.552C3.89675 10.53 3.88955 10.512 3.88075 10.512C3.87195 10.512 3.86475 10.5012 3.86475 10.488C3.86475 10.4748 3.8589 10.464 3.85175 10.464C3.84458 10.464 3.82884 10.4388 3.81676 10.408C3.80468 10.3772 3.78894 10.352 3.78177 10.352C3.77462 10.352 3.76877 10.3412 3.76877 10.328C3.76877 10.3148 3.76157 10.304 3.75277 10.304C3.74397 10.304 3.73677 10.2966 3.73677 10.2875C3.73677 10.2784 3.71158 10.2457 3.68078 10.2149C3.64998 10.1841 3.62468 10.1538 3.62453 10.1475C3.62418 10.1318 3.53527 10.032 3.52165 10.032C3.51565 10.032 3.47568 9.99601 3.43282 9.95201C3.38996 9.90801 3.34859 9.87201 3.34088 9.87201C3.33317 9.87201 3.31292 9.8594 3.29586 9.84401C3.27879 9.82862 3.24504 9.80578 3.22085 9.7933C3.19666 9.78082 3.17686 9.76462 3.17686 9.7573C3.17686 9.74999 3.16246 9.74401 3.14486 9.74401C3.12726 9.74401 3.11287 9.73809 3.11287 9.73086C3.11287 9.72362 3.07508 9.7013 3.02888 9.68126C2.98269 9.66121 2.9215 9.63438 2.8929 9.62166L2.84091 9.5985V7.70839V5.81828L2.80576 5.70914C2.78643 5.64911 2.76484 5.6 2.75777 5.6C2.7507 5.6 2.74492 5.5896 2.74492 5.5769C2.74492 5.54679 2.54217 5.344 2.51206 5.344C2.49936 5.344 2.48896 5.3368 2.48896 5.328C2.48896 5.3192 2.47456 5.312 2.45696 5.312C2.43937 5.312 2.42497 5.3048 2.42497 5.296C2.42497 5.2872 2.40337 5.28 2.37698 5.28C2.35058 5.28 2.32898 5.2734 2.32898 5.26532C2.32898 5.25724 2.28038 5.24679 2.221 5.24208C2.04754 5.22836 1.96104 5.21381 1.96104 5.19839C1.96104 5.19048 1.94664 5.184 1.92904 5.184C1.91145 5.184 1.89705 5.1768 1.89705 5.168C1.89705 5.1592 1.88599 5.152 1.87248 5.152C1.84962 5.152 1.82444 5.13288 1.7329 5.04602C1.67216 4.98837 1.64979 4.95524 1.61005 4.864C1.55659 4.74125 1.5547 4.50648 1.60633 4.401C1.62544 4.36194 1.64109 4.32402 1.64109 4.31671C1.64109 4.2929 1.84778 4.096 1.87275 4.096C1.88612 4.096 1.89705 4.0888 1.89705 4.08C1.89705 4.0712 1.91145 4.064 1.92904 4.064C1.94664 4.064 1.96104 4.05772 1.96104 4.05004C1.96104 4.0356 2.09256 4.01314 2.17701 4.01314C2.26146 4.01314 2.39297 4.0356 2.39297 4.05004C2.39297 4.05772 2.40737 4.064 2.42497 4.064C2.44257 4.064 2.45696 4.0712 2.45696 4.08C2.45696 4.0888 2.46839 4.096 2.48234 4.096C2.4963 4.096 2.54658 4.13645 2.59406 4.18589C2.72753 4.32482 2.79291 4.4896 2.79291 4.68709C2.79291 4.74103 2.8 4.784 2.80891 4.784C2.81771 4.784 2.82491 4.8056 2.82491 4.832C2.82491 4.8584 2.83211 4.88 2.84091 4.88C2.84971 4.88 2.8569 4.8944 2.8569 4.912C2.8569 4.9296 2.8641 4.944 2.8729 4.944C2.8817 4.944 2.8889 4.95112 2.8889 4.95983C2.8889 4.98407 2.96166 5.06717 3.04064 5.13314C3.09135 5.17548 3.24437 5.23525 3.33347 5.24751C3.38372 5.25444 3.46616 5.25432 3.51668 5.24728C3.60313 5.23522 3.75872 5.17548 3.80423 5.13684C3.81551 5.12725 3.8396 5.10695 3.85776 5.0917C3.89456 5.06082 3.97643 4.94149 4.003 4.88C4.05151 4.7678 4.06007 4.70877 4.0545 4.52498L4.04872 4.33408L4.09672 4.30704C4.12311 4.29218 4.14711 4.27461 4.15004 4.268C4.15298 4.2614 4.16917 4.256 4.18603 4.256C4.20291 4.256 4.2167 4.2488 4.2167 4.24C4.2167 4.2312 4.2275 4.224 4.2407 4.224C4.25389 4.224 4.26469 4.2168 4.26469 4.208C4.26469 4.1992 4.27909 4.192 4.29669 4.192C4.31428 4.192 4.32868 4.1848 4.32868 4.176C4.32868 4.1672 4.34308 4.16 4.36068 4.16C4.37827 4.16 4.39267 4.1528 4.39267 4.144C4.39267 4.1352 4.40707 4.128 4.42467 4.128C4.44227 4.128 4.45666 4.1208 4.45666 4.112C4.45666 4.1032 4.46746 4.096 4.48066 4.096C4.49386 4.096 4.50466 4.0888 4.50466 4.08C4.50466 4.0712 4.51545 4.064 4.52865 4.064C4.54185 4.064 4.55265 4.0568 4.55265 4.048C4.55265 4.0392 4.56705 4.032 4.58464 4.032C4.60224 4.032 4.61664 4.0248 4.61664 4.016C4.61664 4.0072 4.63104 4 4.64863 4C4.66623 4 4.68063 3.9928 4.68063 3.984C4.68063 3.9752 4.69359 3.968 4.70942 3.968C4.72526 3.968 4.74507 3.96119 4.75342 3.95287C4.76178 3.94453 4.81541 3.91284 4.8726 3.88242C4.92979 3.852 5.04464 3.7904 5.12779 3.74556C5.21097 3.70071 5.28476 3.664 5.29177 3.664C5.29879 3.664 5.30453 3.6568 5.30453 3.648C5.30453 3.6392 5.31893 3.632 5.33653 3.632C5.35413 3.632 5.36853 3.62615 5.36853 3.61899C5.36853 3.61183 5.39372 3.59608 5.42452 3.584C5.45531 3.57192 5.48051 3.55618 5.48051 3.54901C5.48051 3.54186 5.49491 3.536 5.5125 3.536C5.5301 3.536 5.5445 3.5288 5.5445 3.52C5.5445 3.5112 5.5589 3.504 5.57649 3.504C5.59409 3.504 5.60849 3.4968 5.60849 3.488C5.60849 3.4792 5.61929 3.472 5.63249 3.472C5.64568 3.472 5.65648 3.4648 5.65648 3.456C5.65648 3.4472 5.66728 3.44 5.68048 3.44C5.69368 3.44 5.70447 3.4328 5.70447 3.424C5.70447 3.4152 5.71887 3.408 5.73647 3.408C5.75407 3.408 5.76847 3.4008 5.76847 3.392C5.76847 3.3832 5.78286 3.376 5.80046 3.376C5.81806 3.376 5.83246 3.3688 5.83246 3.36C5.83246 3.3512 5.84685 3.344 5.86445 3.344C5.88205 3.344 5.89645 3.3368 5.89645 3.328C5.89645 3.3192 5.91084 3.312 5.92844 3.312C5.94604 3.312 5.96044 3.3048 5.96044 3.296C5.96044 3.2872 5.96635 3.28 5.9736 3.28C5.99446 3.28 6.38378 3.06775 6.3897 3.05315C6.39264 3.04592 6.40883 3.04 6.42569 3.04C6.44256 3.04 6.45636 3.0328 6.45636 3.024C6.45636 2.98955 6.51442 3.01091 6.55235 3.05933C6.63094 3.15963 6.86067 3.376 6.88857 3.376C6.89722 3.376 6.90429 3.3832 6.90429 3.392C6.90429 3.4008 6.91351 3.408 6.92475 3.408C6.93602 3.408 6.9556 3.4224 6.96828 3.44C6.98097 3.4576 7.00415 3.472 7.01981 3.472C7.03546 3.472 7.04827 3.4792 7.04827 3.488C7.04827 3.4968 7.06109 3.504 7.07673 3.504C7.09239 3.504 7.11557 3.5184 7.12826 3.536C7.14095 3.5536 7.16773 3.568 7.18779 3.568C7.20783 3.568 7.22425 3.5752 7.22425 3.584C7.22425 3.5928 7.23514 3.6 7.24847 3.6C7.26178 3.6 7.28697 3.6072 7.30446 3.616C7.32193 3.6248 7.35053 3.6392 7.368 3.648C7.38548 3.6568 7.41385 3.664 7.43105 3.664C7.44824 3.664 7.46627 3.6704 7.47112 3.67824C7.47595 3.68607 7.50337 3.69656 7.53205 3.70157C7.56072 3.70658 7.62379 3.71925 7.67218 3.72975C7.72057 3.74024 7.87535 3.74884 8.01613 3.74884C8.1569 3.74884 8.31168 3.74024 8.36007 3.72975C8.40847 3.71925 8.47153 3.70658 8.5002 3.70157C8.52888 3.69656 8.5563 3.68607 8.56113 3.67824C8.56598 3.6704 8.58401 3.664 8.6012 3.664C8.6184 3.664 8.64497 3.65759 8.66025 3.64975C8.67553 3.64192 8.72402 3.61952 8.76801 3.59999C8.81201 3.58047 8.866 3.55404 8.88799 3.54125C8.90999 3.52848 8.94059 3.51404 8.95598 3.50916C8.97137 3.50426 8.98398 3.49391 8.98398 3.48613C8.98398 3.47837 8.99548 3.472 9.00956 3.472C9.02362 3.472 9.05531 3.4504 9.07996 3.424C9.10462 3.3976 9.13295 3.376 9.14292 3.376C9.15287 3.376 9.18481 3.35259 9.21391 3.324C9.243 3.29541 9.30236 3.2396 9.34583 3.2C9.38928 3.1604 9.44808 3.0981 9.4765 3.06154C9.51739 3.00893 9.53564 2.99696 9.56402 3.00413C9.58375 3.00912 9.60349 3.01803 9.60789 3.02394ZM7.72017 4.704C7.70697 4.71253 7.66199 4.71962 7.62019 4.71976C7.57838 4.71989 7.5442 4.7272 7.5442 4.736C7.5442 4.7448 7.5225 4.752 7.49598 4.752C7.46947 4.752 7.43527 4.75836 7.41999 4.76613C7.40471 4.77391 7.37422 4.78738 7.35223 4.79608C7.27344 4.82722 6.92813 4.99527 6.92029 5.00629C6.91589 5.01248 6.8871 5.03508 6.8563 5.05648C6.74796 5.13183 6.47236 5.39532 6.47236 5.42354C6.47236 5.4318 6.45436 5.45655 6.43236 5.47855C6.41037 5.50055 6.39237 5.52608 6.39237 5.53528C6.39237 5.54448 6.38517 5.552 6.37637 5.552C6.36757 5.552 6.36038 5.5628 6.36038 5.576C6.36038 5.5892 6.35452 5.6 6.34737 5.6C6.3402 5.6 6.32446 5.62521 6.31238 5.656C6.3003 5.6868 6.28456 5.71201 6.2774 5.71201C6.27025 5.71201 6.26439 5.72641 6.26439 5.744C6.26439 5.7616 6.25719 5.776 6.24839 5.776C6.23959 5.776 6.23239 5.7904 6.23239 5.808C6.23239 5.8256 6.2252 5.84 6.2164 5.84C6.2076 5.84 6.2004 5.85397 6.2004 5.87106C6.2004 5.88815 6.1932 5.90657 6.1844 5.912C6.1756 5.91745 6.1684 5.93946 6.1684 5.96095C6.1684 5.98244 6.16204 6.00001 6.15428 6.00001C6.1465 6.00001 6.13539 6.01981 6.12956 6.04401C6.12374 6.0682 6.11165 6.11681 6.1027 6.15201C6.04031 6.39721 6.02387 6.74773 6.06479 6.96001C6.0792 7.03481 6.09482 7.11948 6.09947 7.14815C6.10414 7.17684 6.11435 7.20426 6.12217 7.20909C6.13001 7.21394 6.13641 7.23906 6.13641 7.26495C6.13641 7.29084 6.14231 7.31201 6.14951 7.31201C6.15673 7.31201 6.17242 7.34801 6.1844 7.39201C6.19638 7.43601 6.21208 7.47201 6.21929 7.47201C6.22649 7.47201 6.23239 7.48641 6.23239 7.50401C6.23239 7.52161 6.23959 7.53601 6.24839 7.53601C6.25719 7.53601 6.26439 7.55041 6.26439 7.56801C6.26439 7.58561 6.27159 7.60001 6.28039 7.60001C6.28919 7.60001 6.29639 7.61081 6.29639 7.62401C6.29639 7.63721 6.30358 7.64801 6.31238 7.64801C6.32118 7.64801 6.32838 7.65881 6.32838 7.67201C6.32838 7.68521 6.33558 7.69601 6.34438 7.69601C6.35318 7.69601 6.36038 7.71041 6.36038 7.72801C6.36038 7.74561 6.36757 7.76001 6.37637 7.76001C6.38517 7.76001 6.39237 7.77492 6.39237 7.79314C6.39237 7.82967 6.3575 7.87201 6.3274 7.87201C6.3168 7.87201 6.2965 7.88466 6.28226 7.90012C6.26804 7.91557 6.23659 7.93839 6.2124 7.95082C6.18821 7.96324 6.1684 7.9794 6.1684 7.98671C6.1684 7.99402 6.15919 8.00001 6.14794 8.00001C6.13668 8.00001 6.1171 8.01441 6.10441 8.03201C6.09173 8.04961 6.07587 8.06401 6.06917 8.06401C6.03233 8.06401 5.57649 8.52729 5.57649 8.56473C5.57649 8.57266 5.5549 8.59935 5.5285 8.62401C5.50211 8.64866 5.48051 8.68036 5.48051 8.69442C5.48051 8.7085 5.47453 8.72001 5.46721 8.72001C5.4599 8.72001 5.44371 8.7398 5.43125 8.76401C5.41877 8.78822 5.40388 8.81161 5.39817 8.81601C5.37684 8.83241 5.20855 9.16378 5.20855 9.18938C5.20855 9.20402 5.20135 9.21601 5.19255 9.21601C5.18375 9.21601 5.17655 9.22998 5.17655 9.24706C5.17655 9.26415 5.16936 9.28257 5.16056 9.28801C5.15176 9.29345 5.14456 9.31546 5.14456 9.33695C5.14456 9.35844 5.13736 9.37601 5.12856 9.37601C5.11976 9.37601 5.11256 9.39761 5.11256 9.42401C5.11256 9.45041 5.10536 9.47201 5.09657 9.47201C5.08777 9.47201 5.08057 9.49361 5.08057 9.52001C5.08057 9.54641 5.07337 9.56801 5.06457 9.56801C5.05577 9.56801 5.04857 9.59321 5.04857 9.62401C5.04857 9.65481 5.04137 9.68001 5.03258 9.68001C5.02378 9.68001 5.01658 9.70881 5.01658 9.74401C5.01658 9.77921 5.00938 9.80801 5.00058 9.80801C4.99074 9.80801 4.98458 9.88769 4.98458 10.0151C4.98458 10.1358 4.99125 10.2262 5.00058 10.232C5.00938 10.2374 5.01658 10.2667 5.01658 10.297C5.01658 10.3272 5.02378 10.352 5.03258 10.352C5.04137 10.352 5.04857 10.37 5.04857 10.392C5.04857 10.414 5.05577 10.432 5.06457 10.432C5.07337 10.432 5.08057 10.4464 5.08057 10.464C5.08057 10.4816 5.08777 10.496 5.09657 10.496C5.10536 10.496 5.11256 10.5104 5.11256 10.528C5.11256 10.5456 5.11855 10.56 5.12586 10.56C5.13317 10.56 5.14931 10.5798 5.16174 10.604C5.17417 10.6282 5.20597 10.6713 5.23243 10.6997C5.25889 10.7281 5.28846 10.7605 5.29815 10.7717C5.33435 10.8135 5.41681 10.88 5.43237 10.88C5.44125 10.88 5.44851 10.8864 5.44851 10.8941C5.44851 10.9019 5.46112 10.9123 5.47651 10.9172C5.4919 10.922 5.5225 10.9364 5.5445 10.9491C5.62439 10.9953 5.69643 11.0205 5.83246 11.0497C5.98746 11.083 10.0459 11.0828 10.1998 11.0495C10.3569 11.0155 10.4768 10.9729 10.5056 10.9408C10.5199 10.925 10.5432 10.912 10.5576 10.912C10.572 10.912 10.5837 10.9048 10.5837 10.896C10.5837 10.8872 10.5945 10.88 10.6077 10.88C10.6209 10.88 10.6317 10.8728 10.6317 10.864C10.6317 10.8552 10.6396 10.848 10.6491 10.848C10.6587 10.848 10.7051 10.8078 10.7523 10.7586C10.843 10.6643 10.927 10.5329 10.9688 10.4202C10.9827 10.3829 10.9988 10.3475 11.0048 10.3415C11.0108 10.3356 11.0157 10.3117 11.0157 10.2885C11.0157 10.2654 11.0233 10.2388 11.0326 10.2295C11.0435 10.2185 11.047 10.1421 11.0423 10.0143C11.0345 9.80228 11.0208 9.70108 10.9979 9.68692C10.9901 9.68207 10.9837 9.65922 10.9837 9.63614C10.9837 9.5941 10.937 9.44442 10.8944 9.34959C10.8819 9.32186 10.8717 9.29167 10.8717 9.28249C10.8717 9.2587 10.7386 8.98508 10.7239 8.97868C10.7172 8.97574 10.7117 8.95954 10.7117 8.94268C10.7117 8.9258 10.7045 8.91201 10.6957 8.91201C10.6869 8.91201 10.6797 8.90121 10.6797 8.88801C10.6797 8.87481 10.6725 8.86401 10.6637 8.86401C10.6549 8.86401 10.6477 8.85321 10.6477 8.84001C10.6477 8.82681 10.6405 8.81601 10.6317 8.81601C10.6229 8.81601 10.6157 8.80657 10.6157 8.79503C10.6157 8.78348 10.6013 8.75858 10.5837 8.73969C10.5661 8.72081 10.5517 8.69892 10.5517 8.69105C10.5517 8.68319 10.5301 8.65415 10.5037 8.62652C10.4774 8.5989 10.4558 8.56903 10.4558 8.56015C10.4558 8.55127 10.4486 8.54401 10.4398 8.54401C10.431 8.54401 10.4238 8.53706 10.4238 8.52858C10.4238 8.49015 9.96452 8.03201 9.92598 8.03201C9.91646 8.03201 9.8885 8.01041 9.86385 7.98401C9.83919 7.95761 9.80909 7.93601 9.79698 7.93601C9.78485 7.93601 9.76455 7.92161 9.75186 7.90401C9.73918 7.88641 9.72096 7.87201 9.71136 7.87201C9.70176 7.87201 9.678 7.85717 9.65855 7.83906C9.62395 7.80682 9.6238 7.80503 9.65153 7.75554C9.66712 7.72772 9.69248 7.69079 9.70787 7.67346C9.72326 7.65615 9.73587 7.63253 9.73587 7.62098C9.73587 7.60945 9.74306 7.60001 9.75186 7.60001C9.76066 7.60001 9.76786 7.58561 9.76786 7.56801C9.76786 7.55041 9.77506 7.53601 9.78386 7.53601C9.79266 7.53601 9.79986 7.52161 9.79986 7.50401C9.79986 7.48641 9.80706 7.47201 9.81585 7.47201C9.82465 7.47201 9.83185 7.45041 9.83185 7.42401C9.83185 7.39761 9.83905 7.37601 9.84785 7.37601C9.85665 7.37601 9.86385 7.36161 9.86385 7.34401C9.86385 7.32641 9.87105 7.31201 9.87984 7.31201C9.88864 7.31201 9.89584 7.29084 9.89584 7.26495C9.89584 7.23906 9.90304 7.21345 9.91184 7.20801C9.92064 7.20257 9.92784 7.17377 9.92784 7.14401C9.92784 7.11425 9.93401 7.08609 9.94155 7.08141C9.96666 7.06589 9.98223 6.89076 9.9808 6.64001C9.97932 6.38092 9.96673 6.24252 9.94228 6.2168C9.93433 6.20845 9.92784 6.17785 9.92784 6.14881C9.92784 6.11977 9.92064 6.09601 9.91184 6.09601C9.90304 6.09601 9.89584 6.07441 9.89584 6.04801C9.89584 6.02161 9.88864 6.00001 9.87984 6.00001C9.87105 6.00001 9.86385 5.9784 9.86385 5.952C9.86385 5.92561 9.85665 5.90401 9.84785 5.90401C9.83905 5.90401 9.83185 5.88961 9.83185 5.872C9.83185 5.8544 9.82465 5.84 9.81585 5.84C9.80706 5.84 9.79986 5.8256 9.79986 5.808C9.79986 5.7904 9.79266 5.776 9.78386 5.776C9.77506 5.776 9.76786 5.7616 9.76786 5.744C9.76786 5.72641 9.76066 5.71201 9.75186 5.71201C9.74306 5.71201 9.73587 5.70431 9.73587 5.69488C9.73587 5.68548 9.71427 5.64637 9.68787 5.60801C9.66148 5.56964 9.63988 5.53362 9.63988 5.52797C9.63988 5.52234 9.63089 5.50869 9.61988 5.49768C9.60889 5.48666 9.58189 5.45386 9.55989 5.42479C9.48438 5.325 9.28091 5.13008 9.17482 5.05589C9.14464 5.0348 9.11636 5.01287 9.11196 5.00714C9.09734 4.98812 8.82132 4.848 8.79847 4.848C8.78612 4.848 8.77601 4.8408 8.77601 4.832C8.77601 4.8232 8.75921 4.816 8.73869 4.816C8.71815 4.816 8.69642 4.81108 8.69039 4.80504C8.67264 4.78728 8.56307 4.7525 8.52405 4.75224C8.50426 4.75212 8.48805 4.7448 8.48805 4.736C8.48805 4.7272 8.45249 4.72 8.40901 4.72C8.36553 4.72 8.32552 4.7128 8.32008 4.704C8.30719 4.68312 7.75247 4.68312 7.72017 4.704ZM8.22942 5.98538C8.23237 5.99343 8.25174 6.00001 8.27247 6.00001C8.29322 6.00001 8.31464 6.00721 8.32008 6.01601C8.32552 6.02481 8.34105 6.03201 8.3546 6.03201C8.36815 6.03201 8.39941 6.05361 8.42406 6.08001C8.44872 6.10641 8.47522 6.12801 8.48293 6.12801C8.49066 6.12801 8.50757 6.1434 8.52051 6.16221C8.53345 6.18103 8.55844 6.21162 8.57604 6.23021C8.62726 6.28431 8.67943 6.40506 8.70607 6.53111C8.72616 6.62629 8.72744 6.66844 8.71292 6.75799C8.68823 6.91009 8.6046 7.07517 8.51205 7.15449C8.50325 7.16204 8.46766 7.19335 8.43294 7.2241C8.39823 7.25485 8.36043 7.28001 8.34896 7.28001C8.33747 7.28001 8.32808 7.28721 8.32808 7.29601C8.32808 7.30481 8.30648 7.31201 8.28009 7.31201C8.25369 7.31201 8.23209 7.31921 8.23209 7.32801C8.23209 7.33681 8.20013 7.34401 8.16105 7.34401C8.12197 7.34401 8.08556 7.35121 8.08012 7.36001C8.07468 7.36881 8.04588 7.37601 8.01613 7.37601C7.98637 7.37601 7.95757 7.36881 7.95214 7.36001C7.9467 7.35121 7.91029 7.34401 7.8712 7.34401C7.83212 7.34401 7.80016 7.33681 7.80016 7.32801C7.80016 7.31921 7.77856 7.31201 7.75217 7.31201C7.72577 7.31201 7.70417 7.30481 7.70417 7.29601C7.70417 7.28721 7.69518 7.27988 7.68418 7.27972C7.65919 7.27935 7.57389 7.21161 7.49473 7.12927C7.42404 7.05572 7.3549 6.92329 7.32703 6.80801C7.31207 6.74613 7.31207 6.56588 7.32703 6.50401C7.34319 6.43716 7.39676 6.30737 7.41618 6.28801C7.4206 6.28361 7.44164 6.25481 7.46291 6.22401C7.48419 6.19321 7.51946 6.15361 7.54129 6.13601C7.56312 6.11841 7.59756 6.08781 7.61785 6.06801C7.63813 6.0482 7.66543 6.03201 7.67851 6.03201C7.69158 6.03201 7.70673 6.02481 7.71217 6.01601C7.71761 6.00721 7.73962 6.00001 7.76111 6.00001C7.78259 6.00001 7.80016 5.99322 7.80016 5.98492C7.80016 5.97663 7.83076 5.96669 7.86815 5.96285C7.96836 5.95255 8.22325 5.96844 8.22942 5.98538ZM8.24009 8.65497C8.45241 8.68116 8.50384 8.69073 8.51309 8.7057C8.51795 8.71358 8.5431 8.72001 8.56899 8.72001C8.59487 8.72001 8.61604 8.72721 8.61604 8.73601C8.61604 8.74481 8.63403 8.75201 8.65603 8.75201C8.67803 8.75201 8.69602 8.75921 8.69602 8.76801C8.69602 8.77681 8.71402 8.78401 8.73602 8.78401C8.75801 8.78401 8.77601 8.79121 8.77601 8.80001C8.77601 8.80881 8.78905 8.81601 8.80498 8.81601C8.82093 8.81601 8.84942 8.83041 8.86832 8.84801C8.88719 8.86561 8.91375 8.88001 8.92732 8.88001C8.94088 8.88001 8.95198 8.88721 8.95198 8.89601C8.95198 8.90481 8.96099 8.91202 8.97198 8.91202C8.98299 8.91204 9.01289 8.93004 9.03847 8.95202C9.06403 8.97402 9.09043 8.99201 9.09715 8.99201C9.10386 8.99201 9.1385 9.01902 9.17414 9.05201C9.20977 9.08502 9.24815 9.11982 9.25943 9.12937C9.31094 9.17297 9.4799 9.36762 9.4799 9.38337C9.4799 9.39303 9.4943 9.41132 9.5119 9.42401C9.5295 9.4367 9.54389 9.4583 9.54389 9.47201C9.54389 9.48572 9.55829 9.50732 9.57589 9.52001C9.59349 9.5327 9.60789 9.55588 9.60789 9.57154C9.60789 9.58719 9.61508 9.60001 9.62388 9.60001C9.63268 9.60001 9.63988 9.61801 9.63988 9.64001C9.63988 9.66201 9.64708 9.68001 9.65588 9.68001C9.66468 9.68001 9.67188 9.69441 9.67188 9.71201C9.67188 9.72961 9.67907 9.74401 9.68787 9.74401C9.69667 9.74401 9.70387 9.75841 9.70387 9.77601C9.70387 9.8078 9.6932 9.80801 8.01613 9.80801C6.33905 9.80801 6.32838 9.8078 6.32838 9.77601C6.32838 9.75841 6.33558 9.74401 6.34438 9.74401C6.35318 9.74401 6.36038 9.73004 6.36038 9.71295C6.36038 9.69586 6.36757 9.67745 6.37637 9.67201C6.38517 9.66657 6.39237 9.64815 6.39237 9.63106C6.39237 9.61398 6.39957 9.60001 6.40837 9.60001C6.41717 9.60001 6.42437 9.58719 6.42437 9.57154C6.42437 9.55588 6.43876 9.5327 6.45636 9.52001C6.47396 9.50732 6.48836 9.48572 6.48836 9.47201C6.48836 9.4583 6.50275 9.4367 6.52035 9.42401C6.53795 9.41132 6.55235 9.39154 6.55235 9.38006C6.55235 9.36857 6.583 9.32852 6.62045 9.29105C6.6579 9.25359 6.7029 9.20519 6.72043 9.18348C6.73797 9.16177 6.79191 9.11161 6.8403 9.07201C6.8887 9.03241 6.93069 8.99462 6.93362 8.98801C6.93656 8.9814 6.94586 8.97601 6.95429 8.97601C6.96272 8.97601 6.98508 8.96161 7.00396 8.94401C7.02285 8.92641 7.04774 8.91201 7.05929 8.91201C7.07083 8.91201 7.08027 8.90481 7.08027 8.89601C7.08027 8.88721 7.09308 8.88001 7.10873 8.88001C7.12439 8.88001 7.14757 8.86561 7.16025 8.84801C7.17294 8.83041 7.1993 8.81601 7.21884 8.81601C7.23837 8.81601 7.2588 8.80881 7.26424 8.80001C7.26968 8.79121 7.28809 8.78401 7.30518 8.78401C7.32226 8.78401 7.33623 8.77681 7.33623 8.76801C7.33623 8.75921 7.35423 8.75201 7.37622 8.75201C7.39822 8.75201 7.41622 8.74481 7.41622 8.73601C7.41622 8.72721 7.43738 8.72001 7.46327 8.72001C7.48915 8.72001 7.5143 8.71358 7.51916 8.7057C7.52913 8.68956 7.60734 8.67602 7.78686 8.65938C7.85433 8.65313 7.91547 8.64205 7.92273 8.63478C7.93599 8.62148 8.00366 8.62578 8.24009 8.65497ZM2.29699 10.768C2.29699 10.7768 2.32578 10.784 2.36098 10.784C2.39617 10.784 2.42497 10.7912 2.42497 10.8C2.42497 10.8088 2.43937 10.816 2.45696 10.816C2.47456 10.816 2.48896 10.8232 2.48896 10.832C2.48896 10.8408 2.50069 10.848 2.51504 10.848C2.52937 10.848 2.57871 10.8865 2.62467 10.9336C2.82102 11.1348 2.86606 11.3937 2.7489 11.648C2.71435 11.723 2.58507 11.872 2.55453 11.872C2.54487 11.872 2.53695 11.8792 2.53695 11.888C2.53695 11.8968 2.52615 11.904 2.51296 11.904C2.49976 11.904 2.48896 11.9095 2.48896 11.9161C2.48896 11.933 2.37119 11.968 2.31419 11.968C2.28817 11.968 2.26243 11.9752 2.25699 11.984C2.25156 11.9928 2.22594 12 2.20006 12C2.17418 12 2.15301 11.9928 2.15301 11.984C2.15301 11.9752 2.12105 11.968 2.08197 11.968C2.04288 11.968 2.00647 11.9608 2.00103 11.952C1.99559 11.9432 1.97718 11.936 1.9601 11.936C1.94301 11.936 1.92904 11.9288 1.92904 11.92C1.92904 11.9112 1.91773 11.904 1.90391 11.904C1.87153 11.904 1.67308 11.7051 1.67308 11.6726C1.67308 11.6591 1.66745 11.648 1.66057 11.648C1.63552 11.648 1.60233 11.493 1.60233 11.376C1.60233 11.259 1.63552 11.104 1.66057 11.104C1.66745 11.104 1.67308 11.0912 1.67308 11.0755C1.67308 11.0599 1.68748 11.0367 1.70508 11.024C1.72268 11.0113 1.73707 10.9933 1.73707 10.984C1.73707 10.9747 1.75246 10.9565 1.77128 10.9435C1.79009 10.9306 1.82215 10.9038 1.84255 10.884C1.86293 10.8642 1.89073 10.848 1.90433 10.848C1.91793 10.848 1.92904 10.8408 1.92904 10.832C1.92904 10.8232 1.94344 10.816 1.96104 10.816C1.97864 10.816 1.99303 10.8088 1.99303 10.8C1.99303 10.7912 2.0178 10.784 2.04808 10.784C2.07837 10.784 2.10758 10.7768 2.11302 10.768C2.11846 10.7592 2.16207 10.752 2.20995 10.752C2.25783 10.752 2.29699 10.7592 2.29699 10.768Z" fill="currentColor"/>
</g>
<defs>
<clipPath id="clip0_342_5459">
<rect width="16" height="16" fill="white"/>
</clipPath>
</defs>
</svg>
