<svg width="16" height="16" viewBox="0 0 16 16" fill="none" xmlns="http://www.w3.org/2000/svg">
<path fill-rule="evenodd" clip-rule="evenodd" d="M1.625 9.625C1.625 13.1458 4.47917 16 8 16C9.06129 16 10.0637 15.7402 10.9454 15.2801C11.2514 15.1204 11.37 14.7429 11.2104 14.4369C11.0507 14.1309 10.6731 14.0122 10.3671 14.1719C9.65973 14.5411 8.85521 14.75 8 14.75C5.16952 14.75 2.875 12.4555 2.875 9.625V7.75C2.875 7.40483 3.15483 7.125 3.5 7.125H12.5C12.8452 7.125 13.125 7.40483 13.125 7.75V9.625C13.125 10.571 12.8692 11.4554 12.4235 12.2149C12.2488 12.5126 12.3485 12.8955 12.6462 13.0703C12.9439 13.245 13.3268 13.1453 13.5016 12.8476C14.0568 11.9015 14.375 10.7995 14.375 9.625V7.75C14.375 6.71448 13.5355 5.875 12.5 5.875H3.5C2.46448 5.875 1.625 6.71448 1.625 7.75V9.625Z" fill="currentColor"/>
<path d="M8.00001 8.6875C7.36142 8.6875 6.84376 9.20516 6.84376 9.84375C6.84376 10.4823 7.36142 11 8.00001 11C8.6386 11 9.15626 10.4823 9.15626 9.84375C9.15626 9.20516 8.6386 8.6875 8.00001 8.6875Z" fill="currentColor"/>
<path fill-rule="evenodd" clip-rule="evenodd" d="M5.15626 7.0625C5.50144 7.0625 5.78126 6.78268 5.78126 6.4375V3.06166C5.78126 2.07614 6.60551 1.25 7.65626 1.25H8.31251C9.36327 1.25 10.1875 2.07614 10.1875 3.06166V6.4375C10.1875 6.78268 10.4673 7.0625 10.8125 7.0625C11.1577 7.0625 11.4375 6.78268 11.4375 6.4375V3.06166C11.4375 1.35574 10.0232 0 8.31251 0H7.65626C5.94558 0 4.53126 1.35574 4.53126 3.06166V6.4375C4.53126 6.78268 4.81108 7.0625 5.15626 7.0625Z" fill="currentColor"/>
<path fill-rule="evenodd" clip-rule="evenodd" d="M7.99885 12.8125C8.34403 12.8125 8.62385 12.5327 8.62385 12.1875V9.6875C8.62385 9.34232 8.34403 9.0625 7.99885 9.0625C7.65367 9.0625 7.37385 9.34232 7.37385 9.6875V12.1875C7.37385 12.5327 7.65367 12.8125 7.99885 12.8125Z" fill="currentColor"/>
</svg>
