<svg width="16" height="17" viewBox="0 0 16 17" fill="none" xmlns="http://www.w3.org/2000/svg">
<path fill-rule="evenodd" clip-rule="evenodd" d="M9.61104 3.94442C9.82583 3.72963 10.1741 3.72963 10.3889 3.94442L13.0555 6.61108C13.2703 6.82587 13.2703 7.17411 13.0555 7.3889C12.8407 7.60369 12.4925 7.60369 12.2777 7.3889L9.61104 4.72223C9.39625 4.50745 9.39625 4.1592 9.61104 3.94442Z" fill="currentColor"/>
<path fill-rule="evenodd" clip-rule="evenodd" d="M11.0699 2.49438C11.5255 2.03886 12.1434 1.783 12.7877 1.78308C13.432 1.78316 14.0498 2.03918 14.5054 2.49481C14.9609 2.95044 15.2167 3.56836 15.2167 4.21264C15.2166 4.85688 14.9606 5.47471 14.505 5.93021C14.505 5.93024 14.505 5.93019 14.505 5.93021L5.60701 14.8295C5.38871 15.0472 5.11968 15.2085 4.82478 15.2982L1.92234 16.1783L1.92106 16.1787C1.76835 16.2246 1.60606 16.2283 1.45141 16.1895C1.29676 16.1506 1.15552 16.0706 1.04267 15.9579C0.929823 15.8452 0.849579 15.7041 0.810452 15.5495C0.771324 15.3949 0.774772 15.2326 0.820431 15.0799L0.821114 15.0776L1.70178 12.1763L1.70223 12.1748C1.79265 11.8799 1.95413 11.6117 2.17245 11.3938M2.17245 11.3938L11.0699 2.49438L2.17245 11.3938ZM11.8476 3.27229C11.8476 3.27231 11.8476 3.27228 11.8476 3.27229L2.95036 12.1715C2.85958 12.262 2.79179 12.3741 2.75411 12.4966C2.75404 12.4968 2.75417 12.4964 2.75411 12.4966L1.99186 15.0078L4.5047 14.2458C4.50462 14.2458 4.50478 14.2458 4.5047 14.2458C4.62711 14.2085 4.73877 14.1418 4.82945 14.0515C4.82934 14.0516 4.82956 14.0514 4.82945 14.0515L13.7271 5.15246C13.9764 4.9032 14.1166 4.56504 14.1167 4.2125C14.1167 3.85996 13.9767 3.52184 13.7274 3.27253C13.4782 3.02321 13.1401 2.88313 12.7876 2.88308C12.435 2.88304 12.0969 3.02307 11.8476 3.27229Z" fill="currentColor"/>
</svg>
