<svg width="16" height="16" viewBox="0 0 16 16" fill="none" xmlns="http://www.w3.org/2000/svg">
<path fill-rule="evenodd" clip-rule="evenodd" d="M7.47484 0.0133992C7.21852 0.0560082 6.99112 0.1046 6.95327 0.124852C6.93098 0.136772 6.89462 0.14661 6.87251 0.146677C6.85037 0.146766 6.80668 0.160171 6.77539 0.176501C6.74412 0.192809 6.69137 0.212994 6.65818 0.221326C6.54896 0.248735 5.97727 0.522979 5.93489 0.568313C5.92879 0.574827 5.86505 0.618677 5.79321 0.665784C5.37745 0.938388 4.91604 1.42065 4.65152 1.85912C4.52881 2.06253 4.33954 2.44058 4.33954 2.48228C4.33954 2.49181 4.32563 2.53105 4.30861 2.56945C4.27515 2.64501 4.20921 2.86408 4.15087 3.0935C4.13073 3.17271 4.10319 3.3938 4.08965 3.58482C4.0376 4.32007 4.14487 4.95671 4.42013 5.54643C4.46112 5.63422 4.49465 5.71168 4.49465 5.71859C4.49465 5.72548 4.52185 5.7733 4.55514 5.82486C4.64177 5.95911 4.6653 5.9982 4.70833 6.07923C4.72938 6.11885 4.75471 6.15124 4.76464 6.15124C4.77456 6.15124 4.78269 6.1615 4.78269 6.17404C4.78269 6.21918 5.00848 6.48626 5.25146 6.72853C5.40548 6.88209 5.78036 7.19265 5.81171 7.19265C5.81878 7.19265 5.8718 7.22551 5.92957 7.26566C6.06081 7.35688 6.52623 7.59148 6.57597 7.59148C6.59629 7.59148 6.62239 7.60001 6.63396 7.61043C6.68182 7.65352 7.12882 7.77506 7.39392 7.81705C7.61297 7.85177 8.40027 7.85177 8.61932 7.81705C8.88441 7.77506 9.33142 7.65352 9.37928 7.61043C9.39085 7.60001 9.4165 7.59148 9.43629 7.59148C9.48688 7.59148 9.95721 7.35535 10.0836 7.26648C10.1414 7.22586 10.1945 7.19265 10.2015 7.19265C10.2086 7.19265 10.3007 7.12533 10.4062 7.04308C10.7234 6.79574 11.0547 6.44724 11.2468 6.15897C11.3607 5.98787 11.3856 5.94877 11.3856 5.94088C11.3856 5.93594 11.4156 5.88757 11.4521 5.83339C11.4887 5.77922 11.5186 5.72841 11.5186 5.72048C11.5186 5.71254 11.5521 5.63422 11.5931 5.54643C11.8675 4.95857 11.9769 4.3051 11.923 3.57565C11.869 2.84618 11.6075 2.16084 11.1495 1.54892C10.9158 1.2367 10.5263 0.866576 10.22 0.665784C10.1482 0.618677 10.0844 0.574827 10.0784 0.568313C10.0423 0.529759 9.65204 0.337586 9.4247 0.24643C9.21028 0.160437 9.13373 0.13777 8.89292 0.0888678C8.80761 0.0715406 8.7079 0.0464139 8.67134 0.0330308C8.58978 0.00316238 7.63103 -0.0125695 7.47484 0.0133992ZM8.32128 1.27536C8.43339 1.2862 8.55803 1.30532 8.59825 1.31784C8.63844 1.33036 8.74114 1.36202 8.82645 1.38819C9.09757 1.47141 9.45433 1.66172 9.67794 1.84242C9.86765 1.99572 10.1299 2.29126 10.2671 2.50632C10.3244 2.59615 10.4772 2.8996 10.4772 2.92355C10.4772 2.93412 10.4915 2.9742 10.5089 3.0126C10.7079 3.4503 10.7079 4.39851 10.5089 4.83621C10.4915 4.87461 10.4772 4.91487 10.4772 4.92566C10.4772 4.9971 10.1956 5.46449 10.0533 5.6291C9.89688 5.81019 9.62829 6.06261 9.59204 6.06261C9.583 6.06261 9.55754 6.08255 9.53549 6.10693C9.51344 6.1313 9.48741 6.15124 9.47764 6.15124C9.46789 6.15124 9.42207 6.17703 9.37582 6.20856C9.30465 6.25711 9.14514 6.33668 8.95939 6.41631C8.45052 6.6345 7.56271 6.6345 7.05384 6.41631C6.8681 6.33668 6.70858 6.25711 6.63741 6.20856C6.59117 6.17703 6.54535 6.15124 6.5356 6.15124C6.52583 6.15124 6.49979 6.1313 6.47775 6.10693C6.4557 6.08255 6.43024 6.06261 6.4212 6.06261C6.36317 6.06261 5.97734 5.66761 5.82787 5.45514C5.71398 5.29326 5.53605 4.97018 5.53605 4.92526C5.53605 4.91469 5.52176 4.87461 5.5043 4.83621C5.38815 4.58074 5.32812 4.0997 5.36083 3.68621C5.38613 3.36632 5.42132 3.20207 5.50516 3.0126C5.52216 2.9742 5.53605 2.93412 5.53605 2.92355C5.53605 2.8996 5.68885 2.59615 5.74613 2.50632C5.89117 2.27892 6.18341 1.95289 6.34196 1.8416C6.37669 1.81722 6.41646 1.78709 6.43035 1.77464C6.55889 1.65928 6.94396 1.46253 7.18679 1.38812C7.27209 1.36197 7.37626 1.32982 7.41825 1.31666C7.58729 1.26368 8.0038 1.24463 8.32128 1.27536Z" fill="currentColor"/>
<path d="M7.53023 8.52343C6.94454 8.57466 6.16856 8.75701 5.78752 8.93301C5.74912 8.95074 5.7126 8.96525 5.7064 8.96525C5.69481 8.96525 5.37423 9.1085 5.31447 9.14038C5.29619 9.15013 5.1915 9.20601 5.08182 9.26458C4.97214 9.32314 4.87908 9.37944 4.87502 9.38972C4.87095 9.4 4.8588 9.4084 4.84801 9.4084C4.83168 9.4084 4.60428 9.55446 4.5279 9.61402C4.5157 9.62353 4.45532 9.6684 4.39372 9.71373C4.26186 9.81076 4.27283 9.80174 4.0185 10.0223C3.7858 10.224 3.69157 10.3167 3.50449 10.5278C3.33295 10.7213 3.03225 11.1079 3.03225 11.1349C3.03225 11.1461 3.02451 11.1585 3.01507 11.1625C2.96165 11.1855 2.6156 11.8004 2.47359 12.1247C2.3581 12.3884 2.22702 12.7545 2.20059 12.8871C2.1921 12.9298 2.17752 12.9747 2.16821 12.9868C2.15891 12.999 2.14005 13.0688 2.12631 13.1419C2.11255 13.2151 2.07555 13.4095 2.04404 13.574C1.99073 13.8523 1.98594 13.9303 1.9752 14.6945L1.96368 15.5158L2.02016 15.6392C2.07949 15.769 2.20752 15.9113 2.2872 15.9362C2.3131 15.9442 2.3414 15.962 2.3501 15.9756C2.36165 15.9936 3.88186 16.0003 8.00662 16.0003C12.1314 16.0003 13.6516 15.9936 13.6631 15.9756C13.6718 15.962 13.7001 15.9442 13.726 15.9362C13.8001 15.9131 13.9305 15.774 13.9843 15.6606C14.0532 15.5155 14.0537 15.2203 13.9853 15.0918C13.9212 14.9714 13.7943 14.8492 13.6753 14.7933L13.5767 14.7469L3.23016 14.7491L3.24361 14.4219C3.26136 13.9907 3.29745 13.7312 3.39397 13.3414C3.43051 13.1937 3.52982 12.8901 3.57513 12.7874C3.59128 12.7509 3.63236 12.6561 3.66646 12.5769C3.70056 12.4977 3.735 12.4279 3.74297 12.4218C3.75095 12.4157 3.76517 12.3858 3.77459 12.3554C3.78401 12.3249 3.81026 12.2762 3.83298 12.2471C3.85567 12.218 3.87423 12.1807 3.87423 12.164C3.87423 12.1474 3.8842 12.1338 3.89639 12.1338C3.90858 12.1338 3.91855 12.1236 3.91855 12.1112C3.91855 12.0921 3.99785 11.9589 4.05675 11.879C4.33318 11.5037 4.77192 11.0037 4.82482 11.0037C4.83397 11.0037 4.86561 10.9777 4.89517 10.9459C5.06095 10.7673 5.56771 10.4338 5.96314 10.243C6.16632 10.145 6.49 10.0193 6.59961 9.99593C6.64227 9.98682 6.68714 9.97176 6.69932 9.96245C6.71151 9.95315 6.77632 9.93486 6.84335 9.92184C6.91037 9.90879 7.01507 9.88802 7.076 9.87568C7.56256 9.77715 8.19487 9.75397 8.60897 9.81949C8.87154 9.86106 9.21265 9.93378 9.34239 9.97586C9.39461 9.99281 9.44795 10.0067 9.46091 10.0067C9.47387 10.0067 9.5159 10.0201 9.5543 10.0366C9.5927 10.0531 9.68395 10.0895 9.75707 10.1175C9.90665 10.1748 10.2832 10.3563 10.4068 10.4308C10.6877 10.5997 11.0214 10.8413 11.1181 10.9457C11.1476 10.9776 11.1785 11.0037 11.1867 11.0037C11.2083 11.0037 11.4244 11.2197 11.5784 11.3952C11.6959 11.5292 11.8648 11.747 11.9617 11.8896C11.98 11.9165 12.0174 11.9694 12.0448 12.0072C12.0722 12.045 12.0947 12.0889 12.0947 12.1048C12.0947 12.1208 12.1022 12.1339 12.1113 12.134C12.1205 12.134 12.1392 12.1565 12.153 12.1838C12.1668 12.2111 12.2202 12.3176 12.2718 12.4204C12.3803 12.6369 12.4951 12.7574 12.6681 12.8366C12.9587 12.9695 13.3392 12.8174 13.4742 12.5146C13.5078 12.4391 13.5205 12.3647 13.5207 12.242C13.5209 12.091 13.512 12.0547 13.4358 11.8985C13.2949 11.6095 13.0398 11.1806 12.9981 11.1625C12.9887 11.1585 12.981 11.1454 12.981 11.1334C12.981 11.1089 12.8683 10.9525 12.8425 10.941C12.8334 10.9369 12.8259 10.9234 12.8259 10.9109C12.8259 10.8983 12.8065 10.8668 12.7828 10.8407C12.7591 10.8146 12.6719 10.7133 12.5889 10.6157C12.4106 10.4058 12.1613 10.1545 11.9614 9.98321C11.7894 9.8358 11.4383 9.56351 11.4202 9.56351C11.4131 9.56351 11.3577 9.52861 11.297 9.48595C11.2363 9.4433 11.1774 9.4084 11.1662 9.4084C11.1549 9.4084 11.1423 9.39981 11.1382 9.38932C11.1159 9.33158 10.172 8.87662 10.0746 8.87662C10.0571 8.87662 10.0334 8.86809 10.0218 8.85768C9.98471 8.82424 9.53345 8.69683 9.19205 8.62338C8.71094 8.51988 8.03544 8.47925 7.53023 8.52343Z" fill="currentColor"/>
</svg>
