<svg width="17" height="17" viewBox="0 0 17 17" fill="none" xmlns="http://www.w3.org/2000/svg">
<path fill-rule="evenodd" clip-rule="evenodd" d="M1.05961 2.54248C1.05961 1.16177 2.1789 0.0424805 3.55961 0.0424805H13.1318C14.5125 0.0424805 15.6318 1.16177 15.6318 2.54248V10.4128C15.6318 10.758 15.352 11.0378 15.0068 11.0378C14.6616 11.0378 14.3818 10.758 14.3818 10.4128V2.54248C14.3818 1.85213 13.8221 1.29248 13.1318 1.29248H3.55961C2.86926 1.29248 2.30961 1.85213 2.30961 2.54248V13.5425C2.30961 14.2328 2.86926 14.7925 3.55961 14.7925H13.1318C13.8221 14.7925 14.3818 14.2328 14.3818 13.5425V13.5378C14.3818 13.1926 14.6616 12.9128 15.0068 12.9128C15.352 12.9128 15.6318 13.1926 15.6318 13.5378V13.5425C15.6318 14.9232 14.5125 16.0425 13.1318 16.0425H3.55961C2.1789 16.0425 1.05961 14.9232 1.05961 13.5425V2.54248Z" fill="currentColor"/>
<path fill-rule="evenodd" clip-rule="evenodd" d="M8.82873 3.76723C7.66894 3.76723 6.72436 4.71178 6.72436 5.8716V10.2134C6.72436 11.3732 7.66894 12.3178 8.82873 12.3178H9.52855C9.76979 12.3178 9.96704 12.1205 9.96704 11.8793V10.6552C9.96704 10.414 9.76979 10.2167 9.52855 10.2167H8.86864C8.52346 10.2167 8.24364 9.93687 8.24364 9.5917V6.49329C8.24364 6.14811 8.52346 5.86829 8.86864 5.86829H9.52855C9.76977 5.86829 9.96704 5.67102 9.96704 5.42979V4.20573C9.96704 3.96449 9.76979 3.76723 9.52855 3.76723H8.82873ZM5.47436 5.8716C5.47436 4.02142 6.97859 2.51723 8.82873 2.51723H9.52855C10.4602 2.51723 11.217 3.27416 11.217 4.20573V5.42979C11.217 6.36137 10.4601 7.11829 9.52855 7.11829H9.49364V8.9667H9.52855C10.4602 8.9667 11.217 9.72362 11.217 10.6552V11.8793C11.217 12.8109 10.4601 13.5678 9.52855 13.5678H8.82873C6.97859 13.5678 5.47436 12.0635 5.47436 10.2134V5.8716Z" fill="currentColor"/>
</svg>
