<svg width="16" height="17" viewBox="0 0 16 17" fill="none" xmlns="http://www.w3.org/2000/svg">
<path d="M4.88119 15.7103C4.41916 15.7104 4.13202 16.0429 4.19845 16.5005H11.8122C11.8778 16.0418 11.5914 15.7103 11.1291 15.7103C10.4782 15.7101 9.82722 15.7101 9.17629 15.7106C9.17268 15.7106 9.16913 15.7106 9.16565 15.7107C9.11409 15.7112 9.07849 15.7115 9.12173 15.6345C9.24385 15.4166 9.36437 15.1978 9.48488 14.9791C9.61763 14.7381 9.75037 14.4972 9.88524 14.2574C10.1045 13.8674 10.0343 13.475 9.7031 13.2837C9.37805 13.0962 8.97882 13.2195 8.78662 13.5683C8.53772 14.0202 8.28915 14.4724 8.0419 14.9252C8.01981 14.9657 8.00465 14.9924 7.97333 14.9359C7.93616 14.8686 7.90045 14.8004 7.86475 14.7322C7.78912 14.5877 7.7135 14.4433 7.62404 14.308C7.54974 14.1956 7.49355 14.0648 7.43743 13.934C7.31862 13.6573 7.20008 13.3811 6.91047 13.2823C6.88781 13.2745 6.86516 13.2668 6.84252 13.2591C6.01861 12.9781 5.20554 12.7008 4.50817 12.1528C3.40345 11.2846 2.68774 10.1699 2.37422 8.80436C2.16719 7.90255 2.19455 6.99942 2.43225 6.10207C2.70109 5.08701 3.2073 4.20647 3.95334 3.47576C4.87938 2.56884 5.98905 2.01878 7.28465 1.8584C8.81415 1.669 10.2042 2.03378 11.4358 2.94581C12.5658 3.78251 13.294 4.89877 13.6194 6.27547C13.8625 7.30371 13.8146 8.31893 13.4994 9.31931C13.1864 10.3123 12.6195 11.1468 11.8699 11.8683C11.6076 12.1207 11.6236 12.4482 11.8565 12.7156C12.0932 12.987 12.4257 13.0568 12.7046 12.813C13.9787 11.6997 14.7332 10.2839 14.9837 8.61975C15.2216 7.03964 14.9542 5.53223 14.1559 4.13641C13.0517 2.20554 11.3918 1.03802 9.21535 0.621974C8.08442 0.405711 6.95003 0.474942 5.86328 0.855709C3.16246 1.80235 1.53967 3.70405 1.03 6.51761C0.830383 7.61937 0.944119 8.72096 1.31187 9.78562C2.0373 11.8855 3.44087 13.3396 5.49883 14.1668C5.57765 14.1984 5.66544 14.2223 5.753 14.2461C5.93591 14.2959 6.11784 14.3454 6.21504 14.4648C6.40676 14.7003 6.54791 14.977 6.68915 15.2537C6.75192 15.3768 6.81471 15.4998 6.88196 15.6193C6.92564 15.6968 6.91097 15.7119 6.82575 15.7116C6.30222 15.7096 5.77858 15.7099 5.25501 15.7101C5.1304 15.7102 5.00579 15.7102 4.88119 15.7103Z" fill="currentColor"/>
<path fill-rule="evenodd" clip-rule="evenodd" d="M7.99414 11.2589C10.0246 11.2663 11.6764 9.62128 11.6815 7.58656C11.6866 5.54657 10.0513 3.89938 8.01589 3.89427C5.9825 3.88899 4.33646 5.52432 4.32937 7.55673C4.32212 9.59804 5.95892 11.2515 7.99414 11.2589ZM8.01936 5.1808C9.33292 5.18608 10.3981 6.26179 10.3953 7.5803C10.3925 8.90277 9.29748 9.99348 7.99331 9.97287C6.66277 9.95178 5.61178 8.88645 5.61557 7.5625C5.61937 6.24382 6.69755 5.17553 8.01936 5.1808Z" fill="currentColor"/>
</svg>
