<svg width="16" height="17" viewBox="0 0 16 17" fill="none" xmlns="http://www.w3.org/2000/svg">
<path fill-rule="evenodd" clip-rule="evenodd" d="M8.03444 12.105C8.37962 12.105 8.65944 11.8252 8.65944 11.48V4.57373C8.65944 4.22855 8.37962 3.94873 8.03444 3.94873C7.68926 3.94873 7.40944 4.22855 7.40944 4.57373V11.48C7.40944 11.8252 7.68926 12.105 8.03444 12.105Z" fill="currentColor"/>
<path fill-rule="evenodd" clip-rule="evenodd" d="M3.97194 8.04193C3.97194 8.38711 4.25176 8.66693 4.59694 8.66693H11.4719C11.8171 8.66693 12.0969 8.38711 12.0969 8.04193C12.0969 7.69676 11.8171 7.41693 11.4719 7.41693H4.59694C4.25176 7.41693 3.97194 7.69676 3.97194 8.04193Z" fill="currentColor"/>
<path fill-rule="evenodd" clip-rule="evenodd" d="M0 13.5425C0 14.9232 1.11929 16.0425 2.5 16.0425H13.5C14.8807 16.0425 16 14.9232 16 13.5425C16 13.1973 15.7202 12.9175 15.375 12.9175C15.0298 12.9175 14.75 13.1973 14.75 13.5425C14.75 14.2328 14.1904 14.7925 13.5 14.7925H2.5C1.80965 14.7925 1.25 14.2328 1.25 13.5425V2.54248C1.25 1.85213 1.80965 1.29248 2.5 1.29248H13.5C14.1904 1.29248 14.75 1.85213 14.75 2.54248V10.3862C14.75 10.7314 15.0298 11.0112 15.375 11.0112C15.7202 11.0112 16 10.7314 16 10.3862V2.54248C16 1.16177 14.8807 0.0424805 13.5 0.0424805H2.5C1.11929 0.0424805 0 1.16177 0 2.54248V13.5425Z" fill="currentColor"/>
</svg>
