<svg width="16" height="17" viewBox="0 0 16 17" fill="none" xmlns="http://www.w3.org/2000/svg">
<path d="M13 12.1255C13 12.4707 13.2798 12.7505 13.625 12.7505H15.375C15.7202 12.7505 16 12.4707 16 12.1255V10.3442C16 9.99905 15.7202 9.71924 15.375 9.71924C15.0298 9.71924 14.75 9.99905 14.75 10.3442V11.5005H13.625C13.2798 11.5005 13 11.7803 13 12.1255Z" fill="currentColor"/>
<path d="M8.60224 0.500901C8.26355 0.512932 8.00002 0.801557 8.00002 1.14046V1.62549H7.37502C7.02984 1.62549 6.75002 1.90531 6.75002 2.25049C6.75002 2.59568 7.02984 2.87549 7.37502 2.87549H8.00002V4.00049H7.37502C7.02984 4.00049 6.75002 4.28031 6.75002 4.62549V6.65674C6.75002 7.00193 7.02984 7.28174 7.37502 7.28174C7.72018 7.28174 8.00002 7.00193 8.00002 6.65674V5.25049H8.62502C8.97018 5.25049 9.25002 4.97068 9.25002 4.62549V1.12549C9.25002 0.772745 8.9578 0.488276 8.60224 0.500901Z" fill="currentColor"/>
<path d="M0.625 7.21924C0.279813 7.21924 0 7.49905 0 7.84424V9.09424C0 9.43943 0.279813 9.71924 0.625 9.71924C0.970188 9.71924 1.25 9.43943 1.25 9.09424V8.46924H1.90625C2.25144 8.46924 2.53125 8.18943 2.53125 7.84424C2.53125 7.49905 2.25144 7.21924 1.90625 7.21924H0.625Z" fill="currentColor"/>
<path d="M12.8125 8.46924V7.84424C12.8125 7.49905 12.5327 7.21924 12.1875 7.21924H9.87501C9.52982 7.21924 9.25001 7.49905 9.25001 7.84424C9.25001 8.18943 9.52982 8.46924 9.87501 8.46924H11.5625V10.3293C11.5625 10.6682 11.8261 10.9568 12.1647 10.9688C12.5203 10.9815 12.8125 10.697 12.8125 10.3442V9.71924H13.4688C13.8139 9.71924 14.0938 9.43943 14.0938 9.09424C14.0938 8.74905 13.8139 8.46924 13.4688 8.46924H12.8125Z" fill="currentColor"/>
<path d="M15.375 7.21924C15.0298 7.21924 14.75 7.49905 14.75 7.84424C14.75 8.18943 15.0298 8.46924 15.375 8.46924C15.7202 8.46924 16 8.18943 16 7.84424C16 7.49905 15.7202 7.21924 15.375 7.21924Z" fill="currentColor"/>
<path d="M9.87501 9.71924C9.52982 9.71924 9.25001 9.99905 9.25001 10.3442V11.5005H8.93751C8.59232 11.5005 8.31251 11.7803 8.31251 12.1255C8.31251 12.4707 8.59232 12.7505 8.93751 12.7505H9.87501C10.2202 12.7505 10.5 12.4707 10.5 12.1255V10.3442C10.5 9.99905 10.2202 9.71924 9.87501 9.71924Z" fill="currentColor"/>
<path d="M9.875 15.2505H9.25V14.6255C9.25 14.2803 8.97019 14.0005 8.625 14.0005H8V13.3755C8 13.0303 7.72019 12.7505 7.375 12.7505C7.02981 12.7505 6.75 13.0303 6.75 13.3755V14.6255C6.75 14.9707 7.02981 15.2505 7.375 15.2505H8V15.8755C8 16.2207 8.27981 16.5005 8.625 16.5005H9.875C10.2202 16.5005 10.5 16.2207 10.5 15.8755C10.5 15.5303 10.2202 15.2505 9.875 15.2505Z" fill="currentColor"/>
<path d="M10.8125 14.0005C10.8125 14.3457 11.0923 14.6255 11.4375 14.6255H11.75C12.0952 14.6255 12.375 14.3457 12.375 14.0005C12.375 13.6553 12.0952 13.3755 11.75 13.3755H11.4375C11.0923 13.3755 10.8125 13.6553 10.8125 14.0005Z" fill="currentColor"/>
<path d="M15.375 15.2505H14.875V14.6255C14.875 14.2803 14.5952 14.0005 14.25 14.0005C13.9048 14.0005 13.625 14.2803 13.625 14.6255V15.2505H12.375C12.0298 15.2505 11.75 15.5303 11.75 15.8755C11.75 16.2207 12.0298 16.5005 12.375 16.5005H15.375C15.7202 16.5005 16 16.2207 16 15.8755C16 15.5303 15.7202 15.2505 15.375 15.2505Z" fill="currentColor"/>
<path d="M7.37499 8.46924H5.12499V7.85921C5.12499 7.5203 4.86143 7.23168 4.52277 7.21965C4.16721 7.20702 3.87499 7.49149 3.87499 7.84424V8.46924H3.56249C3.2173 8.46924 2.93749 8.74905 2.93749 9.09424C2.93749 9.43943 3.2173 9.71924 3.56249 9.71924H6.74999V10.2505C6.74999 10.5957 7.02981 10.8755 7.37499 10.8755C7.72018 10.8755 7.99999 10.5957 7.99999 10.2505V9.09424C7.99999 8.74905 7.72018 8.46924 7.37499 8.46924Z" fill="currentColor"/>
<path fill-rule="evenodd" clip-rule="evenodd" d="M1.14441e-05 4.25049C1.14441e-05 5.286 0.839448 6.12549 1.87501 6.12549H3.75001C4.78557 6.12549 5.62501 5.286 5.62501 4.25049V2.37549C5.62501 1.33998 4.78557 0.500488 3.75001 0.500488H1.87501C0.839448 0.500488 1.14441e-05 1.33998 1.14441e-05 2.37549V4.25049ZM1.87501 4.87549C1.52982 4.87549 1.25001 4.59566 1.25001 4.25049V2.37549C1.25001 2.03031 1.52982 1.75049 1.87501 1.75049H3.75001C4.0952 1.75049 4.37501 2.03031 4.37501 2.37549V4.25049C4.37501 4.59566 4.0952 4.87549 3.75001 4.87549H1.87501Z" fill="currentColor"/>
<path d="M2.81249 3.93799C2.4673 3.93799 2.18749 3.65818 2.18749 3.31299C2.18749 2.9678 2.4673 2.68799 2.81249 2.68799C3.15768 2.68799 3.43749 2.9678 3.43749 3.31299C3.43749 3.65818 3.15768 3.93799 2.81249 3.93799Z" fill="currentColor"/>
<path fill-rule="evenodd" clip-rule="evenodd" d="M10.375 4.25049C10.375 5.286 11.2144 6.12549 12.25 6.12549H14.125C15.1605 6.12549 16 5.286 16 4.25049V2.37549C16 1.33998 15.1605 0.500488 14.125 0.500488H12.25C11.2144 0.500488 10.375 1.33998 10.375 2.37549V4.25049ZM12.25 4.87549C11.9048 4.87549 11.625 4.59566 11.625 4.25049V2.37549C11.625 2.03031 11.9048 1.75049 12.25 1.75049H14.125C14.4702 1.75049 14.75 2.03031 14.75 2.37549V4.25049C14.75 4.59566 14.4702 4.87549 14.125 4.87549H12.25Z" fill="currentColor"/>
<path d="M13.1875 3.93799C12.8423 3.93799 12.5625 3.65818 12.5625 3.31299C12.5625 2.9678 12.8423 2.68799 13.1875 2.68799C13.5327 2.68799 13.8125 2.9678 13.8125 3.31299C13.8125 3.65818 13.5327 3.93799 13.1875 3.93799Z" fill="currentColor"/>
<path fill-rule="evenodd" clip-rule="evenodd" d="M1.14441e-05 14.6255C1.14441e-05 15.661 0.839448 16.5005 1.87501 16.5005H3.75001C4.78557 16.5005 5.62501 15.661 5.62501 14.6255V12.7505C5.62501 11.715 4.78557 10.8755 3.75001 10.8755H1.87501C0.839448 10.8755 1.14441e-05 11.715 1.14441e-05 12.7505V14.6255ZM1.87501 15.2505C1.52982 15.2505 1.25001 14.9707 1.25001 14.6255V12.7505C1.25001 12.4053 1.52982 12.1255 1.87501 12.1255H3.75001C4.0952 12.1255 4.37501 12.4053 4.37501 12.7505V14.6255C4.37501 14.9707 4.0952 15.2505 3.75001 15.2505H1.87501Z" fill="currentColor"/>
<path d="M2.81249 14.313C2.4673 14.313 2.18749 14.0332 2.18749 13.688C2.18749 13.3428 2.4673 13.063 2.81249 13.063C3.15768 13.063 3.43749 13.3428 3.43749 13.688C3.43749 14.0332 3.15768 14.313 2.81249 14.313Z" fill="currentColor"/>
</svg>
