<svg width="16" height="17" viewBox="0 0 16 17" fill="none" xmlns="http://www.w3.org/2000/svg">
<path fill-rule="evenodd" clip-rule="evenodd" d="M0 8.50049C0 12.9188 3.58173 16.5005 8 16.5005C9.51389 16.5005 10.9313 16.0794 12.1394 15.3476C12.4347 15.1687 12.529 14.7844 12.3502 14.4892C12.1714 14.1939 11.7871 14.0996 11.4918 14.2784C10.4735 14.8952 9.27917 15.2505 8 15.2505C4.27208 15.2505 1.25 12.2284 1.25 8.50049C1.25 4.77254 4.27208 1.75049 8 1.75049C11.7279 1.75049 14.75 4.77254 14.75 8.50049C14.75 9.88467 14.3236 11.1727 13.6054 12.2469C13.4136 12.5338 13.4907 12.922 13.7776 13.1138C14.0646 13.3057 14.4527 13.2286 14.6446 12.9416C15.4925 11.6733 16 10.1455 16 8.50049C16 4.08219 12.4183 0.500488 8 0.500488C3.58173 0.500488 0 4.08218 0 8.50049Z" fill="currentColor"/>
</svg>
