<svg width="16" height="17" viewBox="0 0 16 17" fill="none" xmlns="http://www.w3.org/2000/svg">
<path d="M8 16.5005C3.58173 16.5005 0 12.9188 0 8.50049C0 4.08218 3.58173 0.500488 8 0.500488C12.4183 0.500488 16 4.08219 16 8.50049C16 10.1455 15.4925 11.6733 14.6446 12.9416C14.4527 13.2286 14.0646 13.3057 13.7776 13.1138C13.4907 12.922 13.4136 12.5338 13.6054 12.2469C14.3236 11.1727 14.75 9.88467 14.75 8.50049C14.75 4.77254 11.7279 1.75049 8 1.75049C4.27208 1.75049 1.25 4.77254 1.25 8.50049C1.25 12.2284 4.27208 15.2505 8 15.2505C9.27917 15.2505 10.4735 14.8952 11.4918 14.2784C11.7871 14.0996 12.1714 14.1939 12.3502 14.4892C12.529 14.7844 12.4347 15.1687 12.1394 15.3476C10.9313 16.0794 9.51389 16.5005 8 16.5005Z" fill="currentColor"/>
<path d="M8 10.5005C9.10457 10.5005 10 9.60506 10 8.50049C10 7.39592 9.10457 6.50049 8 6.50049C6.89543 6.50049 6 7.39592 6 8.50049C6 9.60506 6.89543 10.5005 8 10.5005Z" fill="currentColor"/>
</svg>
