<svg width="16" height="16" viewBox="0 0 16 16" fill="none" xmlns="http://www.w3.org/2000/svg">
<path d="M13.9281 16.0005C13.5046 16.0005 13.1066 15.8355 12.8071 15.5362L10.7424 13.4716C10.4984 13.2276 10.4984 12.8317 10.7424 12.5877L12.5877 10.7424C12.7049 10.6252 12.8638 10.5594 13.0297 10.5594C13.1957 10.5594 13.3546 10.6252 13.4718 10.7424L15.5365 12.8071C16.1545 13.4251 16.1545 14.4311 15.5365 15.0492L15.0494 15.5362C14.7501 15.8355 14.3517 16.0005 13.9281 16.0005ZM12.0683 13.0295L13.6912 14.6524C13.7544 14.7156 13.8388 14.7506 13.9284 14.7506C14.0179 14.7506 14.102 14.7156 14.1656 14.6524L14.6526 14.1653C14.7834 14.0345 14.7834 13.8217 14.6526 13.6912L13.0297 12.0683L12.0683 13.0295Z" fill="currentColor"/>
<path d="M6.48065 12.9613C4.74974 12.9613 3.1222 12.2872 1.89826 11.0633C0.674082 9.83911 0 8.21179 0 6.48065C0 4.74951 0.674082 3.1222 1.89802 1.89802C3.1222 0.674082 4.74974 0 6.48065 0C8.21156 0 9.8391 0.674082 11.0633 1.89802C11.8503 2.68508 12.4239 3.66479 12.722 4.73123C13.0105 5.76415 13.0384 6.86386 12.8024 7.91085C12.7265 8.24765 12.392 8.45907 12.0552 8.38313C11.7184 8.30719 11.507 7.97272 11.5829 7.63592C11.7735 6.79004 11.7512 5.90173 11.518 5.06733C11.2777 4.20762 10.8148 3.41728 10.1794 2.78164C9.19151 1.79372 7.87803 1.24972 6.48089 1.24972C5.08374 1.24972 3.77026 1.79372 2.78234 2.78164C1.79443 3.76956 1.25043 5.08303 1.25043 6.48018C1.25043 7.87733 1.79443 9.19081 2.78234 10.1787C3.77026 11.1666 5.08374 11.7106 6.48089 11.7106C7.87803 11.7106 9.19151 11.1666 10.1794 10.179C10.4234 9.93497 10.8191 9.93497 11.0633 10.179L12.4661 11.5813C12.7103 11.8253 12.7103 12.2211 12.4661 12.4651C12.2221 12.7093 11.8262 12.7093 11.5822 12.4651L10.6004 11.4838C9.44277 12.4403 8.00155 12.9613 6.48065 12.9613Z" fill="currentColor"/>
</svg>
