<svg width="16" height="16" viewBox="0 0 16 16" fill="none" xmlns="http://www.w3.org/2000/svg">
<path fill-rule="evenodd" clip-rule="evenodd" d="M7.93327 2.03195C6.70164 3.10633 4.88988 4.00509 3.34167 4.00831V8.66665C3.34167 10.1551 3.85466 11.2364 4.6638 12.0651C5.49131 12.9126 6.65915 13.5255 8.00033 13.9886L8.01271 13.9931C9.34767 13.5269 10.5112 12.9132 11.3366 12.0664C12.1453 11.2366 12.6583 10.155 12.6583 8.66665V4.00831C11.1107 4.00512 9.3055 3.11344 8.06659 2.03184C8.04784 2.01645 8.02431 2.00802 8 2.00802C7.97564 2.00802 7.95205 2.01649 7.93327 2.03195ZM7.05487 1.00678C7.31833 0.781693 7.65348 0.65802 8 0.65802C8.34652 0.65802 8.68167 0.781693 8.94513 1.00678L8.95098 1.01178L8.95095 1.01182C10.043 1.96662 11.5513 2.65832 12.6667 2.65832C13.0225 2.65832 13.3638 2.79967 13.6154 3.05129C13.867 3.3029 14.0083 3.64416 14.0083 3.99999V8.66665C14.0083 10.5116 13.3547 11.93 12.3034 13.0086C11.2705 14.0684 9.88377 14.7706 8.44884 15.2707L8.44331 15.2726L8.4433 15.2726C8.15402 15.3706 7.84003 15.367 7.55324 15.2625C6.11671 14.7657 4.73048 14.0658 3.69787 13.0082C2.64534 11.9302 1.99167 10.5116 1.99167 8.66665V3.99999C1.99167 3.64415 2.13302 3.3029 2.38463 3.05129C2.63624 2.79967 2.9775 2.65832 3.33334 2.65832C4.44823 2.65832 5.96317 1.9604 7.04926 1.01164L7.05485 1.00675L7.05487 1.00678Z" fill="currentColor"/>
</svg>
