<svg width="16" height="17" viewBox="0 0 16 17" fill="none" xmlns="http://www.w3.org/2000/svg">
<path d="M8.69811 14.9709C9.07167 14.9709 9.37404 14.8198 9.74761 14.4728L15.2619 9.25203C15.511 9.02079 15.5999 8.73617 15.5999 8.49603C15.5999 8.24699 15.511 7.97127 15.2619 7.73114L9.74761 2.57255C9.32957 2.18121 9.08943 2.02112 8.71587 2.02112C8.18224 2.02112 7.7998 2.44804 7.7998 2.955V5.49871H7.62192C2.43665 5.49871 0.399902 8.89626 0.399902 13.9392C0.399902 14.6063 0.782349 14.9709 1.18258 14.9709C1.49388 14.9709 1.85854 14.9087 2.12536 14.4284C3.39722 12.1337 5.05152 11.4934 7.62192 11.4934H7.7998V14.0904C7.7998 14.5974 8.18224 14.9709 8.69811 14.9709ZM9.1695 13.2366C9.11615 13.2366 9.08055 13.201 9.08055 13.1477V10.5417C9.08055 10.3727 9.00048 10.2926 8.83154 10.2926H7.7998C4.53566 10.2926 2.41887 11.4845 1.6184 13.1032C1.60061 13.1477 1.59171 13.1566 1.56503 13.1566C1.54724 13.1566 1.52945 13.1387 1.52945 13.0943C1.69844 10.2215 2.89025 6.69052 7.7998 6.69052H8.83154C9.00048 6.69052 9.08055 6.61048 9.08055 6.45039V3.77325C9.08055 3.71989 9.11615 3.68432 9.1695 3.68432C9.21398 3.68432 9.24957 3.7021 9.27621 3.72879L14.1324 8.42488C14.1591 8.45156 14.168 8.46935 14.168 8.49603C14.168 8.52272 14.1591 8.5405 14.1324 8.56718L9.27621 13.1922C9.24062 13.2188 9.2051 13.2366 9.1695 13.2366Z" fill="currentColor"/>
</svg>
