<svg width="16" height="16" viewBox="0 0 16 16" fill="none" xmlns="http://www.w3.org/2000/svg">
<g clip-path="url(#clip0_1210_26991)">
<path fill-rule="evenodd" clip-rule="evenodd" d="M6.63676 1.83962C7.06892 0.542388 8.93086 0.542396 9.36301 1.83962L10.4432 5.08217C10.4708 5.165 10.5565 5.23436 10.6679 5.23436H14.1635C15.5218 5.23436 16.1611 6.97471 15.0011 7.79671L12.173 9.80071C12.0918 9.85829 12.0655 9.95188 12.0921 10.0318L13.1724 13.2743C13.6229 14.6267 12.0538 15.6306 10.9717 14.8637L8.14363 12.8597C8.05889 12.7997 7.94088 12.7997 7.85614 12.8597L5.02808 14.8637C3.94592 15.6306 2.37687 14.6267 2.82741 13.2743L3.90763 10.0318C3.93424 9.95188 3.90798 9.85829 3.82673 9.80071L0.998676 7.79671C-0.161344 6.9747 0.477977 5.23436 1.83623 5.23436H5.3319C5.44329 5.23436 5.52894 5.165 5.55654 5.08217L6.63676 1.83962ZM7.99989 2.0667C7.88533 2.0667 7.80704 2.12346 7.77525 2.21889L6.69502 5.46144C6.49912 6.0495 5.94377 6.43436 5.3319 6.43436H1.83623C1.76387 6.43436 1.71822 6.45532 1.68778 6.47828C1.65405 6.50373 1.62659 6.54151 1.61159 6.58656C1.59657 6.63162 1.59698 6.67479 1.60733 6.70938C1.61637 6.73957 1.63706 6.77834 1.69248 6.81761L4.52054 8.82161C5.02442 9.17867 5.243 9.82003 5.04612 10.411L3.9659 13.6536C3.94668 13.7113 3.95216 13.751 3.96311 13.7808C3.97583 13.8154 4.0031 13.8537 4.04679 13.8846C4.1335 13.9461 4.23798 13.9529 4.33428 13.8846L7.16234 11.8806C7.66273 11.5261 8.33705 11.526 8.83744 11.8806L11.6655 13.8846C11.7618 13.9529 11.8663 13.9461 11.953 13.8846C11.9967 13.8537 12.0239 13.8154 12.0367 13.7808C12.0476 13.751 12.0531 13.7113 12.0339 13.6536L10.9537 10.411C10.7568 9.82003 10.9754 9.17867 11.4792 8.82161L14.3073 6.81761C14.3627 6.77834 14.3834 6.73957 14.3924 6.70938C14.4028 6.67479 14.4032 6.63162 14.3882 6.58656C14.3732 6.54151 14.3457 6.50373 14.312 6.47827C14.2816 6.45532 14.2359 6.43436 14.1635 6.43436H10.6679C10.056 6.43436 9.50066 6.0495 9.30475 5.46144L8.22453 2.2189C8.19274 2.12346 8.11445 2.0667 7.99989 2.0667Z" fill="currentColor"/>
</g>
<defs>
<clipPath id="clip0_1210_26991">
<rect width="16" height="16" fill="white"/>
</clipPath>
</defs>
</svg>
