<svg width="16" height="16" viewBox="0 0 16 16" fill="none" xmlns="http://www.w3.org/2000/svg">
<path d="M5.6167 4.79224L7.3847 1.25624C7.5847 0.848244 8.0727 0.680244 8.4807 0.888244C8.6407 0.968244 8.7687 1.10424 8.8487 1.26424L10.5127 4.67225C10.6487 4.94424 10.9127 5.13624 11.2167 5.17624L14.7047 5.59224C15.1767 5.65624 15.5207 6.08824 15.4647 6.56824C15.4407 6.76024 15.3527 6.94425 15.2087 7.08825L12.4487 9.82424C12.3367 9.92824 12.2887 10.0882 12.3047 10.2482L12.7607 13.9362C12.8327 14.4642 12.4567 14.9522 11.9367 15.0162C11.7367 15.0402 11.5367 15.0002 11.3607 14.9042L8.4487 13.3042C8.2407 13.1922 7.9847 13.1842 7.7687 13.2962L4.7527 14.8562C4.3287 15.0722 3.8087 14.9042 3.5927 14.4722C3.5047 14.3122 3.4807 14.1282 3.5047 13.9522L3.7447 12.2562C3.8647 11.4242 4.3767 10.7122 5.1127 10.3282L8.4647 8.60824C8.5527 8.56025 8.5847 8.44824 8.5447 8.36024C8.5047 8.28824 8.4327 8.24824 8.3527 8.26424L4.2567 8.85625C3.6327 8.94424 2.9927 8.76824 2.5047 8.36024L1.1367 7.24024C0.744704 6.92024 0.688704 6.34424 1.0007 5.94424C1.1527 5.76824 1.3607 5.64824 1.5927 5.61624L5.0967 5.16024C5.3207 5.13624 5.5127 4.99224 5.6167 4.79224Z" fill="url(#paint0_linear_1595_12582)"/>
<g filter="url(#filter0_i_1595_12582)">
<path d="M5.6167 4.79224L7.3847 1.25624C7.5847 0.848244 8.0727 0.680244 8.4807 0.888244C8.6407 0.968244 8.7687 1.10424 8.8487 1.26424L10.5127 4.67225C10.6487 4.94424 10.9127 5.13624 11.2167 5.17624L14.7047 5.59224C15.1767 5.65624 15.5207 6.08824 15.4647 6.56824C15.4407 6.76024 15.3527 6.94425 15.2087 7.08825L12.4487 9.82424C12.3367 9.92824 12.2887 10.0882 12.3047 10.2482L12.7607 13.9362C12.8327 14.4642 12.4567 14.9522 11.9367 15.0162C11.7367 15.0402 11.5367 15.0002 11.3607 14.9042L8.4487 13.3042C8.2407 13.1922 7.9847 13.1842 7.7687 13.2962L4.7527 14.8562C4.3287 15.0722 3.8087 14.9042 3.5927 14.4722C3.5047 14.3122 3.4807 14.1282 3.5047 13.9522L3.7447 12.2562C3.8647 11.4242 4.3767 10.7122 5.1127 10.3282L8.4647 8.60824C8.5527 8.56025 8.5847 8.44824 8.5447 8.36024C8.5047 8.28824 8.4327 8.24824 8.3527 8.26424L4.2567 8.85625C3.6327 8.94424 2.9927 8.76824 2.5047 8.36024L1.1367 7.24024C0.744704 6.92024 0.688704 6.34424 1.0007 5.94424C1.1527 5.76824 1.3607 5.64824 1.5927 5.61624L5.0967 5.16024C5.3207 5.13624 5.5127 4.99224 5.6167 4.79224Z" fill="url(#paint1_linear_1595_12582)"/>
</g>
<path d="M5.6167 4.79224L7.3847 1.25624C7.5847 0.848244 8.0727 0.680244 8.4807 0.888244C8.6407 0.968244 8.7687 1.10424 8.8487 1.26424L10.5127 4.67224C10.6487 4.94425 10.9127 5.13624 11.2167 5.17624L14.7047 5.59224C15.1767 5.65624 15.5207 6.08825 15.4647 6.56825C15.4407 6.76025 15.3527 6.94425 15.2087 7.08825L12.4487 9.82424C12.3367 9.92824 12.2887 10.0882 12.3047 10.2482L12.7607 13.9362C12.8327 14.4642 12.4567 14.9522 11.9367 15.0162C11.7367 15.0402 11.5367 15.0002 11.3607 14.9042L8.4487 13.3042C8.2407 13.1922 7.9847 13.1842 7.7687 13.2962L4.7527 14.8562C4.3287 15.0722 3.8087 14.9042 3.5927 14.4722C3.5047 14.3122 3.4807 14.1282 3.5047 13.9522L3.7447 12.2562C3.8647 11.4242 4.3767 10.7122 5.1127 10.3282L8.4647 8.60825C8.5527 8.56025 8.5847 8.44824 8.5447 8.36024C8.5047 8.28824 8.4327 8.24824 8.3527 8.26424L4.2567 8.85624C3.6327 8.94424 2.9927 8.76824 2.5047 8.36024L1.1367 7.24024C0.744704 6.92024 0.688704 6.34424 1.0007 5.94424C1.1527 5.76824 1.3607 5.64824 1.5927 5.61624L5.0967 5.16024C5.3207 5.13624 5.5127 4.99224 5.6167 4.79224V4.79224Z" stroke="url(#paint2_linear_1595_12582)" stroke-width="0.712"/>
<defs>
<filter id="filter0_i_1595_12582" x="0.799805" y="0.798828" width="15.4709" height="15.0246" filterUnits="userSpaceOnUse" color-interpolation-filters="sRGB">
<feFlood flood-opacity="0" result="BackgroundImageFix"/>
<feBlend mode="normal" in="SourceGraphic" in2="BackgroundImageFix" result="shape"/>
<feColorMatrix in="SourceAlpha" type="matrix" values="0 0 0 0 0 0 0 0 0 0 0 0 0 0 0 0 0 0 127 0" result="hardAlpha"/>
<feOffset dx="0.8" dy="0.8"/>
<feGaussianBlur stdDeviation="1.6"/>
<feComposite in2="hardAlpha" operator="arithmetic" k2="-1" k3="1"/>
<feColorMatrix type="matrix" values="0 0 0 0 1 0 0 0 0 1 0 0 0 0 1 0 0 0 0.657 0"/>
<feBlend mode="normal" in2="shape" result="effect1_innerShadow_1595_12582"/>
</filter>
<linearGradient id="paint0_linear_1595_12582" x1="367.572" y1="12.5338" x2="1063.48" y2="1551.51" gradientUnits="userSpaceOnUse">
<stop stop-color="#FFD951"/>
<stop offset="1" stop-color="#FFB222"/>
</linearGradient>
<linearGradient id="paint1_linear_1595_12582" x1="8.13526" y1="0.798991" x2="12.6167" y2="14.9282" gradientUnits="userSpaceOnUse">
<stop stop-color="#FFD147"/>
<stop offset="1" stop-color="#FFB526"/>
</linearGradient>
<linearGradient id="paint2_linear_1595_12582" x1="734.344" y1="0.798828" x2="734.344" y2="1420.38" gradientUnits="userSpaceOnUse">
<stop stop-color="#E58F0D"/>
<stop offset="0.9996" stop-color="#EB7915"/>
</linearGradient>
</defs>
</svg>
