<svg width="16" height="16" viewBox="0 0 16 16" fill="none" xmlns="http://www.w3.org/2000/svg">
<g clip-path="url(#clip0_287_6202)">
<path fill-rule="evenodd" clip-rule="evenodd" d="M15.165 8.00002C15.165 11.9571 11.9571 15.165 8.00002 15.165C4.04289 15.165 0.835007 11.9571 0.835007 8.00002C0.835007 4.0429 4.04289 0.835022 8.00002 0.835022C11.9571 0.835022 15.165 4.0429 15.165 8.00002ZM14.165 8.00002C14.165 11.4049 11.4048 14.165 8.00002 14.165C7.19704 14.165 6.42995 14.0115 5.72643 13.7322H7.38914C7.72652 13.7322 7.99998 13.478 7.99998 13.1643C7.99998 12.8506 7.72652 12.5963 7.38914 12.5963H3.89125C3.57817 12.3163 3.29384 12.0047 3.04332 11.6665H7.38914C7.72652 11.6665 7.99998 11.4122 7.99998 11.0986C7.99998 10.7849 7.72652 10.5306 7.38914 10.5306H2.38759C2.38393 10.5306 2.38029 10.5306 2.37669 10.5307C2.24232 10.2326 2.13097 9.92188 2.04488 9.60081H7.38914C7.72652 9.60081 7.99998 9.34653 7.99998 9.03285C7.99998 8.71918 7.72652 8.4649 7.38914 8.4649H1.85228C1.84084 8.31143 1.83501 8.1564 1.83501 8.00002C1.83501 7.84361 1.84084 7.68858 1.85228 7.5351H7.38918C7.72652 7.5351 7.99998 7.28083 7.99998 6.96718C7.99998 6.65352 7.72652 6.39925 7.38918 6.39925H2.04488C2.13097 6.07819 2.24232 5.76749 2.37669 5.46938C2.38029 5.46943 2.38393 5.46945 2.38759 5.46945H7.38914C7.72652 5.46945 7.99998 5.21516 7.99998 4.90149C7.99998 4.58781 7.72652 4.33353 7.38914 4.33353H3.04329C3.29442 3.9946 3.57951 3.68233 3.89348 3.40173C3.91032 3.40306 3.92897 3.40374 3.94954 3.40374H7.38914C7.72652 3.40374 7.99998 3.14945 7.99998 2.83578C7.99998 2.5221 7.72652 2.26782 7.38914 2.26782H5.72636C6.42989 1.98854 7.19704 1.83502 8.00002 1.83502C11.4048 1.83502 14.165 4.59518 14.165 8.00002Z" fill="currentColor"/>
</g>
<defs>
<clipPath id="clip0_287_6202">
<rect width="16" height="16" fill="white"/>
</clipPath>
</defs>
</svg>
