<svg width="16" height="17" viewBox="0 0 16 17" fill="none" xmlns="http://www.w3.org/2000/svg">
<path d="M6.66662 7.28381C6.97038 7.28381 7.21662 7.53006 7.21662 7.83381V11.8338C7.21662 12.1376 6.97038 12.3838 6.66662 12.3838C6.36287 12.3838 6.11662 12.1376 6.11662 11.8338V7.83381C6.11662 7.53006 6.36287 7.28381 6.66662 7.28381Z" fill="currentColor"/>
<path d="M9.88329 7.83381C9.88329 7.53006 9.63704 7.28381 9.33329 7.28381C9.02953 7.28381 8.78329 7.53006 8.78329 7.83381V11.8338C8.78329 12.1376 9.02953 12.3838 9.33329 12.3838C9.63704 12.3838 9.88329 12.1376 9.88329 11.8338V7.83381Z" fill="currentColor"/>
<path fill-rule="evenodd" clip-rule="evenodd" d="M4.78329 3.9505V3.16715C4.78329 2.65494 5.03385 2.18876 5.36104 1.86157C5.68824 1.53438 6.15441 1.28381 6.66662 1.28381H9.33329C9.8455 1.28381 10.3117 1.53438 10.6389 1.86157C10.9661 2.18876 11.2166 2.65494 11.2166 3.16715V3.9505H14C14.3037 3.9505 14.55 4.19674 14.55 4.5005C14.55 4.80426 14.3037 5.0505 14 5.0505H13.2166V13.8338C13.2166 14.346 12.9661 14.8122 12.6389 15.1394C12.3117 15.4666 11.8455 15.7172 11.3333 15.7172H4.66662C4.15441 15.7172 3.68824 15.4666 3.36104 15.1394C3.03385 14.8122 2.78329 14.346 2.78329 13.8338V5.0505H1.99995C1.69619 5.0505 1.44995 4.80426 1.44995 4.5005C1.44995 4.19674 1.69619 3.9505 1.99995 3.9505H4.78329ZM5.88329 3.16715C5.88329 3.01269 5.96605 2.8122 6.13886 2.63939C6.31167 2.46658 6.51216 2.38381 6.66662 2.38381H9.33329C9.48774 2.38381 9.68824 2.46658 9.86105 2.63939C10.0339 2.8122 10.1166 3.01269 10.1166 3.16715V3.9505H5.88329V3.16715ZM3.88329 13.8338V5.0505H12.1166V13.8338C12.1166 13.9883 12.0339 14.1888 11.861 14.3616C11.6882 14.5344 11.4877 14.6172 11.3333 14.6172H4.66662C4.51216 14.6172 4.31167 14.5344 4.13886 14.3616C3.96605 14.1888 3.88329 13.9883 3.88329 13.8338Z" fill="currentColor"/>
</svg>
