<svg width="16" height="17" viewBox="0 0 16 17" fill="none" xmlns="http://www.w3.org/2000/svg">
<path fill-rule="evenodd" clip-rule="evenodd" d="M12.4333 1.90885L15.0053 4.48083L12.4333 7.05281L9.86136 4.48083L12.4333 1.90885ZM11.73 1.20552C12.1184 0.817074 12.7482 0.817074 13.1367 1.20552L15.7087 3.77749C16.0971 4.16594 16.0971 4.79572 15.7087 5.18416L13.1367 7.75614C12.7482 8.14458 12.1184 8.14458 11.73 7.75614L9.15803 5.18416C8.76959 4.79572 8.76959 4.16593 9.15803 3.77749L11.73 1.20552ZM3.58037 1.99418L6.16459 6.47018H0.996152L3.58037 1.99418ZM2.71896 1.49685C3.10181 0.833736 4.05893 0.833735 4.44178 1.49685L7.026 5.97285C7.40885 6.63596 6.93029 7.46485 6.16459 7.46485H0.996152C0.230457 7.46485 -0.248104 6.63596 0.134744 5.97285L2.71896 1.49685ZM10.0377 11.0827L14.7662 11.0827V15.8001H10.0377V11.0827ZM9.04305 11.0827C9.04305 10.5334 9.48837 10.0881 10.0377 10.0881L14.7662 10.0881C15.3155 10.0881 15.7608 10.5334 15.7608 11.0827V15.8001C15.7608 16.3494 15.3155 16.7947 14.7662 16.7947H10.0377C9.48837 16.7947 9.04305 16.3494 9.04305 15.8001V11.0827ZM0.994667 13.4329C0.994667 14.8062 2.10799 15.9195 3.48134 15.9195C4.85468 15.9195 5.968 14.8062 5.968 13.4329C5.968 12.0595 4.85468 10.9462 3.48134 10.9462C2.10799 10.9462 0.994667 12.0595 0.994667 13.4329ZM3.48134 9.95152C1.55865 9.95152 3.08915e-09 11.5102 3.08915e-09 13.4329C3.08915e-09 15.3555 1.55865 16.9142 3.48134 16.9142C5.40402 16.9142 6.96267 15.3555 6.96267 13.4329C6.96267 11.5102 5.40402 9.95152 3.48134 9.95152Z" fill="currentColor"/>
</svg>
