<svg width="16" height="17" viewBox="0 0 16 17" fill="none" xmlns="http://www.w3.org/2000/svg">
<path fill-rule="evenodd" clip-rule="evenodd" d="M12.4333 1.90873L15.0053 4.48071L12.4333 7.05268L9.86136 4.48071L12.4333 1.90873ZM11.73 1.20539C12.1184 0.816952 12.7482 0.816952 13.1367 1.20539L15.7087 3.77737C16.0971 4.16581 16.0971 4.7956 15.7087 5.18404L13.1367 7.75602C12.7482 8.14446 12.1184 8.14446 11.73 7.75602L9.15803 5.18404C8.76959 4.7956 8.76959 4.16581 9.15803 3.77737L11.73 1.20539ZM3.58037 1.99406L6.16459 6.47006H0.996152L3.58037 1.99406ZM2.71896 1.49673C3.10181 0.833614 4.05893 0.833613 4.44178 1.49672L7.026 5.97273C7.40885 6.63584 6.93029 7.46473 6.16459 7.46473H0.996152C0.230457 7.46473 -0.248104 6.63584 0.134744 5.97273L2.71896 1.49673ZM10.0377 11.0826L14.7662 11.0826V15.8H10.0377V11.0826ZM9.04305 11.0826C9.04305 10.5333 9.48837 10.088 10.0377 10.088L14.7662 10.088C15.3155 10.088 15.7608 10.5333 15.7608 11.0826V15.8C15.7608 16.3493 15.3155 16.7946 14.7662 16.7946H10.0377C9.48837 16.7946 9.04305 16.3493 9.04305 15.8V11.0826ZM0.994667 13.4327C0.994667 14.8061 2.10799 15.9194 3.48134 15.9194C4.85468 15.9194 5.968 14.8061 5.968 13.4327C5.968 12.0594 4.85468 10.9461 3.48134 10.9461C2.10799 10.9461 0.994667 12.0594 0.994667 13.4327ZM3.48134 9.9514C1.55865 9.9514 3.08915e-09 11.51 3.08915e-09 13.4327C3.08915e-09 15.3554 1.55865 16.9141 3.48134 16.9141C5.40402 16.9141 6.96267 15.3554 6.96267 13.4327C6.96267 11.51 5.40402 9.9514 3.48134 9.9514Z" fill="#E1372D"/>
</svg>
