<svg width="16" height="16" viewBox="0 0 16 16" fill="none" xmlns="http://www.w3.org/2000/svg">
<g clip-path="url(#clip0_1084_26044)">
<path fill-rule="evenodd" clip-rule="evenodd" d="M13.5083 2.49134C11.9668 0.949857 9.46761 0.949857 7.92613 2.49134L6.98198 1.54719C9.0449 -0.51573 12.3896 -0.51573 14.4525 1.54719C16.5154 3.61011 16.5154 6.95477 14.4525 9.01769L13.5083 8.07354C15.0498 6.53206 15.0498 4.03282 13.5083 2.49134ZM4.80996 10.2461L10.2451 4.81089L11.1893 5.75504L5.7541 11.1902L4.80996 10.2461ZM2.49134 7.92646C0.949858 9.46794 0.949857 11.9672 2.49134 13.5087C4.03282 15.0501 6.53206 15.0501 8.07354 13.5087L9.01769 14.4528C6.95477 16.5157 3.61011 16.5157 1.54719 14.4528C-0.515731 12.3899 -0.51573 9.04523 1.54719 6.98231L2.49134 7.92646Z" fill="currentColor"/>
<path fill-rule="evenodd" clip-rule="evenodd" d="M15.0419 15.9607L0.00619361 0.96673L0.94903 0.0212703L15.9847 15.0152L15.0419 15.9607Z" fill="currentColor"/>
</g>
<defs>
<clipPath id="clip0_1084_26044">
<rect width="16" height="16" fill="white"/>
</clipPath>
</defs>
</svg>
