<svg width="16" height="16" viewBox="0 0 16 16" fill="none" xmlns="http://www.w3.org/2000/svg">
<g clip-path="url(#clip0_525_16313)">
<path d="M8.21717 0.0358804C8.31142 0.0679742 8.39995 0.121598 8.4751 0.196753L12.5463 4.268C12.8087 4.53034 12.8087 4.95567 12.5463 5.21801C12.284 5.48034 11.8587 5.48034 11.5963 5.21801L8.67176 2.29342V10.4427C8.67176 10.8137 8.371 11.1145 8 11.1145C7.629 11.1145 7.32824 10.8137 7.32824 10.4427V2.29362L4.40386 5.21801C4.14152 5.48034 3.71619 5.48034 3.45385 5.21801C3.19151 4.95567 3.19151 4.53034 3.45385 4.268L7.51817 0.203683C7.54932 0.171623 7.58364 0.142662 7.62062 0.117305C7.72857 0.0432987 7.85923 1.8126e-09 8 1.8126e-09C7.99998 1.8126e-09 8.00002 1.8126e-09 8 1.8126e-09C8.00476 -3.46857e-07 8.00957 4.96072e-05 8.01433 0.00014986C8.08299 0.00159584 8.15147 0.013506 8.21717 0.0358804Z" fill="currentColor"/>
<path d="M0.671756 9.77099C1.04276 9.77099 1.34351 10.0717 1.34351 10.4427V13.6997C1.34351 13.9535 1.44431 14.1968 1.62373 14.3763C1.80316 14.5557 2.04651 14.6565 2.30025 14.6565H13.6997C13.9535 14.6565 14.1968 14.5557 14.3763 14.3763C14.5557 14.1968 14.6565 13.9535 14.6565 13.6997V10.4427C14.6565 10.0717 14.9572 9.77099 15.3282 9.77099C15.6992 9.77099 16 10.0717 16 10.4427V13.6997C16 14.3098 15.7577 14.8949 15.3263 15.3263C14.8949 15.7577 14.3098 16 13.6997 16H2.30025C1.69019 16 1.10511 15.7577 0.673729 15.3263C0.242348 14.8949 0 14.3098 0 13.6997V10.4427C0 10.0717 0.300755 9.77099 0.671756 9.77099Z" fill="currentColor"/>
</g>
<defs>
<clipPath id="clip0_525_16313">
<rect width="16" height="16" fill="white"/>
</clipPath>
</defs>
</svg>
