<svg width="16" height="17" viewBox="0 0 16 17" fill="none" xmlns="http://www.w3.org/2000/svg">
<g clip-path="url(#clip0_451_19474)">
<path fill-rule="evenodd" clip-rule="evenodd" d="M12.0762 3.52858C11.6338 1.93459 10.1341 0.685333 8.4742 0.527855C8.42892 0.523303 8.38367 0.518751 8.33843 0.514199L8.33837 0.514192C8.29297 0.509624 8.24757 0.505056 8.20213 0.500488H7.8022C7.75947 0.505049 7.71678 0.50961 7.67409 0.514171C7.6314 0.518732 7.58871 0.523294 7.54597 0.527855C5.839 0.760871 4.65984 1.69053 4.02225 3.27523C3.35297 4.93803 3.94815 6.98284 5.37249 8.07431C5.39042 8.08811 5.40532 8.10589 5.42021 8.12365C5.42725 8.13205 5.43428 8.14044 5.44163 8.1484C5.43197 8.15313 5.42242 8.15823 5.41287 8.16333C5.39299 8.17395 5.37308 8.18459 5.35201 8.19193C3.73306 8.76151 2.41546 9.74111 1.40978 11.1282C0.781311 11.9948 0.336404 12.9524 0.102428 14.0024C0.0849425 14.0807 0.0624698 14.1579 0.0399945 14.2351C0.0297619 14.2702 0.0195288 14.3054 0.00976562 14.3406V14.8846C0.012584 14.8935 0.0153993 14.9023 0.0182144 14.9112L0.0184527 14.912C0.115783 15.2187 0.212848 15.5247 0.422505 15.7813C0.73618 16.1652 1.13083 16.4037 1.62487 16.4718C1.63664 16.4735 1.64751 16.4816 1.65841 16.4898C1.66352 16.4936 1.66863 16.4975 1.67384 16.5006H8.34632C8.34785 16.4979 8.3492 16.4946 8.35055 16.4912C8.35345 16.484 8.35636 16.4768 8.36105 16.4754C8.71057 16.3669 8.87301 16.1129 8.81252 15.7694C8.75122 15.4214 8.5046 15.2501 8.13972 15.2506C6.07058 15.2533 4.00144 15.2525 1.93231 15.2498C1.84525 15.2496 1.75066 15.2362 1.67224 15.2007C1.28031 15.0232 1.20205 14.7623 1.35105 14.165C1.63448 13.0294 2.18389 12.0372 2.98648 11.189C4.23142 9.87314 5.76267 9.13712 7.5695 9.01805C7.67047 9.0114 7.77151 9.00579 7.87244 9.00019L7.87255 9.00018L7.87269 9.00017C8.47606 8.96666 9.07596 8.93334 9.63912 8.67973C11.71 7.74687 12.6774 5.69502 12.0762 3.52858ZM8.01425 1.74927C9.67032 1.75103 11.0081 3.09823 11.006 4.76263V4.76247C11.0041 6.38334 9.65944 7.75247 8.0733 7.74879C6.34521 7.74479 5.01097 6.42991 5.01417 4.73446C5.01721 3.09023 6.36665 1.74751 8.01425 1.74927Z" fill="currentColor"/>
<path d="M10.0781 15.8306C10.0491 16.1822 10.2577 16.3859 10.5702 16.5005L10.5701 16.5007H15.5143C15.5177 16.4976 15.5209 16.4939 15.5242 16.4902C15.5312 16.4823 15.5382 16.4744 15.5468 16.4722C15.9683 16.3629 16.033 16.0391 15.9696 15.6891C15.9203 15.417 15.6998 15.2573 15.4231 15.2559C13.834 15.248 12.2447 15.2443 10.6557 15.2583C10.3151 15.2613 10.1063 15.4892 10.0781 15.8306Z" fill="currentColor"/>
<path d="M13.0426 10.2475C13.266 10.2475 13.4894 10.2467 13.7128 10.246C14.2733 10.2441 14.8337 10.2423 15.3941 10.2521C15.705 10.2575 15.9555 10.4121 15.9723 10.7508C15.9968 11.2453 15.7814 11.5039 15.3949 11.5042C13.8273 11.5052 12.2596 11.505 10.692 11.5042C10.3506 11.5041 10.0733 11.2178 10.0736 10.8708C10.0741 10.5307 10.3532 10.2478 10.6912 10.2476C11.2399 10.2472 11.7885 10.2473 12.3372 10.2474C12.5723 10.2474 12.8075 10.2475 13.0426 10.2475Z" fill="currentColor"/>
<path d="M13.7492 12.7538C13.5163 12.7538 13.2834 12.7538 13.0505 12.7538H13.0502C12.8157 12.7538 12.5812 12.7538 12.3467 12.7538C11.8 12.7536 11.2532 12.7535 10.7066 12.754C10.3427 12.7543 10.0733 13.0192 10.0733 13.3751C10.0733 13.7261 10.3523 14.0025 10.7103 14.0025C11.067 14.0026 11.4237 14.003 11.7804 14.0034C12.9781 14.0047 14.1759 14.0059 15.3736 13.9983C15.698 13.9962 15.9597 13.8442 15.9738 13.4791C15.9925 12.9929 15.7824 12.7543 15.3781 12.754C14.8351 12.7535 14.2922 12.7536 13.7492 12.7538Z" fill="currentColor"/>
</g>
<defs>
<clipPath id="clip0_451_19474">
<rect width="16" height="16" fill="white" transform="translate(0 0.500488)"/>
</clipPath>
</defs>
</svg>
