<svg width="16" height="16" viewBox="0 0 16 16" fill="none" xmlns="http://www.w3.org/2000/svg">
<g clip-path="url(#clip0_85_2217)">
<path fill-rule="evenodd" clip-rule="evenodd" d="M5.71429 2.28571C4.60972 2.28571 3.71429 3.18114 3.71429 4.28571C3.71429 5.39028 4.60972 6.28571 5.71429 6.28571C6.81885 6.28571 7.71428 5.39028 7.71428 4.28571C7.71428 3.18114 6.81885 2.28571 5.71429 2.28571ZM2.57143 4.28571C2.57143 2.54996 3.97853 1.14285 5.71429 1.14285C7.45004 1.14285 8.85714 2.54996 8.85714 4.28571C8.85714 6.02146 7.45004 7.42857 5.71429 7.42857C3.97853 7.42857 2.57143 6.02146 2.57143 4.28571Z" fill="currentColor"/>
<path fill-rule="evenodd" clip-rule="evenodd" d="M5.71429 9.7143C4.50187 9.7143 3.33911 10.1959 2.4818 11.0532C1.62449 11.9105 1.14286 13.0733 1.14286 14.2857V14.8572H10.2857V14.2857C10.2857 13.0733 9.80408 11.9105 8.94677 11.0532C8.08946 10.1959 6.9267 9.7143 5.71429 9.7143ZM1.67368 10.2451C2.74531 9.17348 4.19876 8.57144 5.71429 8.57144C7.22981 8.57144 8.68326 9.17348 9.7549 10.2451C10.8265 11.3168 11.4286 12.7702 11.4286 14.2857V15.4286C11.4286 15.7442 11.1727 16 10.8571 16H0.571429C0.255837 16 0 15.7442 0 15.4286V14.2857C0 12.7702 0.602039 11.3168 1.67368 10.2451Z" fill="currentColor"/>
<path fill-rule="evenodd" clip-rule="evenodd" d="M9.71428 1.71428C9.71428 1.39869 9.97012 1.14285 10.2857 1.14285C11.1193 1.14285 11.9186 1.47397 12.508 2.06337C13.0974 2.65277 13.4286 3.45217 13.4286 4.28571C13.4286 5.11925 13.0974 5.91864 12.508 6.50804C11.9186 7.09745 11.1193 7.42857 10.2857 7.42857C9.97012 7.42857 9.71428 7.17273 9.71428 6.85714C9.71428 6.54155 9.97012 6.28571 10.2857 6.28571C10.8161 6.28571 11.3249 6.075 11.6999 5.69992C12.075 5.32485 12.2857 4.81614 12.2857 4.28571C12.2857 3.75528 12.075 3.24657 11.6999 2.8715C11.3249 2.49642 10.8161 2.28571 10.2857 2.28571C9.97012 2.28571 9.71428 2.02987 9.71428 1.71428Z" fill="currentColor"/>
<path fill-rule="evenodd" clip-rule="evenodd" d="M11.5802 9.15683C11.6924 8.86186 12.0225 8.71371 12.3175 8.82592C13.3992 9.23741 14.3304 9.96765 14.988 10.92C15.6456 11.8724 15.9985 13.0019 16 14.1593L16 14.16L16 15.4286C16 15.7442 15.7442 16 15.4286 16H13.7143C13.3987 16 13.1429 15.7442 13.1429 15.4286C13.1429 15.113 13.3987 14.8571 13.7143 14.8571H14.8571V14.1604C14.8558 13.2346 14.5735 12.3311 14.0475 11.5694C13.5215 10.8075 12.7765 10.2233 11.9111 9.89409C11.6161 9.78188 11.468 9.4518 11.5802 9.15683Z" fill="currentColor"/>
</g>
<defs>
<clipPath id="clip0_85_2217">
<rect width="16" height="16" fill="white"/>
</clipPath>
</defs>
</svg>
