<svg width="16" height="16" viewBox="0 0 16 16" fill="none" xmlns="http://www.w3.org/2000/svg">
<g clip-path="url(#clip0_1610_576)">
<path fill-rule="evenodd" clip-rule="evenodd" d="M7.99999 1.14258C6.26424 1.14258 4.85713 2.54968 4.85713 4.28544C4.85713 6.02119 6.26424 7.42829 7.99999 7.42829C9.73574 7.42829 11.1428 6.02119 11.1428 4.28544C11.1428 2.54968 9.73574 1.14258 7.99999 1.14258ZM5.99999 4.28544C5.99999 3.18087 6.89542 2.28544 7.99999 2.28544C9.10456 2.28544 9.99999 3.18087 9.99999 4.28544C9.99999 5.39 9.10456 6.28543 7.99999 6.28543C6.89542 6.28543 5.99999 5.39 5.99999 4.28544Z" fill="#E1372D"/>
<path fill-rule="evenodd" clip-rule="evenodd" d="M7.99999 8.57117C6.48447 8.57117 5.03102 9.17321 3.95938 10.2448C2.88774 11.3165 2.28571 12.7699 2.28571 14.2855V15.4283C2.28571 15.7439 2.54154 15.9997 2.85713 15.9997H13.1428C13.4584 15.9997 13.7143 15.7439 13.7143 15.4283V14.2855C13.7143 12.7699 13.1122 11.3165 12.0406 10.2448C10.969 9.17321 9.51551 8.57117 7.99999 8.57117ZM4.7675 11.053C5.62481 10.1957 6.78757 9.71402 7.99999 9.71402C9.21241 9.71402 10.3752 10.1957 11.2325 11.053C12.0898 11.9103 12.5714 13.073 12.5714 14.2855V14.8569H3.42856V14.2855C3.42856 13.073 3.91019 11.9103 4.7675 11.053Z" fill="#E1372D"/>
</g>
<defs>
<clipPath id="clip0_1610_576">
<rect width="16" height="16" fill="white"/>
</clipPath>
</defs>
</svg>
