<svg width="16" height="16" viewBox="0 0 16 16" fill="none" xmlns="http://www.w3.org/2000/svg">
<g clip-path="url(#clip0_85_2218)">
<path fill-rule="evenodd" clip-rule="evenodd" d="M8 1.14285C6.26425 1.14285 4.85714 2.54996 4.85714 4.28571C4.85714 6.02146 6.26425 7.42857 8 7.42857C9.73575 7.42857 11.1429 6.02146 11.1429 4.28571C11.1429 2.54996 9.73575 1.14285 8 1.14285ZM6 4.28571C6 3.18114 6.89543 2.28571 8 2.28571C9.10457 2.28571 10 3.18114 10 4.28571C10 5.39028 9.10457 6.28571 8 6.28571C6.89543 6.28571 6 5.39028 6 4.28571Z" fill="currentColor"/>
<path fill-rule="evenodd" clip-rule="evenodd" d="M8 8.57144C6.48448 8.57144 5.03103 9.17348 3.95939 10.2451C2.88775 11.3168 2.28571 12.7702 2.28571 14.2857V15.4286C2.28571 15.7442 2.54155 16 2.85714 16H13.1429C13.4584 16 13.7143 15.7442 13.7143 15.4286V14.2857C13.7143 12.7702 13.1122 11.3168 12.0406 10.2451C10.969 9.17348 9.51552 8.57144 8 8.57144ZM4.76751 11.0532C5.62482 10.1959 6.78758 9.7143 8 9.7143C9.21242 9.7143 10.3752 10.1959 11.2325 11.0532C12.0898 11.9105 12.5714 13.0733 12.5714 14.2857V14.8572H3.42857V14.2857C3.42857 13.0733 3.9102 11.9105 4.76751 11.0532Z" fill="currentColor"/>
</g>
<defs>
<clipPath id="clip0_85_2218">
<rect width="16" height="16" fill="white"/>
</clipPath>
</defs>
</svg>
