<svg width="16" height="17" viewBox="0 0 16 17" fill="none" xmlns="http://www.w3.org/2000/svg">
<path d="M12.5303 5.03082C12.8232 4.73793 12.8232 4.26305 12.5303 3.97016C12.2374 3.67726 11.7626 3.67726 11.4697 3.97016L8 7.43983L4.53033 3.97016C4.23744 3.67726 3.76256 3.67726 3.46967 3.97016C3.17678 4.26305 3.17678 4.73793 3.46967 5.03082L6.93934 8.50049L3.46967 11.9702C3.17678 12.2631 3.17678 12.7379 3.46967 13.0308C3.76256 13.3237 4.23744 13.3237 4.53033 13.0308L8 9.56115L11.4697 13.0308C11.7626 13.3237 12.2374 13.3237 12.5303 13.0308C12.8232 12.7379 12.8232 12.2631 12.5303 11.9702L9.06066 8.50049L12.5303 5.03082Z" fill="currentColor"/>
</svg>
