<svg width="16" height="17" viewBox="0 0 16 17" fill="none" xmlns="http://www.w3.org/2000/svg">
<path d="M8.01822 0.719727H7.98178C3.57357 0.719727 0 4.29329 0 8.70151V8.73795C0 13.1462 3.57357 16.7197 7.98178 16.7197H8.01822C12.4264 16.7197 16 13.1462 16 8.73795V8.70151C16 4.29329 12.4264 0.719727 8.01822 0.719727Z" fill="black"/>
<path d="M7.38086 9.0203C7.24184 8.84597 7.08264 8.71256 6.90439 8.62231C7.0619 8.52645 7.19756 8.40874 7.30967 8.2686C7.49858 8.03204 7.59443 7.7355 7.59443 7.38684C7.59443 7.09591 7.51764 6.82852 7.36572 6.59253C7.21437 6.35653 6.98903 6.16706 6.69586 6.02917C6.40885 5.89407 6.06299 5.82568 5.66892 5.82568H3.42725V11.6146H5.77206C6.15604 11.6146 6.4991 11.5445 6.79115 11.4066C7.08881 11.2665 7.32088 11.0703 7.48008 10.8242C7.63984 10.577 7.72112 10.2961 7.72112 9.98951C7.72112 9.63019 7.60676 9.3045 7.38086 9.02086V9.0203ZM6.19023 7.96533C6.05178 8.07745 5.84942 8.13462 5.58988 8.13462H4.62011V6.85207H5.58988C5.84829 6.85207 6.04954 6.91093 6.18799 7.02752C6.32084 7.13907 6.38531 7.29323 6.38531 7.49727C6.38531 7.70131 6.32141 7.85939 6.19023 7.96533ZM4.62011 9.16156H5.66107C5.9335 9.16156 6.14315 9.22771 6.30179 9.36392C6.4537 9.49453 6.52769 9.66775 6.52769 9.89422C6.52769 10.1207 6.4593 10.2804 6.31804 10.3998C6.17174 10.5237 5.96153 10.5865 5.69246 10.5865H4.62011V9.16156Z" fill="white"/>
<path d="M12.301 8.05251C12.1205 7.72627 11.8649 7.46898 11.5409 7.28848C11.2174 7.10798 10.8435 7.0166 10.431 7.0166C10.0184 7.0166 9.61647 7.11077 9.28518 7.29632C8.95333 7.48242 8.69211 7.74981 8.50936 8.09232C8.32662 8.43426 8.23413 8.83562 8.23413 9.28518C8.23413 9.73475 8.32943 10.1367 8.51777 10.478C8.70612 10.82 8.96958 11.0891 9.30143 11.2774C9.63272 11.4657 10.0128 11.561 10.4315 11.561C10.9455 11.561 11.3822 11.4304 11.7298 11.1731C12.0773 10.9158 12.3206 10.5806 12.4534 10.1776L12.463 10.149H11.4461L11.44 10.1613C11.2443 10.5576 10.9052 10.7583 10.431 10.7583C10.1008 10.7583 9.81827 10.6535 9.59124 10.4478C9.36982 10.2465 9.24257 9.97747 9.21287 9.6473H12.5381L12.5409 9.62881C12.5622 9.49595 12.5728 9.34572 12.5728 9.1826C12.5728 8.75882 12.4815 8.37876 12.301 8.05251ZM9.60694 8.11081C9.82331 7.91742 10.0873 7.81989 10.3912 7.81989C10.7269 7.81989 11.0123 7.9191 11.2393 8.1153C11.4601 8.30589 11.5773 8.56206 11.5874 8.87597H9.22239C9.26724 8.55702 9.39673 8.29972 9.6075 8.11137L9.60694 8.11081Z" fill="white"/>
<path d="M11.5098 5.95947H9.29565V6.48415H11.5098V5.95947Z" fill="white"/>
</svg>
