<svg width="16" height="17" viewBox="0 0 16 17" fill="none" xmlns="http://www.w3.org/2000/svg">
<path d="M8.01822 0.719727H7.98178C3.57357 0.719727 0 4.29329 0 8.70151V8.73795C0 13.1462 3.57357 16.7197 7.98178 16.7197H8.01822C12.4264 16.7197 16 13.1462 16 8.73795V8.70151C16 4.29329 12.4264 0.719727 8.01822 0.719727Z" fill="black"/>
<path d="M13.0196 8.92792C13.0208 8.91054 13.0213 8.8926 13.0219 8.87466L13.0314 8.65212L13.023 8.64988C13.0068 7.47383 12.5875 6.35944 11.8313 5.46927L11.8402 5.45974L11.602 5.21478C10.6462 4.23324 9.36649 3.69287 7.99761 3.69287C7.29467 3.69287 6.61864 3.83469 5.98353 4.11329L5.97848 4.10936L5.7722 4.21139C5.49921 4.34648 5.24135 4.50455 5.00087 4.68337C4.84055 4.80277 4.68808 4.93058 4.54346 5.06735C4.48964 5.11836 4.43751 5.1705 4.38594 5.22375C3.67908 5.95416 3.19924 6.89085 3.03387 7.91555L2.98062 8.2474L2.99239 8.2502C2.97782 8.40604 2.96997 8.56355 2.96997 8.72051C2.96997 10.053 3.50138 11.3305 4.43695 12.2694L4.43303 12.2767L4.64267 12.4645C5.56591 13.2919 6.7571 13.7482 7.99705 13.7482C8.08506 13.7482 8.17251 13.7459 8.25939 13.7414C8.86928 13.7106 9.45955 13.5705 10.0167 13.3255C10.0167 13.3255 10.0173 13.3255 10.0179 13.3255L10.2359 13.2296V13.2229C11.8587 12.4129 12.9423 10.7576 13.0191 8.94193C13.0191 8.94137 13.0191 8.94081 13.0191 8.94025C13.0191 8.93969 13.0191 8.93857 13.0191 8.93801V8.93016L13.0196 8.92792ZM12.2831 9.20259C12.2808 9.22053 12.2786 9.23847 12.2763 9.25641C12.2724 9.28724 12.2685 9.31807 12.264 9.34834C12.2612 9.36796 12.2579 9.38757 12.2545 9.40719C12.25 9.43578 12.245 9.46437 12.2399 9.49296C12.236 9.5137 12.2321 9.53388 12.2276 9.55462C12.222 9.58209 12.2169 9.60955 12.2108 9.63646C12.2063 9.6572 12.2012 9.67795 12.1962 9.69869C12.19 9.72559 12.1833 9.75194 12.1766 9.77828C12.171 9.79902 12.1654 9.82032 12.1598 9.84106C12.1525 9.86685 12.1452 9.8932 12.1379 9.91898C12.1317 9.93972 12.1256 9.96102 12.1188 9.98176C12.111 10.0075 12.1026 10.0328 12.0947 10.0586C12.088 10.0793 12.0807 10.1 12.0734 10.1208C12.0645 10.146 12.0555 10.1712 12.0465 10.1965C12.0392 10.2166 12.0314 10.2374 12.0235 10.2576C12.014 10.2828 12.0039 10.3074 11.9938 10.3327C11.986 10.3529 11.9776 10.3725 11.9692 10.3927C11.9585 10.4173 11.9479 10.442 11.9367 10.4666C11.9277 10.4863 11.9193 10.5059 11.9103 10.5249C11.8985 10.5496 11.8868 10.5743 11.875 10.5989C11.866 10.618 11.8565 10.6365 11.847 10.6556C11.8346 10.6802 11.8212 10.7049 11.8083 10.7295C11.7988 10.7475 11.7892 10.7654 11.7797 10.7834C11.7657 10.8086 11.7511 10.8338 11.7365 10.859C11.727 10.8759 11.7175 10.8927 11.7079 10.9089C11.6917 10.9364 11.6749 10.9639 11.6581 10.9908C11.6496 11.0042 11.6412 11.0182 11.6328 11.0322C11.6093 11.0692 11.5852 11.1057 11.5605 11.1421C11.5583 11.146 11.5555 11.1494 11.5532 11.1533C11.5258 11.1931 11.4977 11.2324 11.4691 11.2716C11.4607 11.2828 11.4518 11.294 11.4434 11.3052C11.4232 11.3327 11.4024 11.3596 11.3817 11.3865C11.3705 11.4011 11.3587 11.4151 11.3469 11.4297C11.3284 11.4527 11.3094 11.4762 11.2903 11.4986C11.2774 11.5138 11.264 11.5289 11.2511 11.544C11.2326 11.5653 11.2141 11.5866 11.195 11.6079C11.181 11.6236 11.167 11.6388 11.153 11.6539C11.1345 11.6741 11.1154 11.6943 11.0964 11.7144C11.0818 11.7296 11.0667 11.7447 11.0515 11.7599C11.0325 11.7789 11.0134 11.7985 10.9938 11.8176C10.9781 11.8327 10.963 11.8473 10.9473 11.8624C10.9276 11.8809 10.908 11.8994 10.8884 11.9174C10.8722 11.9319 10.8559 11.9465 10.8396 11.9611C10.8195 11.979 10.7993 11.9964 10.7785 12.0138C10.7617 12.0278 10.7455 12.0418 10.7281 12.0558C10.7073 12.0726 10.6866 12.09 10.6653 12.1063C10.6485 12.1197 10.6311 12.1332 10.6137 12.1466C10.5924 12.1629 10.5706 12.1791 10.5493 12.1954C10.5319 12.2083 10.514 12.2212 10.4966 12.2341C10.4747 12.2498 10.4523 12.2655 10.4299 12.2806C10.4119 12.2929 10.3946 12.3053 10.3766 12.317C10.3536 12.3322 10.3301 12.3473 10.3071 12.3619C10.2892 12.3731 10.2712 12.3849 10.2533 12.3961C10.2365 12.4067 10.2191 12.4163 10.2017 12.4269C10.1204 11.3663 9.88277 10.2682 9.50551 9.21212C10.44 9.00191 11.3884 8.99518 12.2842 9.19474C12.2842 9.19754 12.2842 9.20035 12.2836 9.20259H12.2831ZM9.24317 8.54057C9.11649 8.24067 8.98083 7.9475 8.83508 7.66386C9.77346 7.23727 10.6249 6.66383 11.3313 5.98387C11.912 6.68961 12.25 7.55343 12.3021 8.46882C11.3105 8.26982 10.2668 8.29449 9.24261 8.54057H9.24317ZM3.81081 7.67675C3.82706 7.61117 3.845 7.54558 3.86462 7.48056C3.86798 7.46878 3.87191 7.45645 3.87527 7.44468C3.89489 7.38134 3.91563 7.31855 3.93805 7.25633C3.93973 7.25185 3.94086 7.24793 3.94254 7.24344C3.94534 7.23559 3.94814 7.22774 3.95095 7.2199C3.97393 7.15823 3.99803 7.09769 4.02326 7.03715C4.02718 7.02818 4.03055 7.01978 4.03447 7.01081C4.03503 7.00913 4.03615 7.00745 4.03671 7.0052C4.06306 6.94354 4.09109 6.883 4.1208 6.82302C4.12528 6.81349 4.13033 6.80396 4.13481 6.79387C4.16508 6.73333 4.19647 6.67392 4.22954 6.61506C4.23459 6.60553 4.23963 6.59656 4.24524 6.58759C4.27775 6.53041 4.31195 6.4738 4.34726 6.41774C4.35119 6.41157 4.35511 6.4054 4.35903 6.39924C4.36127 6.39531 4.36408 6.39139 4.36688 6.38747C4.40276 6.33141 4.44031 6.27648 4.47843 6.22267C4.48516 6.21314 4.49245 6.20305 4.49917 6.19352C4.53841 6.13914 4.57933 6.08533 4.62137 6.03264C4.6281 6.02423 4.63539 6.01582 4.64211 6.00741C4.68472 5.95472 4.72844 5.90259 4.77385 5.85158C4.77945 5.84485 4.78562 5.83868 4.79122 5.83195C4.83775 5.77982 4.88596 5.72937 4.93529 5.67948C4.94089 5.67388 4.94594 5.66883 4.95154 5.66323C4.99975 5.61558 5.04852 5.56849 5.09897 5.52309C5.10345 5.51916 5.10794 5.51468 5.11242 5.51076C5.11523 5.50851 5.11747 5.50627 5.12027 5.50403C5.17072 5.45918 5.22229 5.41546 5.27442 5.3723C5.28283 5.36557 5.29124 5.35829 5.29965 5.35156C5.3529 5.30896 5.40671 5.26804 5.46221 5.22768C5.47174 5.22095 5.48127 5.21366 5.49136 5.20694C5.54686 5.16714 5.60347 5.12846 5.66121 5.09146C5.67018 5.08585 5.67971 5.07969 5.68868 5.07409C5.74809 5.03653 5.80808 5.00009 5.86974 4.96533C5.87422 4.96309 5.8787 4.96029 5.88319 4.95805C6.60463 5.58587 7.26552 6.38747 7.81711 7.30286C6.48635 7.77092 5.08103 7.90658 3.80688 7.6902C3.808 7.68516 3.80913 7.68067 3.81025 7.67563L3.81081 7.67675ZM8.20558 4.4115C8.22856 4.41262 8.25154 4.41486 8.27453 4.41598C8.32105 4.41879 8.36702 4.42215 8.41299 4.42608C8.43989 4.42888 8.4668 4.43225 8.49371 4.43505C8.53519 4.43953 8.57667 4.44457 8.61815 4.45074C8.64674 4.45466 8.67477 4.45971 8.70279 4.4642C8.74259 4.47093 8.78183 4.47765 8.82107 4.48494C8.84966 4.49054 8.87825 4.49615 8.90684 4.50231C8.94552 4.51072 8.98419 4.51913 9.02231 4.52866C9.0509 4.53538 9.07893 4.54267 9.10696 4.54996C9.14508 4.56005 9.18319 4.5707 9.22131 4.58191C9.24878 4.58976 9.27625 4.59817 9.30371 4.60658C9.34239 4.61891 9.38107 4.6318 9.41975 4.64526C9.44553 4.65423 9.47132 4.66263 9.4971 4.67216C9.53858 4.68786 9.58007 4.70412 9.62099 4.72093C9.64285 4.7299 9.66471 4.73775 9.68601 4.74728C9.74487 4.7725 9.80317 4.79885 9.86091 4.82632C9.86651 4.82912 9.87268 4.83192 9.87829 4.83473C9.93658 4.86275 9.99432 4.89246 10.0509 4.92329C10.0717 4.9345 10.0919 4.94627 10.112 4.95805C10.1507 4.97991 10.1894 5.00177 10.2281 5.02531C10.2516 5.03932 10.274 5.05446 10.297 5.06904C10.3318 5.0909 10.366 5.11276 10.4002 5.13575C10.4243 5.152 10.4478 5.16882 10.4714 5.18508C10.5039 5.20806 10.5364 5.23104 10.5683 5.25514C10.5919 5.27252 10.6149 5.29046 10.6384 5.3084C10.6698 5.33306 10.7012 5.35772 10.732 5.38351C10.7544 5.40201 10.7769 5.42107 10.7993 5.44012C10.8111 5.45021 10.8228 5.46143 10.8346 5.47152C10.1743 6.10719 9.37322 6.64084 8.48922 7.03604C7.94884 6.1184 7.30308 5.30279 6.59398 4.63853C7.04242 4.48382 7.51217 4.40534 7.99649 4.40534C8.06656 4.40534 8.13607 4.40702 8.20558 4.41038V4.4115ZM3.69533 8.39594C4.12808 8.46882 4.57373 8.50526 5.02553 8.50526C6.06705 8.50526 7.14276 8.31354 8.17083 7.93629C8.30648 8.19695 8.43429 8.46546 8.55313 8.74125C8.49315 8.76143 8.43373 8.78161 8.37431 8.80347C6.86641 9.36123 5.61692 10.354 4.80692 11.6225C4.08828 10.8327 3.683 9.79734 3.683 8.71995C3.683 8.61176 3.68748 8.50357 3.69533 8.39594ZM7.8059 13.029C7.78516 13.0278 7.76442 13.0262 7.74368 13.025C7.70108 13.0228 7.65904 13.02 7.61643 13.0161C7.59177 13.0138 7.56766 13.011 7.543 13.0082C7.50488 13.0043 7.4662 12.9998 7.42809 12.9948C7.4023 12.9914 7.37651 12.9875 7.35073 12.9836C7.31429 12.9779 7.27786 12.9723 7.24142 12.9656C7.21507 12.9611 7.18873 12.9561 7.16294 12.9505C7.12707 12.9432 7.09175 12.9359 7.05644 12.9281C7.03009 12.9225 7.0043 12.9163 6.97852 12.9096C6.9432 12.9011 6.90789 12.8916 6.87313 12.8826C6.84735 12.8759 6.82212 12.8686 6.7969 12.8613C6.76158 12.8513 6.72627 12.84 6.69095 12.8288C6.66629 12.821 6.64218 12.8137 6.61752 12.8053C6.58108 12.793 6.54465 12.7795 6.50877 12.7666C6.48635 12.7582 6.46337 12.7504 6.44094 12.7414C6.4017 12.7263 6.36247 12.71 6.32323 12.6932C6.30473 12.6853 6.28623 12.678 6.26773 12.6702C6.21168 12.6455 6.15618 12.6197 6.10125 12.5928C6.10012 12.5928 6.099 12.5917 6.09788 12.5912C6.04127 12.5637 5.98577 12.5345 5.93028 12.5043C5.91402 12.4953 5.89776 12.4852 5.88095 12.4762C5.84283 12.4549 5.80471 12.4331 5.76715 12.4107C5.74697 12.3983 5.72679 12.3854 5.70661 12.3725C5.67354 12.3518 5.64047 12.3311 5.60796 12.3092C5.58665 12.2952 5.56535 12.28 5.54461 12.2655C5.51378 12.2442 5.48351 12.2229 5.45324 12.2004C5.43138 12.1848 5.41008 12.1685 5.38878 12.1522C5.37252 12.1399 5.35626 12.127 5.34001 12.1141C6.06257 10.9235 7.21844 9.99129 8.62263 9.47166C8.68654 9.44811 8.75156 9.42626 8.81659 9.40439C9.21683 10.5087 9.4545 11.6618 9.50832 12.7599C9.44609 12.7834 9.38331 12.8053 9.32053 12.8255C9.30371 12.8311 9.28633 12.8356 9.26952 12.8406C9.22019 12.8557 9.1703 12.8709 9.12041 12.8843C9.09575 12.8911 9.07052 12.8967 9.04529 12.9034C9.00269 12.914 8.96009 12.9241 8.91693 12.9337C8.89002 12.9398 8.86255 12.9449 8.83508 12.9505C8.7936 12.9589 8.75212 12.9662 8.71008 12.9735C8.68261 12.9779 8.65459 12.9824 8.62656 12.9864C8.58396 12.9925 8.54136 12.9981 8.49819 13.0026C8.47129 13.006 8.44494 13.0088 8.41803 13.0116C8.37094 13.0161 8.32386 13.0194 8.27677 13.0222C8.25379 13.0239 8.23136 13.0256 8.20838 13.0267C8.13831 13.0301 8.06768 13.0323 7.99705 13.0323C7.93315 13.0323 7.86981 13.0306 7.80646 13.0278L7.8059 13.029Z" fill="white"/>
</svg>
