<svg width="16" height="16" viewBox="0 0 16 16" fill="none" xmlns="http://www.w3.org/2000/svg">
<path d="M16.0057 8.00028C16.0057 12.0408 13.0108 15.3811 9.12006 15.9232C8.75628 15.9737 8.38408 16 8.00628 16C7.57018 16 7.14193 15.9652 6.72488 15.898C2.91603 15.2847 0.00683594 11.9819 0.00683594 8.00028C0.00683594 3.58196 3.58867 0 8.00684 0C12.425 0 16.0068 3.58196 16.0068 8.00028H16.0057Z" fill="black"/>
<path d="M9.11998 6.42408V8.16686H11.2758L10.9344 10.5145H9.11998V15.9233C8.75619 15.9737 8.38399 16.0001 8.00619 16.0001C7.57009 16.0001 7.14184 15.9653 6.7248 15.8981V10.5145H4.73657V8.16686H6.7248V6.0345C6.7248 4.71158 7.79711 3.63867 9.12054 3.63867V3.63979C9.12446 3.63979 9.12783 3.63867 9.13175 3.63867H11.2764V5.66901H9.87503C9.45855 5.66901 9.12054 6.00703 9.12054 6.42353L9.11998 6.42408Z" fill="white"/>
</svg>
