<svg width="16" height="16" viewBox="0 0 16 16" fill="none" xmlns="http://www.w3.org/2000/svg">
<path d="M8.02505 0.00683594H7.98862C3.5804 0.00683594 0.00683594 3.5804 0.00683594 7.98862V8.02505C0.00683594 12.4333 3.5804 16.0068 7.98862 16.0068H8.02505C12.4333 16.0068 16.0068 12.4333 16.0068 8.02505V7.98862C16.0068 3.5804 12.4333 0.00683594 8.02505 0.00683594Z" fill="black"/>
<path d="M10.4826 3.26221H5.53174C4.16398 3.26221 3.05127 4.37491 3.05127 5.74268V10.272C3.05127 11.6397 4.16398 12.7524 5.53174 12.7524H10.4826C11.8503 12.7524 12.9631 11.6397 12.9631 10.272V5.74268C12.9631 4.37491 11.8503 3.26221 10.4826 3.26221ZM3.9263 5.74268C3.9263 4.85755 4.64662 4.13724 5.53174 4.13724H10.4826C11.3677 4.13724 12.088 4.85755 12.088 5.74268V10.272C12.088 11.1571 11.3677 11.8774 10.4826 11.8774H5.53174C4.64662 11.8774 3.9263 11.1571 3.9263 10.272V5.74268Z" fill="white"/>
<path d="M8.00721 10.3137C9.27911 10.3137 10.3145 9.27894 10.3145 8.00647C10.3145 6.73401 9.27968 5.69922 8.00721 5.69922C6.73474 5.69922 5.69995 6.73401 5.69995 8.00647C5.69995 9.27894 6.73474 10.3137 8.00721 10.3137ZM8.00721 6.57481C8.79703 6.57481 9.43943 7.21721 9.43943 8.00703C9.43943 8.79686 8.79703 9.43926 8.00721 9.43926C7.21738 9.43926 6.57498 8.79686 6.57498 8.00703C6.57498 7.21721 7.21738 6.57481 8.00721 6.57481Z" fill="white"/>
<path d="M10.5277 6.07193C10.8701 6.07193 11.1492 5.79333 11.1492 5.45027C11.1492 5.10721 10.8707 4.82861 10.5277 4.82861C10.1848 4.82861 9.90625 5.10721 9.90625 5.45027C9.90625 5.79333 10.1848 6.07193 10.5277 6.07193Z" fill="white"/>
</svg>
