<svg width="16" height="17" viewBox="0 0 16 17" fill="none" xmlns="http://www.w3.org/2000/svg">
<path d="M8.02505 0.719727H7.98862C3.58041 0.719727 0.00683594 4.29329 0.00683594 8.70151V8.73795C0.00683594 13.1462 3.58041 16.7197 7.98862 16.7197H8.02505C12.4333 16.7197 16.0068 13.1462 16.0068 8.73795V8.70151C16.0068 4.29329 12.4333 0.719727 8.02505 0.719727Z" fill="black"/>
<path d="M3.82257 6.03755C3.61187 5.84191 3.50708 5.59975 3.50708 5.31163C3.50708 5.0235 3.61243 4.77069 3.82257 4.57449C4.03328 4.37886 4.30451 4.28076 4.63683 4.28076C4.96914 4.28076 5.22973 4.37886 5.43987 4.57449C5.65058 4.77013 5.75537 5.01621 5.75537 5.31163C5.75537 5.60704 5.65002 5.84191 5.43987 6.03755C5.22917 6.23318 4.96185 6.33128 4.63683 6.33128C4.3118 6.33128 4.03328 6.23318 3.82257 6.03755ZM5.57829 7.15978V13.1578H3.6836V7.15978H5.57829Z" fill="white"/>
<path d="M11.888 7.75226C12.3011 8.20071 12.5074 8.8162 12.5074 9.59986V13.0518H10.7075V9.84314C10.7075 9.44795 10.6049 9.14076 10.4003 8.92214C10.1957 8.70352 9.91989 8.59366 9.57459 8.59366C9.22929 8.59366 8.95348 8.70296 8.74888 8.92214C8.54427 9.14076 8.44169 9.44795 8.44169 9.84314V13.0518H6.6311V7.14293H8.44169V7.92659C8.625 7.66537 8.87221 7.45909 9.18276 7.30718C9.49331 7.15527 9.84254 7.07959 10.231 7.07959C10.9227 7.07959 11.4754 7.30381 11.888 7.7517V7.75226Z" fill="white"/>
</svg>
