<svg width="17" height="17" viewBox="0 0 17 17" fill="none" xmlns="http://www.w3.org/2000/svg">
<path d="M8.19766 0.288818H8.16123C3.75301 0.288818 0.179443 3.86238 0.179443 8.2706V8.30704C0.179443 12.7153 3.75301 16.2888 8.16123 16.2888H8.19766C12.6059 16.2888 16.1794 12.7153 16.1794 8.30704V8.2706C16.1794 3.86238 12.6059 0.288818 8.19766 0.288818Z" fill="black"/>
<path d="M8.77379 8.39727C8.77379 9.87504 7.57583 11.073 6.09808 11.073C4.62032 11.073 3.42236 9.87504 3.42236 8.39727C3.42236 6.91951 4.62032 5.72156 6.09808 5.72156C7.57583 5.72156 8.77379 6.91951 8.77379 8.39727Z" fill="white"/>
<path d="M11.679 8.39727C11.679 9.78456 11.0835 10.9092 10.349 10.9092C9.61441 10.9092 9.01893 9.78456 9.01893 8.39727C9.01893 7.00998 9.61441 5.88536 10.349 5.88536C11.0835 5.88536 11.679 7.00998 11.679 8.39727Z" fill="white"/>
<path d="M12.4032 10.641C12.655 10.641 12.8591 9.63644 12.8591 8.39727C12.8591 7.1581 12.655 6.15355 12.4032 6.15355C12.1514 6.15355 11.9472 7.1581 11.9472 8.39727C11.9472 9.63644 12.1514 10.641 12.4032 10.641Z" fill="white"/>
</svg>
