<svg width="16" height="16" viewBox="0 0 16 16" fill="none" xmlns="http://www.w3.org/2000/svg">
<path d="M8.02506 0.00683594H7.98861C3.5804 0.00683594 0.00683594 3.5804 0.00683594 7.98862V8.02505C0.00683594 12.4333 3.5804 16.0068 7.98861 16.0068H8.02506C12.4333 16.0068 16.0068 12.4333 16.0068 8.02505V7.98862C16.0068 3.5804 12.4333 0.00683594 8.02506 0.00683594Z" fill="black"/>
<path d="M3.03728 7.73406C3.0597 7.72285 3.08213 7.7122 3.10399 7.70211C3.48405 7.52609 3.86916 7.36129 4.2537 7.19649C4.27444 7.19649 4.30919 7.17238 4.32881 7.16454C4.35851 7.15164 4.38823 7.13931 4.41794 7.12642C4.47512 7.10175 4.5323 7.07765 4.58891 7.05299C4.70327 7.00422 4.81705 6.95545 4.93141 6.90668L5.61584 6.61351C6.07214 6.41843 6.529 6.2228 6.9853 6.02772C7.44159 5.83265 7.89844 5.63701 8.35474 5.44194C8.81103 5.24687 9.26788 5.05123 9.72418 4.85616C10.1805 4.66109 10.6373 4.46545 11.0936 4.27038C11.1951 4.22665 11.305 4.16163 11.4137 4.14257C11.5051 4.12631 11.5942 4.09492 11.6861 4.07754C11.8605 4.04447 12.0527 4.03102 12.2198 4.10333C12.2775 4.12856 12.3308 4.16387 12.3751 4.20816C12.5869 4.4178 12.5572 4.76198 12.5124 5.05684C12.2002 7.11184 11.8879 9.16741 11.5751 11.2224C11.5325 11.5044 11.4742 11.8138 11.2517 11.9921C11.0633 12.1428 10.7954 12.1597 10.5628 12.0958C10.3301 12.0313 10.125 11.8962 9.92374 11.7634C9.08907 11.2106 8.25384 10.6579 7.41917 10.1052C7.22073 9.97405 6.99987 9.80252 7.00212 9.56428C7.00324 9.42078 7.089 9.29297 7.17644 9.17918C7.9018 8.23296 8.94837 7.58271 9.72698 6.68021C9.83685 6.55297 9.92318 6.32314 9.77239 6.24971C9.6827 6.20598 9.57955 6.2654 9.49771 6.32202C8.46852 7.03673 7.43991 7.752 6.41073 8.46671C6.07495 8.6999 5.72292 8.93982 5.3182 8.997C4.95608 9.04857 4.59172 8.94767 4.24137 8.84453C3.94764 8.7582 3.65445 8.66963 3.3624 8.57826C3.20713 8.53005 3.04681 8.47792 2.92685 8.36861C2.80689 8.2593 2.73795 8.07544 2.81026 7.9297C2.85567 7.83832 2.94368 7.78059 3.03617 7.7335L3.03728 7.73406Z" fill="white"/>
</svg>
