<svg width="16" height="17" viewBox="0 0 16 17" fill="none" xmlns="http://www.w3.org/2000/svg">
<path d="M8.02456 0.289062H7.98813C3.57992 0.289062 0.00634766 3.86263 0.00634766 8.27084V8.30728C0.00634766 12.7155 3.57992 16.2891 7.98813 16.2891H8.02456C12.4328 16.2891 16.0063 12.7155 16.0063 8.30728V8.27084C16.0063 3.86263 12.4328 0.289062 8.02456 0.289062Z" fill="black"/>
<path d="M10.4318 12.9528H8.87432C7.47167 12.9528 6.42653 12.2311 6.42653 10.5043V7.73905H5.15186V6.24186C6.5545 5.87777 7.14105 4.66996 7.20877 3.62451H8.66519V5.9988H10.3646V7.73905H8.66519V10.1472C8.66519 10.8689 9.02917 11.1184 9.60925 11.1184H10.4318V12.9533V12.9528Z" fill="white"/>
</svg>
