<svg width="16" height="16" viewBox="0 0 16 16" fill="none" xmlns="http://www.w3.org/2000/svg">
<path d="M8.02505 0.00683594H7.98862C3.5804 0.00683594 0.00683594 3.5804 0.00683594 7.98862V8.02505C0.00683594 12.4333 3.5804 16.0068 7.98862 16.0068H8.02505C12.4333 16.0068 16.0068 12.4333 16.0068 8.02505V7.98862C16.0068 3.5804 12.4333 0.00683594 8.02505 0.00683594Z" fill="black"/>
<path d="M11.8744 5.79513V7.30583C11.6104 7.28004 11.2673 7.22006 10.8878 7.08105C10.3923 6.89942 10.0234 6.6511 9.78183 6.45882V9.51218L9.77567 9.50265C9.77959 9.56319 9.78183 9.62486 9.78183 9.68708C9.78183 11.2034 8.54804 12.4377 7.03117 12.4377C5.51431 12.4377 4.28052 11.2034 4.28052 9.68708C4.28052 8.17077 5.51431 6.93586 7.03117 6.93586C7.17972 6.93586 7.32547 6.94763 7.46785 6.97061V8.45946C7.33107 8.41069 7.18421 8.38434 7.03117 8.38434C6.3131 8.38434 5.72844 8.96844 5.72844 9.68708C5.72844 10.4057 6.3131 10.9898 7.03117 10.9898C7.74925 10.9898 8.33391 10.4052 8.33391 9.68708C8.33391 9.66017 8.33335 9.63326 8.33167 9.60636V3.67285H9.84125C9.84686 3.80066 9.8519 3.92959 9.85751 4.0574C9.8676 4.30909 9.95728 4.55069 10.1137 4.74856C10.297 4.98119 10.5677 5.25138 10.9478 5.4672C11.3037 5.66844 11.6378 5.75532 11.8744 5.79624V5.79513Z" fill="white"/>
</svg>
