<svg width="17" height="17" viewBox="0 0 17 17" fill="none" xmlns="http://www.w3.org/2000/svg">
<path d="M8.68081 0.28894H8.64438C4.23617 0.28894 0.662598 3.86251 0.662598 8.27072V8.30716C0.662598 12.7154 4.23617 16.2889 8.64438 16.2889H8.68081C13.089 16.2889 16.6626 12.7154 16.6626 8.30716V8.27072C16.6626 3.86251 13.089 0.28894 8.68081 0.28894Z" fill="black"/>
<path d="M13.5554 6.24195C13.5103 7.19049 12.844 8.50038 11.5567 10.1603C10.2242 11.888 9.09503 12.7575 8.18037 12.7575C7.60447 12.7575 7.1302 12.2268 6.73497 11.1766C6.47525 10.2055 6.20424 9.24566 5.94452 8.27454C5.65093 7.22437 5.33475 6.69364 4.99598 6.69364C4.92823 6.69364 4.66851 6.85173 4.22812 7.15661L3.76514 6.55813C4.2507 6.12903 4.72497 5.71122 5.19924 5.28212C5.84289 4.7288 6.32846 4.43521 6.65593 4.40133C7.4125 4.33358 7.88677 4.85302 8.06745 5.95965C8.25941 7.16791 8.39492 7.91319 8.46267 8.20678C8.67722 9.20049 8.92565 9.70864 9.18537 9.70864C9.38863 9.70864 9.69352 9.38117 10.1113 8.73752C10.5178 8.09386 10.7437 7.59701 10.7663 7.25824C10.8227 6.70493 10.6082 6.42262 10.1113 6.42262C9.87419 6.42262 9.63706 6.47909 9.38863 6.58071C9.87419 4.99981 10.7889 4.24324 12.1439 4.28841C13.1376 4.31099 13.6119 4.96594 13.5554 6.24195Z" fill="white"/>
</svg>
