<svg width="16" height="17" viewBox="0 0 16 17" fill="none" xmlns="http://www.w3.org/2000/svg">
<path d="M8.02163 0.288818H7.9852C3.57699 0.288818 0.00341797 3.86238 0.00341797 8.2706V8.30704C0.00341797 12.7153 3.57699 16.2888 7.9852 16.2888H8.02163C12.4298 16.2888 16.0034 12.7153 16.0034 8.30704V8.2706C16.0034 3.86238 12.4298 0.288818 8.02163 0.288818Z" fill="black"/>
<path d="M8.41068 11.5497C5.29502 11.5497 3.51789 9.37133 3.44385 5.74658H5.00453C5.05579 8.40706 6.20636 9.53398 7.11771 9.76634V5.74658H8.58725V8.0411C9.4872 7.94235 10.4327 6.89674 10.7517 5.74658H12.2212C12.101 6.34309 11.8614 6.90789 11.5174 7.40564C11.1734 7.9034 10.7324 8.32342 10.222 8.63941C10.7917 8.92815 11.295 9.33683 11.6985 9.83848C12.1021 10.3401 12.3967 10.9234 12.563 11.5497H10.9454C10.7961 11.0057 10.4927 10.5187 10.0732 10.1498C9.65373 9.78091 9.13681 9.54648 8.58725 9.47589V11.5497H8.41068Z" fill="white"/>
</svg>
