<svg width="16" height="16" viewBox="0 0 16 16" fill="none" xmlns="http://www.w3.org/2000/svg">
<path d="M8.02505 0.00683594H7.98862C3.5804 0.00683594 0.00683594 3.5804 0.00683594 7.98862V8.02505C0.00683594 12.4333 3.5804 16.0068 7.98862 16.0068H8.02505C12.4333 16.0068 16.0068 12.4333 16.0068 8.02505V7.98862C16.0068 3.5804 12.4333 0.00683594 8.02505 0.00683594Z" fill="black"/>
<path d="M9.56606 10.3468C7.51835 10.3468 5.85237 8.6803 5.85181 6.63258C5.85237 6.11351 6.27503 5.69141 6.79299 5.69141C6.84624 5.69141 6.89893 5.69589 6.94938 5.70486C7.06037 5.72336 7.16576 5.76092 7.26273 5.81753C7.27675 5.82594 7.28627 5.8394 7.28852 5.85509L7.50489 7.21893C7.50769 7.23462 7.50265 7.25088 7.492 7.26265C7.3726 7.39494 7.22013 7.49024 7.05028 7.53788L6.96844 7.56087L6.99927 7.63991C7.27842 8.35069 7.84683 8.91854 8.55818 9.19882L8.63722 9.23021L8.6602 9.14837C8.70785 8.97852 8.80314 8.82605 8.93543 8.70665C8.94496 8.69768 8.95786 8.69319 8.97075 8.69319C8.97355 8.69319 8.97636 8.69319 8.97972 8.69375L10.3436 8.91013C10.3598 8.91293 10.3733 8.9219 10.3817 8.93591C10.4377 9.03289 10.4753 9.13884 10.4943 9.24983C10.5033 9.29916 10.5072 9.35129 10.5072 9.40566C10.5072 9.92418 10.0851 10.3463 9.56606 10.3468Z" fill="white"/>
<path d="M13.1973 7.55777C13.0868 6.30996 12.5151 5.15241 11.5873 4.29868C10.654 3.43991 9.44321 2.9668 8.17691 2.9668C5.39766 2.9668 3.13638 5.22809 3.13638 8.00733C3.13638 8.9401 3.39367 9.84876 3.88079 10.6403L2.79443 13.0451L6.2727 12.6745C6.87754 12.9223 7.51769 13.0479 8.17635 13.0479C8.34956 13.0479 8.52726 13.0389 8.70552 13.0204C8.86247 13.0036 9.02111 12.9789 9.17695 12.9475C11.5044 12.4772 13.2034 10.4116 13.2169 8.03424V8.00733C13.2169 7.85598 13.2102 7.70463 13.1967 7.55832L13.1973 7.55777ZM6.40667 11.619L4.48228 11.8242L5.05685 10.5511L4.94193 10.397C4.93353 10.3858 4.92512 10.3746 4.91559 10.3617C4.41669 9.67275 4.15322 8.85882 4.15322 8.00789C4.15322 5.7892 5.95822 3.98421 8.17691 3.98421C10.2555 3.98421 12.0173 5.6059 12.1871 7.67604C12.1961 7.78703 12.2012 7.89858 12.2012 8.00845C12.2012 8.03984 12.2006 8.07068 12.2 8.10375C12.1574 9.95976 10.8609 11.536 9.0469 11.9374C8.90844 11.9682 8.76662 11.9918 8.62536 12.0069C8.47849 12.0237 8.3277 12.0321 8.17803 12.0321C7.64494 12.0321 7.12699 11.929 6.63762 11.7249C6.58325 11.7031 6.52999 11.6795 6.4801 11.6554L6.40723 11.6201L6.40667 11.619Z" fill="white"/>
</svg>
