<svg width="16" height="16" viewBox="0 0 16 16" fill="none" xmlns="http://www.w3.org/2000/svg">
<path d="M16.0057 8.00028C16.0057 12.0408 13.0108 15.3811 9.12006 15.9232C8.75628 15.9737 8.38408 16 8.00628 16C7.57018 16 7.14193 15.9652 6.72489 15.898C2.91603 15.2847 0.00683594 11.9819 0.00683594 8.00028C0.00683594 3.58196 3.58867 0 8.00684 0C12.425 0 16.0068 3.58196 16.0068 8.00028H16.0057Z" fill="black"/>
<path d="M3.25101 3.52881L6.94047 8.46172L3.22803 12.4725H4.06379L7.31435 8.96117L9.94047 12.4725H12.7841L8.88722 7.26212L12.3429 3.52881H11.5072L8.5139 6.76267L6.09518 3.52881H3.25157H3.25101ZM4.47971 4.1443H5.78576L11.5543 11.857H10.2482L4.47971 4.1443Z" fill="white"/>
</svg>
