<svg width="16" height="17" viewBox="0 0 16 17" fill="none" xmlns="http://www.w3.org/2000/svg">
<path d="M16.0068 8.29053C16.0068 3.87225 12.4251 0.290527 8.00684 0.290527C3.58856 0.290527 0.00683594 3.87225 0.00683594 8.29053C0.00683594 12.7088 3.58856 16.2905 8.00684 16.2905C12.4251 16.2905 16.0068 12.7088 16.0068 8.29053Z" fill="black"/>
<path d="M13.0441 6.63263C12.9812 6.02495 12.8457 5.35318 12.3471 5.00014C11.9609 4.72637 11.4533 4.71625 10.9794 4.71682C9.9776 4.71682 8.97528 4.7185 7.97353 4.71907C7.01 4.72019 6.04646 4.72075 5.08293 4.72188C4.68043 4.72188 4.28917 4.69096 3.91534 4.86523C3.59435 5.01476 3.34307 5.29921 3.19185 5.6157C2.98216 6.05587 2.93832 6.5545 2.91302 7.04132C2.86636 7.92784 2.87142 8.8166 2.92708 9.70255C2.96811 10.349 3.07211 11.0635 3.57186 11.4756C4.01484 11.8404 4.63995 11.8584 5.21447 11.859C7.0381 11.8607 8.86229 11.8623 10.6865 11.8635C10.9203 11.864 11.1643 11.8595 11.4027 11.8337C11.8715 11.7831 12.3184 11.6487 12.6197 11.3013C12.9238 10.9511 13.002 10.4637 13.0481 10.0022C13.1605 8.88237 13.1594 7.75188 13.0441 6.63263ZM6.91893 9.85996V6.72033L9.63751 8.28986L6.91893 9.85996Z" fill="white"/>
</svg>
